999
dxflib 3.17.0.0
  0
SECTION
  2
HEADER
  9
$ACADVER
  1
AC1015
  9
$HANDSEED
  5
FFFF
  9
$DIMADEC
 70
0
  9
$DIMASZ
 40
2.5
  9
$DIMAUNIT
 70
0
  9
$DIMAZIN
 70
2
  9
$DIMDEC
 70
4
  9
$DIMDSEP
 70
46
  9
$DIMEXE
 40
1.25
  9
$DIMEXO
 40
0.625
  9
$DIMGAP
 40
0.625
  9
$DIMLUNIT
 70
2
  9
$DIMSCALE
 40
1.0
  9
$DIMTSZ
 40
0.0
  9
$DIMTXT
 40
2.5
  9
$DIMZIN
 70
8
  9
$DWGCODEPAGE
  3
ANSI_1252
  9
$INSUNITS
 70
4
  9
$LTSCALE
 40
1.0
  9
$MAXACTVP
 70
64
  9
$MEASUREMENT
 70
1
  9
$PDMODE
 70
0
  9
$PDSIZE
 40
0.0
  0
ENDSEC
  0
SECTION
  2
TABLES
  0
TABLE
  2
VPORT
  5
8
100
AcDbSymbolTable
 70
1
  0
VPORT
  5
30
100
AcDbSymbolTableRecord
100
AcDbViewportTableRecord
  2
*Active
 70
0
 10
0.0
 20
0.0
 11
1.0
 21
1.0
 12
286.3055555555554861
 22
148.5
 13
0.0
 23
0.0
 14
10.0
 24
10.0
 15
10.0
 25
10.0
 16
0.0
 26
0.0
 36
1.0
 17
0.0
 27
0.0
 37
0.0
 40
297.0
 41
1.92798353909465
 42
50.0
 43
0.0
 44
0.0
 50
0.0
 51
0.0
 71
0
 72
100
 73
1
 74
3
 75
1
 76
1
 77
0
 78
0
281
0
 65
1
110
0.0
120
0.0
130
0.0
111
1.0
121
0.0
131
0.0
112
0.0
122
1.0
132
0.0
 79
0
146
0.0
  0
ENDTAB
  0
TABLE
  2
LTYPE
  5
5
100
AcDbSymbolTable
 70
41
  0
LTYPE
  5
16
100
AcDbSymbolTableRecord
100
AcDbLinetypeTableRecord
  2
Continuous
 70
0
  3
Solid line
 72
65
 73
0
 40
0.0
  0
LTYPE
  5
31
100
AcDbSymbolTableRecord
100
AcDbLinetypeTableRecord
  2
DIVIDEX2
 70
0
  3
Divide (2x) ________  .  .  ________  .  .  _
 72
65
 73
6
 40
63.5
 49
25.3999999999999986
 74
0
 49
-12.6499999999999986
 74
0
 49
0.1
 74
0
 49
-12.5999999999999979
 74
0
 49
0.1
 74
0
 49
-12.6499999999999986
 74
0
  0
LTYPE
  5
32
100
AcDbSymbolTableRecord
100
AcDbLinetypeTableRecord
  2
ACAD_ISO09W100
 70
0
  3
ISO long-dash double-short-dash ____ __ __ ____
 72
65
 73
6
 40
45.0
 49
24.0
 74
0
 49
-3.0
 74
0
 49
6.0
 74
0
 49
-3.0
 74
0
 49
6.0
 74
0
 49
-3.0
 74
0
  0
LTYPE
  5
33
100
AcDbSymbolTableRecord
100
AcDbLinetypeTableRecord
  2
DASHED
 70
0
  3
Dashed __ __ __ __ __ __ __ __ __ __ __ __ __ _
 72
65
 73
2
 40
19.0499999999999972
 49
12.6999999999999993
 74
0
 49
-6.3499999999999996
 74
0
  0
LTYPE
  5
34
100
AcDbSymbolTableRecord
100
AcDbLinetypeTableRecord
  2
ACAD_ISO04W100
 70
0
  3
ISO long-dash dot ____ . ____ . ____ . ____ . _
 72
65
 73
4
 40
30.0
 49
24.0
 74
0
 49
-2.9500000000000002
 74
0
 49
0.1
 74
0
 49
-2.9500000000000002
 74
0
  0
LTYPE
  5
35
100
AcDbSymbolTableRecord
100
AcDbLinetypeTableRecord
  2
ACAD_ISO08W100
 70
0
  3
ISO long-dash short-dash ____ __ ____ __ ____ _
 72
65
 73
4
 40
36.0
 49
24.0
 74
0
 49
-3.0
 74
0
 49
6.0
 74
0
 49
-3.0
 74
0
  0
LTYPE
  5
36
100
AcDbSymbolTableRecord
100
AcDbLinetypeTableRecord
  2
HIDDEN
 70
0
  3
Hidden __ __ __ __ __ __ __ __ __ __ __ __ __ __
 72
65
 73
2
 40
9.5249999999999986
 49
6.3499999999999996
 74
0
 49
-3.1749999999999998
 74
0
  0
LTYPE
  5
15
100
AcDbSymbolTableRecord
100
AcDbLinetypeTableRecord
  2
BYLAYER
 70
0
  3

 72
65
 73
0
 40
0.0
  0
LTYPE
  5
37
100
AcDbSymbolTableRecord
100
AcDbLinetypeTableRecord
  2
CENTERX2
 70
0
  3
Center (2x) ________  __  ________  __  _____
 72
65
 73
4
 40
101.6000000000000085
 49
63.5
 74
0
 49
-12.6999999999999993
 74
0
 49
12.6999999999999993
 74
0
 49
-12.6999999999999993
 74
0
  0
LTYPE
  5
38
100
AcDbSymbolTableRecord
100
AcDbLinetypeTableRecord
  2
ACAD_ISO05W100
 70
0
  3
ISO long-dash double-dot ____ .. ____ .. ____ . 
 72
65
 73
6
 40
33.0000000000000071
 49
24.0
 74
0
 49
-2.9500000000000002
 74
0
 49
0.1
 74
0
 49
-2.9000000000000004
 74
0
 49
0.1
 74
0
 49
-2.9500000000000002
 74
0
  0
LTYPE
  5
39
100
AcDbSymbolTableRecord
100
AcDbLinetypeTableRecord
  2
DASHDOT2
 70
0
  3
Dash dot (.5x) _._._._._._._._._._._._._._._.
 72
65
 73
4
 40
12.6999999999999993
 49
6.3499999999999996
 74
0
 49
-3.125
 74
0
 49
0.1
 74
0
 49
-3.125
 74
0
  0
LTYPE
  5
14
100
AcDbSymbolTableRecord
100
AcDbLinetypeTableRecord
  2
BYBLOCK
 70
0
  3

 72
65
 73
0
 40
0.0
  0
LTYPE
  5
3A
100
AcDbSymbolTableRecord
100
AcDbLinetypeTableRecord
  2
PHANTOM
 70
0
  3
Phantom ______  __  __  ______  __  __  ______ 
 72
65
 73
6
 40
63.5000000000000071
 49
31.75
 74
0
 49
-6.3499999999999996
 74
0
 49
6.3499999999999996
 74
0
 49
-6.3499999999999996
 74
0
 49
6.3499999999999996
 74
0
 49
-6.3499999999999996
 74
0
  0
LTYPE
  5
3B
100
AcDbSymbolTableRecord
100
AcDbLinetypeTableRecord
  2
BORDER
 70
0
  3
Border __ __ . __ __ . __ __ . __ __ . __ __ .
 72
65
 73
6
 40
44.4499999999999957
 49
12.6999999999999993
 74
0
 49
-6.3499999999999996
 74
0
 49
12.6999999999999993
 74
0
 49
-6.2999999999999998
 74
0
 49
0.1
 74
0
 49
-6.2999999999999998
 74
0
  0
LTYPE
  5
3C
100
AcDbSymbolTableRecord
100
AcDbLinetypeTableRecord
  2
DIVIDE2
 70
0
  3
Divide (.5x) __..__..__..__..__..__..__..__.._
 72
65
 73
6
 40
15.8749999999999982
 49
6.3499999999999996
 74
0
 49
-3.125
 74
0
 49
0.1
 74
0
 49
-3.0750000000000002
 74
0
 49
0.1
 74
0
 49
-3.125
 74
0
  0
LTYPE
  5
3D
100
AcDbSymbolTableRecord
100
AcDbLinetypeTableRecord
  2
DOTX2
 70
0
  3
Dot (2x) .  .  .  .  .  .  .  .  .  .  .  .  .  .
 72
65
 73
2
 40
12.6999999999999993
 49
0.1
 74
0
 49
-12.5999999999999996
 74
0
  0
LTYPE
  5
3E
100
AcDbSymbolTableRecord
100
AcDbLinetypeTableRecord
  2
DASHDOT
 70
0
  3
Dash dot __ . __ . __ . __ . __ . __ . __ . __
 72
65
 73
4
 40
25.4000000000000021
 49
12.6999999999999993
 74
0
 49
-6.2999999999999998
 74
0
 49
0.1
 74
0
 49
-6.2999999999999998
 74
0
  0
LTYPE
  5
3F
100
AcDbSymbolTableRecord
100
AcDbLinetypeTableRecord
  2
ACAD_ISO03W100
 70
0
  3
ISO dash space __    __    __    __    __    __
 72
65
 73
2
 40
30.0
 49
12.0
 74
0
 49
-18.0
 74
0
  0
LTYPE
  5
40
100
AcDbSymbolTableRecord
100
AcDbLinetypeTableRecord
  2
ACAD_ISO07W100
 70
0
  3
ISO dot . . . . . . . . . . . . . . . . . . . . 
 72
65
 73
2
 40
3.0
 49
0.1
 74
0
 49
-2.8999999999999999
 74
0
  0
LTYPE
  5
41
100
AcDbSymbolTableRecord
100
AcDbLinetypeTableRecord
  2
ACAD_ISO14W100
 70
0
  3
ISO dash triple-dot __ . . . __ . . . __ . . . _
 72
65
 73
8
 40
24.0000000000000036
 49
12.0
 74
0
 49
-2.9500000000000002
 74
0
 49
0.1
 74
0
 49
-2.9000000000000004
 74
0
 49
0.1
 74
0
 49
-2.9000000000000004
 74
0
 49
0.1
 74
0
 49
-2.9500000000000002
 74
0
  0
LTYPE
  5
42
100
AcDbSymbolTableRecord
100
AcDbLinetypeTableRecord
  2
CENTER2
 70
0
  3
Center (.5x) ___ _ ___ _ ___ _ ___ _ ___ _ ___
 72
65
 73
4
 40
28.5750000000000028
 49
19.0500000000000007
 74
0
 49
-3.1749999999999998
 74
0
 49
3.1749999999999998
 74
0
 49
-3.1749999999999998
 74
0
  0
LTYPE
  5
43
100
AcDbSymbolTableRecord
100
AcDbLinetypeTableRecord
  2
PHANTOM2
 70
0
  3
Phantom (.5x) ___ _ _ ___ _ _ ___ _ _ ___ _ _
 72
65
 73
6
 40
31.7500000000000036
 49
15.875
 74
0
 49
-3.1749999999999998
 74
0
 49
3.1749999999999998
 74
0
 49
-3.1749999999999998
 74
0
 49
3.1749999999999998
 74
0
 49
-3.1749999999999998
 74
0
  0
LTYPE
  5
44
100
AcDbSymbolTableRecord
100
AcDbLinetypeTableRecord
  2
ACAD_ISO12W100
 70
0
  3
ISO dash double-dot __ . . __ . . __ . . __ . . 
 72
65
 73
6
 40
21.0
 49
12.0
 74
0
 49
-2.9500000000000002
 74
0
 49
0.1
 74
0
 49
-2.9000000000000004
 74
0
 49
0.1
 74
0
 49
-2.9500000000000002
 74
0
  0
LTYPE
  5
45
100
AcDbSymbolTableRecord
100
AcDbLinetypeTableRecord
  2
DOT2
 70
0
  3
Dot (.5x) ........................................
 72
65
 73
2
 40
3.1749999999999998
 49
0.1
 74
0
 49
-3.0749999999999997
 74
0
  0
LTYPE
  5
46
100
AcDbSymbolTableRecord
100
AcDbLinetypeTableRecord
  2
DASHEDX2
 70
0
  3
Dashed (2x) ____  ____  ____  ____  ____  ___
 72
65
 73
2
 40
38.0999999999999943
 49
25.3999999999999986
 74
0
 49
-12.6999999999999993
 74
0
  0
LTYPE
  5
47
100
AcDbSymbolTableRecord
100
AcDbLinetypeTableRecord
  2
PHANTOMX2
 70
0
  3
Phantom (2x) ____________    ____    ____   _
 72
65
 73
6
 40
127.0000000000000142
 49
63.5
 74
0
 49
-12.6999999999999993
 74
0
 49
12.6999999999999993
 74
0
 49
-12.6999999999999993
 74
0
 49
12.6999999999999993
 74
0
 49
-12.6999999999999993
 74
0
  0
LTYPE
  5
48
100
AcDbSymbolTableRecord
100
AcDbLinetypeTableRecord
  2
BORDER2
 70
0
  3
Border (.5x) __.__.__.__.__.__.__.__.__.__.__.
 72
65
 73
6
 40
22.2250000000000014
 49
6.3499999999999996
 74
0
 49
-3.1749999999999998
 74
0
 49
6.3499999999999996
 74
0
 49
-3.125
 74
0
 49
0.1
 74
0
 49
-3.125
 74
0
  0
LTYPE
  5
49
100
AcDbSymbolTableRecord
100
AcDbLinetypeTableRecord
  2
HIDDEN2
 70
0
  3
Hidden (.5x) _ _ _ _ _ _ _ _ _ _ _ _ _ _ _ _ _ 
 72
65
 73
2
 40
4.7624999999999993
 49
3.1749999999999998
 74
0
 49
-1.5874999999999999
 74
0
  0
LTYPE
  5
4A
100
AcDbSymbolTableRecord
100
AcDbLinetypeTableRecord
  2
CENTER
 70
0
  3
Center ____ _ ____ _ ____ _ ____ _ ____ _ ____
 72
65
 73
4
 40
50.8000000000000043
 49
31.75
 74
0
 49
-6.3499999999999996
 74
0
 49
6.3499999999999996
 74
0
 49
-6.3499999999999996
 74
0
  0
LTYPE
  5
4B
100
AcDbSymbolTableRecord
100
AcDbLinetypeTableRecord
  2
DIVIDE
 70
0
  3
Divide ____ . . ____ . . ____ . . ____ . . ____
 72
65
 73
6
 40
31.7500000000000036
 49
12.6999999999999993
 74
0
 49
-6.2999999999999998
 74
0
 49
0.1
 74
0
 49
-6.25
 74
0
 49
0.1
 74
0
 49
-6.2999999999999998
 74
0
  0
LTYPE
  5
4C
100
AcDbSymbolTableRecord
100
AcDbLinetypeTableRecord
  2
ACAD_ISO10W100
 70
0
  3
ISO dash dot __ . __ . __ . __ . __ . __ . __ . 
 72
65
 73
4
 40
18.0
 49
12.0
 74
0
 49
-2.9500000000000002
 74
0
 49
0.1
 74
0
 49
-2.9500000000000002
 74
0
  0
LTYPE
  5
4D
100
AcDbSymbolTableRecord
100
AcDbLinetypeTableRecord
  2
DOT
 70
0
  3
Dot . . . . . . . . . . . . . . . . . . . . . . . .
 72
65
 73
2
 40
6.3499999999999996
 49
0.1
 74
0
 49
-6.25
 74
0
  0
LTYPE
  5
4E
100
AcDbSymbolTableRecord
100
AcDbLinetypeTableRecord
  2
ACAD_ISO13W100
 70
0
  3
ISO double-dash double-dot __ __ . . __ __ . . _
 72
65
 73
8
 40
36.0000000000000071
 49
12.0
 74
0
 49
-3.0
 74
0
 49
12.0
 74
0
 49
-2.9500000000000002
 74
0
 49
0.1
 74
0
 49
-2.9000000000000004
 74
0
 49
0.1
 74
0
 49
-2.9500000000000002
 74
0
  0
LTYPE
  5
4F
100
AcDbSymbolTableRecord
100
AcDbLinetypeTableRecord
  2
ACAD_ISO06W100
 70
0
  3
ISO long-dash triple-dot ____ ... ____ ... ____
 72
65
 73
8
 40
36.0000000000000071
 49
24.0
 74
0
 49
-2.9500000000000002
 74
0
 49
0.1
 74
0
 49
-2.9000000000000004
 74
0
 49
0.1
 74
0
 49
-2.9000000000000004
 74
0
 49
0.1
 74
0
 49
-2.9500000000000002
 74
0
  0
LTYPE
  5
50
100
AcDbSymbolTableRecord
100
AcDbLinetypeTableRecord
  2
ACAD_ISO02W100
 70
0
  3
ISO dash __ __ __ __ __ __ __ __ __ __ __ __ __
 72
65
 73
2
 40
15.0
 49
12.0
 74
0
 49
-3.0
 74
0
  0
LTYPE
  5
51
100
AcDbSymbolTableRecord
100
AcDbLinetypeTableRecord
  2
ACAD_ISO11W100
 70
0
  3
ISO double-dash dot __ __ . __ __ . __ __ . __ _
 72
65
 73
6
 40
33.0
 49
12.0
 74
0
 49
-3.0
 74
0
 49
12.0
 74
0
 49
-2.9500000000000002
 74
0
 49
0.1
 74
0
 49
-2.9500000000000002
 74
0
  0
LTYPE
  5
52
100
AcDbSymbolTableRecord
100
AcDbLinetypeTableRecord
  2
DASHDOTX2
 70
0
  3
Dash dot (2x) ____  .  ____  .  ____  .  ___
 72
65
 73
4
 40
50.7999999999999972
 49
25.3999999999999986
 74
0
 49
-12.6499999999999986
 74
0
 49
0.1
 74
0
 49
-12.6499999999999986
 74
0
  0
LTYPE
  5
53
100
AcDbSymbolTableRecord
100
AcDbLinetypeTableRecord
  2
ACAD_ISO15W100
 70
0
  3
ISO double-dash triple-dot __ __ . . . __ __ . .
 72
65
 73
10
 40
39.0000000000000071
 49
12.0
 74
0
 49
-3.0
 74
0
 49
12.0
 74
0
 49
-2.9500000000000002
 74
0
 49
0.1
 74
0
 49
-2.9000000000000004
 74
0
 49
0.1
 74
0
 49
-2.9000000000000004
 74
0
 49
0.1
 74
0
 49
-2.9500000000000002
 74
0
  0
LTYPE
  5
54
100
AcDbSymbolTableRecord
100
AcDbLinetypeTableRecord
  2
DASHED2
 70
0
  3
Dashed (.5x) _ _ _ _ _ _ _ _ _ _ _ _ _ _ _ _ _ 
 72
65
 73
2
 40
9.5249999999999986
 49
6.3499999999999996
 74
0
 49
-3.1749999999999998
 74
0
  0
LTYPE
  5
55
100
AcDbSymbolTableRecord
100
AcDbLinetypeTableRecord
  2
HIDDENX2
 70
0
  3
Hidden (2x) ____ ____ ____ ____ ____ ____ ____ 
 72
65
 73
2
 40
19.0499999999999972
 49
12.6999999999999993
 74
0
 49
-6.3499999999999996
 74
0
  0
LTYPE
  5
56
100
AcDbSymbolTableRecord
100
AcDbLinetypeTableRecord
  2
BORDERX2
 70
0
  3
Border (2x) ____  ____  .  ____  ____  .  ___
 72
65
 73
6
 40
88.8999999999999773
 49
25.3999999999999986
 74
0
 49
-12.6999999999999993
 74
0
 49
25.3999999999999986
 74
0
 49
-12.6499999999999986
 74
0
 49
0.1
 74
0
 49
-12.6499999999999986
 74
0
  0
ENDTAB
  0
TABLE
  2
LAYER
  5
2
100
AcDbSymbolTable
 70
4
  0
LAYER
  5
57
100
AcDbSymbolTableRecord
100
AcDbLayerTableRecord
  2
int
 70
0
 62
3
420
65280
  6
Continuous
370
0
390
F
  0
LAYER
  5
10
100
AcDbSymbolTableRecord
100
AcDbLayerTableRecord
  2
0
 70
0
 62
7
420
16777215
  6
Continuous
370
0
390
F
  0
LAYER
  5
58
100
AcDbSymbolTableRecord
100
AcDbLayerTableRecord
  2
constr
 70
0
 62
30
420
16744192
  6
Continuous
370
0
390
F
  0
LAYER
  5
59
100
AcDbSymbolTableRecord
100
AcDbLayerTableRecord
  2
ext
 70
0
 62
1
420
16711680
  6
Continuous
370
0
390
F
  0
ENDTAB
  0
TABLE
  2
STYLE
  5
3
100
AcDbSymbolTable
 70
1
  0
STYLE
  5
5A
100
AcDbSymbolTableRecord
100
AcDbTextStyleTableRecord
  2
Standard
 70
0
 40
0.0
 41
1.0
 50
0.0
 71
0
 42
2.5
  3

  4

1001
ACAD
1000
txt
1071
0
  0
ENDTAB
  0
TABLE
  2
VIEW
  5
6
100
AcDbSymbolTable
 70
0
  0
ENDTAB
  0
TABLE
  2
UCS
  5
7
100
AcDbSymbolTable
 70
0
  0
ENDTAB
  0
TABLE
  2
APPID
  5
9
100
AcDbSymbolTable
 70
1
  0
APPID
  5
12
100
AcDbSymbolTableRecord
100
AcDbRegAppTableRecord
  2
ACAD
 70
0
  0
APPID
  5
5B
100
AcDbSymbolTableRecord
100
AcDbRegAppTableRecord
  2
QCAD
 70
0
  0
ENDTAB
  0
TABLE
  2
DIMSTYLE
  5
A
100
AcDbSymbolTable
 70
1
100
AcDbDimStyleTable
 71
0
  0
DIMSTYLE
105
27
100
AcDbSymbolTableRecord
100
AcDbDimStyleTableRecord
  2
Standard
 41
2.5
 42
0.625
 43
3.75
 44
1.25
 70
0
 73
0
 74
0
 77
1
 78
8
140
2.5
141
2.5
143
0.03937007874016
147
0.625
171
3
172
1
271
2
272
2
274
3
278
44
283
0
284
8
340
5A
  0
ENDTAB
  0
TABLE
  2
BLOCK_RECORD
  5
1
100
AcDbSymbolTable
 70
1
  0
BLOCK_RECORD
  5
1F
100
AcDbSymbolTableRecord
100
AcDbBlockTableRecord
  2
*Model_Space
340
22
  0
BLOCK_RECORD
  5
1B
100
AcDbSymbolTableRecord
100
AcDbBlockTableRecord
  2
*Paper_Space
340
1E
  0
BLOCK_RECORD
  5
23
100
AcDbSymbolTableRecord
100
AcDbBlockTableRecord
  2
*Paper_Space0
340
26
  0
BLOCK_RECORD
  5
5C
100
AcDbSymbolTableRecord
100
AcDbBlockTableRecord
  2
pinc3
340
0
  0
BLOCK_RECORD
  5
5D
100
AcDbSymbolTableRecord
100
AcDbBlockTableRecord
  2
pince2
340
0
  0
BLOCK_RECORD
  5
5E
100
AcDbSymbolTableRecord
100
AcDbBlockTableRecord
  2
douille
340
0
  0
BLOCK_RECORD
  5
5F
100
AcDbSymbolTableRecord
100
AcDbBlockTableRecord
  2
pincwork
340
0
  0
BLOCK_RECORD
  5
60
100
AcDbSymbolTableRecord
100
AcDbBlockTableRecord
  2
rond_centre
340
0
  0
BLOCK_RECORD
  5
61
100
AcDbSymbolTableRecord
100
AcDbBlockTableRecord
  2
raccord
340
0
  0
ENDTAB
  0
ENDSEC
  0
SECTION
  2
BLOCKS
  0
BLOCK
  5
20
100
AcDbEntity
  8
0
100
AcDbBlockBegin
  2
*Model_Space
 70
0
 10
0.0
 20
0.0
 30
0.0
  3
*Model_Space
  1

  0
ENDBLK
  5
21
100
AcDbEntity
  8
0
100
AcDbBlockEnd
  0
BLOCK
  5
1C
100
AcDbEntity
 67
1
  8
0
100
AcDbBlockBegin
  2
*Paper_Space
 70
0
 10
0.0
 20
0.0
 30
0.0
  3
*Paper_Space
  1

  0
ENDBLK
  5
1D
100
AcDbEntity
 67
1
  8
0
100
AcDbBlockEnd
  0
BLOCK
  5
24
100
AcDbEntity
  8
0
100
AcDbBlockBegin
  2
*Paper_Space0
 70
0
 10
0.0
 20
0.0
 30
0.0
  3
*Paper_Space0
  1

  0
ENDBLK
  5
25
100
AcDbEntity
  8
0
100
AcDbBlockEnd
  0
BLOCK
  5
62
100
AcDbEntity
  8
0
100
AcDbBlockBegin
  2
pinc3
 70
0
 10
0.0
 20
0.0
 30
0.0
  3
pinc3
  1

  0
LINE
  5
63
100
AcDbEntity
  8
ext
 62
256
370
-1
 48
1.0
  6
BYLAYER
100
AcDbLine
 10
78.0
 20
-26.5
 30
0.0
 11
78.0
 21
-25.0
 31
0.0
  0
LINE
  5
64
100
AcDbEntity
  8
ext
 62
256
370
-1
 48
1.0
  6
BYLAYER
100
AcDbLine
 10
78.0
 20
26.5
 30
0.0
 11
78.0
 21
25.0
 31
0.0
  0
LINE
  5
65
100
AcDbEntity
  8
ext
 62
256
370
-1
 48
1.0
  6
BYLAYER
100
AcDbLine
 10
59.0
 20
-22.5
 30
0.0
 11
60.1826681522043145
 21
-23.8516207453763514
 31
0.0
  0
LINE
  5
66
100
AcDbEntity
  8
ext
 62
256
370
-1
 48
1.0
  6
BYLAYER
100
AcDbLine
 10
59.0
 20
22.5
 30
0.0
 11
60.1826681522043145
 21
23.8516207453763514
 31
0.0
  0
LINE
  5
67
100
AcDbEntity
  8
ext
 62
256
370
-1
 48
1.0
  6
BYLAYER
100
AcDbLine
 10
71.5352367665459496
 20
-23.9647632334540646
 30
0.0
 11
73.0
 21
-22.5
 31
0.0
  0
LINE
  5
68
100
AcDbEntity
  8
ext
 62
256
370
-1
 48
1.0
  6
BYLAYER
100
AcDbLine
 10
71.5352367665459496
 20
23.9647632334540646
 30
0.0
 11
73.0
 21
22.5
 31
0.0
  0
LINE
  5
69
100
AcDbEntity
  8
ext
 62
256
370
-1
 48
1.0
  6
BYLAYER
100
AcDbLine
 10
81.8007596230173704
 20
27.7030384920694388
 30
0.0
 11
82.6921083845945759
 21
31.2684335383783321
 31
0.0
  0
LINE
  5
6A
100
AcDbEntity
  8
ext
 62
256
370
-1
 48
1.0
  6
BYLAYER
100
AcDbLine
 10
81.8007596230173704
 20
-27.7030384920694388
 30
0.0
 11
82.6921083845945759
 21
-31.2684335383783321
 31
0.0
  0
LINE
  5
6B
100
AcDbEntity
  8
ext
 62
256
370
-1
 48
1.0
  6
BYLAYER
100
AcDbLine
 10
82.1873053332246855
 20
-33.4752336001303661
 30
0.0
 11
78.7496158340323404
 21
-37.6004609991612142
 31
0.0
  0
LINE
  5
6C
100
AcDbEntity
  8
ext
 62
256
370
-1
 48
1.0
  6
BYLAYER
100
AcDbLine
 10
82.1873053332246855
 20
33.4752336001303661
 30
0.0
 11
78.7496158340323404
 21
37.6004609991612
 31
0.0
  0
LINE
  5
6D
100
AcDbEntity
  8
ext
 62
256
370
-1
 48
1.0
  6
BYLAYER
100
AcDbLine
 10
76.8290626350388948
 20
-38.5
 30
0.0
 11
56.5689269266091515
 21
-38.5
 31
0.0
  0
LINE
  5
6E
100
AcDbEntity
  8
ext
 62
256
370
-1
 48
1.0
  6
BYLAYER
100
AcDbLine
 10
76.8290626350388948
 20
38.5
 30
0.0
 11
56.5689269266091515
 21
38.5
 31
0.0
  0
LINE
  5
6F
100
AcDbEntity
  8
ext
 62
256
370
-1
 48
1.0
  6
BYLAYER
100
AcDbLine
 10
55.4870992576472588
 20
38.2538076436706831
 30
0.0
 11
6.0
 21
14.5
 31
0.0
  0
LINE
  5
70
100
AcDbEntity
  8
ext
 62
256
370
-1
 48
1.0
  6
BYLAYER
100
AcDbLine
 10
55.4870992576472588
 20
-38.2538076436706831
 30
0.0
 11
6.0
 21
-14.5
 31
0.0
  0
LINE
  5
71
100
AcDbEntity
  8
ext
 62
256
370
-1
 48
1.0
  6
BYLAYER
100
AcDbLine
 10
6.0
 20
14.5
 30
0.0
 11
0.0
 21
14.5
 31
0.0
  0
LINE
  5
72
100
AcDbEntity
  8
ext
 62
256
370
-1
 48
1.0
  6
BYLAYER
100
AcDbLine
 10
6.0
 20
-14.5
 30
0.0
 11
0.0
 21
-14.5
 31
0.0
  0
LINE
  5
73
100
AcDbEntity
  8
ext
 62
256
370
-1
 48
1.0
  6
BYLAYER
100
AcDbLine
 10
43.6159355306288887
 20
18.0670943968297095
 30
0.0
 11
53.0
 21
20.5
 31
0.0
  0
LINE
  5
74
100
AcDbEntity
  8
ext
 62
256
370
-1
 48
1.0
  6
BYLAYER
100
AcDbLine
 10
43.6159355306288745
 20
-18.0670943968297095
 30
0.0
 11
53.0
 21
-20.5
 31
0.0
  0
LINE
  5
75
100
AcDbEntity
  8
ext
 62
256
370
-1
 48
1.0
  6
BYLAYER
100
AcDbLine
 10
53.0
 20
22.5
 30
0.0
 11
59.0
 21
22.5
 31
0.0
  0
LINE
  5
76
100
AcDbEntity
  8
ext
 62
256
370
-1
 48
1.0
  6
BYLAYER
100
AcDbLine
 10
53.0
 20
-22.5
 30
0.0
 11
59.0
 21
-22.5
 31
0.0
  0
LINE
  5
77
100
AcDbEntity
  8
ext
 62
256
370
-1
 48
1.0
  6
BYLAYER
100
AcDbLine
 10
53.0
 20
20.5
 30
0.0
 11
53.0
 21
22.5
 31
0.0
  0
LINE
  5
78
100
AcDbEntity
  8
ext
 62
256
370
-1
 48
1.0
  6
BYLAYER
100
AcDbLine
 10
53.0
 20
-20.5
 30
0.0
 11
53.0
 21
-22.5
 31
0.0
  0
LINE
  5
79
100
AcDbEntity
  8
ext
 62
256
370
-1
 48
1.0
  6
BYLAYER
100
AcDbLine
 10
73.0
 20
22.5
 30
0.0
 11
73.0
 21
26.5
 31
0.0
  0
LINE
  5
7A
100
AcDbEntity
  8
ext
 62
256
370
-1
 48
1.0
  6
BYLAYER
100
AcDbLine
 10
73.0
 20
-22.5
 30
0.0
 11
73.0
 21
-26.5
 31
0.0
  0
LINE
  5
7B
100
AcDbEntity
  8
ext
 62
256
370
-1
 48
1.0
  6
BYLAYER
100
AcDbLine
 10
74.0
 20
27.5
 30
0.0
 11
77.0
 21
27.5
 31
0.0
  0
LINE
  5
7C
100
AcDbEntity
  8
ext
 62
256
370
-1
 48
1.0
  6
BYLAYER
100
AcDbLine
 10
74.0
 20
-27.5
 30
0.0
 11
77.0
 21
-27.5
 31
0.0
  0
LINE
  5
7D
100
AcDbEntity
  8
ext
 62
256
370
-1
 48
1.0
  6
BYLAYER
100
AcDbLine
 10
78.0
 20
25.0
 30
0.0
 11
80.3602016191019288
 21
26.0115149796151286
 31
0.0
  0
LINE
  5
7E
100
AcDbEntity
  8
ext
 62
256
370
-1
 48
1.0
  6
BYLAYER
100
AcDbLine
 10
78.0
 20
-25.0
 30
0.0
 11
80.3602016191019288
 21
-26.0115149796151286
 31
0.0
  0
LINE
  5
7F
100
AcDbEntity
  8
ext
 62
256
370
-1
 48
1.0
  6
BYLAYER
100
AcDbLine
 10
61.5963296192464895
 20
-24.6612056417612422
 30
0.0
 11
65.5205356965378769
 21
-25.4086734660072153
 31
0.0
  0
LINE
  5
80
100
AcDbEntity
  8
ext
 62
256
370
-1
 48
1.0
  6
BYLAYER
100
AcDbLine
 10
61.5963296192464895
 20
24.6612056417612422
 30
0.0
 11
65.5205356965378769
 21
25.4086734660072153
 31
0.0
  0
LINE
  5
81
100
AcDbEntity
  8
ext
 62
256
370
-1
 48
1.0
  6
BYLAYER
100
AcDbLine
 10
66.4786063041083253
 20
25.4042787391783378
 30
0.0
 11
70.2577601514250318
 21
24.6484479697149936
 31
0.0
  0
LINE
  5
82
100
AcDbEntity
  8
ext
 62
256
370
-1
 48
1.0
  6
BYLAYER
100
AcDbLine
 10
66.4786063041083253
 20
-25.4042787391783378
 30
0.0
 11
70.2577601514250318
 21
-24.6484479697149936
 31
0.0
  0
ARC
  5
83
100
AcDbEntity
  8
ext
 62
256
370
-1
 48
1.0
  6
BYLAYER
100
AcDbCircle
 10
56.5689269266091515
 20
-36.0
 30
0.0
 40
2.5
100
AcDbArc
 50
244.3589941756947326
 51
270.0
  0
ARC
  5
84
100
AcDbEntity
  8
ext
 62
256
370
-1
 48
1.0
  6
BYLAYER
100
AcDbCircle
 10
56.5689269266091515
 20
36.0
 30
0.0
 40
2.5
100
AcDbArc
 50
90.0
 51
115.6410058243052958
  0
ARC
  5
85
100
AcDbEntity
  8
ext
 62
256
370
-1
 48
1.0
  6
BYLAYER
100
AcDbCircle
 10
76.8290626350388948
 20
36.0
 30
0.0
 40
2.5
100
AcDbArc
 50
39.8055710922651187
 51
90.0
  0
ARC
  5
86
100
AcDbEntity
  8
ext
 62
256
370
-1
 48
1.0
  6
BYLAYER
100
AcDbCircle
 10
76.8290626350388948
 20
-36.0
 30
0.0
 40
2.5
100
AcDbArc
 50
270.0
 51
320.1944289077348458
  0
ARC
  5
87
100
AcDbEntity
  8
ext
 62
256
370
-1
 48
1.0
  6
BYLAYER
100
AcDbCircle
 10
80.2667521342312398
 20
-31.8747726009691519
 30
0.0
 40
2.5
100
AcDbArc
 50
320.1944289077348458
 51
14.0362434679264059
  0
ARC
  5
88
100
AcDbEntity
  8
ext
 62
256
370
-1
 48
1.0
  6
BYLAYER
100
AcDbCircle
 10
80.2667521342312398
 20
31.8747726009691661
 30
0.0
 40
2.5
100
AcDbArc
 50
345.9637565320736599
 51
39.8055710922651897
  0
ARC
  5
89
100
AcDbEntity
  8
ext
 62
256
370
-1
 48
1.0
  6
BYLAYER
100
AcDbCircle
 10
79.3754033726540342
 20
28.3093775546602728
 30
0.0
 40
2.5
100
AcDbArc
 50
293.1985905136483552
 51
345.9637565320734325
  0
ARC
  5
8A
100
AcDbEntity
  8
ext
 62
256
370
-1
 48
1.0
  6
BYLAYER
100
AcDbCircle
 10
79.3754033726540342
 20
-28.3093775546602728
 30
0.0
 40
2.5
100
AcDbArc
 50
14.0362434679265888
 51
66.80140948635173
  0
ARC
  5
8B
100
AcDbEntity
  8
ext
 62
256
370
-1
 48
1.0
  6
BYLAYER
100
AcDbCircle
 10
77.0
 20
26.5
 30
0.0
 40
1.0
100
AcDbArc
 50
360.0
 51
90.0
  0
ARC
  5
8C
100
AcDbEntity
  8
ext
 62
256
370
-1
 48
1.0
  6
BYLAYER
100
AcDbCircle
 10
77.0
 20
-26.5
 30
0.0
 40
1.0
100
AcDbArc
 50
270.0
 51
360.0
  0
ARC
  5
8D
100
AcDbEntity
  8
ext
 62
256
370
-1
 48
1.0
  6
BYLAYER
100
AcDbCircle
 10
74.0
 20
26.5
 30
0.0
 40
1.0
100
AcDbArc
 50
90.0
 51
180.0
  0
ARC
  5
8E
100
AcDbEntity
  8
ext
 62
256
370
-1
 48
1.0
  6
BYLAYER
100
AcDbCircle
 10
74.0
 20
-26.5
 30
0.0
 40
1.0
100
AcDbArc
 50
180.0
 51
270.0
  0
ARC
  5
8F
100
AcDbEntity
  8
ext
 62
256
370
-1
 48
1.0
  6
BYLAYER
100
AcDbCircle
 10
69.7674698135795666
 20
22.1969962804876957
 30
0.0
 40
2.5
100
AcDbArc
 50
45.0000000000000568
 51
78.6900675259796998
  0
ARC
  5
90
100
AcDbEntity
  8
ext
 62
256
370
-1
 48
1.0
  6
BYLAYER
100
AcDbCircle
 10
69.7674698135795666
 20
-22.1969962804876957
 30
0.0
 40
2.5
100
AcDbArc
 50
281.309932474020286
 51
314.9999999999999432
  0
ARC
  5
91
100
AcDbEntity
  8
ext
 62
256
370
-1
 48
1.0
  6
BYLAYER
100
AcDbCircle
 10
65.98831596626286
 20
-22.9528270499510256
 30
0.0
 40
2.5
100
AcDbArc
 50
259.2157021324374568
 51
281.309932474020286
  0
ARC
  5
92
100
AcDbEntity
  8
ext
 62
256
370
-1
 48
1.0
  6
BYLAYER
100
AcDbCircle
 10
65.98831596626286
 20
22.9528270499510256
 30
0.0
 40
2.5
100
AcDbArc
 50
78.690067525979714
 51
100.7842978675624863
  0
ARC
  5
93
100
AcDbEntity
  8
ext
 62
256
370
-1
 48
1.0
  6
BYLAYER
100
AcDbCircle
 10
62.0641098889714726
 20
-22.2053592257050525
 30
0.0
 40
2.5
100
AcDbArc
 50
221.1859251657096195
 51
259.2157021324373432
  0
ARC
  5
94
100
AcDbEntity
  8
ext
 62
256
370
-1
 48
1.0
  6
BYLAYER
100
AcDbCircle
 10
62.0641098889714726
 20
22.2053592257050525
 30
0.0
 40
2.5
100
AcDbArc
 50
100.7842978675626426
 51
138.8140748342903805
  0
LINE
  5
95
100
AcDbEntity
  8
ext
 62
256
370
-1
 48
1.0
  6
BYLAYER
100
AcDbLine
 10
-2.0
 20
14.5
 30
0.0
 11
0.0
 21
14.5
 31
0.0
  0
LINE
  5
96
100
AcDbEntity
  8
ext
 62
256
370
-1
 48
1.0
  6
BYLAYER
100
AcDbLine
 10
-2.0
 20
-14.5
 30
0.0
 11
0.0
 21
-14.5
 31
0.0
  0
LINE
  5
97
100
AcDbEntity
  8
ext
 62
256
370
-1
 48
1.0
  6
BYLAYER
100
AcDbLine
 10
-10.0
 20
-3.0
 30
0.0
 11
-10.0
 21
-6.5
 31
0.0
  0
ARC
  5
98
100
AcDbEntity
  8
ext
 62
256
370
-1
 48
1.0
  6
BYLAYER
100
AcDbCircle
 10
-2.0
 20
6.5
 30
0.0
 40
8.0
100
AcDbArc
 50
90.0
 51
180.0
  0
ARC
  5
99
100
AcDbEntity
  8
ext
 62
256
370
-1
 48
1.0
  6
BYLAYER
100
AcDbCircle
 10
-2.0
 20
-6.5
 30
0.0
 40
8.0
100
AcDbArc
 50
180.0
 51
270.0
  0
LINE
  5
9A
100
AcDbEntity
  8
ext
 62
256
370
-1
 48
1.0
  6
BYLAYER
100
AcDbLine
 10
-4.0
 20
3.0
 30
0.0
 11
-4.0
 21
-3.0
 31
0.0
  0
LINE
  5
9B
100
AcDbEntity
  8
ext
 62
256
370
-1
 48
1.0
  6
BYLAYER
100
AcDbLine
 10
-10.0
 20
2.9999999999999996
 30
0.0
 11
-10.0
 21
6.5000000000000009
 31
0.0
  0
LINE
  5
9C
100
AcDbEntity
  8
ext
 62
256
370
-1
 48
1.0
  6
BYLAYER
100
AcDbLine
 10
-10.0
 20
3.0
 30
0.0
 11
-4.0
 21
3.0
 31
0.0
  0
LINE
  5
9D
100
AcDbEntity
  8
ext
 62
256
370
-1
 48
1.0
  6
BYLAYER
100
AcDbLine
 10
-10.0
 20
-3.0
 30
0.0
 11
-4.0
 21
-3.0
 31
0.0
  0
LINE
  5
9E
100
AcDbEntity
  8
ext
 62
256
370
-1
 48
1.0
  6
BYLAYER
100
AcDbLine
 10
26.0
 20
-10.5000000000000018
 30
0.0
 11
26.0
 21
-3.0000000000000027
 31
0.0
  0
LINE
  5
9F
100
AcDbEntity
  8
ext
 62
256
370
-1
 48
1.0
  6
BYLAYER
100
AcDbLine
 10
32.0415344580571357
 20
10.9027689638704715
 30
0.0
 11
26.0000000000000036
 21
10.4999999999999964
 31
0.0
  0
LINE
  5
A0
100
AcDbEntity
  8
ext
 62
256
370
-1
 48
1.0
  6
BYLAYER
100
AcDbLine
 10
26.0
 20
-10.5000000000000018
 30
0.0
 11
32.0415344580571286
 21
-10.9027689638704803
 31
0.0
  0
LINE
  5
A1
100
AcDbEntity
  8
ext
 62
256
370
-1
 48
1.0
  6
BYLAYER
100
AcDbLine
 10
26.0
 20
2.9999999999999951
 30
0.0
 11
9.0
 21
3.0
 31
0.0
  0
LINE
  5
A2
100
AcDbEntity
  8
ext
 62
256
370
-1
 48
1.0
  6
BYLAYER
100
AcDbLine
 10
26.0
 20
-3.0000000000000027
 30
0.0
 11
9.0
 21
-3.0
 31
0.0
  0
LINE
  5
A3
100
AcDbEntity
  8
ext
 62
256
370
-1
 48
1.0
  6
BYLAYER
100
AcDbLine
 10
9.0
 20
3.0
 30
0.0
 11
9.0
 21
-3.0
 31
0.0
  0
LINE
  5
A4
100
AcDbEntity
  8
ext
 62
256
370
-1
 48
1.0
  6
BYLAYER
100
AcDbLine
 10
36.9677857264616847
 20
14.3442762954213183
 30
0.0
 11
34.5521469988748677
 21
12.0146734963426134
 31
0.0
  0
LINE
  5
A5
100
AcDbEntity
  8
ext
 62
256
370
-1
 48
1.0
  6
BYLAYER
100
AcDbLine
 10
36.9677857264616847
 20
-14.3442762954213237
 30
0.0
 11
34.5521469988748535
 21
-12.0146734963426116
 31
0.0
  0
LINE
  5
A6
100
AcDbEntity
  8
ext
 62
256
370
-1
 48
1.0
  6
BYLAYER
100
AcDbLine
 10
26.0000000000000036
 20
10.4999999999999964
 30
0.0
 11
26.0
 21
2.9999999999999951
 31
0.0
  0
ARC
  5
A7
100
AcDbEntity
  8
ext
 62
256
370
-1
 48
1.0
  6
BYLAYER
100
AcDbCircle
 10
47.3803679123847843
 20
3.5471409243426999
 30
0.0
 40
15.0
100
AcDbArc
 50
104.5344550805401411
 51
133.9612845823534428
  0
ARC
  5
A8
100
AcDbEntity
  8
ext
 62
256
370
-1
 48
1.0
  6
BYLAYER
100
AcDbCircle
 10
47.3803679123847701
 20
-3.5471409243426955
 30
0.0
 40
15.0
100
AcDbArc
 50
226.038715417646614
 51
255.4655449194598589
  0
ARC
  5
A9
100
AcDbEntity
  8
ext
 62
256
370
-1
 48
1.0
  6
BYLAYER
100
AcDbCircle
 10
31.7754584159620315
 20
-14.8939095952969165
 30
0.0
 40
4.0
100
AcDbArc
 50
46.0387154176466424
 51
86.1859251657096195
  0
ARC
  5
AA
100
AcDbEntity
  8
ext
 62
256
370
-1
 48
1.0
  6
BYLAYER
100
AcDbCircle
 10
31.7754584159620421
 20
14.8939095952969076
 30
0.0
 40
4.0
100
AcDbArc
 50
273.8140748342903521
 51
313.9612845823534713
  0
ENDBLK
  5
AB
100
AcDbEntity
  8
0
100
AcDbBlockEnd
  0
BLOCK
  5
AC
100
AcDbEntity
  8
0
100
AcDbBlockBegin
  2
pince2
 70
0
 10
0.0
 20
0.0
 30
0.0
  3
pince2
  1

  0
LINE
  5
AD
100
AcDbEntity
  8
ext
 62
256
370
-1
 48
1.0
  6
BYLAYER
100
AcDbLine
 10
78.0
 20
-26.5
 30
0.0
 11
78.0
 21
-25.0
 31
0.0
  0
LINE
  5
AE
100
AcDbEntity
  8
ext
 62
256
370
-1
 48
1.0
  6
BYLAYER
100
AcDbLine
 10
78.0
 20
26.5
 30
0.0
 11
78.0
 21
25.0
 31
0.0
  0
LINE
  5
AF
100
AcDbEntity
  8
ext
 62
256
370
-1
 48
1.0
  6
BYLAYER
100
AcDbLine
 10
59.0
 20
-22.5
 30
0.0
 11
60.1826681522043145
 21
-23.8516207453763514
 31
0.0
  0
LINE
  5
B0
100
AcDbEntity
  8
ext
 62
256
370
-1
 48
1.0
  6
BYLAYER
100
AcDbLine
 10
59.0
 20
22.5
 30
0.0
 11
60.1826681522043145
 21
23.8516207453763514
 31
0.0
  0
LINE
  5
B1
100
AcDbEntity
  8
ext
 62
256
370
-1
 48
1.0
  6
BYLAYER
100
AcDbLine
 10
71.5352367665459496
 20
-23.9647632334540646
 30
0.0
 11
73.0
 21
-22.5
 31
0.0
  0
LINE
  5
B2
100
AcDbEntity
  8
ext
 62
256
370
-1
 48
1.0
  6
BYLAYER
100
AcDbLine
 10
71.5352367665459496
 20
23.9647632334540646
 30
0.0
 11
73.0
 21
22.5
 31
0.0
  0
LINE
  5
B3
100
AcDbEntity
  8
ext
 62
256
370
-1
 48
1.0
  6
BYLAYER
100
AcDbLine
 10
81.8007596230173704
 20
27.7030384920694388
 30
0.0
 11
82.6921083845945759
 21
31.2684335383783321
 31
0.0
  0
LINE
  5
B4
100
AcDbEntity
  8
ext
 62
256
370
-1
 48
1.0
  6
BYLAYER
100
AcDbLine
 10
81.8007596230173704
 20
-27.7030384920694388
 30
0.0
 11
82.6921083845945759
 21
-31.2684335383783321
 31
0.0
  0
LINE
  5
B5
100
AcDbEntity
  8
ext
 62
256
370
-1
 48
1.0
  6
BYLAYER
100
AcDbLine
 10
82.1873053332246855
 20
-33.4752336001303661
 30
0.0
 11
78.7496158340323404
 21
-37.6004609991612142
 31
0.0
  0
LINE
  5
B6
100
AcDbEntity
  8
ext
 62
256
370
-1
 48
1.0
  6
BYLAYER
100
AcDbLine
 10
82.1873053332246855
 20
33.4752336001303661
 30
0.0
 11
78.7496158340323404
 21
37.6004609991612
 31
0.0
  0
LINE
  5
B7
100
AcDbEntity
  8
ext
 62
256
370
-1
 48
1.0
  6
BYLAYER
100
AcDbLine
 10
76.8290626350388948
 20
-38.5
 30
0.0
 11
56.5689269266091515
 21
-38.5
 31
0.0
  0
LINE
  5
B8
100
AcDbEntity
  8
ext
 62
256
370
-1
 48
1.0
  6
BYLAYER
100
AcDbLine
 10
76.8290626350388948
 20
38.5
 30
0.0
 11
56.5689269266091515
 21
38.5
 31
0.0
  0
LINE
  5
B9
100
AcDbEntity
  8
ext
 62
256
370
-1
 48
1.0
  6
BYLAYER
100
AcDbLine
 10
55.4870992576472588
 20
38.2538076436706831
 30
0.0
 11
6.0
 21
14.5
 31
0.0
  0
LINE
  5
BA
100
AcDbEntity
  8
ext
 62
256
370
-1
 48
1.0
  6
BYLAYER
100
AcDbLine
 10
55.4870992576472588
 20
-38.2538076436706831
 30
0.0
 11
6.0
 21
-14.5
 31
0.0
  0
LINE
  5
BB
100
AcDbEntity
  8
ext
 62
256
370
-1
 48
1.0
  6
BYLAYER
100
AcDbLine
 10
43.6159355306288887
 20
18.0670943968297095
 30
0.0
 11
53.0
 21
20.5
 31
0.0
  0
LINE
  5
BC
100
AcDbEntity
  8
ext
 62
256
370
-1
 48
1.0
  6
BYLAYER
100
AcDbLine
 10
43.6159355306288603
 20
-18.0670943968297095
 30
0.0
 11
53.0
 21
-20.5
 31
0.0
  0
LINE
  5
BD
100
AcDbEntity
  8
ext
 62
256
370
-1
 48
1.0
  6
BYLAYER
100
AcDbLine
 10
53.0
 20
22.5
 30
0.0
 11
59.0
 21
22.5
 31
0.0
  0
LINE
  5
BE
100
AcDbEntity
  8
ext
 62
256
370
-1
 48
1.0
  6
BYLAYER
100
AcDbLine
 10
53.0
 20
-22.5
 30
0.0
 11
59.0
 21
-22.5
 31
0.0
  0
LINE
  5
BF
100
AcDbEntity
  8
ext
 62
256
370
-1
 48
1.0
  6
BYLAYER
100
AcDbLine
 10
53.0
 20
20.5
 30
0.0
 11
53.0
 21
22.5
 31
0.0
  0
LINE
  5
C0
100
AcDbEntity
  8
ext
 62
256
370
-1
 48
1.0
  6
BYLAYER
100
AcDbLine
 10
53.0
 20
-20.5
 30
0.0
 11
53.0
 21
-22.5
 31
0.0
  0
LINE
  5
C1
100
AcDbEntity
  8
ext
 62
256
370
-1
 48
1.0
  6
BYLAYER
100
AcDbLine
 10
73.0
 20
22.5
 30
0.0
 11
73.0
 21
26.5
 31
0.0
  0
LINE
  5
C2
100
AcDbEntity
  8
ext
 62
256
370
-1
 48
1.0
  6
BYLAYER
100
AcDbLine
 10
73.0
 20
-22.5
 30
0.0
 11
73.0
 21
-26.5
 31
0.0
  0
LINE
  5
C3
100
AcDbEntity
  8
ext
 62
256
370
-1
 48
1.0
  6
BYLAYER
100
AcDbLine
 10
74.0
 20
27.5
 30
0.0
 11
77.0
 21
27.5
 31
0.0
  0
LINE
  5
C4
100
AcDbEntity
  8
ext
 62
256
370
-1
 48
1.0
  6
BYLAYER
100
AcDbLine
 10
74.0
 20
-27.5
 30
0.0
 11
77.0
 21
-27.5
 31
0.0
  0
LINE
  5
C5
100
AcDbEntity
  8
ext
 62
256
370
-1
 48
1.0
  6
BYLAYER
100
AcDbLine
 10
78.0
 20
25.0
 30
0.0
 11
80.3602016191019288
 21
26.0115149796151286
 31
0.0
  0
LINE
  5
C6
100
AcDbEntity
  8
ext
 62
256
370
-1
 48
1.0
  6
BYLAYER
100
AcDbLine
 10
78.0
 20
-25.0
 30
0.0
 11
80.3602016191019288
 21
-26.0115149796151286
 31
0.0
  0
LINE
  5
C7
100
AcDbEntity
  8
ext
 62
256
370
-1
 48
1.0
  6
BYLAYER
100
AcDbLine
 10
61.5963296192464895
 20
-24.6612056417612422
 30
0.0
 11
65.5205356965378769
 21
-25.4086734660072153
 31
0.0
  0
LINE
  5
C8
100
AcDbEntity
  8
ext
 62
256
370
-1
 48
1.0
  6
BYLAYER
100
AcDbLine
 10
61.5963296192464895
 20
24.6612056417612422
 30
0.0
 11
65.5205356965378769
 21
25.4086734660072153
 31
0.0
  0
LINE
  5
C9
100
AcDbEntity
  8
ext
 62
256
370
-1
 48
1.0
  6
BYLAYER
100
AcDbLine
 10
66.4786063041083253
 20
25.4042787391783378
 30
0.0
 11
70.2577601514250318
 21
24.6484479697149936
 31
0.0
  0
LINE
  5
CA
100
AcDbEntity
  8
ext
 62
256
370
-1
 48
1.0
  6
BYLAYER
100
AcDbLine
 10
66.4786063041083253
 20
-25.4042787391783378
 30
0.0
 11
70.2577601514250318
 21
-24.6484479697149936
 31
0.0
  0
ARC
  5
CB
100
AcDbEntity
  8
ext
 62
256
370
-1
 48
1.0
  6
BYLAYER
100
AcDbCircle
 10
56.5689269266091515
 20
-36.0
 30
0.0
 40
2.5
100
AcDbArc
 50
244.3589941756947326
 51
270.0
  0
ARC
  5
CC
100
AcDbEntity
  8
ext
 62
256
370
-1
 48
1.0
  6
BYLAYER
100
AcDbCircle
 10
56.5689269266091515
 20
36.0
 30
0.0
 40
2.5
100
AcDbArc
 50
90.0
 51
115.6410058243052958
  0
ARC
  5
CD
100
AcDbEntity
  8
ext
 62
256
370
-1
 48
1.0
  6
BYLAYER
100
AcDbCircle
 10
76.8290626350388948
 20
36.0
 30
0.0
 40
2.5
100
AcDbArc
 50
39.8055710922651187
 51
90.0
  0
ARC
  5
CE
100
AcDbEntity
  8
ext
 62
256
370
-1
 48
1.0
  6
BYLAYER
100
AcDbCircle
 10
76.8290626350388948
 20
-36.0
 30
0.0
 40
2.5
100
AcDbArc
 50
270.0
 51
320.1944289077348458
  0
ARC
  5
CF
100
AcDbEntity
  8
ext
 62
256
370
-1
 48
1.0
  6
BYLAYER
100
AcDbCircle
 10
80.2667521342312398
 20
-31.8747726009691519
 30
0.0
 40
2.5
100
AcDbArc
 50
320.1944289077348458
 51
14.0362434679264059
  0
ARC
  5
D0
100
AcDbEntity
  8
ext
 62
256
370
-1
 48
1.0
  6
BYLAYER
100
AcDbCircle
 10
80.2667521342312398
 20
31.8747726009691661
 30
0.0
 40
2.5
100
AcDbArc
 50
345.9637565320736599
 51
39.8055710922651897
  0
ARC
  5
D1
100
AcDbEntity
  8
ext
 62
256
370
-1
 48
1.0
  6
BYLAYER
100
AcDbCircle
 10
79.3754033726540342
 20
28.3093775546602728
 30
0.0
 40
2.5
100
AcDbArc
 50
293.1985905136483552
 51
345.9637565320734325
  0
ARC
  5
D2
100
AcDbEntity
  8
ext
 62
256
370
-1
 48
1.0
  6
BYLAYER
100
AcDbCircle
 10
79.3754033726540342
 20
-28.3093775546602728
 30
0.0
 40
2.5
100
AcDbArc
 50
14.0362434679265888
 51
66.80140948635173
  0
ARC
  5
D3
100
AcDbEntity
  8
ext
 62
256
370
-1
 48
1.0
  6
BYLAYER
100
AcDbCircle
 10
77.0
 20
26.5
 30
0.0
 40
1.0
100
AcDbArc
 50
360.0
 51
90.0
  0
ARC
  5
D4
100
AcDbEntity
  8
ext
 62
256
370
-1
 48
1.0
  6
BYLAYER
100
AcDbCircle
 10
77.0
 20
-26.5
 30
0.0
 40
1.0
100
AcDbArc
 50
270.0
 51
360.0
  0
ARC
  5
D5
100
AcDbEntity
  8
ext
 62
256
370
-1
 48
1.0
  6
BYLAYER
100
AcDbCircle
 10
74.0
 20
26.5
 30
0.0
 40
1.0
100
AcDbArc
 50
90.0
 51
180.0
  0
ARC
  5
D6
100
AcDbEntity
  8
ext
 62
256
370
-1
 48
1.0
  6
BYLAYER
100
AcDbCircle
 10
74.0
 20
-26.5
 30
0.0
 40
1.0
100
AcDbArc
 50
180.0
 51
270.0
  0
ARC
  5
D7
100
AcDbEntity
  8
ext
 62
256
370
-1
 48
1.0
  6
BYLAYER
100
AcDbCircle
 10
69.7674698135795666
 20
22.1969962804876957
 30
0.0
 40
2.5
100
AcDbArc
 50
45.0000000000000568
 51
78.6900675259796998
  0
ARC
  5
D8
100
AcDbEntity
  8
ext
 62
256
370
-1
 48
1.0
  6
BYLAYER
100
AcDbCircle
 10
69.7674698135795666
 20
-22.1969962804876957
 30
0.0
 40
2.5
100
AcDbArc
 50
281.309932474020286
 51
314.9999999999999432
  0
ARC
  5
D9
100
AcDbEntity
  8
ext
 62
256
370
-1
 48
1.0
  6
BYLAYER
100
AcDbCircle
 10
65.98831596626286
 20
-22.9528270499510256
 30
0.0
 40
2.5
100
AcDbArc
 50
259.2157021324374568
 51
281.309932474020286
  0
ARC
  5
DA
100
AcDbEntity
  8
ext
 62
256
370
-1
 48
1.0
  6
BYLAYER
100
AcDbCircle
 10
65.98831596626286
 20
22.9528270499510256
 30
0.0
 40
2.5
100
AcDbArc
 50
78.690067525979714
 51
100.7842978675624863
  0
ARC
  5
DB
100
AcDbEntity
  8
ext
 62
256
370
-1
 48
1.0
  6
BYLAYER
100
AcDbCircle
 10
62.0641098889714726
 20
-22.2053592257050525
 30
0.0
 40
2.5
100
AcDbArc
 50
221.1859251657096195
 51
259.2157021324373432
  0
ARC
  5
DC
100
AcDbEntity
  8
ext
 62
256
370
-1
 48
1.0
  6
BYLAYER
100
AcDbCircle
 10
62.0641098889714726
 20
22.2053592257050525
 30
0.0
 40
2.5
100
AcDbArc
 50
100.7842978675626426
 51
138.8140748342903805
  0
LINE
  5
DD
100
AcDbEntity
  8
ext
 62
256
370
-1
 48
1.0
  6
BYLAYER
100
AcDbLine
 10
-23.0000000000000142
 20
14.5
 30
0.0
 11
6.0
 21
14.5
 31
0.0
  0
LINE
  5
DE
100
AcDbEntity
  8
ext
 62
256
370
-1
 48
1.0
  6
BYLAYER
100
AcDbLine
 10
-23.0000000000000142
 20
-14.5
 30
0.0
 11
6.0
 21
-14.5
 31
0.0
  0
LINE
  5
DF
100
AcDbEntity
  8
ext
 62
256
370
-1
 48
1.0
  6
BYLAYER
100
AcDbLine
 10
-31.0000000000000142
 20
6.5
 30
0.0
 11
-31.0000000000000142
 21
-6.5
 31
0.0
  0
ARC
  5
E0
100
AcDbEntity
  8
ext
 62
256
370
-1
 48
1.0
  6
BYLAYER
100
AcDbCircle
 10
-23.0000000000000142
 20
6.5
 30
0.0
 40
8.0
100
AcDbArc
 50
90.0
 51
180.0
  0
ARC
  5
E1
100
AcDbEntity
  8
ext
 62
256
370
-1
 48
1.0
  6
BYLAYER
100
AcDbCircle
 10
-23.0000000000000142
 20
-6.5
 30
0.0
 40
8.0
100
AcDbArc
 50
180.0
 51
270.0
  0
CIRCLE
  5
E2
100
AcDbEntity
  8
int
 62
256
370
-1
 48
1.0
  6
BYLAYER
100
AcDbCircle
 10
-23.0000000000000071
 20
0.0
 30
0.0
 40
3.0
  0
LINE
  5
E3
100
AcDbEntity
  8
ext
 62
256
370
-1
 48
1.0
  6
BYLAYER
100
AcDbLine
 10
-4.0000000000000071
 20
3.0
 30
0.0
 11
-4.0000000000000071
 21
-3.0
 31
0.0
  0
LINE
  5
E4
100
AcDbEntity
  8
ext
 62
256
370
-1
 48
1.0
  6
BYLAYER
100
AcDbLine
 10
-4.0000000000000071
 20
3.0
 30
0.0
 11
-0.0000000000000071
 21
3.0
 31
0.0
  0
LINE
  5
E5
100
AcDbEntity
  8
ext
 62
256
370
-1
 48
1.0
  6
BYLAYER
100
AcDbLine
 10
-4.0000000000000071
 20
-3.0
 30
0.0
 11
-0.0000000000000071
 21
-3.0
 31
0.0
  0
LINE
  5
E6
100
AcDbEntity
  8
ext
 62
256
370
-1
 48
1.0
  6
BYLAYER
100
AcDbLine
 10
26.0
 20
-10.5000000000000018
 30
0.0
 11
26.0
 21
-3.0000000000000027
 31
0.0
  0
LINE
  5
E7
100
AcDbEntity
  8
ext
 62
256
370
-1
 48
1.0
  6
BYLAYER
100
AcDbLine
 10
32.0415344580571286
 20
10.9027689638704715
 30
0.0
 11
26.0
 21
10.4999999999999964
 31
0.0
  0
LINE
  5
E8
100
AcDbEntity
  8
ext
 62
256
370
-1
 48
1.0
  6
BYLAYER
100
AcDbLine
 10
26.0
 20
-10.5000000000000018
 30
0.0
 11
32.0415344580571286
 21
-10.9027689638704803
 31
0.0
  0
LINE
  5
E9
100
AcDbEntity
  8
ext
 62
256
370
-1
 48
1.0
  6
BYLAYER
100
AcDbLine
 10
26.0
 20
2.9999999999999951
 30
0.0
 11
-0.0000000000000071
 21
3.0
 31
0.0
  0
LINE
  5
EA
100
AcDbEntity
  8
ext
 62
256
370
-1
 48
1.0
  6
BYLAYER
100
AcDbLine
 10
26.0
 20
-3.0000000000000027
 30
0.0
 11
-0.0000000000000071
 21
-3.0
 31
0.0
  0
LINE
  5
EB
100
AcDbEntity
  8
ext
 62
256
370
-1
 48
1.0
  6
BYLAYER
100
AcDbLine
 10
36.9677857264616705
 20
14.3442762954213183
 30
0.0
 11
34.5521469988748606
 21
12.0146734963426134
 31
0.0
  0
LINE
  5
EC
100
AcDbEntity
  8
ext
 62
256
370
-1
 48
1.0
  6
BYLAYER
100
AcDbLine
 10
36.9677857264616705
 20
-14.3442762954213237
 30
0.0
 11
34.5521469988748606
 21
-12.0146734963426116
 31
0.0
  0
LINE
  5
ED
100
AcDbEntity
  8
ext
 62
256
370
-1
 48
1.0
  6
BYLAYER
100
AcDbLine
 10
26.0
 20
10.4999999999999964
 30
0.0
 11
26.0
 21
2.9999999999999951
 31
0.0
  0
ARC
  5
EE
100
AcDbEntity
  8
ext
 62
256
370
-1
 48
1.0
  6
BYLAYER
100
AcDbCircle
 10
47.3803679123847701
 20
3.5471409243426999
 30
0.0
 40
15.0
100
AcDbArc
 50
104.5344550805401411
 51
133.9612845823534428
  0
ARC
  5
EF
100
AcDbEntity
  8
ext
 62
256
370
-1
 48
1.0
  6
BYLAYER
100
AcDbCircle
 10
47.3803679123847701
 20
-3.5471409243426955
 30
0.0
 40
15.0
100
AcDbArc
 50
226.038715417646614
 51
255.4655449194598589
  0
ARC
  5
F0
100
AcDbEntity
  8
ext
 62
256
370
-1
 48
1.0
  6
BYLAYER
100
AcDbCircle
 10
31.7754584159620208
 20
-14.8939095952969165
 30
0.0
 40
4.0
100
AcDbArc
 50
46.0387154176466424
 51
86.1859251657096195
  0
ARC
  5
F1
100
AcDbEntity
  8
ext
 62
256
370
-1
 48
1.0
  6
BYLAYER
100
AcDbCircle
 10
31.7754584159620492
 20
14.8939095952969076
 30
0.0
 40
4.0
100
AcDbArc
 50
273.8140748342903521
 51
313.9612845823534713
  0
ENDBLK
  5
F2
100
AcDbEntity
  8
0
100
AcDbBlockEnd
  0
BLOCK
  5
F3
100
AcDbEntity
  8
0
100
AcDbBlockBegin
  2
douille
 70
0
 10
0.0
 20
0.0
 30
0.0
  3
douille
  1

  0
LINE
  5
F4
100
AcDbEntity
  8
constr
 62
256
370
-1
 48
1.0
  6
BYLAYER
100
AcDbLine
 10
-68.5
 20
-13.0
 30
0.0
 11
-68.5
 21
13.0
 31
0.0
  0
LINE
  5
F5
100
AcDbEntity
  8
constr
 62
256
370
-1
 48
1.0
  6
BYLAYER
100
AcDbLine
 10
-68.5
 20
13.0
 30
0.0
 11
-31.0
 21
13.0
 31
0.0
  0
LINE
  5
F6
100
AcDbEntity
  8
constr
 62
256
370
-1
 48
1.0
  6
BYLAYER
100
AcDbLine
 10
-68.5
 20
-13.0
 30
0.0
 11
-31.0
 21
-13.0
 31
0.0
  0
LINE
  5
F7
100
AcDbEntity
  8
constr
 62
256
370
-1
 48
1.0
  6
BYLAYER
100
AcDbLine
 10
-16.0
 20
-10.5
 30
0.0
 11
-16.0
 21
10.5
 31
0.0
  0
LINE
  5
F8
100
AcDbEntity
  8
constr
 62
256
370
-1
 48
1.0
  6
BYLAYER
100
AcDbLine
 10
-31.0
 20
-13.0
 30
0.0
 11
-31.0
 21
-11.5
 31
0.0
  0
LINE
  5
F9
100
AcDbEntity
  8
constr
 62
256
370
-1
 48
1.0
  6
BYLAYER
100
AcDbLine
 10
-31.0
 20
11.5
 30
0.0
 11
-31.0
 21
13.0
 31
0.0
  0
LINE
  5
FA
100
AcDbEntity
  8
constr
 62
256
370
-1
 48
1.0
  6
BYLAYER
100
AcDbLine
 10
-31.0
 20
11.5
 30
0.0
 11
-16.0
 21
10.5
 31
0.0
  0
LINE
  5
FB
100
AcDbEntity
  8
constr
 62
256
370
-1
 48
1.0
  6
BYLAYER
100
AcDbLine
 10
-16.0
 20
-10.5
 30
0.0
 11
-31.0
 21
-11.5
 31
0.0
  0
LINE
  5
FC
100
AcDbEntity
  8
constr
 62
256
370
-1
 48
1.0
  6
BYLAYER
100
AcDbLine
 10
-16.0
 20
3.0
 30
0.0
 11
0.0
 21
3.0
 31
0.0
  0
LINE
  5
FD
100
AcDbEntity
  8
constr
 62
256
370
-1
 48
1.0
  6
BYLAYER
100
AcDbLine
 10
-16.0
 20
-3.0
 30
0.0
 11
0.0
 21
-3.0
 31
0.0
  0
LINE
  5
FE
100
AcDbEntity
  8
constr
 62
256
370
-1
 48
1.0
  6
BYLAYER
100
AcDbLine
 10
0.0
 20
3.0
 30
0.0
 11
0.0
 21
-3.0
 31
0.0
  0
ENDBLK
  5
FF
100
AcDbEntity
  8
0
100
AcDbBlockEnd
  0
BLOCK
  5
100
100
AcDbEntity
  8
0
100
AcDbBlockBegin
  2
pincwork
 70
0
 10
0.0
 20
0.0
 30
0.0
  3
pincwork
  1

  0
LINE
  5
101
100
AcDbEntity
  8
constr
 62
256
370
-1
 48
1.0
  6
BYLAYER
100
AcDbLine
 10
78.0
 20
-26.5
 30
0.0
 11
78.0
 21
-25.0
 31
0.0
  0
LINE
  5
102
100
AcDbEntity
  8
constr
 62
256
370
-1
 48
1.0
  6
BYLAYER
100
AcDbLine
 10
78.0
 20
26.5
 30
0.0
 11
78.0
 21
25.0
 31
0.0
  0
LINE
  5
103
100
AcDbEntity
  8
constr
 62
256
370
-1
 48
1.0
  6
BYLAYER
100
AcDbLine
 10
59.0
 20
-22.5
 30
0.0
 11
60.1826681522043145
 21
-23.8516207453763514
 31
0.0
  0
LINE
  5
104
100
AcDbEntity
  8
constr
 62
256
370
-1
 48
1.0
  6
BYLAYER
100
AcDbLine
 10
59.0
 20
22.5
 30
0.0
 11
60.1826681522043145
 21
23.8516207453763514
 31
0.0
  0
LINE
  5
105
100
AcDbEntity
  8
constr
 62
256
370
-1
 48
1.0
  6
BYLAYER
100
AcDbLine
 10
71.5352367665459496
 20
-23.9647632334540646
 30
0.0
 11
73.0
 21
-22.5
 31
0.0
  0
LINE
  5
106
100
AcDbEntity
  8
constr
 62
256
370
-1
 48
1.0
  6
BYLAYER
100
AcDbLine
 10
71.5352367665459496
 20
23.9647632334540646
 30
0.0
 11
73.0
 21
22.5
 31
0.0
  0
LINE
  5
107
100
AcDbEntity
  8
constr
 62
256
370
-1
 48
1.0
  6
BYLAYER
100
AcDbLine
 10
81.8007596230173704
 20
27.7030384920694388
 30
0.0
 11
82.6921083845945759
 21
31.2684335383783321
 31
0.0
  0
LINE
  5
108
100
AcDbEntity
  8
constr
 62
256
370
-1
 48
1.0
  6
BYLAYER
100
AcDbLine
 10
81.8007596230173704
 20
-27.7030384920694388
 30
0.0
 11
82.6921083845945759
 21
-31.2684335383783321
 31
0.0
  0
LINE
  5
109
100
AcDbEntity
  8
constr
 62
256
370
-1
 48
1.0
  6
BYLAYER
100
AcDbLine
 10
82.1873053332246855
 20
-33.4752336001303661
 30
0.0
 11
78.7496158340323404
 21
-37.6004609991612142
 31
0.0
  0
LINE
  5
10A
100
AcDbEntity
  8
constr
 62
256
370
-1
 48
1.0
  6
BYLAYER
100
AcDbLine
 10
82.1873053332246855
 20
33.4752336001303661
 30
0.0
 11
78.7496158340323404
 21
37.6004609991612
 31
0.0
  0
LINE
  5
10B
100
AcDbEntity
  8
constr
 62
256
370
-1
 48
1.0
  6
BYLAYER
100
AcDbLine
 10
76.8290626350388948
 20
-38.5
 30
0.0
 11
56.5689269266091515
 21
-38.5
 31
0.0
  0
LINE
  5
10C
100
AcDbEntity
  8
constr
 62
256
370
-1
 48
1.0
  6
BYLAYER
100
AcDbLine
 10
76.8290626350388948
 20
38.5
 30
0.0
 11
56.5689269266091515
 21
38.5
 31
0.0
  0
LINE
  5
10D
100
AcDbEntity
  8
constr
 62
256
370
-1
 48
1.0
  6
BYLAYER
100
AcDbLine
 10
55.4870992576472588
 20
38.2538076436706831
 30
0.0
 11
6.0
 21
14.5
 31
0.0
  0
LINE
  5
10E
100
AcDbEntity
  8
constr
 62
256
370
-1
 48
1.0
  6
BYLAYER
100
AcDbLine
 10
55.4870992576472588
 20
-38.2538076436706831
 30
0.0
 11
6.0
 21
-14.5
 31
0.0
  0
LINE
  5
10F
100
AcDbEntity
  8
constr
 62
256
370
-1
 48
1.0
  6
BYLAYER
100
AcDbLine
 10
6.0
 20
14.5
 30
0.0
 11
0.0
 21
14.5
 31
0.0
  0
LINE
  5
110
100
AcDbEntity
  8
constr
 62
256
370
-1
 48
1.0
  6
BYLAYER
100
AcDbLine
 10
6.0
 20
-14.5
 30
0.0
 11
0.0
 21
-14.5
 31
0.0
  0
LINE
  5
111
100
AcDbEntity
  8
constr
 62
256
370
-1
 48
1.0
  6
BYLAYER
100
AcDbLine
 10
43.6159355306288887
 20
18.0670943968297095
 30
0.0
 11
53.0
 21
20.5
 31
0.0
  0
LINE
  5
112
100
AcDbEntity
  8
constr
 62
256
370
-1
 48
1.0
  6
BYLAYER
100
AcDbLine
 10
43.6159355306288603
 20
-18.0670943968297095
 30
0.0
 11
53.0
 21
-20.5
 31
0.0
  0
LINE
  5
113
100
AcDbEntity
  8
constr
 62
256
370
-1
 48
1.0
  6
BYLAYER
100
AcDbLine
 10
53.0
 20
22.5
 30
0.0
 11
59.0
 21
22.5
 31
0.0
  0
LINE
  5
114
100
AcDbEntity
  8
constr
 62
256
370
-1
 48
1.0
  6
BYLAYER
100
AcDbLine
 10
53.0
 20
-22.5
 30
0.0
 11
59.0
 21
-22.5
 31
0.0
  0
LINE
  5
115
100
AcDbEntity
  8
constr
 62
256
370
-1
 48
1.0
  6
BYLAYER
100
AcDbLine
 10
53.0
 20
20.5
 30
0.0
 11
53.0
 21
22.5
 31
0.0
  0
LINE
  5
116
100
AcDbEntity
  8
constr
 62
256
370
-1
 48
1.0
  6
BYLAYER
100
AcDbLine
 10
53.0
 20
-20.5
 30
0.0
 11
53.0
 21
-22.5
 31
0.0
  0
LINE
  5
117
100
AcDbEntity
  8
constr
 62
256
370
-1
 48
1.0
  6
BYLAYER
100
AcDbLine
 10
73.0
 20
22.5
 30
0.0
 11
73.0
 21
26.5
 31
0.0
  0
LINE
  5
118
100
AcDbEntity
  8
constr
 62
256
370
-1
 48
1.0
  6
BYLAYER
100
AcDbLine
 10
73.0
 20
-22.5
 30
0.0
 11
73.0
 21
-26.5
 31
0.0
  0
LINE
  5
119
100
AcDbEntity
  8
constr
 62
256
370
-1
 48
1.0
  6
BYLAYER
100
AcDbLine
 10
74.0
 20
27.5
 30
0.0
 11
77.0
 21
27.5
 31
0.0
  0
LINE
  5
11A
100
AcDbEntity
  8
constr
 62
256
370
-1
 48
1.0
  6
BYLAYER
100
AcDbLine
 10
74.0
 20
-27.5
 30
0.0
 11
77.0
 21
-27.5
 31
0.0
  0
LINE
  5
11B
100
AcDbEntity
  8
constr
 62
256
370
-1
 48
1.0
  6
BYLAYER
100
AcDbLine
 10
78.0
 20
25.0
 30
0.0
 11
80.3602016191019288
 21
26.0115149796151286
 31
0.0
  0
LINE
  5
11C
100
AcDbEntity
  8
constr
 62
256
370
-1
 48
1.0
  6
BYLAYER
100
AcDbLine
 10
78.0
 20
-25.0
 30
0.0
 11
80.3602016191019288
 21
-26.0115149796151286
 31
0.0
  0
LINE
  5
11D
100
AcDbEntity
  8
constr
 62
256
370
-1
 48
1.0
  6
BYLAYER
100
AcDbLine
 10
61.5963296192464895
 20
-24.6612056417612422
 30
0.0
 11
65.5205356965378769
 21
-25.4086734660072153
 31
0.0
  0
LINE
  5
11E
100
AcDbEntity
  8
constr
 62
256
370
-1
 48
1.0
  6
BYLAYER
100
AcDbLine
 10
61.5963296192464895
 20
24.6612056417612422
 30
0.0
 11
65.5205356965378769
 21
25.4086734660072153
 31
0.0
  0
LINE
  5
11F
100
AcDbEntity
  8
constr
 62
256
370
-1
 48
1.0
  6
BYLAYER
100
AcDbLine
 10
66.4786063041083253
 20
25.4042787391783378
 30
0.0
 11
70.2577601514250318
 21
24.6484479697149936
 31
0.0
  0
LINE
  5
120
100
AcDbEntity
  8
constr
 62
256
370
-1
 48
1.0
  6
BYLAYER
100
AcDbLine
 10
66.4786063041083253
 20
-25.4042787391783378
 30
0.0
 11
70.2577601514250318
 21
-24.6484479697149936
 31
0.0
  0
ARC
  5
121
100
AcDbEntity
  8
constr
 62
256
370
-1
 48
1.0
  6
BYLAYER
100
AcDbCircle
 10
56.5689269266091515
 20
-36.0
 30
0.0
 40
2.5
100
AcDbArc
 50
244.3589941756947326
 51
270.0
  0
ARC
  5
122
100
AcDbEntity
  8
constr
 62
256
370
-1
 48
1.0
  6
BYLAYER
100
AcDbCircle
 10
56.5689269266091515
 20
36.0
 30
0.0
 40
2.5
100
AcDbArc
 50
90.0
 51
115.6410058243052958
  0
ARC
  5
123
100
AcDbEntity
  8
constr
 62
256
370
-1
 48
1.0
  6
BYLAYER
100
AcDbCircle
 10
76.8290626350388948
 20
36.0
 30
0.0
 40
2.5
100
AcDbArc
 50
39.8055710922651187
 51
90.0
  0
ARC
  5
124
100
AcDbEntity
  8
constr
 62
256
370
-1
 48
1.0
  6
BYLAYER
100
AcDbCircle
 10
76.8290626350388948
 20
-36.0
 30
0.0
 40
2.5
100
AcDbArc
 50
270.0
 51
320.1944289077348458
  0
ARC
  5
125
100
AcDbEntity
  8
constr
 62
256
370
-1
 48
1.0
  6
BYLAYER
100
AcDbCircle
 10
80.2667521342312398
 20
-31.8747726009691519
 30
0.0
 40
2.5
100
AcDbArc
 50
320.1944289077348458
 51
14.0362434679264059
  0
ARC
  5
126
100
AcDbEntity
  8
constr
 62
256
370
-1
 48
1.0
  6
BYLAYER
100
AcDbCircle
 10
80.2667521342312398
 20
31.8747726009691661
 30
0.0
 40
2.5
100
AcDbArc
 50
345.9637565320736599
 51
39.8055710922651897
  0
ARC
  5
127
100
AcDbEntity
  8
constr
 62
256
370
-1
 48
1.0
  6
BYLAYER
100
AcDbCircle
 10
79.3754033726540342
 20
28.3093775546602728
 30
0.0
 40
2.5
100
AcDbArc
 50
293.1985905136483552
 51
345.9637565320734325
  0
ARC
  5
128
100
AcDbEntity
  8
constr
 62
256
370
-1
 48
1.0
  6
BYLAYER
100
AcDbCircle
 10
79.3754033726540342
 20
-28.3093775546602728
 30
0.0
 40
2.5
100
AcDbArc
 50
14.0362434679265888
 51
66.80140948635173
  0
ARC
  5
129
100
AcDbEntity
  8
constr
 62
256
370
-1
 48
1.0
  6
BYLAYER
100
AcDbCircle
 10
77.0
 20
26.5
 30
0.0
 40
1.0
100
AcDbArc
 50
360.0
 51
90.0
  0
ARC
  5
12A
100
AcDbEntity
  8
constr
 62
256
370
-1
 48
1.0
  6
BYLAYER
100
AcDbCircle
 10
77.0
 20
-26.5
 30
0.0
 40
1.0
100
AcDbArc
 50
270.0
 51
360.0
  0
ARC
  5
12B
100
AcDbEntity
  8
constr
 62
256
370
-1
 48
1.0
  6
BYLAYER
100
AcDbCircle
 10
74.0
 20
26.5
 30
0.0
 40
1.0
100
AcDbArc
 50
90.0
 51
180.0
  0
ARC
  5
12C
100
AcDbEntity
  8
constr
 62
256
370
-1
 48
1.0
  6
BYLAYER
100
AcDbCircle
 10
74.0
 20
-26.5
 30
0.0
 40
1.0
100
AcDbArc
 50
180.0
 51
270.0
  0
ARC
  5
12D
100
AcDbEntity
  8
constr
 62
256
370
-1
 48
1.0
  6
BYLAYER
100
AcDbCircle
 10
69.7674698135795666
 20
22.1969962804876957
 30
0.0
 40
2.5
100
AcDbArc
 50
45.0000000000000568
 51
78.6900675259796998
  0
ARC
  5
12E
100
AcDbEntity
  8
constr
 62
256
370
-1
 48
1.0
  6
BYLAYER
100
AcDbCircle
 10
69.7674698135795666
 20
-22.1969962804876957
 30
0.0
 40
2.5
100
AcDbArc
 50
281.309932474020286
 51
314.9999999999999432
  0
ARC
  5
12F
100
AcDbEntity
  8
constr
 62
256
370
-1
 48
1.0
  6
BYLAYER
100
AcDbCircle
 10
65.98831596626286
 20
-22.9528270499510256
 30
0.0
 40
2.5
100
AcDbArc
 50
259.2157021324374568
 51
281.309932474020286
  0
ARC
  5
130
100
AcDbEntity
  8
constr
 62
256
370
-1
 48
1.0
  6
BYLAYER
100
AcDbCircle
 10
65.98831596626286
 20
22.9528270499510256
 30
0.0
 40
2.5
100
AcDbArc
 50
78.690067525979714
 51
100.7842978675624863
  0
ARC
  5
131
100
AcDbEntity
  8
constr
 62
256
370
-1
 48
1.0
  6
BYLAYER
100
AcDbCircle
 10
62.0641098889714726
 20
-22.2053592257050525
 30
0.0
 40
2.5
100
AcDbArc
 50
221.1859251657096195
 51
259.2157021324373432
  0
ARC
  5
132
100
AcDbEntity
  8
constr
 62
256
370
-1
 48
1.0
  6
BYLAYER
100
AcDbCircle
 10
62.0641098889714726
 20
22.2053592257050525
 30
0.0
 40
2.5
100
AcDbArc
 50
100.7842978675626426
 51
138.8140748342903805
  0
LINE
  5
133
100
AcDbEntity
  8
constr
 62
256
370
-1
 48
1.0
  6
BYLAYER
100
AcDbLine
 10
-2.0
 20
14.5
 30
0.0
 11
0.0
 21
14.5
 31
0.0
  0
LINE
  5
134
100
AcDbEntity
  8
constr
 62
256
370
-1
 48
1.0
  6
BYLAYER
100
AcDbLine
 10
-2.0
 20
-14.5
 30
0.0
 11
0.0
 21
-14.5
 31
0.0
  0
LINE
  5
135
100
AcDbEntity
  8
constr
 62
256
370
-1
 48
1.0
  6
BYLAYER
100
AcDbLine
 10
-10.0
 20
-3.0
 30
0.0
 11
-10.0
 21
-6.5
 31
0.0
  0
ARC
  5
136
100
AcDbEntity
  8
constr
 62
256
370
-1
 48
1.0
  6
BYLAYER
100
AcDbCircle
 10
-2.0
 20
6.5
 30
0.0
 40
8.0
100
AcDbArc
 50
90.0
 51
180.0
  0
ARC
  5
137
100
AcDbEntity
  8
constr
 62
256
370
-1
 48
1.0
  6
BYLAYER
100
AcDbCircle
 10
-2.0
 20
-6.5
 30
0.0
 40
8.0
100
AcDbArc
 50
180.0
 51
270.0
  0
LINE
  5
138
100
AcDbEntity
  8
constr
 62
256
370
-1
 48
1.0
  6
BYLAYER
100
AcDbLine
 10
-4.0
 20
3.0
 30
0.0
 11
-4.0
 21
-3.0
 31
0.0
  0
LINE
  5
139
100
AcDbEntity
  8
constr
 62
256
370
-1
 48
1.0
  6
BYLAYER
100
AcDbLine
 10
-10.0
 20
2.9999999999999996
 30
0.0
 11
-10.0
 21
6.5000000000000009
 31
0.0
  0
LINE
  5
13A
100
AcDbEntity
  8
constr
 62
256
370
-1
 48
1.0
  6
BYLAYER
100
AcDbLine
 10
-10.0
 20
3.0
 30
0.0
 11
-4.0
 21
3.0
 31
0.0
  0
LINE
  5
13B
100
AcDbEntity
  8
constr
 62
256
370
-1
 48
1.0
  6
BYLAYER
100
AcDbLine
 10
-10.0
 20
-3.0
 30
0.0
 11
-4.0
 21
-3.0
 31
0.0
  0
LINE
  5
13C
100
AcDbEntity
  8
constr
 62
256
370
-1
 48
1.0
  6
BYLAYER
100
AcDbLine
 10
26.0
 20
-10.5000000000000018
 30
0.0
 11
26.0
 21
-3.0000000000000027
 31
0.0
  0
LINE
  5
13D
100
AcDbEntity
  8
constr
 62
256
370
-1
 48
1.0
  6
BYLAYER
100
AcDbLine
 10
32.0415344580571286
 20
10.9027689638704715
 30
0.0
 11
26.0
 21
10.4999999999999964
 31
0.0
  0
LINE
  5
13E
100
AcDbEntity
  8
constr
 62
256
370
-1
 48
1.0
  6
BYLAYER
100
AcDbLine
 10
26.0
 20
-10.5000000000000018
 30
0.0
 11
32.0415344580571286
 21
-10.9027689638704803
 31
0.0
  0
LINE
  5
13F
100
AcDbEntity
  8
constr
 62
256
370
-1
 48
1.0
  6
BYLAYER
100
AcDbLine
 10
26.0
 20
2.9999999999999951
 30
0.0
 11
9.0
 21
3.0
 31
0.0
  0
LINE
  5
140
100
AcDbEntity
  8
constr
 62
256
370
-1
 48
1.0
  6
BYLAYER
100
AcDbLine
 10
26.0
 20
-3.0000000000000027
 30
0.0
 11
9.0
 21
-3.0
 31
0.0
  0
LINE
  5
141
100
AcDbEntity
  8
constr
 62
256
370
-1
 48
1.0
  6
BYLAYER
100
AcDbLine
 10
9.0
 20
3.0
 30
0.0
 11
9.0
 21
-3.0
 31
0.0
  0
LINE
  5
142
100
AcDbEntity
  8
constr
 62
256
370
-1
 48
1.0
  6
BYLAYER
100
AcDbLine
 10
36.9677857264616705
 20
14.3442762954213183
 30
0.0
 11
34.5521469988748606
 21
12.0146734963426134
 31
0.0
  0
LINE
  5
143
100
AcDbEntity
  8
constr
 62
256
370
-1
 48
1.0
  6
BYLAYER
100
AcDbLine
 10
36.9677857264616705
 20
-14.3442762954213237
 30
0.0
 11
34.5521469988748606
 21
-12.0146734963426116
 31
0.0
  0
LINE
  5
144
100
AcDbEntity
  8
constr
 62
256
370
-1
 48
1.0
  6
BYLAYER
100
AcDbLine
 10
26.0
 20
10.4999999999999964
 30
0.0
 11
26.0
 21
2.9999999999999951
 31
0.0
  0
ARC
  5
145
100
AcDbEntity
  8
constr
 62
256
370
-1
 48
1.0
  6
BYLAYER
100
AcDbCircle
 10
47.3803679123847701
 20
3.5471409243426999
 30
0.0
 40
15.0
100
AcDbArc
 50
104.5344550805401411
 51
133.9612845823534428
  0
ARC
  5
146
100
AcDbEntity
  8
constr
 62
256
370
-1
 48
1.0
  6
BYLAYER
100
AcDbCircle
 10
47.3803679123847701
 20
-3.5471409243426955
 30
0.0
 40
15.0
100
AcDbArc
 50
226.038715417646614
 51
255.4655449194598589
  0
ARC
  5
147
100
AcDbEntity
  8
constr
 62
256
370
-1
 48
1.0
  6
BYLAYER
100
AcDbCircle
 10
31.7754584159620208
 20
-14.8939095952969165
 30
0.0
 40
4.0
100
AcDbArc
 50
46.0387154176466424
 51
86.1859251657096195
  0
ARC
  5
148
100
AcDbEntity
  8
constr
 62
256
370
-1
 48
1.0
  6
BYLAYER
100
AcDbCircle
 10
31.7754584159620492
 20
14.8939095952969076
 30
0.0
 40
4.0
100
AcDbArc
 50
273.8140748342903521
 51
313.9612845823534713
  0
ENDBLK
  5
149
100
AcDbEntity
  8
0
100
AcDbBlockEnd
  0
BLOCK
  5
14A
100
AcDbEntity
  8
0
100
AcDbBlockBegin
  2
rond_centre
 70
0
 10
0.0
 20
0.0
 30
0.0
  3
rond_centre
  1

  0
CIRCLE
  5
14B
100
AcDbEntity
  8
int
 62
256
370
-1
 48
1.0
  6
BYLAYER
100
AcDbCircle
 10
0.0
 20
0.0
 30
0.0
 40
13.0
  0
LINE
  5
14C
100
AcDbEntity
  8
ext
 62
256
370
-1
 48
1.0
  6
BYLAYER
100
AcDbLine
 10
22.5
 20
2.9999999999999871
 30
0.0
 11
22.4999999999999964
 21
-2.9999999999999982
 31
0.0
  0
LINE
  5
14D
100
AcDbEntity
  8
ext
 62
256
370
-1
 48
1.0
  6
BYLAYER
100
AcDbLine
 10
-3.0
 20
22.4999999999999964
 30
0.0
 11
3.0
 21
22.4999999999999964
 31
0.0
  0
LINE
  5
14E
100
AcDbEntity
  8
ext
 62
256
370
-1
 48
1.0
  6
BYLAYER
100
AcDbLine
 10
2.999999999999988
 20
-22.5
 30
0.0
 11
-2.9999999999999969
 21
-22.4999999999999964
 31
0.0
  0
LINE
  5
14F
100
AcDbEntity
  8
ext
 62
256
370
-1
 48
1.0
  6
BYLAYER
100
AcDbLine
 10
-22.4999999999999964
 20
-2.9999999999999996
 30
0.0
 11
-22.4999999999999964
 21
2.9999999999999951
 31
0.0
  0
LINE
  5
150
100
AcDbEntity
  8
ext
 62
256
370
-1
 48
1.0
  6
BYLAYER
100
AcDbLine
 10
2.999999999999988
 20
-22.5
 30
0.0
 11
2.9999999999999925
 21
-27.3358738656732889
 31
0.0
  0
LINE
  5
151
100
AcDbEntity
  8
ext
 62
256
370
-1
 48
1.0
  6
BYLAYER
100
AcDbLine
 10
-3.0
 20
22.4999999999999964
 30
0.0
 11
-2.9999999999999996
 21
27.3358738656732889
 31
0.0
  0
LINE
  5
152
100
AcDbEntity
  8
ext
 62
256
370
-1
 48
1.0
  6
BYLAYER
100
AcDbLine
 10
22.5
 20
2.9999999999999871
 30
0.0
 11
27.3358738656732854
 21
2.9999999999999907
 31
0.0
  0
LINE
  5
153
100
AcDbEntity
  8
ext
 62
256
370
-1
 48
1.0
  6
BYLAYER
100
AcDbLine
 10
-22.4999999999999964
 20
-2.9999999999999996
 30
0.0
 11
-27.3358738656732889
 21
-2.9999999999999938
 31
0.0
  0
LINE
  5
154
100
AcDbEntity
  8
ext
 62
256
370
-1
 48
1.0
  6
BYLAYER
100
AcDbLine
 10
22.4999999999999964
 20
-2.9999999999999982
 30
0.0
 11
27.3358738656732925
 21
-3.000000000000004
 31
0.0
  0
LINE
  5
155
100
AcDbEntity
  8
ext
 62
256
370
-1
 48
1.0
  6
BYLAYER
100
AcDbLine
 10
3.0
 20
22.4999999999999964
 30
0.0
 11
3.0000000000000004
 21
27.3358738656732854
 31
0.0
  0
LINE
  5
156
100
AcDbEntity
  8
ext
 62
256
370
-1
 48
1.0
  6
BYLAYER
100
AcDbLine
 10
-22.4999999999999964
 20
2.9999999999999951
 30
0.0
 11
-27.3358738656732925
 21
3.0000000000000004
 31
0.0
  0
LINE
  5
157
100
AcDbEntity
  8
ext
 62
256
370
-1
 48
1.0
  6
BYLAYER
100
AcDbLine
 10
-2.9999999999999969
 20
-22.4999999999999964
 30
0.0
 11
-3.0000000000000022
 21
-27.3358738656732925
 31
0.0
  0
ARC
  5
158
100
AcDbEntity
  8
ext
 62
256
370
-1
 48
1.0
  6
BYLAYER
100
AcDbCircle
 10
-0.0000000000000053
 20
0.0
 30
0.0
 40
27.5
100
AcDbArc
 50
96.2629131261393809
 51
173.7370868738605907
  0
ARC
  5
159
100
AcDbEntity
  8
ext
 62
256
370
-1
 48
1.0
  6
BYLAYER
100
AcDbCircle
 10
-0.0000000000000036
 20
-0.0000000000000018
 30
0.0
 40
27.5
100
AcDbArc
 50
6.2629131261394155
 51
83.7370868738606049
  0
ARC
  5
15A
100
AcDbEntity
  8
ext
 62
256
370
-1
 48
1.0
  6
BYLAYER
100
AcDbCircle
 10
0.0000000000000036
 20
0.0000000000000018
 30
0.0
 40
27.5
100
AcDbArc
 50
276.2629131261393809
 51
353.7370868738606191
  0
ARC
  5
15B
100
AcDbEntity
  8
ext
 62
256
370
-1
 48
1.0
  6
BYLAYER
100
AcDbCircle
 10
0.0000000000000018
 20
-0.0000000000000018
 30
0.0
 40
27.5
100
AcDbArc
 50
186.2629131261394093
 51
263.7370868738606191
  0
ENDBLK
  5
15C
100
AcDbEntity
  8
0
100
AcDbBlockEnd
  0
BLOCK
  5
15D
100
AcDbEntity
  8
0
100
AcDbBlockBegin
  2
raccord
 70
0
 10
0.0
 20
0.0
 30
0.0
  3
raccord
  1

  0
CIRCLE
  5
15E
100
AcDbEntity
  8
int
 62
256
370
-1
 48
1.0
  6
BYLAYER
100
AcDbCircle
 10
0.0
 20
40.0
 30
0.0
 40
3.0
  0
CIRCLE
  5
15F
100
AcDbEntity
  8
int
 62
256
370
-1
 48
1.0
  6
BYLAYER
100
AcDbCircle
 10
0.0
 20
10.0
 30
0.0
 40
3.0
  0
LINE
  5
160
100
AcDbEntity
  8
ext
 62
256
370
-1
 48
1.0
  6
BYLAYER
100
AcDbLine
 10
-2.0
 20
50.0
 30
0.0
 11
2.0
 21
50.0
 31
0.0
  0
LINE
  5
161
100
AcDbEntity
  8
ext
 62
256
370
-1
 48
1.0
  6
BYLAYER
100
AcDbLine
 10
10.0
 20
42.0
 30
0.0
 11
10.0
 21
8.0
 31
0.0
  0
LINE
  5
162
100
AcDbEntity
  8
ext
 62
256
370
-1
 48
1.0
  6
BYLAYER
100
AcDbLine
 10
2.0
 20
0.0
 30
0.0
 11
-2.0
 21
0.0
 31
0.0
  0
LINE
  5
163
100
AcDbEntity
  8
ext
 62
256
370
-1
 48
1.0
  6
BYLAYER
100
AcDbLine
 10
-10.0
 20
8.0
 30
0.0
 11
-10.0
 21
42.0
 31
0.0
  0
ARC
  5
164
100
AcDbEntity
  8
ext
 62
256
370
-1
 48
1.0
  6
BYLAYER
100
AcDbCircle
 10
-2.0
 20
42.0
 30
0.0
 40
8.0
100
AcDbArc
 50
90.0
 51
180.0
  0
ARC
  5
165
100
AcDbEntity
  8
ext
 62
256
370
-1
 48
1.0
  6
BYLAYER
100
AcDbCircle
 10
2.0
 20
42.0
 30
0.0
 40
8.0
100
AcDbArc
 50
0.0
 51
90.0
  0
ARC
  5
166
100
AcDbEntity
  8
ext
 62
256
370
-1
 48
1.0
  6
BYLAYER
100
AcDbCircle
 10
2.0
 20
8.0
 30
0.0
 40
8.0
100
AcDbArc
 50
270.0
 51
0.0
  0
ARC
  5
167
100
AcDbEntity
  8
ext
 62
256
370
-1
 48
1.0
  6
BYLAYER
100
AcDbCircle
 10
-2.0
 20
8.0
 30
0.0
 40
8.0
100
AcDbArc
 50
180.0
 51
270.0
  0
CIRCLE
  5
168
100
AcDbEntity
  8
int
 62
256
370
-1
 48
1.0
  6
BYLAYER
100
AcDbCircle
 10
0.0
 20
25.0
 30
0.0
 40
5.0
  0
ENDBLK
  5
169
100
AcDbEntity
  8
0
100
AcDbBlockEnd
  0
ENDSEC
  0
SECTION
  2
ENTITIES
  0
LINE
  5
16A
100
AcDbEntity
  8
ext
 62
256
370
-1
 48
1.0
  6
BYLAYER
100
AcDbLine
 10
72.0
 20
43.5000000000000213
 30
0.0
 11
71.9999999999999858
 21
45.0000000000000568
 31
0.0
  0
LINE
  5
16B
100
AcDbEntity
  8
ext
 62
256
370
-1
 48
1.0
  6
BYLAYER
100
AcDbLine
 10
113.0
 20
13.5
 30
0.0
 11
113.0
 21
15.0
 31
0.0
  0
LINE
  5
16C
100
AcDbEntity
  8
ext
 62
256
370
-1
 48
1.0
  6
BYLAYER
100
AcDbLine
 10
72.0
 20
96.5000000000000284
 30
0.0
 11
72.0
 21
94.9999999999999716
 31
0.0
  0
LINE
  5
16D
100
AcDbEntity
  8
ext
 62
256
370
-1
 48
1.0
  6
BYLAYER
100
AcDbLine
 10
113.0
 20
66.5
 30
0.0
 11
113.0
 21
65.0
 31
0.0
  0
LINE
  5
16E
100
AcDbEntity
  8
ext
 62
256
370
-1
 48
1.0
  6
BYLAYER
100
AcDbLine
 10
91.0
 20
47.5
 30
0.0
 11
89.8173318477956855
 21
46.1483792546236344
 31
0.0
  0
LINE
  5
16F
100
AcDbEntity
  8
ext
 62
256
370
-1
 48
1.0
  6
BYLAYER
100
AcDbLine
 10
94.0
 20
17.5
 30
0.0
 11
95.1826681522043145
 21
16.1483792546236486
 31
0.0
  0
LINE
  5
170
100
AcDbEntity
  8
ext
 62
256
370
-1
 48
1.0
  6
BYLAYER
100
AcDbLine
 10
90.9999999999999716
 20
92.4999999999999432
 30
0.0
 11
89.8173318477956855
 21
93.851620745376394
 31
0.0
  0
LINE
  5
171
100
AcDbEntity
  8
ext
 62
256
370
-1
 48
1.0
  6
BYLAYER
100
AcDbLine
 10
94.0
 20
62.5
 30
0.0
 11
95.1826681522043145
 21
63.8516207453763514
 31
0.0
  0
LINE
  5
172
100
AcDbEntity
  8
ext
 62
256
370
-1
 48
1.0
  6
BYLAYER
100
AcDbLine
 10
78.4647632334540504
 20
46.0352367665459354
 30
0.0
 11
77.0
 21
47.4999999999999787
 31
0.0
  0
LINE
  5
173
100
AcDbEntity
  8
ext
 62
256
370
-1
 48
1.0
  6
BYLAYER
100
AcDbLine
 10
106.5352367665459496
 20
16.0352367665459354
 30
0.0
 11
108.0
 21
17.5
 31
0.0
  0
LINE
  5
174
100
AcDbEntity
  8
ext
 62
256
370
-1
 48
1.0
  6
BYLAYER
100
AcDbLine
 10
78.4647632334540646
 20
93.964763233454093
 30
0.0
 11
77.0000000000000142
 21
92.5000000000000568
 31
0.0
  0
LINE
  5
175
100
AcDbEntity
  8
ext
 62
256
370
-1
 48
1.0
  6
BYLAYER
100
AcDbLine
 10
106.5352367665459496
 20
63.9647632334540646
 30
0.0
 11
108.0
 21
62.5
 31
0.0
  0
LINE
  5
176
100
AcDbEntity
  8
ext
 62
256
370
-1
 48
1.0
  6
BYLAYER
100
AcDbLine
 10
68.1992403769826865
 20
97.7030384920695667
 30
0.0
 11
67.3078916154054241
 21
101.2684335383783036
 31
0.0
  0
LINE
  5
177
100
AcDbEntity
  8
ext
 62
256
370
-1
 48
1.0
  6
BYLAYER
100
AcDbLine
 10
116.8007596230173704
 20
67.7030384920694388
 30
0.0
 11
117.6921083845945759
 21
71.2684335383783321
 31
0.0
  0
LINE
  5
178
100
AcDbEntity
  8
ext
 62
256
370
-1
 48
1.0
  6
BYLAYER
100
AcDbLine
 10
68.1992403769826296
 20
42.2969615079305754
 30
0.0
 11
67.3078916154054241
 21
38.7315664616216964
 31
0.0
  0
LINE
  5
179
100
AcDbEntity
  8
ext
 62
256
370
-1
 48
1.0
  6
BYLAYER
100
AcDbLine
 10
116.8007596230173704
 20
12.2969615079305612
 30
0.0
 11
117.6921083845945759
 21
8.7315664616216679
 31
0.0
  0
LINE
  5
17A
100
AcDbEntity
  8
ext
 62
256
370
-1
 48
1.0
  6
BYLAYER
100
AcDbLine
 10
67.8126946667753145
 20
36.5247663998695984
 30
0.0
 11
71.2503841659676596
 21
32.3995390008387929
 31
0.0
  0
LINE
  5
17B
100
AcDbEntity
  8
ext
 62
256
370
-1
 48
1.0
  6
BYLAYER
100
AcDbLine
 10
117.1873053332246855
 20
6.5247663998696339
 30
0.0
 11
113.7496158340323404
 21
2.3995390008387858
 31
0.0
  0
LINE
  5
17C
100
AcDbEntity
  8
ext
 62
256
370
-1
 48
1.0
  6
BYLAYER
100
AcDbLine
 10
67.8126946667753714
 20
103.4752336001305082
 30
0.0
 11
71.2503841659677164
 21
107.6004609991613563
 31
0.0
  0
LINE
  5
17D
100
AcDbEntity
  8
ext
 62
256
370
-1
 48
1.0
  6
BYLAYER
100
AcDbLine
 10
117.1873053332246855
 20
73.4752336001303661
 30
0.0
 11
113.7496158340323404
 21
77.6004609991612
 31
0.0
  0
LINE
  5
17E
100
AcDbEntity
  8
ext
 62
256
370
-1
 48
1.0
  6
BYLAYER
100
AcDbLine
 10
73.1709373649611052
 20
31.5
 30
0.0
 11
93.4310730733908343
 21
31.5000000000000213
 31
0.0
  0
LINE
  5
17F
100
AcDbEntity
  8
ext
 62
256
370
-1
 48
1.0
  6
BYLAYER
100
AcDbLine
 10
111.8290626350388948
 20
1.5
 30
0.0
 11
91.5689269266091515
 21
1.5
 31
0.0
  0
LINE
  5
180
100
AcDbEntity
  8
ext
 62
256
370
-1
 48
1.0
  6
BYLAYER
100
AcDbLine
 10
73.1709373649610768
 20
108.4999999999999432
 30
0.0
 11
93.4310730733908485
 21
108.5
 31
0.0
  0
LINE
  5
181
100
AcDbEntity
  8
ext
 62
256
370
-1
 48
1.0
  6
BYLAYER
100
AcDbLine
 10
111.8290626350388948
 20
78.5
 30
0.0
 11
91.5689269266091515
 21
78.5
 31
0.0
  0
LINE
  5
182
100
AcDbEntity
  8
ext
 62
256
370
-1
 48
1.0
  6
BYLAYER
100
AcDbLine
 10
94.512900742352798
 20
108.2538076436707684
 30
0.0
 11
144.0000000000000284
 21
84.5
 31
0.0
  0
LINE
  5
183
100
AcDbEntity
  8
ext
 62
256
370
-1
 48
1.0
  6
BYLAYER
100
AcDbLine
 10
90.4870992576472588
 20
78.2538076436706831
 30
0.0
 11
41.0
 21
54.5
 31
0.0
  0
LINE
  5
184
100
AcDbEntity
  8
ext
 62
256
370
-1
 48
1.0
  6
BYLAYER
100
AcDbLine
 10
94.5129007423527412
 20
31.7461923563293027
 30
0.0
 11
144.0
 21
55.5
 31
0.0
  0
LINE
  5
185
100
AcDbEntity
  8
ext
 62
256
370
-1
 48
1.0
  6
BYLAYER
100
AcDbLine
 10
90.4870992576472588
 20
1.7461923563293169
 30
0.0
 11
41.0
 21
25.5
 31
0.0
  0
LINE
  5
186
100
AcDbEntity
  8
ext
 62
256
370
-1
 48
1.0
  6
BYLAYER
100
AcDbLine
 10
144.0000000000000284
 20
84.5
 30
0.0
 11
150.0
 21
84.5
 31
0.0
  0
LINE
  5
187
100
AcDbEntity
  8
ext
 62
256
370
-1
 48
1.0
  6
BYLAYER
100
AcDbLine
 10
144.0
 20
55.5
 30
0.0
 11
150.0
 21
55.5
 31
0.0
  0
LINE
  5
188
100
AcDbEntity
  8
ext
 62
256
370
-1
 48
1.0
  6
BYLAYER
100
AcDbLine
 10
106.3840644693711255
 20
88.0670943968297451
 30
0.0
 11
97.0
 21
90.4999999999999858
 31
0.0
  0
LINE
  5
189
100
AcDbEntity
  8
ext
 62
256
370
-1
 48
1.0
  6
BYLAYER
100
AcDbLine
 10
78.6159355306288887
 20
58.0670943968297095
 30
0.0
 11
88.0
 21
60.5
 31
0.0
  0
LINE
  5
18A
100
AcDbEntity
  8
ext
 62
256
370
-1
 48
1.0
  6
BYLAYER
100
AcDbLine
 10
106.3840644693711255
 20
51.9329056031702834
 30
0.0
 11
97.0
 21
49.4999999999999929
 31
0.0
  0
LINE
  5
18B
100
AcDbEntity
  8
ext
 62
256
370
-1
 48
1.0
  6
BYLAYER
100
AcDbLine
 10
78.6159355306288603
 20
21.9329056031702905
 30
0.0
 11
88.0
 21
19.5
 31
0.0
  0
LINE
  5
18C
100
AcDbEntity
  8
ext
 62
256
370
-1
 48
1.0
  6
BYLAYER
100
AcDbLine
 10
97.0
 20
92.5000000000000284
 30
0.0
 11
90.9999999999999716
 21
92.4999999999999432
 31
0.0
  0
LINE
  5
18D
100
AcDbEntity
  8
ext
 62
256
370
-1
 48
1.0
  6
BYLAYER
100
AcDbLine
 10
88.0
 20
62.5
 30
0.0
 11
94.0
 21
62.5
 31
0.0
  0
LINE
  5
18E
100
AcDbEntity
  8
ext
 62
256
370
-1
 48
1.0
  6
BYLAYER
100
AcDbLine
 10
97.0
 20
47.5000000000000284
 30
0.0
 11
91.0
 21
47.5
 31
0.0
  0
LINE
  5
18F
100
AcDbEntity
  8
ext
 62
256
370
-1
 48
1.0
  6
BYLAYER
100
AcDbLine
 10
88.0
 20
17.5
 30
0.0
 11
94.0
 21
17.5
 31
0.0
  0
LINE
  5
190
100
AcDbEntity
  8
ext
 62
256
370
-1
 48
1.0
  6
BYLAYER
100
AcDbLine
 10
97.0
 20
90.4999999999999858
 30
0.0
 11
97.0
 21
92.5000000000000284
 31
0.0
  0
LINE
  5
191
100
AcDbEntity
  8
ext
 62
256
370
-1
 48
1.0
  6
BYLAYER
100
AcDbLine
 10
88.0
 20
60.5
 30
0.0
 11
88.0
 21
62.5
 31
0.0
  0
LINE
  5
192
100
AcDbEntity
  8
ext
 62
256
370
-1
 48
1.0
  6
BYLAYER
100
AcDbLine
 10
97.0
 20
49.4999999999999929
 30
0.0
 11
97.0
 21
47.5000000000000284
 31
0.0
  0
LINE
  5
193
100
AcDbEntity
  8
ext
 62
256
370
-1
 48
1.0
  6
BYLAYER
100
AcDbLine
 10
88.0
 20
19.5
 30
0.0
 11
88.0
 21
17.5
 31
0.0
  0
LINE
  5
194
100
AcDbEntity
  8
ext
 62
256
370
-1
 48
1.0
  6
BYLAYER
100
AcDbLine
 10
77.0000000000000142
 20
92.5000000000000568
 30
0.0
 11
76.9999999999999858
 21
96.4999999999999432
 31
0.0
  0
LINE
  5
195
100
AcDbEntity
  8
ext
 62
256
370
-1
 48
1.0
  6
BYLAYER
100
AcDbLine
 10
108.0
 20
62.5
 30
0.0
 11
108.0
 21
66.5
 31
0.0
  0
LINE
  5
196
100
AcDbEntity
  8
ext
 62
256
370
-1
 48
1.0
  6
BYLAYER
100
AcDbLine
 10
77.0
 20
47.4999999999999787
 30
0.0
 11
77.0
 21
43.5000000000000213
 31
0.0
  0
LINE
  5
197
100
AcDbEntity
  8
ext
 62
256
370
-1
 48
1.0
  6
BYLAYER
100
AcDbLine
 10
108.0
 20
17.5
 30
0.0
 11
108.0
 21
13.5
 31
0.0
  0
LINE
  5
198
100
AcDbEntity
  8
ext
 62
256
370
-1
 48
1.0
  6
BYLAYER
100
AcDbLine
 10
75.9999999999999858
 20
97.4999999999999574
 30
0.0
 11
73.0000000000000142
 21
97.5000000000000426
 31
0.0
  0
LINE
  5
199
100
AcDbEntity
  8
ext
 62
256
370
-1
 48
1.0
  6
BYLAYER
100
AcDbLine
 10
109.0
 20
67.5
 30
0.0
 11
112.0
 21
67.5
 31
0.0
  0
LINE
  5
19A
100
AcDbEntity
  8
ext
 62
256
370
-1
 48
1.0
  6
BYLAYER
100
AcDbLine
 10
76.0
 20
42.5000000000000142
 30
0.0
 11
73.0
 21
42.4999999999999929
 31
0.0
  0
LINE
  5
19B
100
AcDbEntity
  8
ext
 62
256
370
-1
 48
1.0
  6
BYLAYER
100
AcDbLine
 10
109.0
 20
12.5
 30
0.0
 11
112.0
 21
12.5
 31
0.0
  0
LINE
  5
19C
100
AcDbEntity
  8
ext
 62
256
370
-1
 48
1.0
  6
BYLAYER
100
AcDbLine
 10
72.0
 20
94.9999999999999716
 30
0.0
 11
69.639798380898057
 21
96.0115149796151002
 31
0.0
  0
LINE
  5
19D
100
AcDbEntity
  8
ext
 62
256
370
-1
 48
1.0
  6
BYLAYER
100
AcDbLine
 10
113.0
 20
65.0
 30
0.0
 11
115.3602016191019288
 21
66.0115149796151286
 31
0.0
  0
LINE
  5
19E
100
AcDbEntity
  8
ext
 62
256
370
-1
 48
1.0
  6
BYLAYER
100
AcDbLine
 10
71.9999999999999858
 20
45.0000000000000568
 30
0.0
 11
69.6397983808980712
 21
43.9884850203848714
 31
0.0
  0
LINE
  5
19F
100
AcDbEntity
  8
ext
 62
256
370
-1
 48
1.0
  6
BYLAYER
100
AcDbLine
 10
113.0
 20
15.0
 30
0.0
 11
115.3602016191019288
 21
13.9884850203848714
 31
0.0
  0
LINE
  5
1A0
100
AcDbEntity
  8
ext
 62
256
370
-1
 48
1.0
  6
BYLAYER
100
AcDbLine
 10
88.4036703807535105
 20
45.3387943582387862
 30
0.0
 11
84.4794643034621089
 21
44.591326533992806
 31
0.0
  0
LINE
  5
1A1
100
AcDbEntity
  8
ext
 62
256
370
-1
 48
1.0
  6
BYLAYER
100
AcDbLine
 10
96.5963296192464895
 20
15.3387943582387578
 30
0.0
 11
100.5205356965378769
 21
14.5913265339927847
 31
0.0
  0
LINE
  5
1A2
100
AcDbEntity
  8
ext
 62
256
370
-1
 48
1.0
  6
BYLAYER
100
AcDbLine
 10
88.4036703807535105
 20
94.661205641761228
 30
0.0
 11
84.4794643034621373
 21
95.408673466007258
 31
0.0
  0
LINE
  5
1A3
100
AcDbEntity
  8
ext
 62
256
370
-1
 48
1.0
  6
BYLAYER
100
AcDbLine
 10
96.5963296192464895
 20
64.6612056417612422
 30
0.0
 11
100.5205356965378769
 21
65.4086734660072153
 31
0.0
  0
LINE
  5
1A4
100
AcDbEntity
  8
ext
 62
256
370
-1
 48
1.0
  6
BYLAYER
100
AcDbLine
 10
83.5213936958916605
 20
95.4042787391782809
 30
0.0
 11
79.7422398485749824
 21
94.6484479697150078
 31
0.0
  0
LINE
  5
1A5
100
AcDbEntity
  8
ext
 62
256
370
-1
 48
1.0
  6
BYLAYER
100
AcDbLine
 10
101.4786063041083253
 20
65.4042787391783378
 30
0.0
 11
105.2577601514250318
 21
64.6484479697149936
 31
0.0
  0
LINE
  5
1A6
100
AcDbEntity
  8
ext
 62
256
370
-1
 48
1.0
  6
BYLAYER
100
AcDbLine
 10
83.5213936958916605
 20
44.5957212608216906
 30
0.0
 11
79.7422398485749682
 21
45.351552030285049
 31
0.0
  0
LINE
  5
1A7
100
AcDbEntity
  8
ext
 62
256
370
-1
 48
1.0
  6
BYLAYER
100
AcDbLine
 10
101.4786063041083253
 20
14.5957212608216622
 30
0.0
 11
105.2577601514250318
 21
15.3515520302850064
 31
0.0
  0
ARC
  5
1A8
100
AcDbEntity
  8
ext
 62
256
370
-1
 48
1.0
  6
BYLAYER
100
AcDbCircle
 10
93.4310730733908485
 20
34.0000000000000142
 30
0.0
 40
2.5
100
AcDbArc
 50
270.0
 51
295.6410058243053527
  0
ARC
  5
1A9
100
AcDbEntity
  8
ext
 62
256
370
-1
 48
1.0
  6
BYLAYER
100
AcDbCircle
 10
91.5689269266091515
 20
4.0
 30
0.0
 40
2.5
100
AcDbArc
 50
244.3589941756947326
 51
270.0
  0
ARC
  5
1AA
100
AcDbEntity
  8
ext
 62
256
370
-1
 48
1.0
  6
BYLAYER
100
AcDbCircle
 10
93.4310730733908201
 20
105.9999999999999716
 30
0.0
 40
2.5
100
AcDbArc
 50
64.3589941756947184
 51
90.0
  0
ARC
  5
1AB
100
AcDbEntity
  8
ext
 62
256
370
-1
 48
1.0
  6
BYLAYER
100
AcDbCircle
 10
91.5689269266091515
 20
76.0
 30
0.0
 40
2.5
100
AcDbArc
 50
90.0
 51
115.6410058243052958
  0
ARC
  5
1AC
100
AcDbEntity
  8
ext
 62
256
370
-1
 48
1.0
  6
BYLAYER
100
AcDbCircle
 10
73.1709373649611337
 20
106.0000000000000426
 30
0.0
 40
2.5
100
AcDbArc
 50
90.0
 51
140.1944289077348742
  0
ARC
  5
1AD
100
AcDbEntity
  8
ext
 62
256
370
-1
 48
1.0
  6
BYLAYER
100
AcDbCircle
 10
111.8290626350388948
 20
76.0
 30
0.0
 40
2.5
100
AcDbArc
 50
39.8055710922651187
 51
90.0
  0
ARC
  5
1AE
100
AcDbEntity
  8
ext
 62
256
370
-1
 48
1.0
  6
BYLAYER
100
AcDbCircle
 10
73.1709373649611052
 20
34.0
 30
0.0
 40
2.5
100
AcDbArc
 50
219.8055710922651258
 51
270.0
  0
ARC
  5
1AF
100
AcDbEntity
  8
ext
 62
256
370
-1
 48
1.0
  6
BYLAYER
100
AcDbCircle
 10
111.8290626350388948
 20
4.0
 30
0.0
 40
2.5
100
AcDbArc
 50
270.0
 51
320.1944289077348458
  0
ARC
  5
1B0
100
AcDbEntity
  8
ext
 62
256
370
-1
 48
1.0
  6
BYLAYER
100
AcDbCircle
 10
69.7332478657687602
 20
38.1252273990308481
 30
0.0
 40
2.5
100
AcDbArc
 50
165.9637565320736599
 51
219.8055710922651258
  0
ARC
  5
1B1
100
AcDbEntity
  8
ext
 62
256
370
-1
 48
1.0
  6
BYLAYER
100
AcDbCircle
 10
115.2667521342312398
 20
8.1252273990308481
 30
0.0
 40
2.5
100
AcDbArc
 50
320.1944289077348458
 51
14.0362434679264059
  0
ARC
  5
1B2
100
AcDbEntity
  8
ext
 62
256
370
-1
 48
1.0
  6
BYLAYER
100
AcDbCircle
 10
69.7332478657687744
 20
101.8747726009691803
 30
0.0
 40
2.5
100
AcDbArc
 50
140.1944289077348742
 51
194.0362434679263686
  0
ARC
  5
1B3
100
AcDbEntity
  8
ext
 62
256
370
-1
 48
1.0
  6
BYLAYER
100
AcDbCircle
 10
115.2667521342312398
 20
71.8747726009691661
 30
0.0
 40
2.5
100
AcDbArc
 50
345.9637565320736599
 51
39.8055710922651897
  0
ARC
  5
1B4
100
AcDbEntity
  8
ext
 62
256
370
-1
 48
1.0
  6
BYLAYER
100
AcDbCircle
 10
70.6245966273459942
 20
98.3093775546603581
 30
0.0
 40
2.5
100
AcDbArc
 50
194.0362434679265675
 51
246.8014094863516448
  0
ARC
  5
1B5
100
AcDbEntity
  8
ext
 62
256
370
-1
 48
1.0
  6
BYLAYER
100
AcDbCircle
 10
114.3754033726540342
 20
68.3093775546602728
 30
0.0
 40
2.5
100
AcDbArc
 50
293.1985905136483552
 51
345.9637565320734325
  0
ARC
  5
1B6
100
AcDbEntity
  8
ext
 62
256
370
-1
 48
1.0
  6
BYLAYER
100
AcDbCircle
 10
70.6245966273459658
 20
41.6906224453397485
 30
0.0
 40
2.5
100
AcDbArc
 50
113.1985905136482415
 51
165.9637565320734609
  0
ARC
  5
1B7
100
AcDbEntity
  8
ext
 62
256
370
-1
 48
1.0
  6
BYLAYER
100
AcDbCircle
 10
114.3754033726540342
 20
11.6906224453397272
 30
0.0
 40
2.5
100
AcDbArc
 50
14.0362434679265888
 51
66.80140948635173
  0
ARC
  5
1B8
100
AcDbEntity
  8
ext
 62
256
370
-1
 48
1.0
  6
BYLAYER
100
AcDbCircle
 10
72.9999999999999858
 20
96.4999999999999432
 30
0.0
 40
1.0
100
AcDbArc
 50
90.0
 51
180.0
  0
ARC
  5
1B9
100
AcDbEntity
  8
ext
 62
256
370
-1
 48
1.0
  6
BYLAYER
100
AcDbCircle
 10
112.0
 20
66.5
 30
0.0
 40
1.0
100
AcDbArc
 50
360.0
 51
90.0
  0
ARC
  5
1BA
100
AcDbEntity
  8
ext
 62
256
370
-1
 48
1.0
  6
BYLAYER
100
AcDbCircle
 10
73.0
 20
43.5000000000000213
 30
0.0
 40
1.0
100
AcDbArc
 50
180.0
 51
270.0
  0
ARC
  5
1BB
100
AcDbEntity
  8
ext
 62
256
370
-1
 48
1.0
  6
BYLAYER
100
AcDbCircle
 10
112.0
 20
13.5
 30
0.0
 40
1.0
100
AcDbArc
 50
270.0
 51
360.0
  0
ARC
  5
1BC
100
AcDbEntity
  8
ext
 62
256
370
-1
 48
1.0
  6
BYLAYER
100
AcDbCircle
 10
75.9999999999999858
 20
96.4999999999999432
 30
0.0
 40
1.0
100
AcDbArc
 50
0.0
 51
90.0
  0
ARC
  5
1BD
100
AcDbEntity
  8
ext
 62
256
370
-1
 48
1.0
  6
BYLAYER
100
AcDbCircle
 10
109.0
 20
66.5
 30
0.0
 40
1.0
100
AcDbArc
 50
90.0
 51
180.0
  0
ARC
  5
1BE
100
AcDbEntity
  8
ext
 62
256
370
-1
 48
1.0
  6
BYLAYER
100
AcDbCircle
 10
76.0
 20
43.5000000000000284
 30
0.0
 40
1.0
100
AcDbArc
 50
270.0
 51
0.0
  0
ARC
  5
1BF
100
AcDbEntity
  8
ext
 62
256
370
-1
 48
1.0
  6
BYLAYER
100
AcDbCircle
 10
109.0
 20
13.5
 30
0.0
 40
1.0
100
AcDbArc
 50
180.0
 51
270.0
  0
ARC
  5
1C0
100
AcDbEntity
  8
ext
 62
256
370
-1
 48
1.0
  6
BYLAYER
100
AcDbCircle
 10
80.2325301864204334
 20
92.1969962804877099
 30
0.0
 40
2.5
100
AcDbArc
 50
101.3099324740203002
 51
134.9999999999999432
  0
ARC
  5
1C1
100
AcDbEntity
  8
ext
 62
256
370
-1
 48
1.0
  6
BYLAYER
100
AcDbCircle
 10
104.7674698135795666
 20
62.1969962804876957
 30
0.0
 40
2.5
100
AcDbArc
 50
45.0000000000000568
 51
78.6900675259796998
  0
ARC
  5
1C2
100
AcDbEntity
  8
ext
 62
256
370
-1
 48
1.0
  6
BYLAYER
100
AcDbCircle
 10
80.2325301864204192
 20
47.8030037195123185
 30
0.0
 40
2.5
100
AcDbArc
 50
225.0000000000000284
 51
258.690067525979714
  0
ARC
  5
1C3
100
AcDbEntity
  8
ext
 62
256
370
-1
 48
1.0
  6
BYLAYER
100
AcDbCircle
 10
104.7674698135795666
 20
17.8030037195123043
 30
0.0
 40
2.5
100
AcDbArc
 50
281.309932474020286
 51
314.9999999999999432
  0
ARC
  5
1C4
100
AcDbEntity
  8
ext
 62
256
370
-1
 48
1.0
  6
BYLAYER
100
AcDbCircle
 10
84.01168403373714
 20
47.0471729500489886
 30
0.0
 40
2.5
100
AcDbArc
 50
258.690067525979714
 51
280.7842978675625432
  0
ARC
  5
1C5
100
AcDbEntity
  8
ext
 62
256
370
-1
 48
1.0
  6
BYLAYER
100
AcDbCircle
 10
100.98831596626286
 20
17.0471729500489744
 30
0.0
 40
2.5
100
AcDbArc
 50
259.2157021324374568
 51
281.309932474020286
  0
ARC
  5
1C6
100
AcDbEntity
  8
ext
 62
256
370
-1
 48
1.0
  6
BYLAYER
100
AcDbCircle
 10
84.0116840337371684
 20
92.9528270499510967
 30
0.0
 40
2.5
100
AcDbArc
 50
79.2157021324374853
 51
101.3099324740203002
  0
ARC
  5
1C7
100
AcDbEntity
  8
ext
 62
256
370
-1
 48
1.0
  6
BYLAYER
100
AcDbCircle
 10
100.98831596626286
 20
62.9528270499510256
 30
0.0
 40
2.5
100
AcDbArc
 50
78.690067525979714
 51
100.7842978675624863
  0
ARC
  5
1C8
100
AcDbEntity
  8
ext
 62
256
370
-1
 48
1.0
  6
BYLAYER
100
AcDbCircle
 10
87.9358901110285274
 20
47.7946407742949759
 30
0.0
 40
2.5
100
AcDbArc
 50
280.7842978675626568
 51
318.8140748342903521
  0
ARC
  5
1C9
100
AcDbEntity
  8
ext
 62
256
370
-1
 48
1.0
  6
BYLAYER
100
AcDbCircle
 10
97.0641098889714726
 20
17.7946407742949475
 30
0.0
 40
2.5
100
AcDbArc
 50
221.1859251657096195
 51
259.2157021324373432
  0
ARC
  5
1CA
100
AcDbEntity
  8
ext
 62
256
370
-1
 48
1.0
  6
BYLAYER
100
AcDbCircle
 10
87.9358901110285274
 20
92.2053592257049957
 30
0.0
 40
2.5
100
AcDbArc
 50
41.1859251657096266
 51
79.2157021324373432
  0
ARC
  5
1CB
100
AcDbEntity
  8
ext
 62
256
370
-1
 48
1.0
  6
BYLAYER
100
AcDbCircle
 10
97.0641098889714726
 20
62.2053592257050525
 30
0.0
 40
2.5
100
AcDbArc
 50
100.7842978675626426
 51
138.8140748342903805
  0
LINE
  5
1CC
100
AcDbEntity
  8
ext
 62
256
370
-1
 48
1.0
  6
BYLAYER
100
AcDbLine
 10
152.0
 20
84.5
 30
0.0
 11
150.0
 21
84.5
 31
0.0
  0
LINE
  5
1CD
100
AcDbEntity
  8
ext
 62
256
370
-1
 48
1.0
  6
BYLAYER
100
AcDbLine
 10
152.0
 20
55.5
 30
0.0
 11
150.0
 21
55.5
 31
0.0
  0
LINE
  5
1CE
100
AcDbEntity
  8
ext
 62
256
370
-1
 48
1.0
  6
BYLAYER
100
AcDbLine
 10
160.0
 20
67.0
 30
0.0
 11
160.0
 21
63.5
 31
0.0
  0
ARC
  5
1CF
100
AcDbEntity
  8
ext
 62
256
370
-1
 48
1.0
  6
BYLAYER
100
AcDbCircle
 10
152.0
 20
76.5
 30
0.0
 40
8.0
100
AcDbArc
 50
0.0
 51
90.0
  0
ARC
  5
1D0
100
AcDbEntity
  8
ext
 62
256
370
-1
 48
1.0
  6
BYLAYER
100
AcDbCircle
 10
152.0
 20
63.5
 30
0.0
 40
8.0
100
AcDbArc
 50
270.0
 51
0.0
  0
LINE
  5
1D1
100
AcDbEntity
  8
ext
 62
256
370
-1
 48
1.0
  6
BYLAYER
100
AcDbLine
 10
154.0
 20
73.0
 30
0.0
 11
154.0
 21
67.0
 31
0.0
  0
LINE
  5
1D2
100
AcDbEntity
  8
ext
 62
256
370
-1
 48
1.0
  6
BYLAYER
100
AcDbLine
 10
160.0
 20
73.0
 30
0.0
 11
160.0
 21
76.5
 31
0.0
  0
LINE
  5
1D3
100
AcDbEntity
  8
ext
 62
256
370
-1
 48
1.0
  6
BYLAYER
100
AcDbLine
 10
160.0
 20
73.0
 30
0.0
 11
154.0
 21
73.0
 31
0.0
  0
LINE
  5
1D4
100
AcDbEntity
  8
ext
 62
256
370
-1
 48
1.0
  6
BYLAYER
100
AcDbLine
 10
160.0
 20
67.0
 30
0.0
 11
154.0
 21
67.0
 31
0.0
  0
CIRCLE
  5
1D5
100
AcDbEntity
  8
int
 62
256
370
-1
 48
1.0
  6
BYLAYER
100
AcDbCircle
 10
29.2845608657210299
 20
87.6641261343267075
 30
0.0
 40
13.0
  0
LINE
  5
1D6
100
AcDbEntity
  8
ext
 62
256
370
-1
 48
1.0
  6
BYLAYER
100
AcDbLine
 10
51.7845608657210335
 20
90.6641261343266933
 30
0.0
 11
51.7845608657210263
 21
84.6641261343267075
 31
0.0
  0
LINE
  5
1D7
100
AcDbEntity
  8
ext
 62
256
370
-1
 48
1.0
  6
BYLAYER
100
AcDbLine
 10
26.2845608657210299
 20
110.1641261343267075
 30
0.0
 11
32.2845608657210335
 21
110.1641261343267075
 31
0.0
  0
LINE
  5
1D8
100
AcDbEntity
  8
ext
 62
256
370
-1
 48
1.0
  6
BYLAYER
100
AcDbLine
 10
32.2845608657210192
 20
65.1641261343267075
 30
0.0
 11
26.2845608657210335
 21
65.1641261343267075
 31
0.0
  0
LINE
  5
1D9
100
AcDbEntity
  8
ext
 62
256
370
-1
 48
1.0
  6
BYLAYER
100
AcDbLine
 10
6.7845608657210335
 20
84.6641261343267075
 30
0.0
 11
6.7845608657210335
 21
90.6641261343267075
 31
0.0
  0
LINE
  5
1DA
100
AcDbEntity
  8
ext
 62
256
370
-1
 48
1.0
  6
BYLAYER
100
AcDbLine
 10
32.2845608657210192
 20
65.1641261343267075
 30
0.0
 11
32.2845608657210192
 21
60.3282522686534151
 31
0.0
  0
LINE
  5
1DB
100
AcDbEntity
  8
ext
 62
256
370
-1
 48
1.0
  6
BYLAYER
100
AcDbLine
 10
26.2845608657210299
 20
110.1641261343267075
 30
0.0
 11
26.2845608657210299
 21
115.0
 31
0.0
  0
LINE
  5
1DC
100
AcDbEntity
  8
ext
 62
256
370
-1
 48
1.0
  6
BYLAYER
100
AcDbLine
 10
51.7845608657210335
 20
90.6641261343266933
 30
0.0
 11
56.6204347313943117
 21
90.6641261343266933
 31
0.0
  0
LINE
  5
1DD
100
AcDbEntity
  8
ext
 62
256
370
-1
 48
1.0
  6
BYLAYER
100
AcDbLine
 10
6.7845608657210335
 20
84.6641261343267075
 30
0.0
 11
1.948687000047741
 21
84.6641261343267075
 31
0.0
  0
LINE
  5
1DE
100
AcDbEntity
  8
ext
 62
256
370
-1
 48
1.0
  6
BYLAYER
100
AcDbLine
 10
51.7845608657210263
 20
84.6641261343267075
 30
0.0
 11
56.6204347313943259
 21
84.6641261343267075
 31
0.0
  0
LINE
  5
1DF
100
AcDbEntity
  8
ext
 62
256
370
-1
 48
1.0
  6
BYLAYER
100
AcDbLine
 10
32.2845608657210335
 20
110.1641261343267075
 30
0.0
 11
32.2845608657210335
 21
115.0
 31
0.0
  0
LINE
  5
1E0
100
AcDbEntity
  8
ext
 62
256
370
-1
 48
1.0
  6
BYLAYER
100
AcDbLine
 10
6.7845608657210335
 20
90.6641261343267075
 30
0.0
 11
1.9486870000477374
 21
90.6641261343267075
 31
0.0
  0
LINE
  5
1E1
100
AcDbEntity
  8
ext
 62
256
370
-1
 48
1.0
  6
BYLAYER
100
AcDbLine
 10
26.2845608657210335
 20
65.1641261343267075
 30
0.0
 11
26.2845608657210263
 21
60.3282522686534151
 31
0.0
  0
ARC
  5
1E2
100
AcDbEntity
  8
ext
 62
256
370
-1
 48
1.0
  6
BYLAYER
100
AcDbCircle
 10
29.2845608657210263
 20
87.6641261343267075
 30
0.0
 40
27.5
100
AcDbArc
 50
96.2629131261393809
 51
173.7370868738605907
  0
ARC
  5
1E3
100
AcDbEntity
  8
ext
 62
256
370
-1
 48
1.0
  6
BYLAYER
100
AcDbCircle
 10
29.2845608657210263
 20
87.6641261343267075
 30
0.0
 40
27.5
100
AcDbArc
 50
6.2629131261394155
 51
83.7370868738606049
  0
ARC
  5
1E4
100
AcDbEntity
  8
ext
 62
256
370
-1
 48
1.0
  6
BYLAYER
100
AcDbCircle
 10
29.2845608657210335
 20
87.6641261343267075
 30
0.0
 40
27.5
100
AcDbArc
 50
276.2629131261393809
 51
353.7370868738606191
  0
ARC
  5
1E5
100
AcDbEntity
  8
ext
 62
256
370
-1
 48
1.0
  6
BYLAYER
100
AcDbCircle
 10
29.2845608657210335
 20
87.6641261343267075
 30
0.0
 40
27.5
100
AcDbArc
 50
186.2629131261394093
 51
263.7370868738606191
  0
CIRCLE
  5
1E6
100
AcDbEntity
  8
int
 62
256
370
-1
 48
1.0
  6
BYLAYER
100
AcDbCircle
 10
150.0
 20
40.0
 30
0.0
 40
3.0
  0
CIRCLE
  5
1E7
100
AcDbEntity
  8
int
 62
256
370
-1
 48
1.0
  6
BYLAYER
100
AcDbCircle
 10
10.0
 20
10.0000000000000053
 30
0.0
 40
3.0
  0
CIRCLE
  5
1E8
100
AcDbEntity
  8
int
 62
256
370
-1
 48
1.0
  6
BYLAYER
100
AcDbCircle
 10
150.0
 20
10.0
 30
0.0
 40
3.0
  0
CIRCLE
  5
1E9
100
AcDbEntity
  8
int
 62
256
370
-1
 48
1.0
  6
BYLAYER
100
AcDbCircle
 10
40.0
 20
10.0000000000000018
 30
0.0
 40
3.0
  0
LINE
  5
1EA
100
AcDbEntity
  8
ext
 62
256
370
-1
 48
1.0
  6
BYLAYER
100
AcDbLine
 10
148.0
 20
50.0
 30
0.0
 11
152.0
 21
50.0
 31
0.0
  0
LINE
  5
1EB
100
AcDbEntity
  8
ext
 62
256
370
-1
 48
1.0
  6
BYLAYER
100
AcDbLine
 10
0.0
 20
7.9999999999999911
 30
0.0
 11
0.0
 21
11.9999999999999982
 31
0.0
  0
LINE
  5
1EC
100
AcDbEntity
  8
ext
 62
256
370
-1
 48
1.0
  6
BYLAYER
100
AcDbLine
 10
160.0
 20
42.0
 30
0.0
 11
160.0
 21
8.0
 31
0.0
  0
LINE
  5
1ED
100
AcDbEntity
  8
ext
 62
256
370
-1
 48
1.0
  6
BYLAYER
100
AcDbLine
 10
8.0000000000000071
 20
20.0000000000000142
 30
0.0
 11
42.0
 21
20.0
 31
0.0
  0
LINE
  5
1EE
100
AcDbEntity
  8
ext
 62
256
370
-1
 48
1.0
  6
BYLAYER
100
AcDbLine
 10
152.0
 20
0.0
 30
0.0
 11
148.0
 21
0.0
 31
0.0
  0
LINE
  5
1EF
100
AcDbEntity
  8
ext
 62
256
370
-1
 48
1.0
  6
BYLAYER
100
AcDbLine
 10
50.0
 20
12.0
 30
0.0
 11
50.0
 21
8.0
 31
0.0
  0
LINE
  5
1F0
100
AcDbEntity
  8
ext
 62
256
370
-1
 48
1.0
  6
BYLAYER
100
AcDbLine
 10
140.0
 20
8.0
 30
0.0
 11
140.0
 21
42.0
 31
0.0
  0
LINE
  5
1F1
100
AcDbEntity
  8
ext
 62
256
370
-1
 48
1.0
  6
BYLAYER
100
AcDbLine
 10
42.0
 20
0.0
 30
0.0
 11
8.0
 21
-0.0000000000000053
 31
0.0
  0
ARC
  5
1F2
100
AcDbEntity
  8
ext
 62
256
370
-1
 48
1.0
  6
BYLAYER
100
AcDbCircle
 10
148.0
 20
42.0
 30
0.0
 40
8.0
100
AcDbArc
 50
90.0
 51
180.0
  0
ARC
  5
1F3
100
AcDbEntity
  8
ext
 62
256
370
-1
 48
1.0
  6
BYLAYER
100
AcDbCircle
 10
8.0
 20
7.9999999999999885
 30
0.0
 40
8.0
100
AcDbArc
 50
180.0
 51
270.0
  0
ARC
  5
1F4
100
AcDbEntity
  8
ext
 62
256
370
-1
 48
1.0
  6
BYLAYER
100
AcDbCircle
 10
152.0
 20
42.0
 30
0.0
 40
8.0
100
AcDbArc
 50
0.0
 51
90.0
  0
ARC
  5
1F5
100
AcDbEntity
  8
ext
 62
256
370
-1
 48
1.0
  6
BYLAYER
100
AcDbCircle
 10
7.9999999999999929
 20
12.0000000000000036
 30
0.0
 40
8.0
100
AcDbArc
 50
90.0
 51
180.0
  0
ARC
  5
1F6
100
AcDbEntity
  8
ext
 62
256
370
-1
 48
1.0
  6
BYLAYER
100
AcDbCircle
 10
152.0
 20
8.0
 30
0.0
 40
8.0
100
AcDbArc
 50
270.0
 51
0.0
  0
ARC
  5
1F7
100
AcDbEntity
  8
ext
 62
256
370
-1
 48
1.0
  6
BYLAYER
100
AcDbCircle
 10
42.0
 20
12.0000000000000018
 30
0.0
 40
8.0
100
AcDbArc
 50
0.0
 51
90.0
  0
ARC
  5
1F8
100
AcDbEntity
  8
ext
 62
256
370
-1
 48
1.0
  6
BYLAYER
100
AcDbCircle
 10
148.0
 20
8.0
 30
0.0
 40
8.0
100
AcDbArc
 50
180.0
 51
270.0
  0
ARC
  5
1F9
100
AcDbEntity
  8
ext
 62
256
370
-1
 48
1.0
  6
BYLAYER
100
AcDbCircle
 10
42.0
 20
8.0
 30
0.0
 40
8.0
100
AcDbArc
 50
270.0
 51
0.0
  0
CIRCLE
  5
1FA
100
AcDbEntity
  8
int
 62
256
370
-1
 48
1.0
  6
BYLAYER
100
AcDbCircle
 10
150.0
 20
25.0
 30
0.0
 40
5.0
  0
CIRCLE
  5
1FB
100
AcDbEntity
  8
int
 62
256
370
-1
 48
1.0
  6
BYLAYER
100
AcDbCircle
 10
25.0
 20
10.0000000000000036
 30
0.0
 40
5.0
  0
LINE
  5
1FC
100
AcDbEntity
  8
ext
 62
256
370
-1
 48
1.0
  6
BYLAYER
100
AcDbLine
 10
11.9999999999999858
 20
54.5
 30
0.0
 11
41.0
 21
54.5
 31
0.0
  0
LINE
  5
1FD
100
AcDbEntity
  8
ext
 62
256
370
-1
 48
1.0
  6
BYLAYER
100
AcDbLine
 10
11.9999999999999858
 20
25.5
 30
0.0
 11
41.0
 21
25.5
 31
0.0
  0
LINE
  5
1FE
100
AcDbEntity
  8
ext
 62
256
370
-1
 48
1.0
  6
BYLAYER
100
AcDbLine
 10
3.9999999999999858
 20
46.5
 30
0.0
 11
3.9999999999999858
 21
33.5
 31
0.0
  0
ARC
  5
1FF
100
AcDbEntity
  8
ext
 62
256
370
-1
 48
1.0
  6
BYLAYER
100
AcDbCircle
 10
11.9999999999999858
 20
46.5
 30
0.0
 40
8.0
100
AcDbArc
 50
90.0
 51
180.0
  0
ARC
  5
200
100
AcDbEntity
  8
ext
 62
256
370
-1
 48
1.0
  6
BYLAYER
100
AcDbCircle
 10
11.9999999999999858
 20
33.5
 30
0.0
 40
8.0
100
AcDbArc
 50
180.0
 51
270.0
  0
CIRCLE
  5
201
100
AcDbEntity
  8
int
 62
256
370
-1
 48
1.0
  6
BYLAYER
100
AcDbCircle
 10
11.9999999999999929
 20
40.0
 30
0.0
 40
3.0
  0
LINE
  5
202
100
AcDbEntity
  8
ext
 62
256
370
-1
 48
1.0
  6
BYLAYER
100
AcDbLine
 10
30.9999999999999929
 20
43.0
 30
0.0
 11
30.9999999999999929
 21
37.0
 31
0.0
  0
LINE
  5
203
100
AcDbEntity
  8
ext
 62
256
370
-1
 48
1.0
  6
BYLAYER
100
AcDbLine
 10
30.9999999999999929
 20
43.0
 30
0.0
 11
34.9999999999999929
 21
43.0
 31
0.0
  0
LINE
  5
204
100
AcDbEntity
  8
ext
 62
256
370
-1
 48
1.0
  6
BYLAYER
100
AcDbLine
 10
30.9999999999999929
 20
37.0
 30
0.0
 11
34.9999999999999929
 21
37.0
 31
0.0
  0
LINE
  5
205
100
AcDbEntity
  8
constr
 62
256
370
-1
 48
1.0
  6
BYLAYER
100
AcDbLine
 10
72.0
 20
57.0
 30
0.0
 11
72.0
 21
83.0
 31
0.0
  0
LINE
  5
206
100
AcDbEntity
  8
constr
 62
256
370
-1
 48
1.0
  6
BYLAYER
100
AcDbLine
 10
72.0
 20
83.0
 30
0.0
 11
109.5
 21
83.0
 31
0.0
  0
LINE
  5
207
100
AcDbEntity
  8
constr
 62
256
370
-1
 48
1.0
  6
BYLAYER
100
AcDbLine
 10
72.0
 20
57.0
 30
0.0
 11
109.5
 21
57.0
 31
0.0
  0
LINE
  5
208
100
AcDbEntity
  8
ext
 62
256
370
-1
 48
1.0
  6
BYLAYER
100
AcDbLine
 10
124.0
 20
59.5
 30
0.0
 11
124.0
 21
67.0
 31
0.0
  0
LINE
  5
209
100
AcDbEntity
  8
ext
 62
256
370
-1
 48
1.0
  6
BYLAYER
100
AcDbLine
 10
61.0
 20
29.5
 30
0.0
 11
61.0
 21
37.0
 31
0.0
  0
LINE
  5
20A
100
AcDbEntity
  8
constr
 62
256
370
-1
 48
1.0
  6
BYLAYER
100
AcDbLine
 10
124.5
 20
59.5
 30
0.0
 11
124.5
 21
80.5
 31
0.0
  0
LINE
  5
20B
100
AcDbEntity
  8
constr
 62
256
370
-1
 48
1.0
  6
BYLAYER
100
AcDbLine
 10
109.5
 20
57.0
 30
0.0
 11
109.5
 21
58.5
 31
0.0
  0
LINE
  5
20C
100
AcDbEntity
  8
constr
 62
256
370
-1
 48
1.0
  6
BYLAYER
100
AcDbLine
 10
109.5
 20
81.5
 30
0.0
 11
109.5
 21
83.0
 31
0.0
  0
LINE
  5
20D
100
AcDbEntity
  8
ext
 62
256
370
-1
 48
1.0
  6
BYLAYER
100
AcDbLine
 10
117.9584655419428572
 20
80.902768963870443
 30
0.0
 11
124.0
 21
80.4999999999999858
 31
0.0
  0
LINE
  5
20E
100
AcDbEntity
  8
ext
 62
256
370
-1
 48
1.0
  6
BYLAYER
100
AcDbLine
 10
67.0415344580571286
 20
50.9027689638704715
 30
0.0
 11
61.0
 21
50.5
 31
0.0
  0
LINE
  5
20F
100
AcDbEntity
  8
constr
 62
256
370
-1
 48
1.0
  6
BYLAYER
100
AcDbLine
 10
109.5
 20
81.5
 30
0.0
 11
124.5
 21
80.5
 31
0.0
  0
LINE
  5
210
100
AcDbEntity
  8
ext
 62
256
370
-1
 48
1.0
  6
BYLAYER
100
AcDbLine
 10
124.0
 20
59.5
 30
0.0
 11
117.9584655419428714
 21
59.0972310361295214
 31
0.0
  0
LINE
  5
211
100
AcDbEntity
  8
ext
 62
256
370
-1
 48
1.0
  6
BYLAYER
100
AcDbLine
 10
61.0
 20
29.5
 30
0.0
 11
67.0415344580571286
 21
29.0972310361295214
 31
0.0
  0
LINE
  5
212
100
AcDbEntity
  8
constr
 62
256
370
-1
 48
1.0
  6
BYLAYER
100
AcDbLine
 10
124.5
 20
59.5
 30
0.0
 11
109.5
 21
58.5
 31
0.0
  0
LINE
  5
213
100
AcDbEntity
  8
ext
 62
256
370
-1
 48
1.0
  6
BYLAYER
100
AcDbLine
 10
124.0
 20
73.0000000000000142
 30
0.0
 11
141.0
 21
73.0
 31
0.0
  0
LINE
  5
214
100
AcDbEntity
  8
ext
 62
256
370
-1
 48
1.0
  6
BYLAYER
100
AcDbLine
 10
61.0
 20
42.9999999999999929
 30
0.0
 11
34.9999999999999929
 21
43.0
 31
0.0
  0
LINE
  5
215
100
AcDbEntity
  8
constr
 62
256
370
-1
 48
1.0
  6
BYLAYER
100
AcDbLine
 10
124.5
 20
73.0
 30
0.0
 11
140.5
 21
73.0
 31
0.0
  0
LINE
  5
216
100
AcDbEntity
  8
ext
 62
256
370
-1
 48
1.0
  6
BYLAYER
100
AcDbLine
 10
124.0
 20
67.0
 30
0.0
 11
141.0
 21
67.0
 31
0.0
  0
LINE
  5
217
100
AcDbEntity
  8
ext
 62
256
370
-1
 48
1.0
  6
BYLAYER
100
AcDbLine
 10
61.0
 20
37.0
 30
0.0
 11
34.9999999999999929
 21
37.0
 31
0.0
  0
LINE
  5
218
100
AcDbEntity
  8
constr
 62
256
370
-1
 48
1.0
  6
BYLAYER
100
AcDbLine
 10
124.5
 20
67.0
 30
0.0
 11
140.5
 21
67.0
 31
0.0
  0
LINE
  5
219
100
AcDbEntity
  8
ext
 62
256
370
-1
 48
1.0
  6
BYLAYER
100
AcDbLine
 10
141.0
 20
73.0
 30
0.0
 11
141.0
 21
67.0
 31
0.0
  0
LINE
  5
21A
100
AcDbEntity
  8
constr
 62
256
370
-1
 48
1.0
  6
BYLAYER
100
AcDbLine
 10
140.5
 20
73.0
 30
0.0
 11
140.5
 21
67.0
 31
0.0
  0
LINE
  5
21B
100
AcDbEntity
  8
ext
 62
256
370
-1
 48
1.0
  6
BYLAYER
100
AcDbLine
 10
113.0322142735383011
 20
84.3442762954213094
 30
0.0
 11
115.4478530011251394
 21
82.014673496342624
 31
0.0
  0
LINE
  5
21C
100
AcDbEntity
  8
ext
 62
256
370
-1
 48
1.0
  6
BYLAYER
100
AcDbLine
 10
71.9677857264616705
 20
54.3442762954213165
 30
0.0
 11
69.5521469988748606
 21
52.0146734963426098
 31
0.0
  0
LINE
  5
21D
100
AcDbEntity
  8
ext
 62
256
370
-1
 48
1.0
  6
BYLAYER
100
AcDbLine
 10
113.0322142735383153
 20
55.6557237045786763
 30
0.0
 11
115.4478530011251394
 21
57.9853265036573902
 31
0.0
  0
LINE
  5
21E
100
AcDbEntity
  8
ext
 62
256
370
-1
 48
1.0
  6
BYLAYER
100
AcDbLine
 10
71.9677857264616705
 20
25.6557237045786763
 30
0.0
 11
69.5521469988748606
 21
27.9853265036573902
 31
0.0
  0
LINE
  5
21F
100
AcDbEntity
  8
ext
 62
256
370
-1
 48
1.0
  6
BYLAYER
100
AcDbLine
 10
124.0
 20
80.4999999999999858
 30
0.0
 11
124.0
 21
73.0000000000000142
 31
0.0
  0
LINE
  5
220
100
AcDbEntity
  8
ext
 62
256
370
-1
 48
1.0
  6
BYLAYER
100
AcDbLine
 10
61.0
 20
50.5
 30
0.0
 11
61.0
 21
42.9999999999999929
 31
0.0
  0
ARC
  5
221
100
AcDbEntity
  8
ext
 62
256
370
-1
 48
1.0
  6
BYLAYER
100
AcDbCircle
 10
102.6196320876152299
 20
73.547140924342699
 30
0.0
 40
15.0
100
AcDbArc
 50
46.038715417646543
 51
75.4655449194598731
  0
ARC
  5
222
100
AcDbEntity
  8
ext
 62
256
370
-1
 48
1.0
  6
BYLAYER
100
AcDbCircle
 10
82.3803679123847701
 20
43.547140924342699
 30
0.0
 40
15.0
100
AcDbArc
 50
104.5344550805401411
 51
133.9612845823534428
  0
ARC
  5
223
100
AcDbEntity
  8
ext
 62
256
370
-1
 48
1.0
  6
BYLAYER
100
AcDbCircle
 10
102.6196320876152299
 20
66.4528590756573436
 30
0.0
 40
15.0
100
AcDbArc
 50
284.5344550805401695
 51
313.9612845823534713
  0
ARC
  5
224
100
AcDbEntity
  8
ext
 62
256
370
-1
 48
1.0
  6
BYLAYER
100
AcDbCircle
 10
82.3803679123847701
 20
36.452859075657301
 30
0.0
 40
15.0
100
AcDbArc
 50
226.038715417646614
 51
255.4655449194598589
  0
ARC
  5
225
100
AcDbEntity
  8
ext
 62
256
370
-1
 48
1.0
  6
BYLAYER
100
AcDbCircle
 10
118.224541584037965
 20
55.1060904047030959
 30
0.0
 40
4.0
100
AcDbArc
 50
93.8140748342903663
 51
133.9612845823533576
  0
ARC
  5
226
100
AcDbEntity
  8
ext
 62
256
370
-1
 48
1.0
  6
BYLAYER
100
AcDbCircle
 10
66.7754584159620208
 20
25.1060904047030817
 30
0.0
 40
4.0
100
AcDbArc
 50
46.0387154176466424
 51
86.1859251657096195
  0
ARC
  5
227
100
AcDbEntity
  8
ext
 62
256
370
-1
 48
1.0
  6
BYLAYER
100
AcDbCircle
 10
118.2245415840379508
 20
84.8939095952969041
 30
0.0
 40
4.0
100
AcDbArc
 50
226.0387154176465287
 51
266.1859251657096479
  0
ARC
  5
228
100
AcDbEntity
  8
ext
 62
256
370
-1
 48
1.0
  6
BYLAYER
100
AcDbCircle
 10
66.7754584159620492
 20
54.8939095952969041
 30
0.0
 40
4.0
100
AcDbArc
 50
273.8140748342903521
 51
313.9612845823534713
  0
ENDSEC
  0
SECTION
  2
OBJECTS
  0
DICTIONARY
  5
C
100
AcDbDictionary
280
0
281
1
  3
ACAD_GROUP
350
D
  3
ACAD_LAYOUT
350
1A
  3
ACAD_MLINESTYLE
350
17
  3
ACAD_PLOTSETTINGS
350
19
  3
ACAD_PLOTSTYLENAME
350
E
  3
AcDbVariableDictionary
350
229
  3
QCAD_OBJECTS
350
22A
  0
DICTIONARY
  5
D
100
AcDbDictionary
280
0
281
1
  0
ACDBDICTIONARYWDFLT
  5
E
100
AcDbDictionary
281
1
  3
Normal
350
F
100
AcDbDictionaryWithDefault
340
F
  0
ACDBPLACEHOLDER
  5
F
  0
DICTIONARY
  5
17
100
AcDbDictionary
280
0
281
1
  3
Standard
350
18
  0
MLINESTYLE
  5
18
100
AcDbMlineStyle
  2
STANDARD
 70
0
  3

 62
256
 51
90.0
 52
90.0
 71
2
 49
0.5
 62
256
  6
BYLAYER
 49
-0.5
 62
256
  6
BYLAYER
  0
DICTIONARY
  5
19
100
AcDbDictionary
280
0
281
1
  0
DICTIONARY
  5
1A
100
AcDbDictionary
281
1
  3
Layout1
350
1E
  3
Layout2
350
26
  3
Model
350
22
  0
LAYOUT
  5
1E
100
AcDbPlotSettings
  1

  2
none_device
  4

  6

 40
0.0
 41
0.0
 42
0.0
 43
0.0
 44
0.0
 45
0.0
 46
0.0
 47
0.0
 48
0.0
 49
0.0
140
0.0
141
0.0
142
1.0
143
1.0
 70
688
 72
0
 73
0
 74
5
  7

 75
16
147
1.0
148
0.0
149
0.0
100
AcDbLayout
  1
Layout1
 70
1
 71
1
 10
0.0
 20
0.0
 11
420.0
 21
297.0
 12
0.0
 22
0.0
 32
0.0
 14
100000000000000000000.0
 24
100000000000000000000.0
 34
100000000000000000000.0
 15
-100000000000000000000.0
 25
-100000000000000000000.0
 35
-100000000000000000000.0
146
0.0
 13
0.0
 23
0.0
 33
0.0
 16
1.0
 26
0.0
 36
0.0
 17
0.0
 27
1.0
 37
0.0
 76
0
330
1B
  0
LAYOUT
  5
22
100
AcDbPlotSettings
  1

  2
none_device
  4

  6

 40
0.0
 41
0.0
 42
0.0
 43
0.0
 44
0.0
 45
0.0
 46
0.0
 47
0.0
 48
0.0
 49
0.0
140
0.0
141
0.0
142
1.0
143
1.0
 70
1712
 72
0
 73
0
 74
0
  7

 75
0
147
1.0
148
0.0
149
0.0
100
AcDbLayout
  1
Model
 70
1
 71
0
 10
0.0
 20
0.0
 11
12.0
 21
9.0
 12
0.0
 22
0.0
 32
0.0
 14
0.0
 24
0.0
 34
0.0
 15
0.0
 25
0.0
 35
0.0
146
0.0
 13
0.0
 23
0.0
 33
0.0
 16
1.0
 26
0.0
 36
0.0
 17
0.0
 27
1.0
 37
0.0
 76
0
330
1F
  0
LAYOUT
  5
26
100
AcDbPlotSettings
  1

  2
none_device
  4

  6

 40
0.0
 41
0.0
 42
0.0
 43
0.0
 44
0.0
 45
0.0
 46
0.0
 47
0.0
 48
0.0
 49
0.0
140
0.0
141
0.0
142
1.0
143
1.0
 70
688
 72
0
 73
0
 74
5
  7

 75
16
147
1.0
148
0.0
149
0.0
100
AcDbLayout
  1
Layout2
 70
1
 71
2
 10
0.0
 20
0.0
 11
12.0
 21
9.0
 12
0.0
 22
0.0
 32
0.0
 14
0.0
 24
0.0
 34
0.0
 15
0.0
 25
0.0
 35
0.0
146
0.0
 13
0.0
 23
0.0
 33
0.0
 16
1.0
 26
0.0
 36
0.0
 17
0.0
 27
1.0
 37
0.0
 76
0
330
23
  0
DICTIONARY
  5
229
100
AcDbDictionary
281
1
  3
DIMASSOC
350
22C
  3
HIDETEXT
350
22B
  0
DICTIONARYVAR
  5
22B
100
DictionaryVariables
280
0
  1
2
  0
DICTIONARYVAR
  5
22C
100
DictionaryVariables
280
0
  1
1
  0
DICTIONARY
  5
22A
100
AcDbDictionary
281
1
  3
ColorSettings/BackgroundColor
350
22D
  3
ColorSettings/ColorMode
350
22E
  3
Grid/DisplayGrid00
350
22F
  3
Grid/DisplayGrid01
350
230
  3
Grid/DisplayGrid02
350
231
  3
Grid/DisplayGrid03
350
232
  3
Grid/GridSpacingX00
350
233
  3
Grid/GridSpacingX01
350
234
  3
Grid/GridSpacingX02
350
235
  3
Grid/GridSpacingX03
350
236
  3
Grid/GridSpacingY00
350
237
  3
Grid/GridSpacingY01
350
238
  3
Grid/GridSpacingY02
350
239
  3
Grid/GridSpacingY03
350
23A
  3
Grid/IsometricGrid00
350
23B
  3
Grid/IsometricGrid01
350
23C
  3
Grid/IsometricGrid02
350
23D
  3
Grid/IsometricGrid03
350
23E
  3
Grid/IsometricProjection00
350
23F
  3
Grid/IsometricProjection01
350
240
  3
Grid/IsometricProjection02
350
241
  3
Grid/IsometricProjection03
350
242
  3
Grid/MetaGridSpacingX00
350
243
  3
Grid/MetaGridSpacingX01
350
244
  3
Grid/MetaGridSpacingX02
350
245
  3
Grid/MetaGridSpacingX03
350
246
  3
Grid/MetaGridSpacingY00
350
247
  3
Grid/MetaGridSpacingY01
350
248
  3
Grid/MetaGridSpacingY02
350
249
  3
Grid/MetaGridSpacingY03
350
24A
  3
MultiPageSettings/Columns
350
24B
  3
MultiPageSettings/GlueMarginsBottom
350
24C
  3
MultiPageSettings/GlueMarginsLeft
350
24D
  3
MultiPageSettings/GlueMarginsRight
350
24E
  3
MultiPageSettings/GlueMarginsTop
350
24F
  3
MultiPageSettings/PrintCropMarks
350
250
  3
MultiPageSettings/Rows
350
251
  3
PageSettings/OffsetX
350
252
  3
PageSettings/OffsetY
350
253
  3
PageSettings/PageOrientation
350
254
  3
PageSettings/PaperHeight
350
255
  3
PageSettings/PaperWidth
350
256
  3
PageSettings/Scale
350
257
  3
PageSettings/ShowPaperBorders
350
258
  3
QCADVersion
350
259
  3
UnitSettings/PaperUnit
350
25A
  3
ViewportCenter
350
25B
  3
ViewportHeight
350
25C
  3
ViewportWidth
350
25D
  0
XRECORD
  5
22D
330
22A
100
AcDbXrecord
280
1
1000
Blanc
  0
XRECORD
  5
22E
330
22A
100
AcDbXrecord
280
1
1000
FullColor
  0
XRECORD
  5
22F
330
22A
100
AcDbXrecord
280
1
290
1
  0
XRECORD
  5
230
330
22A
100
AcDbXrecord
280
1
290
1
  0
XRECORD
  5
231
330
22A
100
AcDbXrecord
280
1
290
1
  0
XRECORD
  5
232
330
22A
100
AcDbXrecord
280
1
290
1
  0
XRECORD
  5
233
330
22A
100
AcDbXrecord
280
1
1000
auto
  0
XRECORD
  5
234
330
22A
100
AcDbXrecord
280
1
1000
auto
  0
XRECORD
  5
235
330
22A
100
AcDbXrecord
280
1
1000
auto
  0
XRECORD
  5
236
330
22A
100
AcDbXrecord
280
1
1000
auto
  0
XRECORD
  5
237
330
22A
100
AcDbXrecord
280
1
1000
auto
  0
XRECORD
  5
238
330
22A
100
AcDbXrecord
280
1
1000
auto
  0
XRECORD
  5
239
330
22A
100
AcDbXrecord
280
1
1000
auto
  0
XRECORD
  5
23A
330
22A
100
AcDbXrecord
280
1
1000
auto
  0
XRECORD
  5
23B
330
22A
100
AcDbXrecord
280
1
290
0
  0
XRECORD
  5
23C
330
22A
100
AcDbXrecord
280
1
290
0
  0
XRECORD
  5
23D
330
22A
100
AcDbXrecord
280
1
290
0
  0
XRECORD
  5
23E
330
22A
100
AcDbXrecord
280
1
290
0
  0
XRECORD
  5
23F
330
22A
100
AcDbXrecord
280
1
 90
65537
  0
XRECORD
  5
240
330
22A
100
AcDbXrecord
280
1
 90
65537
  0
XRECORD
  5
241
330
22A
100
AcDbXrecord
280
1
 90
65537
  0
XRECORD
  5
242
330
22A
100
AcDbXrecord
280
1
 90
65537
  0
XRECORD
  5
243
330
22A
100
AcDbXrecord
280
1
1000
auto
  0
XRECORD
  5
244
330
22A
100
AcDbXrecord
280
1
1000
auto
  0
XRECORD
  5
245
330
22A
100
AcDbXrecord
280
1
1000
auto
  0
XRECORD
  5
246
330
22A
100
AcDbXrecord
280
1
1000
auto
  0
XRECORD
  5
247
330
22A
100
AcDbXrecord
280
1
1000
auto
  0
XRECORD
  5
248
330
22A
100
AcDbXrecord
280
1
1000
auto
  0
XRECORD
  5
249
330
22A
100
AcDbXrecord
280
1
1000
auto
  0
XRECORD
  5
24A
330
22A
100
AcDbXrecord
280
1
1000
auto
  0
XRECORD
  5
24B
330
22A
100
AcDbXrecord
280
1
 90
1
  0
XRECORD
  5
24C
330
22A
100
AcDbXrecord
280
1
 40
10.0
  0
XRECORD
  5
24D
330
22A
100
AcDbXrecord
280
1
 40
10.0
  0
XRECORD
  5
24E
330
22A
100
AcDbXrecord
280
1
 40
10.0
  0
XRECORD
  5
24F
330
22A
100
AcDbXrecord
280
1
 40
10.0
  0
XRECORD
  5
250
330
22A
100
AcDbXrecord
280
1
290
0
  0
XRECORD
  5
251
330
22A
100
AcDbXrecord
280
1
 90
1
  0
XRECORD
  5
252
330
22A
100
AcDbXrecord
280
1
 40
0.0
  0
XRECORD
  5
253
330
22A
100
AcDbXrecord
280
1
 40
0.0
  0
XRECORD
  5
254
330
22A
100
AcDbXrecord
280
1
1000
Portrait
  0
XRECORD
  5
255
330
22A
100
AcDbXrecord
280
1
 40
297.0
  0
XRECORD
  5
256
330
22A
100
AcDbXrecord
280
1
 40
210.0
  0
XRECORD
  5
257
330
22A
100
AcDbXrecord
280
1
1000
1:1
  0
XRECORD
  5
258
330
22A
100
AcDbXrecord
280
1
290
1
  0
XRECORD
  5
259
330
22A
100
AcDbXrecord
280
1
1000
3.19.1
  0
XRECORD
  5
25A
330
22A
100
AcDbXrecord
280
1
 90
4
  0
XRECORD
  5
25C
330
22A
100
AcDbXrecord
280
1
 40
184.7666666666665947
  0
XRECORD
  5
25D
330
22A
100
AcDbXrecord
280
1
 40
321.2333333333332348
  0
ENDSEC
  0
EOF
