999
dxflib 3.12.2.0
  0
SECTION
  2
HEADER
  9
$ACADVER
  1
AC1015
  9
$HANDSEED
  5
FFFF
  9
$DIMADEC
 70
3
  9
$DIMASZ
 40
0.18
  9
$DIMAUNIT
 70
0
  9
$DIMAZIN
 70
0
  9
$DIMDEC
 70
4
  9
$DIMEXE
 40
0.18
  9
$DIMEXO
 40
0.0625
  9
$DIMGAP
 40
0.09
  9
$DIMLUNIT
 70
2
  9
$DIMSCALE
 40
1.0
  9
$DIMTSZ
 40
0.0
  9
$DIMTXT
 40
0.18
  9
$DIMZIN
 70
0
  9
$DWGCODEPAGE
  3
ANSI_1252
  9
$INSUNITS
 70
0
  9
$LTSCALE
 40
1.0
  9
$MEASUREMENT
 70
1
  9
$PDMODE
 70
0
  9
$PDSIZE
 40
0
  0
ENDSEC
  0
SECTION
  2
TABLES
  0
TABLE
  2
VPORT
  5
8
100
AcDbSymbolTable
 70
1
  0
VPORT
  5
30
100
AcDbSymbolTableRecord
100
AcDbViewportTableRecord
  2
*Active
 70
0
 10
0.0
 20
0.0
 11
1.0
 21
1.0
 12
286.3055555555554861
 22
148.5
 13
0.0
 23
0.0
 14
10.0
 24
10.0
 15
10.0
 25
10.0
 16
0.0
 26
0.0
 36
1.0
 17
0.0
 27
0.0
 37
0.0
 40
297.0
 41
1.92798353909465
 42
50.0
 43
0.0
 44
0.0
 50
0.0
 51
0.0
 71
0
 72
100
 73
1
 74
3
 75
1
 76
1
 77
0
 78
0
281
0
 65
1
110
0.0
120
0.0
130
0.0
111
1.0
121
0.0
131
0.0
112
0.0
122
1.0
132
0.0
 79
0
146
0.0
  0
ENDTAB
  0
TABLE
  2
LTYPE
  5
5
100
AcDbSymbolTable
 70
41
  0
LTYPE
  5
16
100
AcDbSymbolTableRecord
100
AcDbLinetypeTableRecord
  2
Continuous
 70
0
  3
Solid line
 72
65
 73
0
 40
0.0
  0
LTYPE
  5
31
100
AcDbSymbolTableRecord
100
AcDbLinetypeTableRecord
  2
ACAD_ISO15W100
 70
0
  3
ISO double-dash triple-dot __ __ . . . __ __ . .
 72
65
 73
10
 40
39.0
 49
12.0
 74
0
 49
-3.0
 74
0
 49
12.0
 74
0
 49
-2.9500000000000002
 74
0
 49
0.1
 74
0
 49
-2.9000000000000004
 74
0
 49
0.1
 74
0
 49
-2.9000000000000004
 74
0
 49
0.1
 74
0
 49
-2.9500000000000002
 74
0
  0
LTYPE
  5
32
100
AcDbSymbolTableRecord
100
AcDbLinetypeTableRecord
  2
DIVIDE
 70
0
  3
Divide ____ . . ____ . . ____ . . ____ . . ____
 72
65
 73
6
 40
31.75
 49
12.6999999999999993
 74
0
 49
-6.2999999999999998
 74
0
 49
0.1
 74
0
 49
-6.25
 74
0
 49
0.1
 74
0
 49
-6.2999999999999998
 74
0
  0
LTYPE
  5
33
100
AcDbSymbolTableRecord
100
AcDbLinetypeTableRecord
  2
ACAD_ISO10W100
 70
0
  3
ISO dash dot __ . __ . __ . __ . __ . __ . __ . 
 72
65
 73
4
 40
18.0
 49
12.0
 74
0
 49
-2.9500000000000002
 74
0
 49
0.1
 74
0
 49
-2.9500000000000002
 74
0
  0
LTYPE
  5
34
100
AcDbSymbolTableRecord
100
AcDbLinetypeTableRecord
  2
ACAD_ISO04W100
 70
0
  3
ISO long-dash dot ____ . ____ . ____ . ____ . _
 72
65
 73
4
 40
30.0
 49
24.0
 74
0
 49
-2.9500000000000002
 74
0
 49
0.1
 74
0
 49
-2.9500000000000002
 74
0
  0
LTYPE
  5
35
100
AcDbSymbolTableRecord
100
AcDbLinetypeTableRecord
  2
CENTER2
 70
0
  3
Center (.5x) ___ _ ___ _ ___ _ ___ _ ___ _ ___
 72
65
 73
4
 40
28.5749999999999993
 49
19.0500000000000007
 74
0
 49
-3.1749999999999998
 74
0
 49
3.1749999999999998
 74
0
 49
-3.1749999999999998
 74
0
  0
LTYPE
  5
36
100
AcDbSymbolTableRecord
100
AcDbLinetypeTableRecord
  2
ACAD_ISO11W100
 70
0
  3
ISO double-dash dot __ __ . __ __ . __ __ . __ _
 72
65
 73
6
 40
33.0
 49
12.0
 74
0
 49
-3.0
 74
0
 49
12.0
 74
0
 49
-2.9500000000000002
 74
0
 49
0.1
 74
0
 49
-2.9500000000000002
 74
0
  0
LTYPE
  5
37
100
AcDbSymbolTableRecord
100
AcDbLinetypeTableRecord
  2
HIDDEN2
 70
0
  3
Hidden (.5x) _ _ _ _ _ _ _ _ _ _ _ _ _ _ _ _ _ 
 72
65
 73
2
 40
4.7624999999999993
 49
3.1749999999999998
 74
0
 49
-1.5874999999999999
 74
0
  0
LTYPE
  5
38
100
AcDbSymbolTableRecord
100
AcDbLinetypeTableRecord
  2
BORDERX2
 70
0
  3
Border (2x) ____  ____  .  ____  ____  .  ___
 72
65
 73
6
 40
88.8999999999999915
 49
25.3999999999999986
 74
0
 49
-12.6999999999999993
 74
0
 49
25.3999999999999986
 74
0
 49
-12.6499999999999986
 74
0
 49
0.1
 74
0
 49
-12.6499999999999986
 74
0
  0
LTYPE
  5
39
100
AcDbSymbolTableRecord
100
AcDbLinetypeTableRecord
  2
ACAD_ISO05W100
 70
0
  3
ISO long-dash double-dot ____ .. ____ .. ____ . 
 72
65
 73
6
 40
33.0
 49
24.0
 74
0
 49
-2.9500000000000002
 74
0
 49
0.1
 74
0
 49
-2.9000000000000004
 74
0
 49
0.1
 74
0
 49
-2.9500000000000002
 74
0
  0
LTYPE
  5
3A
100
AcDbSymbolTableRecord
100
AcDbLinetypeTableRecord
  2
DASHDOTX2
 70
0
  3
Dash dot (2x) ____  .  ____  .  ____  .  ___
 72
65
 73
4
 40
50.7999999999999972
 49
25.3999999999999986
 74
0
 49
-12.6499999999999986
 74
0
 49
0.1
 74
0
 49
-12.6499999999999986
 74
0
  0
LTYPE
  5
3B
100
AcDbSymbolTableRecord
100
AcDbLinetypeTableRecord
  2
HIDDENX2
 70
0
  3
Hidden (2x) ____ ____ ____ ____ ____ ____ ____ 
 72
65
 73
2
 40
19.0499999999999972
 49
12.6999999999999993
 74
0
 49
-6.3499999999999996
 74
0
  0
LTYPE
  5
3C
100
AcDbSymbolTableRecord
100
AcDbLinetypeTableRecord
  2
CENTERX2
 70
0
  3
Center (2x) ________  __  ________  __  _____
 72
65
 73
4
 40
101.5999999999999943
 49
63.5
 74
0
 49
-12.6999999999999993
 74
0
 49
12.6999999999999993
 74
0
 49
-12.6999999999999993
 74
0
  0
LTYPE
  5
3D
100
AcDbSymbolTableRecord
100
AcDbLinetypeTableRecord
  2
BORDER2
 70
0
  3
Border (.5x) __.__.__.__.__.__.__.__.__.__.__.
 72
65
 73
6
 40
22.2249999999999979
 49
6.3499999999999996
 74
0
 49
-3.1749999999999998
 74
0
 49
6.3499999999999996
 74
0
 49
-3.125
 74
0
 49
0.1
 74
0
 49
-3.125
 74
0
  0
LTYPE
  5
3E
100
AcDbSymbolTableRecord
100
AcDbLinetypeTableRecord
  2
DASHDOT2
 70
0
  3
Dash dot (.5x) _._._._._._._._._._._._._._._.
 72
65
 73
4
 40
12.6999999999999993
 49
6.3499999999999996
 74
0
 49
-3.125
 74
0
 49
0.1
 74
0
 49
-3.125
 74
0
  0
LTYPE
  5
3F
100
AcDbSymbolTableRecord
100
AcDbLinetypeTableRecord
  2
ACAD_ISO12W100
 70
0
  3
ISO dash double-dot __ . . __ . . __ . . __ . . 
 72
65
 73
6
 40
21.0
 49
12.0
 74
0
 49
-2.9500000000000002
 74
0
 49
0.1
 74
0
 49
-2.9000000000000004
 74
0
 49
0.1
 74
0
 49
-2.9500000000000002
 74
0
  0
LTYPE
  5
40
100
AcDbSymbolTableRecord
100
AcDbLinetypeTableRecord
  2
ACAD_ISO07W100
 70
0
  3
ISO dot . . . . . . . . . . . . . . . . . . . . 
 72
65
 73
2
 40
3.0
 49
0.1
 74
0
 49
-2.8999999999999999
 74
0
  0
LTYPE
  5
41
100
AcDbSymbolTableRecord
100
AcDbLinetypeTableRecord
  2
HIDDEN
 70
0
  3
Hidden __ __ __ __ __ __ __ __ __ __ __ __ __ __
 72
65
 73
2
 40
9.5249999999999986
 49
6.3499999999999996
 74
0
 49
-3.1749999999999998
 74
0
  0
LTYPE
  5
42
100
AcDbSymbolTableRecord
100
AcDbLinetypeTableRecord
  2
ACAD_ISO06W100
 70
0
  3
ISO long-dash triple-dot ____ ... ____ ... ____
 72
65
 73
8
 40
36.0
 49
24.0
 74
0
 49
-2.9500000000000002
 74
0
 49
0.1
 74
0
 49
-2.9000000000000004
 74
0
 49
0.1
 74
0
 49
-2.9000000000000004
 74
0
 49
0.1
 74
0
 49
-2.9500000000000002
 74
0
  0
LTYPE
  5
43
100
AcDbSymbolTableRecord
100
AcDbLinetypeTableRecord
  2
CENTER
 70
0
  3
Center ____ _ ____ _ ____ _ ____ _ ____ _ ____
 72
65
 73
4
 40
50.7999999999999972
 49
31.75
 74
0
 49
-6.3499999999999996
 74
0
 49
6.3499999999999996
 74
0
 49
-6.3499999999999996
 74
0
  0
LTYPE
  5
44
100
AcDbSymbolTableRecord
100
AcDbLinetypeTableRecord
  2
DOTX2
 70
0
  3
Dot (2x) .  .  .  .  .  .  .  .  .  .  .  .  .  .
 72
65
 73
2
 40
12.6999999999999993
 49
0.1
 74
0
 49
-12.5999999999999996
 74
0
  0
LTYPE
  5
45
100
AcDbSymbolTableRecord
100
AcDbLinetypeTableRecord
  2
PHANTOM
 70
0
  3
Phantom ______  __  __  ______  __  __  ______ 
 72
65
 73
6
 40
63.5
 49
31.75
 74
0
 49
-6.3499999999999996
 74
0
 49
6.3499999999999996
 74
0
 49
-6.3499999999999996
 74
0
 49
6.3499999999999996
 74
0
 49
-6.3499999999999996
 74
0
  0
LTYPE
  5
46
100
AcDbSymbolTableRecord
100
AcDbLinetypeTableRecord
  2
ACAD_ISO08W100
 70
0
  3
ISO long-dash short-dash ____ __ ____ __ ____ _
 72
65
 73
4
 40
36.0
 49
24.0
 74
0
 49
-3.0
 74
0
 49
6.0
 74
0
 49
-3.0
 74
0
  0
LTYPE
  5
47
100
AcDbSymbolTableRecord
100
AcDbLinetypeTableRecord
  2
DASHEDX2
 70
0
  3
Dashed (2x) ____  ____  ____  ____  ____  ___
 72
65
 73
2
 40
38.0999999999999943
 49
25.3999999999999986
 74
0
 49
-12.6999999999999993
 74
0
  0
LTYPE
  5
48
100
AcDbSymbolTableRecord
100
AcDbLinetypeTableRecord
  2
ACAD_ISO02W100
 70
0
  3
ISO dash __ __ __ __ __ __ __ __ __ __ __ __ __
 72
65
 73
2
 40
15.0
 49
12.0
 74
0
 49
-3.0
 74
0
  0
LTYPE
  5
49
100
AcDbSymbolTableRecord
100
AcDbLinetypeTableRecord
  2
PHANTOM2
 70
0
  3
Phantom (.5x) ___ _ _ ___ _ _ ___ _ _ ___ _ _
 72
65
 73
6
 40
31.75
 49
15.875
 74
0
 49
-3.1749999999999998
 74
0
 49
3.1749999999999998
 74
0
 49
-3.1749999999999998
 74
0
 49
3.1749999999999998
 74
0
 49
-3.1749999999999998
 74
0
  0
LTYPE
  5
4A
100
AcDbSymbolTableRecord
100
AcDbLinetypeTableRecord
  2
DASHED2
 70
0
  3
Dashed (.5x) _ _ _ _ _ _ _ _ _ _ _ _ _ _ _ _ _ 
 72
65
 73
2
 40
9.5249999999999986
 49
6.3499999999999996
 74
0
 49
-3.1749999999999998
 74
0
  0
LTYPE
  5
4B
100
AcDbSymbolTableRecord
100
AcDbLinetypeTableRecord
  2
ACAD_ISO09W100
 70
0
  3
ISO long-dash double-short-dash ____ __ __ ____
 72
65
 73
6
 40
45.0
 49
24.0
 74
0
 49
-3.0
 74
0
 49
6.0
 74
0
 49
-3.0
 74
0
 49
6.0
 74
0
 49
-3.0
 74
0
  0
LTYPE
  5
4C
100
AcDbSymbolTableRecord
100
AcDbLinetypeTableRecord
  2
ACAD_ISO13W100
 70
0
  3
ISO double-dash double-dot __ __ . . __ __ . . _
 72
65
 73
8
 40
36.0
 49
12.0
 74
0
 49
-3.0
 74
0
 49
12.0
 74
0
 49
-2.9500000000000002
 74
0
 49
0.1
 74
0
 49
-2.9000000000000004
 74
0
 49
0.1
 74
0
 49
-2.9500000000000002
 74
0
  0
LTYPE
  5
4D
100
AcDbSymbolTableRecord
100
AcDbLinetypeTableRecord
  2
DOT2
 70
0
  3
Dot (.5x) ........................................
 72
65
 73
2
 40
3.1749999999999998
 49
0.1
 74
0
 49
-3.0749999999999997
 74
0
  0
LTYPE
  5
4E
100
AcDbSymbolTableRecord
100
AcDbLinetypeTableRecord
  2
DASHED
 70
0
  3
Dashed __ __ __ __ __ __ __ __ __ __ __ __ __ _
 72
65
 73
2
 40
19.0499999999999972
 49
12.6999999999999993
 74
0
 49
-6.3499999999999996
 74
0
  0
LTYPE
  5
4F
100
AcDbSymbolTableRecord
100
AcDbLinetypeTableRecord
  2
ACAD_ISO14W100
 70
0
  3
ISO dash triple-dot __ . . . __ . . . __ . . . _
 72
65
 73
8
 40
24.0
 49
12.0
 74
0
 49
-2.9500000000000002
 74
0
 49
0.1
 74
0
 49
-2.9000000000000004
 74
0
 49
0.1
 74
0
 49
-2.9000000000000004
 74
0
 49
0.1
 74
0
 49
-2.9500000000000002
 74
0
  0
LTYPE
  5
15
100
AcDbSymbolTableRecord
100
AcDbLinetypeTableRecord
  2
BYLAYER
 70
0
  3

 72
65
 73
0
 40
0.0
  0
LTYPE
  5
50
100
AcDbSymbolTableRecord
100
AcDbLinetypeTableRecord
  2
PHANTOMX2
 70
0
  3
Phantom (2x) ____________    ____    ____   _
 72
65
 73
6
 40
127.0
 49
63.5
 74
0
 49
-12.6999999999999993
 74
0
 49
12.6999999999999993
 74
0
 49
-12.6999999999999993
 74
0
 49
12.6999999999999993
 74
0
 49
-12.6999999999999993
 74
0
  0
LTYPE
  5
14
100
AcDbSymbolTableRecord
100
AcDbLinetypeTableRecord
  2
BYBLOCK
 70
0
  3

 72
65
 73
0
 40
0.0
  0
LTYPE
  5
51
100
AcDbSymbolTableRecord
100
AcDbLinetypeTableRecord
  2
DIVIDEX2
 70
0
  3
Divide (2x) ________  .  .  ________  .  .  _
 72
65
 73
6
 40
63.4999999999999929
 49
25.3999999999999986
 74
0
 49
-12.6499999999999986
 74
0
 49
0.1
 74
0
 49
-12.5999999999999979
 74
0
 49
0.1
 74
0
 49
-12.6499999999999986
 74
0
  0
LTYPE
  5
52
100
AcDbSymbolTableRecord
100
AcDbLinetypeTableRecord
  2
BORDER
 70
0
  3
Border __ __ . __ __ . __ __ . __ __ . __ __ .
 72
65
 73
6
 40
44.4499999999999957
 49
12.6999999999999993
 74
0
 49
-6.3499999999999996
 74
0
 49
12.6999999999999993
 74
0
 49
-6.2999999999999998
 74
0
 49
0.1
 74
0
 49
-6.2999999999999998
 74
0
  0
LTYPE
  5
53
100
AcDbSymbolTableRecord
100
AcDbLinetypeTableRecord
  2
DIVIDE2
 70
0
  3
Divide (.5x) __..__..__..__..__..__..__..__.._
 72
65
 73
6
 40
15.875
 49
6.3499999999999996
 74
0
 49
-3.125
 74
0
 49
0.1
 74
0
 49
-3.0750000000000002
 74
0
 49
0.1
 74
0
 49
-3.125
 74
0
  0
LTYPE
  5
54
100
AcDbSymbolTableRecord
100
AcDbLinetypeTableRecord
  2
DOT
 70
0
  3
Dot . . . . . . . . . . . . . . . . . . . . . . . .
 72
65
 73
2
 40
6.3499999999999996
 49
0.1
 74
0
 49
-6.25
 74
0
  0
LTYPE
  5
55
100
AcDbSymbolTableRecord
100
AcDbLinetypeTableRecord
  2
DASHDOT
 70
0
  3
Dash dot __ . __ . __ . __ . __ . __ . __ . __
 72
65
 73
4
 40
25.3999999999999986
 49
12.6999999999999993
 74
0
 49
-6.2999999999999998
 74
0
 49
0.1
 74
0
 49
-6.2999999999999998
 74
0
  0
LTYPE
  5
56
100
AcDbSymbolTableRecord
100
AcDbLinetypeTableRecord
  2
ACAD_ISO03W100
 70
0
  3
ISO dash space __    __    __    __    __    __
 72
65
 73
2
 40
30.0
 49
12.0
 74
0
 49
-18.0
 74
0
  0
ENDTAB
  0
TABLE
  2
LAYER
  5
2
100
AcDbSymbolTable
 70
3
  0
LAYER
  5
57
100
AcDbSymbolTableRecord
100
AcDbLayerTableRecord
  2
int
 70
0
 62
3
420
65280
  6
Continuous
370
0
390
F
  0
LAYER
  5
58
100
AcDbSymbolTableRecord
100
AcDbLayerTableRecord
  2
ext
 70
0
 62
1
420
16711680
  6
Continuous
370
0
390
F
  0
LAYER
  5
10
100
AcDbSymbolTableRecord
100
AcDbLayerTableRecord
  2
0
 70
0
 62
7
420
16777215
  6
Continuous
370
0
390
F
  0
ENDTAB
  0
TABLE
  2
STYLE
  5
3
100
AcDbSymbolTable
 70
1
  0
STYLE
  5
59
100
AcDbSymbolTableRecord
100
AcDbTextStyleTableRecord
  2
Standard
 70
0
 40
0.0
 41
1.0
 50
0.0
 71
0
 42
2.5
  3

  4

1001
ACAD
1000
txt
1071
0
  0
ENDTAB
  0
TABLE
  2
VIEW
  5
6
100
AcDbSymbolTable
 70
0
  0
ENDTAB
  0
TABLE
  2
UCS
  5
7
100
AcDbSymbolTable
 70
0
  0
ENDTAB
  0
TABLE
  2
APPID
  5
9
100
AcDbSymbolTable
 70
1
  0
APPID
  5
12
100
AcDbSymbolTableRecord
100
AcDbRegAppTableRecord
  2
ACAD
 70
0
  0
APPID
  5
5A
100
AcDbSymbolTableRecord
100
AcDbRegAppTableRecord
  2
QCAD
 70
0
  0
ENDTAB
  0
TABLE
  2
DIMSTYLE
  5
A
100
AcDbSymbolTable
 70
1
100
AcDbDimStyleTable
 71
0
  0
DIMSTYLE
105
27
100
AcDbSymbolTableRecord
100
AcDbDimStyleTableRecord
  2
Standard
 41
0.18
 42
0.0625
 43
3.75
 44
0.18
 70
0
 73
0
 74
0
 77
1
 78
8
140
0.18
141
2.5
143
0.03937007874016
147
0.09
171
3
172
1
271
2
272
2
274
3
278
44
283
0
284
8
340
59
  0
ENDTAB
  0
TABLE
  2
BLOCK_RECORD
  5
1
100
AcDbSymbolTable
 70
1
  0
BLOCK_RECORD
  5
1F
100
AcDbSymbolTableRecord
100
AcDbBlockTableRecord
  2
*Model_Space
340
22
  0
BLOCK_RECORD
  5
1B
100
AcDbSymbolTableRecord
100
AcDbBlockTableRecord
  2
*Paper_Space
340
1E
  0
BLOCK_RECORD
  5
23
100
AcDbSymbolTableRecord
100
AcDbBlockTableRecord
  2
*Paper_Space0
340
26
  0
BLOCK_RECORD
  5
5B
100
AcDbSymbolTableRecord
100
AcDbBlockTableRecord
  2
bras
340
0
  0
ENDTAB
  0
ENDSEC
  0
SECTION
  2
BLOCKS
  0
BLOCK
  5
20
100
AcDbEntity
  8
0
100
AcDbBlockBegin
  2
*Model_Space
 70
0
 10
0.0
 20
0.0
 30
0.0
  3
*Model_Space
  1

  0
ENDBLK
  5
21
100
AcDbEntity
  8
0
100
AcDbBlockEnd
  0
BLOCK
  5
1C
100
AcDbEntity
 67
1
  8
0
100
AcDbBlockBegin
  2
*Paper_Space
 70
0
 10
0.0
 20
0.0
 30
0.0
  3
*Paper_Space
  1

  0
ENDBLK
  5
1D
100
AcDbEntity
 67
1
  8
0
100
AcDbBlockEnd
  0
BLOCK
  5
24
100
AcDbEntity
  8
0
100
AcDbBlockBegin
  2
*Paper_Space0
 70
0
 10
0.0
 20
0.0
 30
0.0
  3
*Paper_Space0
  1

  0
ENDBLK
  5
25
100
AcDbEntity
  8
0
100
AcDbBlockEnd
  0
BLOCK
  5
5C
100
AcDbEntity
  8
0
100
AcDbBlockBegin
  2
bras
 70
0
 10
0.0
 20
0.0
 30
0.0
  3
bras
  1

  0
LINE
  5
5D
100
AcDbEntity
100
AcDbLine
  8
ext
 62
256
370
-1
 48
1.0
  6
BYLAYER
 10
30.0
 20
5.0
 30
0.0
 11
40.0
 21
5.0
 31
0.0
  0
LINE
  5
5E
100
AcDbEntity
100
AcDbLine
  8
ext
 62
256
370
-1
 48
1.0
  6
BYLAYER
 10
40.0
 20
5.0
 30
0.0
 11
40.0
 21
0.0
 31
0.0
  0
LINE
  5
5F
100
AcDbEntity
100
AcDbLine
  8
ext
 62
256
370
-1
 48
1.0
  6
BYLAYER
 10
40.0
 20
0.0
 30
0.0
 11
122.1740000000000066
 21
24.9423999999999992
 31
0.0
  0
LINE
  5
60
100
AcDbEntity
100
AcDbLine
  8
ext
 62
256
370
-1
 48
1.0
  6
BYLAYER
 10
122.1740000000000066
 20
24.9423999999999992
 30
0.0
 11
207.4139999999999873
 21
35.3759999999999977
 31
0.0
  0
LINE
  5
61
100
AcDbEntity
100
AcDbLine
  8
ext
 62
256
370
-1
 48
1.0
  6
BYLAYER
 10
207.4139999999999873
 20
35.3759999999999977
 30
0.0
 11
294.1999999999999886
 21
30.9394999999999989
 31
0.0
  0
LINE
  5
62
100
AcDbEntity
100
AcDbLine
  8
ext
 62
256
370
-1
 48
1.0
  6
BYLAYER
 10
294.1999999999999886
 20
30.9394999999999989
 30
0.0
 11
295.2169999999999845
 21
31.0605000000000011
 31
0.0
  0
LINE
  5
63
100
AcDbEntity
100
AcDbLine
  8
ext
 62
256
370
-1
 48
1.0
  6
BYLAYER
 10
295.2169999999999845
 20
31.0605000000000011
 30
0.0
 11
296.1970000000000027
 21
31.3524999999999991
 31
0.0
  0
LINE
  5
64
100
AcDbEntity
100
AcDbLine
  8
ext
 62
256
370
-1
 48
1.0
  6
BYLAYER
 10
296.1970000000000027
 20
31.3524999999999991
 30
0.0
 11
297.1139999999999759
 21
31.8076000000000008
 31
0.0
  0
LINE
  5
65
100
AcDbEntity
100
AcDbLine
  8
ext
 62
256
370
-1
 48
1.0
  6
BYLAYER
 10
297.1139999999999759
 20
31.8076000000000008
 30
0.0
 11
297.9409999999999741
 21
32.4121000000000024
 31
0.0
  0
LINE
  5
66
100
AcDbEntity
100
AcDbLine
  8
ext
 62
256
370
-1
 48
1.0
  6
BYLAYER
 10
297.9409999999999741
 20
32.4121000000000024
 30
0.0
 11
298.65300000000002
 21
33.1475000000000009
 31
0.0
  0
LINE
  5
67
100
AcDbEntity
100
AcDbLine
  8
ext
 62
256
370
-1
 48
1.0
  6
BYLAYER
 10
298.65300000000002
 20
33.1475000000000009
 30
0.0
 11
299.228999999999985
 21
33.9932000000000016
 31
0.0
  0
LINE
  5
68
100
AcDbEntity
100
AcDbLine
  8
ext
 62
256
370
-1
 48
1.0
  6
BYLAYER
 10
299.228999999999985
 20
33.9932000000000016
 30
0.0
 11
299.65300000000002
 21
34.9258000000000024
 31
0.0
  0
LINE
  5
69
100
AcDbEntity
100
AcDbLine
  8
ext
 62
256
370
-1
 48
1.0
  6
BYLAYER
 10
299.65300000000002
 20
34.9258000000000024
 30
0.0
 11
299.9130000000000109
 21
35.9159999999999968
 31
0.0
  0
LINE
  5
6A
100
AcDbEntity
100
AcDbLine
  8
ext
 62
256
370
-1
 48
1.0
  6
BYLAYER
 10
299.9130000000000109
 20
35.9159999999999968
 30
0.0
 11
300.0
 21
36.9354999999999976
 31
0.0
  0
LINE
  5
6B
100
AcDbEntity
100
AcDbLine
  8
ext
 62
256
370
-1
 48
1.0
  6
BYLAYER
 10
300.0
 20
36.9354999999999976
 30
0.0
 11
300.0
 21
45.1445000000000007
 31
0.0
  0
LINE
  5
6C
100
AcDbEntity
100
AcDbLine
  8
ext
 62
256
370
-1
 48
1.0
  6
BYLAYER
 10
300.0
 20
45.1445000000000007
 30
0.0
 11
299.9130000000000109
 21
46.1631
 31
0.0
  0
LINE
  5
6D
100
AcDbEntity
100
AcDbLine
  8
ext
 62
256
370
-1
 48
1.0
  6
BYLAYER
 10
299.9130000000000109
 20
46.1631
 30
0.0
 11
299.6539999999999964
 21
47.1522999999999968
 31
0.0
  0
LINE
  5
6E
100
AcDbEntity
100
AcDbLine
  8
ext
 62
256
370
-1
 48
1.0
  6
BYLAYER
 10
299.6539999999999964
 20
47.1522999999999968
 30
0.0
 11
299.2309999999999945
 21
48.0829999999999984
 31
0.0
  0
LINE
  5
6F
100
AcDbEntity
100
AcDbLine
  8
ext
 62
256
370
-1
 48
1.0
  6
BYLAYER
 10
299.2309999999999945
 20
48.0829999999999984
 30
0.0
 11
298.6560000000000059
 21
48.9277000000000015
 31
0.0
  0
LINE
  5
70
100
AcDbEntity
100
AcDbLine
  8
ext
 62
256
370
-1
 48
1.0
  6
BYLAYER
 10
298.6560000000000059
 20
48.9277000000000015
 30
0.0
 11
297.9460000000000264
 21
49.6640999999999977
 31
0.0
  0
LINE
  5
71
100
AcDbEntity
100
AcDbLine
  8
ext
 62
256
370
-1
 48
1.0
  6
BYLAYER
 10
297.9460000000000264
 20
49.6640999999999977
 30
0.0
 11
297.1220000000000141
 21
50.2685999999999993
 31
0.0
  0
LINE
  5
72
100
AcDbEntity
100
AcDbLine
  8
ext
 62
256
370
-1
 48
1.0
  6
BYLAYER
 10
297.1220000000000141
 20
50.2685999999999993
 30
0.0
 11
296.2069999999999936
 21
50.7235999999999976
 31
0.0
  0
LINE
  5
73
100
AcDbEntity
100
AcDbLine
  8
ext
 62
256
370
-1
 48
1.0
  6
BYLAYER
 10
296.2069999999999936
 20
50.7235999999999976
 30
0.0
 11
295.2280000000000086
 21
51.0176000000000016
 31
0.0
  0
LINE
  5
74
100
AcDbEntity
100
AcDbLine
  8
ext
 62
256
370
-1
 48
1.0
  6
BYLAYER
 10
295.2280000000000086
 20
51.0176000000000016
 30
0.0
 11
210.3810000000000002
 21
62.6426000000000016
 31
0.0
  0
LINE
  5
75
100
AcDbEntity
100
AcDbLine
  8
ext
 62
256
370
-1
 48
1.0
  6
BYLAYER
 10
210.3810000000000002
 20
62.6426000000000016
 30
0.0
 11
124.7409999999999997
 21
62.3290999999999968
 31
0.0
  0
LINE
  5
76
100
AcDbEntity
100
AcDbLine
  8
ext
 62
256
370
-1
 48
1.0
  6
BYLAYER
 10
124.7409999999999997
 20
62.3290999999999968
 30
0.0
 11
39.9823999999999984
 21
50.0829999999999984
 31
0.0
  0
LINE
  5
77
100
AcDbEntity
100
AcDbLine
  8
ext
 62
256
370
-1
 48
1.0
  6
BYLAYER
 10
39.9823999999999984
 20
50.0829999999999984
 30
0.0
 11
40.0
 21
45.0
 31
0.0
  0
LINE
  5
78
100
AcDbEntity
100
AcDbLine
  8
ext
 62
256
370
-1
 48
1.0
  6
BYLAYER
 10
40.0
 20
45.0
 30
0.0
 11
30.0
 21
45.0
 31
0.0
  0
LINE
  5
79
100
AcDbEntity
100
AcDbLine
  8
ext
 62
256
370
-1
 48
1.0
  6
BYLAYER
 10
30.0
 20
45.0
 30
0.0
 11
30.0
 21
50.0
 31
0.0
  0
LINE
  5
7A
100
AcDbEntity
100
AcDbLine
  8
ext
 62
256
370
-1
 48
1.0
  6
BYLAYER
 10
30.0
 20
50.0
 30
0.0
 11
20.0
 21
50.0
 31
0.0
  0
LINE
  5
7B
100
AcDbEntity
100
AcDbLine
  8
ext
 62
256
370
-1
 48
1.0
  6
BYLAYER
 10
20.0
 20
50.0
 30
0.0
 11
20.0
 21
45.0
 31
0.0
  0
LINE
  5
7C
100
AcDbEntity
100
AcDbLine
  8
ext
 62
256
370
-1
 48
1.0
  6
BYLAYER
 10
20.0
 20
45.0
 30
0.0
 11
15.0
 21
45.0
 31
0.0
  0
LINE
  5
7D
100
AcDbEntity
100
AcDbLine
  8
ext
 62
256
370
-1
 48
1.0
  6
BYLAYER
 10
15.0
 20
45.0
 30
0.0
 11
15.0
 21
5.0
 31
0.0
  0
LINE
  5
7E
100
AcDbEntity
100
AcDbLine
  8
ext
 62
256
370
-1
 48
1.0
  6
BYLAYER
 10
15.0
 20
5.0
 30
0.0
 11
20.0
 21
5.0
 31
0.0
  0
LINE
  5
7F
100
AcDbEntity
100
AcDbLine
  8
ext
 62
256
370
-1
 48
1.0
  6
BYLAYER
 10
20.0
 20
5.0
 30
0.0
 11
20.0
 21
0.0
 31
0.0
  0
LINE
  5
80
100
AcDbEntity
100
AcDbLine
  8
ext
 62
256
370
-1
 48
1.0
  6
BYLAYER
 10
20.0
 20
0.0
 30
0.0
 11
30.0
 21
0.0
 31
0.0
  0
LINE
  5
81
100
AcDbEntity
100
AcDbLine
  8
ext
 62
256
370
-1
 48
1.0
  6
BYLAYER
 10
30.0
 20
0.0
 30
0.0
 11
30.0
 21
5.0
 31
0.0
  0
LINE
  5
82
100
AcDbEntity
100
AcDbLine
  8
int
 62
256
370
-1
 48
1.0
  6
BYLAYER
 10
173.4050000000000011
 20
44.1621000000000024
 30
0.0
 11
173.1469999999999914
 21
44.2079999999999984
 31
0.0
  0
LINE
  5
83
100
AcDbEntity
100
AcDbLine
  8
int
 62
256
370
-1
 48
1.0
  6
BYLAYER
 10
173.1469999999999914
 20
44.2079999999999984
 30
0.0
 11
172.9010000000000105
 21
44.2978999999999985
 31
0.0
  0
LINE
  5
84
100
AcDbEntity
100
AcDbLine
  8
int
 62
256
370
-1
 48
1.0
  6
BYLAYER
 10
172.9010000000000105
 20
44.2978999999999985
 30
0.0
 11
172.6750000000000114
 21
44.4277000000000015
 31
0.0
  0
LINE
  5
85
100
AcDbEntity
100
AcDbLine
  8
int
 62
256
370
-1
 48
1.0
  6
BYLAYER
 10
172.6750000000000114
 20
44.4277000000000015
 30
0.0
 11
172.4749999999999943
 21
44.5966999999999985
 31
0.0
  0
LINE
  5
86
100
AcDbEntity
100
AcDbLine
  8
int
 62
256
370
-1
 48
1.0
  6
BYLAYER
 10
172.4749999999999943
 20
44.5966999999999985
 30
0.0
 11
163.1620000000000061
 21
53.9091999999999985
 31
0.0
  0
LINE
  5
87
100
AcDbEntity
100
AcDbLine
  8
int
 62
256
370
-1
 48
1.0
  6
BYLAYER
 10
163.1620000000000061
 20
53.9091999999999985
 30
0.0
 11
163.0
 21
54.1006
 31
0.0
  0
LINE
  5
88
100
AcDbEntity
100
AcDbLine
  8
int
 62
256
370
-1
 48
1.0
  6
BYLAYER
 10
163.0
 20
54.1006
 30
0.0
 11
162.8720000000000141
 21
54.3173999999999992
 31
0.0
  0
LINE
  5
89
100
AcDbEntity
100
AcDbLine
  8
int
 62
256
370
-1
 48
1.0
  6
BYLAYER
 10
162.8720000000000141
 20
54.3173999999999992
 30
0.0
 11
162.7820000000000107
 21
54.5518000000000001
 31
0.0
  0
LINE
  5
8A
100
AcDbEntity
100
AcDbLine
  8
int
 62
256
370
-1
 48
1.0
  6
BYLAYER
 10
162.7820000000000107
 20
54.5518000000000001
 30
0.0
 11
162.7319999999999993
 21
54.7969000000000008
 31
0.0
  0
LINE
  5
8B
100
AcDbEntity
100
AcDbLine
  8
int
 62
256
370
-1
 48
1.0
  6
BYLAYER
 10
162.7319999999999993
 20
54.7969000000000008
 30
0.0
 11
162.7249999999999943
 21
55.0478999999999985
 31
0.0
  0
LINE
  5
8C
100
AcDbEntity
100
AcDbLine
  8
int
 62
256
370
-1
 48
1.0
  6
BYLAYER
 10
162.7249999999999943
 20
55.0478999999999985
 30
0.0
 11
162.7589999999999861
 21
55.2969000000000008
 31
0.0
  0
LINE
  5
8D
100
AcDbEntity
100
AcDbLine
  8
int
 62
256
370
-1
 48
1.0
  6
BYLAYER
 10
162.7589999999999861
 20
55.2969000000000008
 30
0.0
 11
162.8329999999999984
 21
55.5360999999999976
 31
0.0
  0
LINE
  5
8E
100
AcDbEntity
100
AcDbLine
  8
int
 62
256
370
-1
 48
1.0
  6
BYLAYER
 10
162.8329999999999984
 20
55.5360999999999976
 30
0.0
 11
162.9470000000000027
 21
55.7597999999999985
 31
0.0
  0
LINE
  5
8F
100
AcDbEntity
100
AcDbLine
  8
int
 62
256
370
-1
 48
1.0
  6
BYLAYER
 10
162.9470000000000027
 20
55.7597999999999985
 30
0.0
 11
163.0970000000000084
 21
55.9609000000000023
 31
0.0
  0
LINE
  5
90
100
AcDbEntity
100
AcDbLine
  8
int
 62
256
370
-1
 48
1.0
  6
BYLAYER
 10
163.0970000000000084
 20
55.9609000000000023
 30
0.0
 11
163.2769999999999868
 21
56.1347999999999985
 31
0.0
  0
LINE
  5
91
100
AcDbEntity
100
AcDbLine
  8
int
 62
256
370
-1
 48
1.0
  6
BYLAYER
 10
163.2769999999999868
 20
56.1347999999999985
 30
0.0
 11
163.4850000000000136
 21
56.2764000000000024
 31
0.0
  0
LINE
  5
92
100
AcDbEntity
100
AcDbLine
  8
int
 62
256
370
-1
 48
1.0
  6
BYLAYER
 10
163.4850000000000136
 20
56.2764000000000024
 30
0.0
 11
163.7129999999999939
 21
56.3808999999999969
 31
0.0
  0
LINE
  5
93
100
AcDbEntity
100
AcDbLine
  8
int
 62
256
370
-1
 48
1.0
  6
BYLAYER
 10
163.7129999999999939
 20
56.3808999999999969
 30
0.0
 11
163.9550000000000125
 21
56.4463000000000008
 31
0.0
  0
LINE
  5
94
100
AcDbEntity
100
AcDbLine
  8
int
 62
256
370
-1
 48
1.0
  6
BYLAYER
 10
163.9550000000000125
 20
56.4463000000000008
 30
0.0
 11
164.2050000000000125
 21
56.4697000000000031
 31
0.0
  0
LINE
  5
95
100
AcDbEntity
100
AcDbLine
  8
int
 62
256
370
-1
 48
1.0
  6
BYLAYER
 10
164.2050000000000125
 20
56.4697000000000031
 30
0.0
 11
182.7709999999999866
 21
56.3564000000000007
 31
0.0
  0
LINE
  5
96
100
AcDbEntity
100
AcDbLine
  8
int
 62
256
370
-1
 48
1.0
  6
BYLAYER
 10
182.7709999999999866
 20
56.3564000000000007
 30
0.0
 11
183.0200000000000102
 21
56.3301000000000016
 31
0.0
  0
LINE
  5
97
100
AcDbEntity
100
AcDbLine
  8
int
 62
256
370
-1
 48
1.0
  6
BYLAYER
 10
183.0200000000000102
 20
56.3301000000000016
 30
0.0
 11
183.2599999999999909
 21
56.2627000000000024
 31
0.0
  0
LINE
  5
98
100
AcDbEntity
100
AcDbLine
  8
int
 62
256
370
-1
 48
1.0
  6
BYLAYER
 10
183.2599999999999909
 20
56.2627000000000024
 30
0.0
 11
183.4850000000000136
 21
56.1561999999999983
 31
0.0
  0
LINE
  5
99
100
AcDbEntity
100
AcDbLine
  8
int
 62
256
370
-1
 48
1.0
  6
BYLAYER
 10
183.4850000000000136
 20
56.1561999999999983
 30
0.0
 11
183.6899999999999977
 21
56.0137
 31
0.0
  0
LINE
  5
9A
100
AcDbEntity
100
AcDbLine
  8
int
 62
256
370
-1
 48
1.0
  6
BYLAYER
 10
183.6899999999999977
 20
56.0137
 30
0.0
 11
183.8689999999999998
 21
55.8397999999999968
 31
0.0
  0
LINE
  5
9B
100
AcDbEntity
100
AcDbLine
  8
int
 62
256
370
-1
 48
1.0
  6
BYLAYER
 10
183.8689999999999998
 20
55.8397999999999968
 30
0.0
 11
184.0169999999999959
 21
55.6377000000000024
 31
0.0
  0
LINE
  5
9C
100
AcDbEntity
100
AcDbLine
  8
int
 62
256
370
-1
 48
1.0
  6
BYLAYER
 10
184.0169999999999959
 20
55.6377000000000024
 30
0.0
 11
184.1279999999999859
 21
55.4149999999999991
 31
0.0
  0
LINE
  5
9D
100
AcDbEntity
100
AcDbLine
  8
int
 62
256
370
-1
 48
1.0
  6
BYLAYER
 10
184.1279999999999859
 20
55.4149999999999991
 30
0.0
 11
184.2009999999999934
 21
55.1758000000000024
 31
0.0
  0
LINE
  5
9E
100
AcDbEntity
100
AcDbLine
  8
int
 62
256
370
-1
 48
1.0
  6
BYLAYER
 10
184.2009999999999934
 20
55.1758000000000024
 30
0.0
 11
184.2340000000000089
 21
54.9286999999999992
 31
0.0
  0
LINE
  5
9F
100
AcDbEntity
100
AcDbLine
  8
int
 62
256
370
-1
 48
1.0
  6
BYLAYER
 10
184.2340000000000089
 20
54.9286999999999992
 30
0.0
 11
184.2259999999999991
 21
54.6786999999999992
 31
0.0
  0
LINE
  5
A0
100
AcDbEntity
100
AcDbLine
  8
int
 62
256
370
-1
 48
1.0
  6
BYLAYER
 10
184.2259999999999991
 20
54.6786999999999992
 30
0.0
 11
184.1750000000000114
 21
54.4346000000000032
 31
0.0
  0
LINE
  5
A1
100
AcDbEntity
100
AcDbLine
  8
int
 62
256
370
-1
 48
1.0
  6
BYLAYER
 10
184.1750000000000114
 20
54.4346000000000032
 30
0.0
 11
184.085000000000008
 21
54.2021000000000015
 31
0.0
  0
LINE
  5
A2
100
AcDbEntity
100
AcDbLine
  8
int
 62
256
370
-1
 48
1.0
  6
BYLAYER
 10
184.085000000000008
 20
54.2021000000000015
 30
0.0
 11
183.9579999999999984
 21
53.9872999999999976
 31
0.0
  0
LINE
  5
A3
100
AcDbEntity
100
AcDbLine
  8
int
 62
256
370
-1
 48
1.0
  6
BYLAYER
 10
183.9579999999999984
 20
53.9872999999999976
 30
0.0
 11
183.796999999999997
 21
53.7969000000000008
 31
0.0
  0
LINE
  5
A4
100
AcDbEntity
100
AcDbLine
  8
int
 62
256
370
-1
 48
1.0
  6
BYLAYER
 10
183.796999999999997
 20
53.7969000000000008
 30
0.0
 11
174.5970000000000084
 21
44.5966999999999985
 31
0.0
  0
LINE
  5
A5
100
AcDbEntity
100
AcDbLine
  8
int
 62
256
370
-1
 48
1.0
  6
BYLAYER
 10
174.5970000000000084
 20
44.5966999999999985
 30
0.0
 11
174.3959999999999866
 21
44.4277000000000015
 31
0.0
  0
LINE
  5
A6
100
AcDbEntity
100
AcDbLine
  8
int
 62
256
370
-1
 48
1.0
  6
BYLAYER
 10
174.3959999999999866
 20
44.4277000000000015
 30
0.0
 11
174.1699999999999875
 21
44.2978999999999985
 31
0.0
  0
LINE
  5
A7
100
AcDbEntity
100
AcDbLine
  8
int
 62
256
370
-1
 48
1.0
  6
BYLAYER
 10
174.1699999999999875
 20
44.2978999999999985
 30
0.0
 11
173.9240000000000066
 21
44.2079999999999984
 31
0.0
  0
LINE
  5
A8
100
AcDbEntity
100
AcDbLine
  8
int
 62
256
370
-1
 48
1.0
  6
BYLAYER
 10
173.9240000000000066
 20
44.2079999999999984
 30
0.0
 11
173.6659999999999968
 21
44.1621000000000024
 31
0.0
  0
LINE
  5
A9
100
AcDbEntity
100
AcDbLine
  8
int
 62
256
370
-1
 48
1.0
  6
BYLAYER
 10
173.6659999999999968
 20
44.1621000000000024
 30
0.0
 11
173.4050000000000011
 21
44.1621000000000024
 31
0.0
  0
LINE
  5
AA
100
AcDbEntity
100
AcDbLine
  8
int
 62
256
370
-1
 48
1.0
  6
BYLAYER
 10
123.4050000000000011
 20
34.1621000000000024
 30
0.0
 11
123.1470000000000056
 21
34.2079999999999984
 31
0.0
  0
LINE
  5
AB
100
AcDbEntity
100
AcDbLine
  8
int
 62
256
370
-1
 48
1.0
  6
BYLAYER
 10
123.1470000000000056
 20
34.2079999999999984
 30
0.0
 11
122.9009999999999962
 21
34.2978999999999985
 31
0.0
  0
LINE
  5
AC
100
AcDbEntity
100
AcDbLine
  8
int
 62
256
370
-1
 48
1.0
  6
BYLAYER
 10
122.9009999999999962
 20
34.2978999999999985
 30
0.0
 11
122.6749999999999972
 21
34.4277000000000015
 31
0.0
  0
LINE
  5
AD
100
AcDbEntity
100
AcDbLine
  8
int
 62
256
370
-1
 48
1.0
  6
BYLAYER
 10
122.6749999999999972
 20
34.4277000000000015
 30
0.0
 11
122.4749999999999943
 21
34.5966999999999985
 31
0.0
  0
LINE
  5
AE
100
AcDbEntity
100
AcDbLine
  8
int
 62
256
370
-1
 48
1.0
  6
BYLAYER
 10
122.4749999999999943
 20
34.5966999999999985
 30
0.0
 11
106.3760000000000048
 21
50.6953000000000031
 31
0.0
  0
LINE
  5
AF
100
AcDbEntity
100
AcDbLine
  8
int
 62
256
370
-1
 48
1.0
  6
BYLAYER
 10
106.3760000000000048
 20
50.6953000000000031
 30
0.0
 11
106.2090000000000032
 21
50.8935999999999993
 31
0.0
  0
LINE
  5
B0
100
AcDbEntity
100
AcDbLine
  8
int
 62
256
370
-1
 48
1.0
  6
BYLAYER
 10
106.2090000000000032
 20
50.8935999999999993
 30
0.0
 11
106.0789999999999935
 21
51.1182000000000016
 31
0.0
  0
LINE
  5
B1
100
AcDbEntity
100
AcDbLine
  8
int
 62
256
370
-1
 48
1.0
  6
BYLAYER
 10
106.0789999999999935
 20
51.1182000000000016
 30
0.0
 11
105.9890000000000043
 21
51.3622999999999976
 31
0.0
  0
LINE
  5
B2
100
AcDbEntity
100
AcDbLine
  8
int
 62
256
370
-1
 48
1.0
  6
BYLAYER
 10
105.9890000000000043
 20
51.3622999999999976
 30
0.0
 11
105.9429999999999978
 21
51.6182000000000016
 31
0.0
  0
LINE
  5
B3
100
AcDbEntity
100
AcDbLine
  8
int
 62
256
370
-1
 48
1.0
  6
BYLAYER
 10
105.9429999999999978
 20
51.6182000000000016
 30
0.0
 11
105.9410000000000025
 21
51.8778999999999968
 31
0.0
  0
LINE
  5
B4
100
AcDbEntity
100
AcDbLine
  8
int
 62
256
370
-1
 48
1.0
  6
BYLAYER
 10
105.9410000000000025
 20
51.8778999999999968
 30
0.0
 11
105.9849999999999994
 21
52.1338000000000008
 31
0.0
  0
LINE
  5
B5
100
AcDbEntity
100
AcDbLine
  8
int
 62
256
370
-1
 48
1.0
  6
BYLAYER
 10
105.9849999999999994
 20
52.1338000000000008
 30
0.0
 11
106.0720000000000027
 21
52.3778999999999968
 31
0.0
  0
LINE
  5
B6
100
AcDbEntity
100
AcDbLine
  8
int
 62
256
370
-1
 48
1.0
  6
BYLAYER
 10
106.0720000000000027
 20
52.3778999999999968
 30
0.0
 11
106.2000000000000028
 21
52.6045000000000016
 31
0.0
  0
LINE
  5
B7
100
AcDbEntity
100
AcDbLine
  8
int
 62
256
370
-1
 48
1.0
  6
BYLAYER
 10
106.2000000000000028
 20
52.6045000000000016
 30
0.0
 11
106.3649999999999949
 21
52.8046999999999969
 31
0.0
  0
LINE
  5
B8
100
AcDbEntity
100
AcDbLine
  8
int
 62
256
370
-1
 48
1.0
  6
BYLAYER
 10
106.3649999999999949
 20
52.8046999999999969
 30
0.0
 11
106.5619999999999976
 21
52.9746000000000024
 31
0.0
  0
LINE
  5
B9
100
AcDbEntity
100
AcDbLine
  8
int
 62
256
370
-1
 48
1.0
  6
BYLAYER
 10
106.5619999999999976
 20
52.9746000000000024
 30
0.0
 11
106.7849999999999966
 21
53.1064000000000007
 31
0.0
  0
LINE
  5
BA
100
AcDbEntity
100
AcDbLine
  8
int
 62
256
370
-1
 48
1.0
  6
BYLAYER
 10
106.7849999999999966
 20
53.1064000000000007
 30
0.0
 11
107.0280000000000058
 21
53.1991999999999976
 31
0.0
  0
LINE
  5
BB
100
AcDbEntity
100
AcDbLine
  8
int
 62
256
370
-1
 48
1.0
  6
BYLAYER
 10
107.0280000000000058
 20
53.1991999999999976
 30
0.0
 11
107.2830000000000013
 21
53.2479999999999976
 31
0.0
  0
LINE
  5
BC
100
AcDbEntity
100
AcDbLine
  8
int
 62
256
370
-1
 48
1.0
  6
BYLAYER
 10
107.2830000000000013
 20
53.2479999999999976
 30
0.0
 11
142.1630000000000109
 21
55.8524999999999991
 31
0.0
  0
LINE
  5
BD
100
AcDbEntity
100
AcDbLine
  8
int
 62
256
370
-1
 48
1.0
  6
BYLAYER
 10
142.1630000000000109
 20
55.8524999999999991
 30
0.0
 11
142.4199999999999875
 21
55.8417999999999992
 31
0.0
  0
LINE
  5
BE
100
AcDbEntity
100
AcDbLine
  8
int
 62
256
370
-1
 48
1.0
  6
BYLAYER
 10
142.4199999999999875
 20
55.8417999999999992
 30
0.0
 11
142.6709999999999923
 21
55.7881
 31
0.0
  0
LINE
  5
BF
100
AcDbEntity
100
AcDbLine
  8
int
 62
256
370
-1
 48
1.0
  6
BYLAYER
 10
142.6709999999999923
 20
55.7881
 30
0.0
 11
142.9089999999999918
 21
55.6923999999999992
 31
0.0
  0
LINE
  5
C0
100
AcDbEntity
100
AcDbLine
  8
int
 62
256
370
-1
 48
1.0
  6
BYLAYER
 10
142.9089999999999918
 20
55.6923999999999992
 30
0.0
 11
143.1279999999999859
 21
55.5566000000000031
 31
0.0
  0
LINE
  5
C1
100
AcDbEntity
100
AcDbLine
  8
int
 62
256
370
-1
 48
1.0
  6
BYLAYER
 10
143.1279999999999859
 20
55.5566000000000031
 30
0.0
 11
143.3199999999999932
 21
55.3866999999999976
 31
0.0
  0
LINE
  5
C2
100
AcDbEntity
100
AcDbLine
  8
int
 62
256
370
-1
 48
1.0
  6
BYLAYER
 10
143.3199999999999932
 20
55.3866999999999976
 30
0.0
 11
143.4799999999999898
 21
55.1854999999999976
 31
0.0
  0
LINE
  5
C3
100
AcDbEntity
100
AcDbLine
  8
int
 62
256
370
-1
 48
1.0
  6
BYLAYER
 10
143.4799999999999898
 20
55.1854999999999976
 30
0.0
 11
143.6040000000000134
 21
54.9600000000000009
 31
0.0
  0
LINE
  5
C4
100
AcDbEntity
100
AcDbLine
  8
int
 62
256
370
-1
 48
1.0
  6
BYLAYER
 10
143.6040000000000134
 20
54.9600000000000009
 30
0.0
 11
143.6879999999999882
 21
54.7167999999999992
 31
0.0
  0
LINE
  5
C5
100
AcDbEntity
100
AcDbLine
  8
int
 62
256
370
-1
 48
1.0
  6
BYLAYER
 10
143.6879999999999882
 20
54.7167999999999992
 30
0.0
 11
143.7290000000000134
 21
54.4628999999999976
 31
0.0
  0
LINE
  5
C6
100
AcDbEntity
100
AcDbLine
  8
int
 62
256
370
-1
 48
1.0
  6
BYLAYER
 10
143.7290000000000134
 20
54.4628999999999976
 30
0.0
 11
143.7249999999999943
 21
54.2060999999999993
 31
0.0
  0
LINE
  5
C7
100
AcDbEntity
100
AcDbLine
  8
int
 62
256
370
-1
 48
1.0
  6
BYLAYER
 10
143.7249999999999943
 20
54.2060999999999993
 30
0.0
 11
143.6779999999999973
 21
53.9530999999999992
 31
0.0
  0
LINE
  5
C8
100
AcDbEntity
100
AcDbLine
  8
int
 62
256
370
-1
 48
1.0
  6
BYLAYER
 10
143.6779999999999973
 20
53.9530999999999992
 30
0.0
 11
143.5879999999999939
 21
53.7119
 31
0.0
  0
LINE
  5
C9
100
AcDbEntity
100
AcDbLine
  8
int
 62
256
370
-1
 48
1.0
  6
BYLAYER
 10
143.5879999999999939
 20
53.7119
 30
0.0
 11
143.4590000000000032
 21
53.4902000000000015
 31
0.0
  0
LINE
  5
CA
100
AcDbEntity
100
AcDbLine
  8
int
 62
256
370
-1
 48
1.0
  6
BYLAYER
 10
143.4590000000000032
 20
53.4902000000000015
 30
0.0
 11
143.2930000000000064
 21
53.2929999999999993
 31
0.0
  0
LINE
  5
CB
100
AcDbEntity
100
AcDbLine
  8
int
 62
256
370
-1
 48
1.0
  6
BYLAYER
 10
143.2930000000000064
 20
53.2929999999999993
 30
0.0
 11
124.5969999999999942
 21
34.5966999999999985
 31
0.0
  0
LINE
  5
CC
100
AcDbEntity
100
AcDbLine
  8
int
 62
256
370
-1
 48
1.0
  6
BYLAYER
 10
124.5969999999999942
 20
34.5966999999999985
 30
0.0
 11
124.3960000000000008
 21
34.4277000000000015
 31
0.0
  0
LINE
  5
CD
100
AcDbEntity
100
AcDbLine
  8
int
 62
256
370
-1
 48
1.0
  6
BYLAYER
 10
124.3960000000000008
 20
34.4277000000000015
 30
0.0
 11
124.1700000000000017
 21
34.2978999999999985
 31
0.0
  0
LINE
  5
CE
100
AcDbEntity
100
AcDbLine
  8
int
 62
256
370
-1
 48
1.0
  6
BYLAYER
 10
124.1700000000000017
 20
34.2978999999999985
 30
0.0
 11
123.9240000000000066
 21
34.2079999999999984
 31
0.0
  0
LINE
  5
CF
100
AcDbEntity
100
AcDbLine
  8
int
 62
256
370
-1
 48
1.0
  6
BYLAYER
 10
123.9240000000000066
 20
34.2079999999999984
 30
0.0
 11
123.6659999999999968
 21
34.1621000000000024
 31
0.0
  0
LINE
  5
D0
100
AcDbEntity
100
AcDbLine
  8
int
 62
256
370
-1
 48
1.0
  6
BYLAYER
 10
123.6659999999999968
 20
34.1621000000000024
 30
0.0
 11
123.4050000000000011
 21
34.1621000000000024
 31
0.0
  0
LINE
  5
D1
100
AcDbEntity
100
AcDbLine
  8
int
 62
256
370
-1
 48
1.0
  6
BYLAYER
 10
135.7589999999999861
 20
35.3262
 30
0.0
 11
135.51400000000001
 21
35.3877000000000024
 31
0.0
  0
LINE
  5
D2
100
AcDbEntity
100
AcDbLine
  8
int
 62
256
370
-1
 48
1.0
  6
BYLAYER
 10
135.51400000000001
 20
35.3877000000000024
 30
0.0
 11
135.2820000000000107
 21
35.4893000000000001
 31
0.0
  0
LINE
  5
D3
100
AcDbEntity
100
AcDbLine
  8
int
 62
256
370
-1
 48
1.0
  6
BYLAYER
 10
135.2820000000000107
 20
35.4893000000000001
 30
0.0
 11
135.0699999999999932
 21
35.6278999999999968
 31
0.0
  0
LINE
  5
D4
100
AcDbEntity
100
AcDbLine
  8
int
 62
256
370
-1
 48
1.0
  6
BYLAYER
 10
135.0699999999999932
 20
35.6278999999999968
 30
0.0
 11
134.8859999999999957
 21
35.8008000000000024
 31
0.0
  0
LINE
  5
D5
100
AcDbEntity
100
AcDbLine
  8
int
 62
256
370
-1
 48
1.0
  6
BYLAYER
 10
134.8859999999999957
 20
35.8008000000000024
 30
0.0
 11
134.7319999999999993
 21
36.0028999999999968
 31
0.0
  0
LINE
  5
D6
100
AcDbEntity
100
AcDbLine
  8
int
 62
256
370
-1
 48
1.0
  6
BYLAYER
 10
134.7319999999999993
 20
36.0028999999999968
 30
0.0
 11
134.6150000000000091
 21
36.2265999999999977
 31
0.0
  0
LINE
  5
D7
100
AcDbEntity
100
AcDbLine
  8
int
 62
256
370
-1
 48
1.0
  6
BYLAYER
 10
134.6150000000000091
 20
36.2265999999999977
 30
0.0
 11
134.5380000000000109
 21
36.4677999999999969
 31
0.0
  0
LINE
  5
D8
100
AcDbEntity
100
AcDbLine
  8
int
 62
256
370
-1
 48
1.0
  6
BYLAYER
 10
134.5380000000000109
 20
36.4677999999999969
 30
0.0
 11
134.5020000000000095
 21
36.7177999999999969
 31
0.0
  0
LINE
  5
D9
100
AcDbEntity
100
AcDbLine
  8
int
 62
256
370
-1
 48
1.0
  6
BYLAYER
 10
134.5020000000000095
 20
36.7177999999999969
 30
0.0
 11
134.5080000000000098
 21
36.9707000000000008
 31
0.0
  0
LINE
  5
DA
100
AcDbEntity
100
AcDbLine
  8
int
 62
256
370
-1
 48
1.0
  6
BYLAYER
 10
134.5080000000000098
 20
36.9707000000000008
 30
0.0
 11
134.5569999999999879
 21
37.2197000000000031
 31
0.0
  0
LINE
  5
DB
100
AcDbEntity
100
AcDbLine
  8
int
 62
256
370
-1
 48
1.0
  6
BYLAYER
 10
134.5569999999999879
 20
37.2197000000000031
 30
0.0
 11
134.6459999999999866
 21
37.4560999999999993
 31
0.0
  0
LINE
  5
DC
100
AcDbEntity
100
AcDbLine
  8
int
 62
256
370
-1
 48
1.0
  6
BYLAYER
 10
134.6459999999999866
 20
37.4560999999999993
 30
0.0
 11
134.7750000000000057
 21
37.6738
 31
0.0
  0
LINE
  5
DD
100
AcDbEntity
100
AcDbLine
  8
int
 62
256
370
-1
 48
1.0
  6
BYLAYER
 10
134.7750000000000057
 20
37.6738
 30
0.0
 11
134.9379999999999882
 21
37.8671999999999969
 31
0.0
  0
LINE
  5
DE
100
AcDbEntity
100
AcDbLine
  8
int
 62
256
370
-1
 48
1.0
  6
BYLAYER
 10
134.9379999999999882
 20
37.8671999999999969
 30
0.0
 11
152.4749999999999943
 21
55.4033000000000015
 31
0.0
  0
LINE
  5
DF
100
AcDbEntity
100
AcDbLine
  8
int
 62
256
370
-1
 48
1.0
  6
BYLAYER
 10
152.4749999999999943
 20
55.4033000000000015
 30
0.0
 11
152.6539999999999964
 21
55.5566000000000031
 31
0.0
  0
LINE
  5
E0
100
AcDbEntity
100
AcDbLine
  8
int
 62
256
370
-1
 48
1.0
  6
BYLAYER
 10
152.6539999999999964
 20
55.5566000000000031
 30
0.0
 11
152.8540000000000134
 21
55.6796999999999969
 31
0.0
  0
LINE
  5
E1
100
AcDbEntity
100
AcDbLine
  8
int
 62
256
370
-1
 48
1.0
  6
BYLAYER
 10
152.8540000000000134
 20
55.6796999999999969
 30
0.0
 11
153.0720000000000027
 21
55.7695000000000007
 31
0.0
  0
LINE
  5
E2
100
AcDbEntity
100
AcDbLine
  8
int
 62
256
370
-1
 48
1.0
  6
BYLAYER
 10
153.0720000000000027
 20
55.7695000000000007
 30
0.0
 11
153.3009999999999877
 21
55.8241999999999976
 31
0.0
  0
LINE
  5
E3
100
AcDbEntity
100
AcDbLine
  8
int
 62
256
370
-1
 48
1.0
  6
BYLAYER
 10
153.3009999999999877
 20
55.8241999999999976
 30
0.0
 11
153.5349999999999966
 21
55.8427999999999969
 31
0.0
  0
LINE
  5
E4
100
AcDbEntity
100
AcDbLine
  8
int
 62
256
370
-1
 48
1.0
  6
BYLAYER
 10
153.5349999999999966
 20
55.8427999999999969
 30
0.0
 11
153.7709999999999866
 21
55.8241999999999976
 31
0.0
  0
LINE
  5
E5
100
AcDbEntity
100
AcDbLine
  8
int
 62
256
370
-1
 48
1.0
  6
BYLAYER
 10
153.7709999999999866
 20
55.8241999999999976
 30
0.0
 11
153.9989999999999952
 21
55.7695000000000007
 31
0.0
  0
LINE
  5
E6
100
AcDbEntity
100
AcDbLine
  8
int
 62
256
370
-1
 48
1.0
  6
BYLAYER
 10
153.9989999999999952
 20
55.7695000000000007
 30
0.0
 11
154.217000000000013
 21
55.6796999999999969
 31
0.0
  0
LINE
  5
E7
100
AcDbEntity
100
AcDbLine
  8
int
 62
256
370
-1
 48
1.0
  6
BYLAYER
 10
154.217000000000013
 20
55.6796999999999969
 30
0.0
 11
154.4170000000000016
 21
55.5566000000000031
 31
0.0
  0
LINE
  5
E8
100
AcDbEntity
100
AcDbLine
  8
int
 62
256
370
-1
 48
1.0
  6
BYLAYER
 10
154.4170000000000016
 20
55.5566000000000031
 30
0.0
 11
154.5970000000000084
 21
55.4033000000000015
 31
0.0
  0
LINE
  5
E9
100
AcDbEntity
100
AcDbLine
  8
int
 62
256
370
-1
 48
1.0
  6
BYLAYER
 10
154.5970000000000084
 20
55.4033000000000015
 30
0.0
 11
167.6330000000000098
 21
42.3671999999999969
 31
0.0
  0
LINE
  5
EA
100
AcDbEntity
100
AcDbLine
  8
int
 62
256
370
-1
 48
1.0
  6
BYLAYER
 10
167.6330000000000098
 20
42.3671999999999969
 30
0.0
 11
167.7990000000000066
 21
42.1698999999999984
 31
0.0
  0
LINE
  5
EB
100
AcDbEntity
100
AcDbLine
  8
int
 62
256
370
-1
 48
1.0
  6
BYLAYER
 10
167.7990000000000066
 20
42.1698999999999984
 30
0.0
 11
167.929000000000002
 21
41.9463000000000008
 31
0.0
  0
LINE
  5
EC
100
AcDbEntity
100
AcDbLine
  8
int
 62
256
370
-1
 48
1.0
  6
BYLAYER
 10
167.929000000000002
 20
41.9463000000000008
 30
0.0
 11
168.0190000000000055
 21
41.7040999999999968
 31
0.0
  0
LINE
  5
ED
100
AcDbEntity
100
AcDbLine
  8
int
 62
256
370
-1
 48
1.0
  6
BYLAYER
 10
168.0190000000000055
 20
41.7040999999999968
 30
0.0
 11
168.0649999999999977
 21
41.4502000000000024
 31
0.0
  0
LINE
  5
EE
100
AcDbEntity
100
AcDbLine
  8
int
 62
256
370
-1
 48
1.0
  6
BYLAYER
 10
168.0649999999999977
 20
41.4502000000000024
 30
0.0
 11
168.0670000000000073
 21
41.1923999999999992
 31
0.0
  0
LINE
  5
EF
100
AcDbEntity
100
AcDbLine
  8
int
 62
256
370
-1
 48
1.0
  6
BYLAYER
 10
168.0670000000000073
 20
41.1923999999999992
 30
0.0
 11
168.0250000000000057
 21
40.9375
 31
0.0
  0
LINE
  5
F0
100
AcDbEntity
100
AcDbLine
  8
int
 62
256
370
-1
 48
1.0
  6
BYLAYER
 10
168.0250000000000057
 20
40.9375
 30
0.0
 11
167.9399999999999977
 21
40.6933999999999969
 31
0.0
  0
LINE
  5
F1
100
AcDbEntity
100
AcDbLine
  8
int
 62
256
370
-1
 48
1.0
  6
BYLAYER
 10
167.9399999999999977
 20
40.6933999999999969
 30
0.0
 11
167.8149999999999977
 21
40.4677999999999969
 31
0.0
  0
LINE
  5
F2
100
AcDbEntity
100
AcDbLine
  8
int
 62
256
370
-1
 48
1.0
  6
BYLAYER
 10
167.8149999999999977
 20
40.4677999999999969
 30
0.0
 11
167.6529999999999916
 21
40.2665999999999968
 31
0.0
  0
LINE
  5
F3
100
AcDbEntity
100
AcDbLine
  8
int
 62
256
370
-1
 48
1.0
  6
BYLAYER
 10
167.6529999999999916
 20
40.2665999999999968
 30
0.0
 11
167.4590000000000032
 21
40.0966999999999985
 31
0.0
  0
LINE
  5
F4
100
AcDbEntity
100
AcDbLine
  8
int
 62
256
370
-1
 48
1.0
  6
BYLAYER
 10
167.4590000000000032
 20
40.0966999999999985
 30
0.0
 11
167.2379999999999995
 21
39.9628999999999976
 31
0.0
  0
LINE
  5
F5
100
AcDbEntity
100
AcDbLine
  8
int
 62
256
370
-1
 48
1.0
  6
BYLAYER
 10
167.2379999999999995
 20
39.9628999999999976
 30
0.0
 11
166.9970000000000141
 21
39.8682000000000016
 31
0.0
  0
LINE
  5
F6
100
AcDbEntity
100
AcDbLine
  8
int
 62
256
370
-1
 48
1.0
  6
BYLAYER
 10
166.9970000000000141
 20
39.8682000000000016
 30
0.0
 11
166.7439999999999998
 21
39.8164000000000016
 31
0.0
  0
LINE
  5
F7
100
AcDbEntity
100
AcDbLine
  8
int
 62
256
370
-1
 48
1.0
  6
BYLAYER
 10
166.7439999999999998
 20
39.8164000000000016
 30
0.0
 11
136.2630000000000052
 21
35.3301000000000016
 31
0.0
  0
LINE
  5
F8
100
AcDbEntity
100
AcDbLine
  8
int
 62
256
370
-1
 48
1.0
  6
BYLAYER
 10
136.2630000000000052
 20
35.3301000000000016
 30
0.0
 11
136.0120000000000005
 21
35.3066000000000031
 31
0.0
  0
LINE
  5
F9
100
AcDbEntity
100
AcDbLine
  8
int
 62
256
370
-1
 48
1.0
  6
BYLAYER
 10
136.0120000000000005
 20
35.3066000000000031
 30
0.0
 11
135.7589999999999861
 21
35.3262
 31
0.0
  0
LINE
  5
FA
100
AcDbEntity
100
AcDbLine
  8
int
 62
256
370
-1
 48
1.0
  6
BYLAYER
 10
181.9250000000000114
 20
41.3721000000000032
 30
0.0
 11
181.6680000000000064
 21
41.4179999999999993
 31
0.0
  0
LINE
  5
FB
100
AcDbEntity
100
AcDbLine
  8
int
 62
256
370
-1
 48
1.0
  6
BYLAYER
 10
181.6680000000000064
 20
41.4179999999999993
 30
0.0
 11
181.4230000000000018
 21
41.5078000000000031
 31
0.0
  0
LINE
  5
FC
100
AcDbEntity
100
AcDbLine
  8
int
 62
256
370
-1
 48
1.0
  6
BYLAYER
 10
181.4230000000000018
 20
41.5078000000000031
 30
0.0
 11
181.195999999999998
 21
41.6387
 31
0.0
  0
LINE
  5
FD
100
AcDbEntity
100
AcDbLine
  8
int
 62
256
370
-1
 48
1.0
  6
BYLAYER
 10
181.195999999999998
 20
41.6387
 30
0.0
 11
180.9960000000000093
 21
41.8066000000000031
 31
0.0
  0
LINE
  5
FE
100
AcDbEntity
100
AcDbLine
  8
int
 62
256
370
-1
 48
1.0
  6
BYLAYER
 10
180.9960000000000093
 20
41.8066000000000031
 30
0.0
 11
180.8290000000000077
 21
42.0067999999999984
 31
0.0
  0
LINE
  5
FF
100
AcDbEntity
100
AcDbLine
  8
int
 62
256
370
-1
 48
1.0
  6
BYLAYER
 10
180.8290000000000077
 20
42.0067999999999984
 30
0.0
 11
180.6980000000000075
 21
42.2334000000000032
 31
0.0
  0
LINE
  5
100
100
AcDbEntity
100
AcDbLine
  8
int
 62
256
370
-1
 48
1.0
  6
BYLAYER
 10
180.6980000000000075
 20
42.2334000000000032
 30
0.0
 11
180.6090000000000089
 21
42.4784999999999968
 31
0.0
  0
LINE
  5
101
100
AcDbEntity
100
AcDbLine
  8
int
 62
256
370
-1
 48
1.0
  6
BYLAYER
 10
180.6090000000000089
 20
42.4784999999999968
 30
0.0
 11
180.563999999999993
 21
42.7363
 31
0.0
  0
LINE
  5
102
100
AcDbEntity
100
AcDbLine
  8
int
 62
256
370
-1
 48
1.0
  6
BYLAYER
 10
180.563999999999993
 20
42.7363
 30
0.0
 11
180.563999999999993
 21
42.9971000000000032
 31
0.0
  0
LINE
  5
103
100
AcDbEntity
100
AcDbLine
  8
int
 62
256
370
-1
 48
1.0
  6
BYLAYER
 10
180.563999999999993
 20
42.9971000000000032
 30
0.0
 11
180.6090000000000089
 21
43.2548999999999992
 31
0.0
  0
LINE
  5
104
100
AcDbEntity
100
AcDbLine
  8
int
 62
256
370
-1
 48
1.0
  6
BYLAYER
 10
180.6090000000000089
 20
43.2548999999999992
 30
0.0
 11
180.6990000000000123
 21
43.5
 31
0.0
  0
LINE
  5
105
100
AcDbEntity
100
AcDbLine
  8
int
 62
256
370
-1
 48
1.0
  6
BYLAYER
 10
180.6990000000000123
 20
43.5
 30
0.0
 11
180.8300000000000125
 21
43.7265999999999977
 31
0.0
  0
LINE
  5
106
100
AcDbEntity
100
AcDbLine
  8
int
 62
256
370
-1
 48
1.0
  6
BYLAYER
 10
180.8300000000000125
 20
43.7265999999999977
 30
0.0
 11
180.9979999999999905
 21
43.9268000000000001
 31
0.0
  0
LINE
  5
107
100
AcDbEntity
100
AcDbLine
  8
int
 62
256
370
-1
 48
1.0
  6
BYLAYER
 10
180.9979999999999905
 20
43.9268000000000001
 30
0.0
 11
192.4749999999999943
 21
55.4033000000000015
 31
0.0
  0
LINE
  5
108
100
AcDbEntity
100
AcDbLine
  8
int
 62
256
370
-1
 48
1.0
  6
BYLAYER
 10
192.4749999999999943
 20
55.4033000000000015
 30
0.0
 11
192.6750000000000114
 21
55.5722999999999985
 31
0.0
  0
LINE
  5
109
100
AcDbEntity
100
AcDbLine
  8
int
 62
256
370
-1
 48
1.0
  6
BYLAYER
 10
192.6750000000000114
 20
55.5722999999999985
 30
0.0
 11
192.9010000000000105
 21
55.7021000000000015
 31
0.0
  0
LINE
  5
10A
100
AcDbEntity
100
AcDbLine
  8
int
 62
256
370
-1
 48
1.0
  6
BYLAYER
 10
192.9010000000000105
 20
55.7021000000000015
 30
0.0
 11
193.1469999999999914
 21
55.7920000000000016
 31
0.0
  0
LINE
  5
10B
100
AcDbEntity
100
AcDbLine
  8
int
 62
256
370
-1
 48
1.0
  6
BYLAYER
 10
193.1469999999999914
 20
55.7920000000000016
 30
0.0
 11
193.4050000000000011
 21
55.8378999999999976
 31
0.0
  0
LINE
  5
10C
100
AcDbEntity
100
AcDbLine
  8
int
 62
256
370
-1
 48
1.0
  6
BYLAYER
 10
193.4050000000000011
 20
55.8378999999999976
 30
0.0
 11
193.6659999999999968
 21
55.8378999999999976
 31
0.0
  0
LINE
  5
10D
100
AcDbEntity
100
AcDbLine
  8
int
 62
256
370
-1
 48
1.0
  6
BYLAYER
 10
193.6659999999999968
 20
55.8378999999999976
 30
0.0
 11
193.9240000000000066
 21
55.7920000000000016
 31
0.0
  0
LINE
  5
10E
100
AcDbEntity
100
AcDbLine
  8
int
 62
256
370
-1
 48
1.0
  6
BYLAYER
 10
193.9240000000000066
 20
55.7920000000000016
 30
0.0
 11
194.1699999999999875
 21
55.7021000000000015
 31
0.0
  0
LINE
  5
10F
100
AcDbEntity
100
AcDbLine
  8
int
 62
256
370
-1
 48
1.0
  6
BYLAYER
 10
194.1699999999999875
 20
55.7021000000000015
 30
0.0
 11
194.3959999999999866
 21
55.5722999999999985
 31
0.0
  0
LINE
  5
110
100
AcDbEntity
100
AcDbLine
  8
int
 62
256
370
-1
 48
1.0
  6
BYLAYER
 10
194.3959999999999866
 20
55.5722999999999985
 30
0.0
 11
194.5970000000000084
 21
55.4033000000000015
 31
0.0
  0
LINE
  5
111
100
AcDbEntity
100
AcDbLine
  8
int
 62
256
370
-1
 48
1.0
  6
BYLAYER
 10
194.5970000000000084
 20
55.4033000000000015
 30
0.0
 11
204.6999999999999886
 21
45.2997999999999976
 31
0.0
  0
LINE
  5
112
100
AcDbEntity
100
AcDbLine
  8
int
 62
256
370
-1
 48
1.0
  6
BYLAYER
 10
204.6999999999999886
 20
45.2997999999999976
 30
0.0
 11
204.8600000000000136
 21
45.1103999999999985
 31
0.0
  0
LINE
  5
113
100
AcDbEntity
100
AcDbLine
  8
int
 62
256
370
-1
 48
1.0
  6
BYLAYER
 10
204.8600000000000136
 20
45.1103999999999985
 30
0.0
 11
204.9869999999999948
 21
44.8975000000000009
 31
0.0
  0
LINE
  5
114
100
AcDbEntity
100
AcDbLine
  8
int
 62
256
370
-1
 48
1.0
  6
BYLAYER
 10
204.9869999999999948
 20
44.8975000000000009
 30
0.0
 11
205.0769999999999982
 21
44.6670000000000016
 31
0.0
  0
LINE
  5
115
100
AcDbEntity
100
AcDbLine
  8
int
 62
256
370
-1
 48
1.0
  6
BYLAYER
 10
205.0769999999999982
 20
44.6670000000000016
 30
0.0
 11
205.1279999999999859
 21
44.4247999999999976
 31
0.0
  0
LINE
  5
116
100
AcDbEntity
100
AcDbLine
  8
int
 62
256
370
-1
 48
1.0
  6
BYLAYER
 10
205.1279999999999859
 20
44.4247999999999976
 30
0.0
 11
205.13900000000001
 21
44.1768000000000001
 31
0.0
  0
LINE
  5
117
100
AcDbEntity
100
AcDbLine
  8
int
 62
256
370
-1
 48
1.0
  6
BYLAYER
 10
205.13900000000001
 20
44.1768000000000001
 30
0.0
 11
205.1069999999999993
 21
43.9316000000000031
 31
0.0
  0
LINE
  5
118
100
AcDbEntity
100
AcDbLine
  8
int
 62
256
370
-1
 48
1.0
  6
BYLAYER
 10
205.1069999999999993
 20
43.9316000000000031
 30
0.0
 11
205.0370000000000061
 21
43.6942999999999984
 31
0.0
  0
LINE
  5
119
100
AcDbEntity
100
AcDbLine
  8
int
 62
256
370
-1
 48
1.0
  6
BYLAYER
 10
205.0370000000000061
 20
43.6942999999999984
 30
0.0
 11
204.929000000000002
 21
43.4716999999999985
 31
0.0
  0
LINE
  5
11A
100
AcDbEntity
100
AcDbLine
  8
int
 62
256
370
-1
 48
1.0
  6
BYLAYER
 10
204.929000000000002
 20
43.4716999999999985
 30
0.0
 11
204.7839999999999918
 21
43.2695000000000007
 31
0.0
  0
LINE
  5
11B
100
AcDbEntity
100
AcDbLine
  8
int
 62
256
370
-1
 48
1.0
  6
BYLAYER
 10
204.7839999999999918
 20
43.2695000000000007
 30
0.0
 11
204.6090000000000089
 21
43.0947000000000031
 31
0.0
  0
LINE
  5
11C
100
AcDbEntity
100
AcDbLine
  8
int
 62
256
370
-1
 48
1.0
  6
BYLAYER
 10
204.6090000000000089
 20
43.0947000000000031
 30
0.0
 11
204.407999999999987
 21
42.9502000000000024
 31
0.0
  0
LINE
  5
11D
100
AcDbEntity
100
AcDbLine
  8
int
 62
256
370
-1
 48
1.0
  6
BYLAYER
 10
204.407999999999987
 20
42.9502000000000024
 30
0.0
 11
204.186000000000007
 21
42.8417999999999992
 31
0.0
  0
LINE
  5
11E
100
AcDbEntity
100
AcDbLine
  8
int
 62
256
370
-1
 48
1.0
  6
BYLAYER
 10
204.186000000000007
 20
42.8417999999999992
 30
0.0
 11
203.9480000000000075
 21
42.7715000000000032
 31
0.0
  0
LINE
  5
11F
100
AcDbEntity
100
AcDbLine
  8
int
 62
256
370
-1
 48
1.0
  6
BYLAYER
 10
203.9480000000000075
 20
42.7715000000000032
 30
0.0
 11
203.7019999999999982
 21
42.7402000000000015
 31
0.0
  0
LINE
  5
120
100
AcDbEntity
100
AcDbLine
  8
int
 62
256
370
-1
 48
1.0
  6
BYLAYER
 10
203.7019999999999982
 20
42.7402000000000015
 30
0.0
 11
182.1870000000000118
 21
41.3710999999999984
 31
0.0
  0
LINE
  5
121
100
AcDbEntity
100
AcDbLine
  8
int
 62
256
370
-1
 48
1.0
  6
BYLAYER
 10
182.1870000000000118
 20
41.3710999999999984
 30
0.0
 11
181.9250000000000114
 21
41.3721000000000032
 31
0.0
  0
LINE
  5
122
100
AcDbEntity
100
AcDbLine
  8
int
 62
256
370
-1
 48
1.0
  6
BYLAYER
 10
213.4050000000000011
 20
44.1621000000000024
 30
0.0
 11
213.1469999999999914
 21
44.2079999999999984
 31
0.0
  0
LINE
  5
123
100
AcDbEntity
100
AcDbLine
  8
int
 62
256
370
-1
 48
1.0
  6
BYLAYER
 10
213.1469999999999914
 20
44.2079999999999984
 30
0.0
 11
212.9010000000000105
 21
44.2978999999999985
 31
0.0
  0
LINE
  5
124
100
AcDbEntity
100
AcDbLine
  8
int
 62
256
370
-1
 48
1.0
  6
BYLAYER
 10
212.9010000000000105
 20
44.2978999999999985
 30
0.0
 11
212.6750000000000114
 21
44.4277000000000015
 31
0.0
  0
LINE
  5
125
100
AcDbEntity
100
AcDbLine
  8
int
 62
256
370
-1
 48
1.0
  6
BYLAYER
 10
212.6750000000000114
 20
44.4277000000000015
 30
0.0
 11
212.4749999999999943
 21
44.5966999999999985
 31
0.0
  0
LINE
  5
126
100
AcDbEntity
100
AcDbLine
  8
int
 62
256
370
-1
 48
1.0
  6
BYLAYER
 10
212.4749999999999943
 20
44.5966999999999985
 30
0.0
 11
204.1879999999999882
 21
52.8828000000000031
 31
0.0
  0
LINE
  5
127
100
AcDbEntity
100
AcDbLine
  8
int
 62
256
370
-1
 48
1.0
  6
BYLAYER
 10
204.1879999999999882
 20
52.8828000000000031
 30
0.0
 11
204.0219999999999914
 21
53.0801000000000016
 31
0.0
  0
LINE
  5
128
100
AcDbEntity
100
AcDbLine
  8
int
 62
256
370
-1
 48
1.0
  6
BYLAYER
 10
204.0219999999999914
 20
53.0801000000000016
 30
0.0
 11
203.8930000000000007
 21
53.3036999999999992
 31
0.0
  0
LINE
  5
129
100
AcDbEntity
100
AcDbLine
  8
int
 62
256
370
-1
 48
1.0
  6
BYLAYER
 10
203.8930000000000007
 20
53.3036999999999992
 30
0.0
 11
203.8029999999999973
 21
53.5459000000000032
 31
0.0
  0
LINE
  5
12A
100
AcDbEntity
100
AcDbLine
  8
int
 62
256
370
-1
 48
1.0
  6
BYLAYER
 10
203.8029999999999973
 20
53.5459000000000032
 30
0.0
 11
203.7560000000000002
 21
53.8008000000000024
 31
0.0
  0
LINE
  5
12B
100
AcDbEntity
100
AcDbLine
  8
int
 62
256
370
-1
 48
1.0
  6
BYLAYER
 10
203.7560000000000002
 20
53.8008000000000024
 30
0.0
 11
203.7539999999999907
 21
54.0585999999999984
 31
0.0
  0
LINE
  5
12C
100
AcDbEntity
100
AcDbLine
  8
int
 62
256
370
-1
 48
1.0
  6
BYLAYER
 10
203.7539999999999907
 20
54.0585999999999984
 30
0.0
 11
203.7959999999999923
 21
54.3134999999999977
 31
0.0
  0
LINE
  5
12D
100
AcDbEntity
100
AcDbLine
  8
int
 62
256
370
-1
 48
1.0
  6
BYLAYER
 10
203.7959999999999923
 20
54.3134999999999977
 30
0.0
 11
203.8810000000000002
 21
54.5576000000000008
 31
0.0
  0
LINE
  5
12E
100
AcDbEntity
100
AcDbLine
  8
int
 62
256
370
-1
 48
1.0
  6
BYLAYER
 10
203.8810000000000002
 20
54.5576000000000008
 30
0.0
 11
204.007000000000005
 21
54.7841999999999985
 31
0.0
  0
LINE
  5
12F
100
AcDbEntity
100
AcDbLine
  8
int
 62
256
370
-1
 48
1.0
  6
BYLAYER
 10
204.007000000000005
 20
54.7841999999999985
 30
0.0
 11
204.1699999999999875
 21
54.9844000000000008
 31
0.0
  0
LINE
  5
130
100
AcDbEntity
100
AcDbLine
  8
int
 62
256
370
-1
 48
1.0
  6
BYLAYER
 10
204.1699999999999875
 20
54.9844000000000008
 30
0.0
 11
204.3640000000000043
 21
55.1542999999999992
 31
0.0
  0
LINE
  5
131
100
AcDbEntity
100
AcDbLine
  8
int
 62
256
370
-1
 48
1.0
  6
BYLAYER
 10
204.3640000000000043
 20
55.1542999999999992
 30
0.0
 11
204.5860000000000127
 21
55.2881
 31
0.0
  0
LINE
  5
132
100
AcDbEntity
100
AcDbLine
  8
int
 62
256
370
-1
 48
1.0
  6
BYLAYER
 10
204.5860000000000127
 20
55.2881
 30
0.0
 11
204.8259999999999934
 21
55.3817999999999984
 31
0.0
  0
LINE
  5
133
100
AcDbEntity
100
AcDbLine
  8
int
 62
256
370
-1
 48
1.0
  6
BYLAYER
 10
204.8259999999999934
 20
55.3817999999999984
 30
0.0
 11
205.0800000000000125
 21
55.4335999999999984
 31
0.0
  0
LINE
  5
134
100
AcDbEntity
100
AcDbLine
  8
int
 62
256
370
-1
 48
1.0
  6
BYLAYER
 10
205.0800000000000125
 20
55.4335999999999984
 30
0.0
 11
205.3379999999999939
 21
55.4403999999999968
 31
0.0
  0
LINE
  5
135
100
AcDbEntity
100
AcDbLine
  8
int
 62
256
370
-1
 48
1.0
  6
BYLAYER
 10
205.3379999999999939
 20
55.4403999999999968
 30
0.0
 11
220.8389999999999986
 21
54.3301000000000016
 31
0.0
  0
LINE
  5
136
100
AcDbEntity
100
AcDbLine
  8
int
 62
256
370
-1
 48
1.0
  6
BYLAYER
 10
220.8389999999999986
 20
54.3301000000000016
 30
0.0
 11
221.0790000000000077
 21
54.2899999999999991
 31
0.0
  0
LINE
  5
137
100
AcDbEntity
100
AcDbLine
  8
int
 62
256
370
-1
 48
1.0
  6
BYLAYER
 10
221.0790000000000077
 20
54.2899999999999991
 30
0.0
 11
221.3100000000000023
 21
54.2119
 31
0.0
  0
LINE
  5
138
100
AcDbEntity
100
AcDbLine
  8
int
 62
256
370
-1
 48
1.0
  6
BYLAYER
 10
221.3100000000000023
 20
54.2119
 30
0.0
 11
221.5240000000000009
 21
54.0977000000000032
 31
0.0
  0
LINE
  5
139
100
AcDbEntity
100
AcDbLine
  8
int
 62
256
370
-1
 48
1.0
  6
BYLAYER
 10
221.5240000000000009
 20
54.0977000000000032
 30
0.0
 11
221.7179999999999893
 21
53.9491999999999976
 31
0.0
  0
LINE
  5
13A
100
AcDbEntity
100
AcDbLine
  8
int
 62
256
370
-1
 48
1.0
  6
BYLAYER
 10
221.7179999999999893
 20
53.9491999999999976
 30
0.0
 11
221.8849999999999909
 21
53.7725000000000009
 31
0.0
  0
LINE
  5
13B
100
AcDbEntity
100
AcDbLine
  8
int
 62
256
370
-1
 48
1.0
  6
BYLAYER
 10
221.8849999999999909
 20
53.7725000000000009
 30
0.0
 11
222.0209999999999866
 21
53.5713000000000008
 31
0.0
  0
LINE
  5
13C
100
AcDbEntity
100
AcDbLine
  8
int
 62
256
370
-1
 48
1.0
  6
BYLAYER
 10
222.0209999999999866
 20
53.5713000000000008
 30
0.0
 11
222.1220000000000141
 21
53.3506
 31
0.0
  0
LINE
  5
13D
100
AcDbEntity
100
AcDbLine
  8
int
 62
256
370
-1
 48
1.0
  6
BYLAYER
 10
222.1220000000000141
 20
53.3506
 30
0.0
 11
222.1879999999999882
 21
53.1161999999999992
 31
0.0
  0
LINE
  5
13E
100
AcDbEntity
100
AcDbLine
  8
int
 62
256
370
-1
 48
1.0
  6
BYLAYER
 10
222.1879999999999882
 20
53.1161999999999992
 30
0.0
 11
222.2129999999999939
 21
52.8740000000000023
 31
0.0
  0
LINE
  5
13F
100
AcDbEntity
100
AcDbLine
  8
int
 62
256
370
-1
 48
1.0
  6
BYLAYER
 10
222.2129999999999939
 20
52.8740000000000023
 30
0.0
 11
222.1999999999999886
 21
52.6317999999999984
 31
0.0
  0
LINE
  5
140
100
AcDbEntity
100
AcDbLine
  8
int
 62
256
370
-1
 48
1.0
  6
BYLAYER
 10
222.1999999999999886
 20
52.6317999999999984
 30
0.0
 11
222.1469999999999914
 21
52.3935999999999993
 31
0.0
  0
LINE
  5
141
100
AcDbEntity
100
AcDbLine
  8
int
 62
256
370
-1
 48
1.0
  6
BYLAYER
 10
222.1469999999999914
 20
52.3935999999999993
 30
0.0
 11
222.0579999999999927
 21
52.1679999999999993
 31
0.0
  0
LINE
  5
142
100
AcDbEntity
100
AcDbLine
  8
int
 62
256
370
-1
 48
1.0
  6
BYLAYER
 10
222.0579999999999927
 20
52.1679999999999993
 30
0.0
 11
221.9319999999999879
 21
51.9600000000000009
 31
0.0
  0
LINE
  5
143
100
AcDbEntity
100
AcDbLine
  8
int
 62
256
370
-1
 48
1.0
  6
BYLAYER
 10
221.9319999999999879
 20
51.9600000000000009
 30
0.0
 11
221.7740000000000009
 21
51.7744
 31
0.0
  0
LINE
  5
144
100
AcDbEntity
100
AcDbLine
  8
int
 62
256
370
-1
 48
1.0
  6
BYLAYER
 10
221.7740000000000009
 20
51.7744
 30
0.0
 11
214.5970000000000084
 21
44.5966999999999985
 31
0.0
  0
LINE
  5
145
100
AcDbEntity
100
AcDbLine
  8
int
 62
256
370
-1
 48
1.0
  6
BYLAYER
 10
214.5970000000000084
 20
44.5966999999999985
 30
0.0
 11
214.3959999999999866
 21
44.4277000000000015
 31
0.0
  0
LINE
  5
146
100
AcDbEntity
100
AcDbLine
  8
int
 62
256
370
-1
 48
1.0
  6
BYLAYER
 10
214.3959999999999866
 20
44.4277000000000015
 30
0.0
 11
214.1699999999999875
 21
44.2978999999999985
 31
0.0
  0
LINE
  5
147
100
AcDbEntity
100
AcDbLine
  8
int
 62
256
370
-1
 48
1.0
  6
BYLAYER
 10
214.1699999999999875
 20
44.2978999999999985
 30
0.0
 11
213.9240000000000066
 21
44.2079999999999984
 31
0.0
  0
LINE
  5
148
100
AcDbEntity
100
AcDbLine
  8
int
 62
256
370
-1
 48
1.0
  6
BYLAYER
 10
213.9240000000000066
 20
44.2079999999999984
 30
0.0
 11
213.6659999999999968
 21
44.1621000000000024
 31
0.0
  0
LINE
  5
149
100
AcDbEntity
100
AcDbLine
  8
int
 62
256
370
-1
 48
1.0
  6
BYLAYER
 10
213.6659999999999968
 20
44.1621000000000024
 30
0.0
 11
213.4050000000000011
 21
44.1621000000000024
 31
0.0
  0
LINE
  5
14A
100
AcDbEntity
100
AcDbLine
  8
int
 62
256
370
-1
 48
1.0
  6
BYLAYER
 10
244.1200000000000045
 20
43.4472999999999985
 30
0.0
 11
243.8619999999999948
 21
43.4932000000000016
 31
0.0
  0
LINE
  5
14B
100
AcDbEntity
100
AcDbLine
  8
int
 62
256
370
-1
 48
1.0
  6
BYLAYER
 10
243.8619999999999948
 20
43.4932000000000016
 30
0.0
 11
243.6169999999999902
 21
43.5820000000000007
 31
0.0
  0
LINE
  5
14C
100
AcDbEntity
100
AcDbLine
  8
int
 62
256
370
-1
 48
1.0
  6
BYLAYER
 10
243.6169999999999902
 20
43.5820000000000007
 30
0.0
 11
243.3909999999999911
 21
43.7128999999999976
 31
0.0
  0
LINE
  5
14D
100
AcDbEntity
100
AcDbLine
  8
int
 62
256
370
-1
 48
1.0
  6
BYLAYER
 10
243.3909999999999911
 20
43.7128999999999976
 30
0.0
 11
243.1899999999999977
 21
43.8808999999999969
 31
0.0
  0
LINE
  5
14E
100
AcDbEntity
100
AcDbLine
  8
int
 62
256
370
-1
 48
1.0
  6
BYLAYER
 10
243.1899999999999977
 20
43.8808999999999969
 30
0.0
 11
237.0159999999999911
 21
50.0557000000000016
 31
0.0
  0
LINE
  5
14F
100
AcDbEntity
100
AcDbLine
  8
int
 62
256
370
-1
 48
1.0
  6
BYLAYER
 10
237.0159999999999911
 20
50.0557000000000016
 30
0.0
 11
236.8559999999999945
 21
50.2432000000000016
 31
0.0
  0
LINE
  5
150
100
AcDbEntity
100
AcDbLine
  8
int
 62
256
370
-1
 48
1.0
  6
BYLAYER
 10
236.8559999999999945
 20
50.2432000000000016
 30
0.0
 11
236.7290000000000134
 21
50.4551000000000016
 31
0.0
  0
LINE
  5
151
100
AcDbEntity
100
AcDbLine
  8
int
 62
256
370
-1
 48
1.0
  6
BYLAYER
 10
236.7290000000000134
 20
50.4551000000000016
 30
0.0
 11
236.6399999999999864
 21
50.6846000000000032
 31
0.0
  0
LINE
  5
152
100
AcDbEntity
100
AcDbLine
  8
int
 62
256
370
-1
 48
1.0
  6
BYLAYER
 10
236.6399999999999864
 20
50.6846000000000032
 30
0.0
 11
236.5889999999999986
 21
50.9258000000000024
 31
0.0
  0
LINE
  5
153
100
AcDbEntity
100
AcDbLine
  8
int
 62
256
370
-1
 48
1.0
  6
BYLAYER
 10
236.5889999999999986
 20
50.9258000000000024
 30
0.0
 11
236.5769999999999982
 21
51.1728999999999985
 31
0.0
  0
LINE
  5
154
100
AcDbEntity
100
AcDbLine
  8
int
 62
256
370
-1
 48
1.0
  6
BYLAYER
 10
236.5769999999999982
 20
51.1728999999999985
 30
0.0
 11
236.6069999999999993
 21
51.4170000000000016
 31
0.0
  0
LINE
  5
155
100
AcDbEntity
100
AcDbLine
  8
int
 62
256
370
-1
 48
1.0
  6
BYLAYER
 10
236.6069999999999993
 20
51.4170000000000016
 30
0.0
 11
236.6769999999999925
 21
51.6542999999999992
 31
0.0
  0
LINE
  5
156
100
AcDbEntity
100
AcDbLine
  8
int
 62
256
370
-1
 48
1.0
  6
BYLAYER
 10
236.6769999999999925
 20
51.6542999999999992
 30
0.0
 11
236.782999999999987
 21
51.8759999999999977
 31
0.0
  0
LINE
  5
157
100
AcDbEntity
100
AcDbLine
  8
int
 62
256
370
-1
 48
1.0
  6
BYLAYER
 10
236.782999999999987
 20
51.8759999999999977
 30
0.0
 11
236.9259999999999877
 21
52.0780999999999992
 31
0.0
  0
LINE
  5
158
100
AcDbEntity
100
AcDbLine
  8
int
 62
256
370
-1
 48
1.0
  6
BYLAYER
 10
236.9259999999999877
 20
52.0780999999999992
 30
0.0
 11
237.0989999999999895
 21
52.2539000000000016
 31
0.0
  0
LINE
  5
159
100
AcDbEntity
100
AcDbLine
  8
int
 62
256
370
-1
 48
1.0
  6
BYLAYER
 10
237.0989999999999895
 20
52.2539000000000016
 30
0.0
 11
237.2990000000000066
 21
52.3984000000000023
 31
0.0
  0
LINE
  5
15A
100
AcDbEntity
100
AcDbLine
  8
int
 62
256
370
-1
 48
1.0
  6
BYLAYER
 10
237.2990000000000066
 20
52.3984000000000023
 30
0.0
 11
237.5200000000000102
 21
52.5088000000000008
 31
0.0
  0
LINE
  5
15B
100
AcDbEntity
100
AcDbLine
  8
int
 62
256
370
-1
 48
1.0
  6
BYLAYER
 10
237.5200000000000102
 20
52.5088000000000008
 30
0.0
 11
237.7549999999999955
 21
52.5810999999999993
 31
0.0
  0
LINE
  5
15C
100
AcDbEntity
100
AcDbLine
  8
int
 62
256
370
-1
 48
1.0
  6
BYLAYER
 10
237.7549999999999955
 20
52.5810999999999993
 30
0.0
 11
237.9989999999999952
 21
52.6143000000000001
 31
0.0
  0
LINE
  5
15D
100
AcDbEntity
100
AcDbLine
  8
int
 62
256
370
-1
 48
1.0
  6
BYLAYER
 10
237.9989999999999952
 20
52.6143000000000001
 30
0.0
 11
238.2460000000000093
 21
52.6064000000000007
 31
0.0
  0
LINE
  5
15E
100
AcDbEntity
100
AcDbLine
  8
int
 62
256
370
-1
 48
1.0
  6
BYLAYER
 10
238.2460000000000093
 20
52.6064000000000007
 30
0.0
 11
249.2700000000000102
 21
51.25
 31
0.0
  0
LINE
  5
15F
100
AcDbEntity
100
AcDbLine
  8
int
 62
256
370
-1
 48
1.0
  6
BYLAYER
 10
249.2700000000000102
 20
51.25
 30
0.0
 11
249.5200000000000102
 21
51.1953000000000031
 31
0.0
  0
LINE
  5
160
100
AcDbEntity
100
AcDbLine
  8
int
 62
256
370
-1
 48
1.0
  6
BYLAYER
 10
249.5200000000000102
 20
51.1953000000000031
 30
0.0
 11
249.757000000000005
 21
51.0977000000000032
 31
0.0
  0
LINE
  5
161
100
AcDbEntity
100
AcDbLine
  8
int
 62
256
370
-1
 48
1.0
  6
BYLAYER
 10
249.757000000000005
 20
51.0977000000000032
 30
0.0
 11
249.9749999999999943
 21
50.9619
 31
0.0
  0
LINE
  5
162
100
AcDbEntity
100
AcDbLine
  8
int
 62
256
370
-1
 48
1.0
  6
BYLAYER
 10
249.9749999999999943
 20
50.9619
 30
0.0
 11
250.164999999999992
 21
50.7909999999999968
 31
0.0
  0
LINE
  5
163
100
AcDbEntity
100
AcDbLine
  8
int
 62
256
370
-1
 48
1.0
  6
BYLAYER
 10
250.164999999999992
 20
50.7909999999999968
 30
0.0
 11
250.3240000000000123
 21
50.5897999999999968
 31
0.0
  0
LINE
  5
164
100
AcDbEntity
100
AcDbLine
  8
int
 62
256
370
-1
 48
1.0
  6
BYLAYER
 10
250.3240000000000123
 20
50.5897999999999968
 30
0.0
 11
250.445999999999998
 21
50.3643000000000001
 31
0.0
  0
LINE
  5
165
100
AcDbEntity
100
AcDbLine
  8
int
 62
256
370
-1
 48
1.0
  6
BYLAYER
 10
250.445999999999998
 20
50.3643000000000001
 30
0.0
 11
250.5289999999999964
 21
50.1221000000000032
 31
0.0
  0
LINE
  5
166
100
AcDbEntity
100
AcDbLine
  8
int
 62
256
370
-1
 48
1.0
  6
BYLAYER
 10
250.5289999999999964
 20
50.1221000000000032
 30
0.0
 11
250.5680000000000121
 21
49.8682000000000016
 31
0.0
  0
LINE
  5
167
100
AcDbEntity
100
AcDbLine
  8
int
 62
256
370
-1
 48
1.0
  6
BYLAYER
 10
250.5680000000000121
 20
49.8682000000000016
 30
0.0
 11
250.563999999999993
 21
49.6122999999999976
 31
0.0
  0
LINE
  5
168
100
AcDbEntity
100
AcDbLine
  8
int
 62
256
370
-1
 48
1.0
  6
BYLAYER
 10
250.563999999999993
 20
49.6122999999999976
 30
0.0
 11
250.5180000000000007
 21
49.3603999999999985
 31
0.0
  0
LINE
  5
169
100
AcDbEntity
100
AcDbLine
  8
int
 62
256
370
-1
 48
1.0
  6
BYLAYER
 10
250.5180000000000007
 20
49.3603999999999985
 30
0.0
 11
250.4279999999999973
 21
49.1201000000000008
 31
0.0
  0
LINE
  5
16A
100
AcDbEntity
100
AcDbLine
  8
int
 62
256
370
-1
 48
1.0
  6
BYLAYER
 10
250.4279999999999973
 20
49.1201000000000008
 30
0.0
 11
250.2980000000000018
 21
48.8984000000000023
 31
0.0
  0
LINE
  5
16B
100
AcDbEntity
100
AcDbLine
  8
int
 62
256
370
-1
 48
1.0
  6
BYLAYER
 10
250.2980000000000018
 20
48.8984000000000023
 30
0.0
 11
250.1330000000000098
 21
48.7030999999999992
 31
0.0
  0
LINE
  5
16C
100
AcDbEntity
100
AcDbLine
  8
int
 62
256
370
-1
 48
1.0
  6
BYLAYER
 10
250.1330000000000098
 20
48.7030999999999992
 30
0.0
 11
245.3120000000000118
 21
43.8808999999999969
 31
0.0
  0
LINE
  5
16D
100
AcDbEntity
100
AcDbLine
  8
int
 62
256
370
-1
 48
1.0
  6
BYLAYER
 10
245.3120000000000118
 20
43.8808999999999969
 30
0.0
 11
245.11099999999999
 21
43.7128999999999976
 31
0.0
  0
LINE
  5
16E
100
AcDbEntity
100
AcDbLine
  8
int
 62
256
370
-1
 48
1.0
  6
BYLAYER
 10
245.11099999999999
 20
43.7128999999999976
 30
0.0
 11
244.8849999999999909
 21
43.5820000000000007
 31
0.0
  0
LINE
  5
16F
100
AcDbEntity
100
AcDbLine
  8
int
 62
256
370
-1
 48
1.0
  6
BYLAYER
 10
244.8849999999999909
 20
43.5820000000000007
 30
0.0
 11
244.63900000000001
 21
43.4932000000000016
 31
0.0
  0
LINE
  5
170
100
AcDbEntity
100
AcDbLine
  8
int
 62
256
370
-1
 48
1.0
  6
BYLAYER
 10
244.63900000000001
 20
43.4932000000000016
 30
0.0
 11
244.382000000000005
 21
43.4472999999999985
 31
0.0
  0
LINE
  5
171
100
AcDbEntity
100
AcDbLine
  8
int
 62
256
370
-1
 48
1.0
  6
BYLAYER
 10
244.382000000000005
 20
43.4472999999999985
 30
0.0
 11
244.1200000000000045
 21
43.4472999999999985
 31
0.0
  0
LINE
  5
172
100
AcDbEntity
100
AcDbLine
  8
int
 62
256
370
-1
 48
1.0
  6
BYLAYER
 10
66.9442999999999984
 20
18.0067999999999984
 30
0.0
 11
66.7031000000000063
 21
18.0731999999999999
 31
0.0
  0
LINE
  5
173
100
AcDbEntity
100
AcDbLine
  8
int
 62
256
370
-1
 48
1.0
  6
BYLAYER
 10
66.7031000000000063
 20
18.0731999999999999
 30
0.0
 11
66.4766000000000048
 21
18.1786999999999992
 31
0.0
  0
LINE
  5
174
100
AcDbEntity
100
AcDbLine
  8
int
 62
256
370
-1
 48
1.0
  6
BYLAYER
 10
66.4766000000000048
 20
18.1786999999999992
 30
0.0
 11
66.2694999999999936
 21
18.3202999999999996
 31
0.0
  0
LINE
  5
175
100
AcDbEntity
100
AcDbLine
  8
int
 62
256
370
-1
 48
1.0
  6
BYLAYER
 10
66.2694999999999936
 20
18.3202999999999996
 30
0.0
 11
66.0897999999999968
 21
18.4940999999999995
 31
0.0
  0
LINE
  5
176
100
AcDbEntity
100
AcDbLine
  8
int
 62
256
370
-1
 48
1.0
  6
BYLAYER
 10
66.0897999999999968
 20
18.4940999999999995
 30
0.0
 11
65.9414000000000016
 21
18.6952999999999996
 31
0.0
  0
LINE
  5
177
100
AcDbEntity
100
AcDbLine
  8
int
 62
256
370
-1
 48
1.0
  6
BYLAYER
 10
65.9414000000000016
 20
18.6952999999999996
 30
0.0
 11
65.8281000000000063
 21
18.9189000000000007
 31
0.0
  0
LINE
  5
178
100
AcDbEntity
100
AcDbLine
  8
int
 62
256
370
-1
 48
1.0
  6
BYLAYER
 10
65.8281000000000063
 20
18.9189000000000007
 30
0.0
 11
65.7539000000000016
 21
19.1582000000000008
 31
0.0
  0
LINE
  5
179
100
AcDbEntity
100
AcDbLine
  8
int
 62
256
370
-1
 48
1.0
  6
BYLAYER
 10
65.7539000000000016
 20
19.1582000000000008
 30
0.0
 11
65.7206999999999937
 21
19.4061999999999983
 31
0.0
  0
LINE
  5
17A
100
AcDbEntity
100
AcDbLine
  8
int
 62
256
370
-1
 48
1.0
  6
BYLAYER
 10
65.7206999999999937
 20
19.4061999999999983
 30
0.0
 11
65.7295000000000016
 21
19.6561999999999983
 31
0.0
  0
LINE
  5
17B
100
AcDbEntity
100
AcDbLine
  8
int
 62
256
370
-1
 48
1.0
  6
BYLAYER
 10
65.7295000000000016
 20
19.6561999999999983
 30
0.0
 11
65.7793000000000063
 21
19.9013999999999989
 31
0.0
  0
LINE
  5
17C
100
AcDbEntity
100
AcDbLine
  8
int
 62
256
370
-1
 48
1.0
  6
BYLAYER
 10
65.7793000000000063
 20
19.9013999999999989
 30
0.0
 11
65.8691000000000031
 21
20.1356999999999999
 31
0.0
  0
LINE
  5
17D
100
AcDbEntity
100
AcDbLine
  8
int
 62
256
370
-1
 48
1.0
  6
BYLAYER
 10
65.8691000000000031
 20
20.1356999999999999
 30
0.0
 11
65.9971000000000032
 21
20.3506
 31
0.0
  0
LINE
  5
17E
100
AcDbEntity
100
AcDbLine
  8
int
 62
256
370
-1
 48
1.0
  6
BYLAYER
 10
65.9971000000000032
 20
20.3506
 30
0.0
 11
66.1581999999999937
 21
20.5420000000000016
 31
0.0
  0
LINE
  5
17F
100
AcDbEntity
100
AcDbLine
  8
int
 62
256
370
-1
 48
1.0
  6
BYLAYER
 10
66.1581999999999937
 20
20.5420000000000016
 30
0.0
 11
96.7471000000000032
 21
51.1308999999999969
 31
0.0
  0
LINE
  5
180
100
AcDbEntity
100
AcDbLine
  8
int
 62
256
370
-1
 48
1.0
  6
BYLAYER
 10
96.7471000000000032
 20
51.1308999999999969
 30
0.0
 11
96.9481999999999999
 21
51.2988
 31
0.0
  0
LINE
  5
181
100
AcDbEntity
100
AcDbLine
  8
int
 62
256
370
-1
 48
1.0
  6
BYLAYER
 10
96.9481999999999999
 20
51.2988
 30
0.0
 11
97.1738
 21
51.4296999999999969
 31
0.0
  0
LINE
  5
182
100
AcDbEntity
100
AcDbLine
  8
int
 62
256
370
-1
 48
1.0
  6
BYLAYER
 10
97.1738
 20
51.4296999999999969
 30
0.0
 11
97.4198999999999984
 21
51.5195000000000007
 31
0.0
  0
LINE
  5
183
100
AcDbEntity
100
AcDbLine
  8
int
 62
256
370
-1
 48
1.0
  6
BYLAYER
 10
97.4198999999999984
 20
51.5195000000000007
 30
0.0
 11
97.6777000000000015
 21
51.5645000000000024
 31
0.0
  0
LINE
  5
184
100
AcDbEntity
100
AcDbLine
  8
int
 62
256
370
-1
 48
1.0
  6
BYLAYER
 10
97.6777000000000015
 20
51.5645000000000024
 30
0.0
 11
97.9385000000000048
 21
51.5645000000000024
 31
0.0
  0
LINE
  5
185
100
AcDbEntity
100
AcDbLine
  8
int
 62
256
370
-1
 48
1.0
  6
BYLAYER
 10
97.9385000000000048
 20
51.5645000000000024
 30
0.0
 11
98.1962999999999937
 21
51.5195000000000007
 31
0.0
  0
LINE
  5
186
100
AcDbEntity
100
AcDbLine
  8
int
 62
256
370
-1
 48
1.0
  6
BYLAYER
 10
98.1962999999999937
 20
51.5195000000000007
 30
0.0
 11
98.4424000000000063
 21
51.4296999999999969
 31
0.0
  0
LINE
  5
187
100
AcDbEntity
100
AcDbLine
  8
int
 62
256
370
-1
 48
1.0
  6
BYLAYER
 10
98.4424000000000063
 20
51.4296999999999969
 30
0.0
 11
98.6688999999999936
 21
51.2988
 31
0.0
  0
LINE
  5
188
100
AcDbEntity
100
AcDbLine
  8
int
 62
256
370
-1
 48
1.0
  6
BYLAYER
 10
98.6688999999999936
 20
51.2988
 30
0.0
 11
98.8691000000000031
 21
51.1308999999999969
 31
0.0
  0
LINE
  5
189
100
AcDbEntity
100
AcDbLine
  8
int
 62
256
370
-1
 48
1.0
  6
BYLAYER
 10
98.8691000000000031
 20
51.1308999999999969
 30
0.0
 11
116.2909999999999968
 21
33.7090000000000032
 31
0.0
  0
LINE
  5
18A
100
AcDbEntity
100
AcDbLine
  8
int
 62
256
370
-1
 48
1.0
  6
BYLAYER
 10
116.2909999999999968
 20
33.7090000000000032
 30
0.0
 11
116.4509999999999934
 21
33.5204999999999984
 31
0.0
  0
LINE
  5
18B
100
AcDbEntity
100
AcDbLine
  8
int
 62
256
370
-1
 48
1.0
  6
BYLAYER
 10
116.4509999999999934
 20
33.5204999999999984
 30
0.0
 11
116.5769999999999982
 21
33.3085999999999984
 31
0.0
  0
LINE
  5
18C
100
AcDbEntity
100
AcDbLine
  8
int
 62
256
370
-1
 48
1.0
  6
BYLAYER
 10
116.5769999999999982
 20
33.3085999999999984
 30
0.0
 11
116.6670000000000016
 21
33.0801000000000016
 31
0.0
  0
LINE
  5
18D
100
AcDbEntity
100
AcDbLine
  8
int
 62
256
370
-1
 48
1.0
  6
BYLAYER
 10
116.6670000000000016
 20
33.0801000000000016
 30
0.0
 11
116.7189999999999941
 21
32.8389000000000024
 31
0.0
  0
LINE
  5
18E
100
AcDbEntity
100
AcDbLine
  8
int
 62
256
370
-1
 48
1.0
  6
BYLAYER
 10
116.7189999999999941
 20
32.8389000000000024
 30
0.0
 11
116.7289999999999992
 21
32.5927999999999969
 31
0.0
  0
LINE
  5
18F
100
AcDbEntity
100
AcDbLine
  8
int
 62
256
370
-1
 48
1.0
  6
BYLAYER
 10
116.7289999999999992
 20
32.5927999999999969
 30
0.0
 11
116.7000000000000028
 21
32.3477000000000032
 31
0.0
  0
LINE
  5
190
100
AcDbEntity
100
AcDbLine
  8
int
 62
256
370
-1
 48
1.0
  6
BYLAYER
 10
116.7000000000000028
 20
32.3477000000000032
 30
0.0
 11
116.632000000000005
 21
32.1113
 31
0.0
  0
LINE
  5
191
100
AcDbEntity
100
AcDbLine
  8
int
 62
256
370
-1
 48
1.0
  6
BYLAYER
 10
116.632000000000005
 20
32.1113
 30
0.0
 11
116.5240000000000009
 21
31.8887
 31
0.0
  0
LINE
  5
192
100
AcDbEntity
100
AcDbLine
  8
int
 62
256
370
-1
 48
1.0
  6
BYLAYER
 10
116.5240000000000009
 20
31.8887
 30
0.0
 11
116.3829999999999956
 21
31.6875
 31
0.0
  0
LINE
  5
193
100
AcDbEntity
100
AcDbLine
  8
int
 62
256
370
-1
 48
1.0
  6
BYLAYER
 10
116.3829999999999956
 20
31.6875
 30
0.0
 11
116.2099999999999937
 21
31.5117000000000012
 31
0.0
  0
LINE
  5
194
100
AcDbEntity
100
AcDbLine
  8
int
 62
256
370
-1
 48
1.0
  6
BYLAYER
 10
116.2099999999999937
 20
31.5117000000000012
 30
0.0
 11
116.0109999999999957
 21
31.3672000000000004
 31
0.0
  0
LINE
  5
195
100
AcDbEntity
100
AcDbLine
  8
int
 62
256
370
-1
 48
1.0
  6
BYLAYER
 10
116.0109999999999957
 20
31.3672000000000004
 30
0.0
 11
115.7900000000000063
 21
31.2559000000000005
 31
0.0
  0
LINE
  5
196
100
AcDbEntity
100
AcDbLine
  8
int
 62
256
370
-1
 48
1.0
  6
BYLAYER
 10
115.7900000000000063
 20
31.2559000000000005
 30
0.0
 11
115.5550000000000068
 21
31.1835999999999984
 31
0.0
  0
LINE
  5
197
100
AcDbEntity
100
AcDbLine
  8
int
 62
256
370
-1
 48
1.0
  6
BYLAYER
 10
115.5550000000000068
 20
31.1835999999999984
 30
0.0
 11
67.6875
 21
18.0565999999999995
 31
0.0
  0
LINE
  5
198
100
AcDbEntity
100
AcDbLine
  8
int
 62
256
370
-1
 48
1.0
  6
BYLAYER
 10
67.6875
 20
18.0565999999999995
 30
0.0
 11
67.4433999999999969
 21
17.9980000000000011
 31
0.0
  0
LINE
  5
199
100
AcDbEntity
100
AcDbLine
  8
int
 62
256
370
-1
 48
1.0
  6
BYLAYER
 10
67.4433999999999969
 20
17.9980000000000011
 30
0.0
 11
67.1933999999999969
 21
17.9814000000000007
 31
0.0
  0
LINE
  5
19A
100
AcDbEntity
100
AcDbLine
  8
int
 62
256
370
-1
 48
1.0
  6
BYLAYER
 10
67.1933999999999969
 20
17.9814000000000007
 30
0.0
 11
66.9442999999999984
 21
18.0067999999999984
 31
0.0
  0
LINE
  5
19B
100
AcDbEntity
100
AcDbLine
  8
int
 62
256
370
-1
 48
1.0
  6
BYLAYER
 10
223.8899999999999864
 20
43.1923999999999992
 30
0.0
 11
223.6380000000000052
 21
43.2119
 31
0.0
  0
LINE
  5
19C
100
AcDbEntity
100
AcDbLine
  8
int
 62
256
370
-1
 48
1.0
  6
BYLAYER
 10
223.6380000000000052
 20
43.2119
 30
0.0
 11
223.3930000000000007
 21
43.2744
 31
0.0
  0
LINE
  5
19D
100
AcDbEntity
100
AcDbLine
  8
int
 62
256
370
-1
 48
1.0
  6
BYLAYER
 10
223.3930000000000007
 20
43.2744
 30
0.0
 11
223.1620000000000061
 21
43.3770000000000024
 31
0.0
  0
LINE
  5
19E
100
AcDbEntity
100
AcDbLine
  8
int
 62
256
370
-1
 48
1.0
  6
BYLAYER
 10
223.1620000000000061
 20
43.3770000000000024
 30
0.0
 11
222.9519999999999982
 21
43.5165999999999968
 31
0.0
  0
LINE
  5
19F
100
AcDbEntity
100
AcDbLine
  8
int
 62
256
370
-1
 48
1.0
  6
BYLAYER
 10
222.9519999999999982
 20
43.5165999999999968
 30
0.0
 11
222.7680000000000007
 21
43.6903999999999968
 31
0.0
  0
LINE
  5
1A0
100
AcDbEntity
100
AcDbLine
  8
int
 62
256
370
-1
 48
1.0
  6
BYLAYER
 10
222.7680000000000007
 20
43.6903999999999968
 30
0.0
 11
222.6160000000000139
 21
43.8915999999999968
 31
0.0
  0
LINE
  5
1A1
100
AcDbEntity
100
AcDbLine
  8
int
 62
256
370
-1
 48
1.0
  6
BYLAYER
 10
222.6160000000000139
 20
43.8915999999999968
 30
0.0
 11
222.4989999999999952
 21
44.1152000000000015
 31
0.0
  0
LINE
  5
1A2
100
AcDbEntity
100
AcDbLine
  8
int
 62
256
370
-1
 48
1.0
  6
BYLAYER
 10
222.4989999999999952
 20
44.1152000000000015
 30
0.0
 11
222.4230000000000018
 21
44.3564000000000007
 31
0.0
  0
LINE
  5
1A3
100
AcDbEntity
100
AcDbLine
  8
int
 62
256
370
-1
 48
1.0
  6
BYLAYER
 10
222.4230000000000018
 20
44.3564000000000007
 30
0.0
 11
222.3870000000000005
 21
44.6064000000000007
 31
0.0
  0
LINE
  5
1A4
100
AcDbEntity
100
AcDbLine
  8
int
 62
256
370
-1
 48
1.0
  6
BYLAYER
 10
222.3870000000000005
 20
44.6064000000000007
 30
0.0
 11
222.3940000000000055
 21
44.8584000000000032
 31
0.0
  0
LINE
  5
1A5
100
AcDbEntity
100
AcDbLine
  8
int
 62
256
370
-1
 48
1.0
  6
BYLAYER
 10
222.3940000000000055
 20
44.8584000000000032
 30
0.0
 11
222.4420000000000073
 21
45.1064000000000007
 31
0.0
  0
LINE
  5
1A6
100
AcDbEntity
100
AcDbLine
  8
int
 62
256
370
-1
 48
1.0
  6
BYLAYER
 10
222.4420000000000073
 20
45.1064000000000007
 30
0.0
 11
222.5320000000000107
 21
45.3417999999999992
 31
0.0
  0
LINE
  5
1A7
100
AcDbEntity
100
AcDbLine
  8
int
 62
256
370
-1
 48
1.0
  6
BYLAYER
 10
222.5320000000000107
 20
45.3417999999999992
 30
0.0
 11
222.6610000000000014
 21
45.5596000000000032
 31
0.0
  0
LINE
  5
1A8
100
AcDbEntity
100
AcDbLine
  8
int
 62
256
370
-1
 48
1.0
  6
BYLAYER
 10
222.6610000000000014
 20
45.5596000000000032
 30
0.0
 11
222.8230000000000075
 21
45.7528999999999968
 31
0.0
  0
LINE
  5
1A9
100
AcDbEntity
100
AcDbLine
  8
int
 62
256
370
-1
 48
1.0
  6
BYLAYER
 10
222.8230000000000075
 20
45.7528999999999968
 30
0.0
 11
227.4749999999999943
 21
50.4033000000000015
 31
0.0
  0
LINE
  5
1AA
100
AcDbEntity
100
AcDbLine
  8
int
 62
256
370
-1
 48
1.0
  6
BYLAYER
 10
227.4749999999999943
 20
50.4033000000000015
 30
0.0
 11
227.6750000000000114
 21
50.5722999999999985
 31
0.0
  0
LINE
  5
1AB
100
AcDbEntity
100
AcDbLine
  8
int
 62
256
370
-1
 48
1.0
  6
BYLAYER
 10
227.6750000000000114
 20
50.5722999999999985
 30
0.0
 11
227.9010000000000105
 21
50.7021000000000015
 31
0.0
  0
LINE
  5
1AC
100
AcDbEntity
100
AcDbLine
  8
int
 62
256
370
-1
 48
1.0
  6
BYLAYER
 10
227.9010000000000105
 20
50.7021000000000015
 30
0.0
 11
228.1469999999999914
 21
50.7920000000000016
 31
0.0
  0
LINE
  5
1AD
100
AcDbEntity
100
AcDbLine
  8
int
 62
256
370
-1
 48
1.0
  6
BYLAYER
 10
228.1469999999999914
 20
50.7920000000000016
 30
0.0
 11
228.4050000000000011
 21
50.8378999999999976
 31
0.0
  0
LINE
  5
1AE
100
AcDbEntity
100
AcDbLine
  8
int
 62
256
370
-1
 48
1.0
  6
BYLAYER
 10
228.4050000000000011
 20
50.8378999999999976
 30
0.0
 11
228.6659999999999968
 21
50.8378999999999976
 31
0.0
  0
LINE
  5
1AF
100
AcDbEntity
100
AcDbLine
  8
int
 62
256
370
-1
 48
1.0
  6
BYLAYER
 10
228.6659999999999968
 20
50.8378999999999976
 30
0.0
 11
228.9240000000000066
 21
50.7920000000000016
 31
0.0
  0
LINE
  5
1B0
100
AcDbEntity
100
AcDbLine
  8
int
 62
256
370
-1
 48
1.0
  6
BYLAYER
 10
228.9240000000000066
 20
50.7920000000000016
 30
0.0
 11
229.1699999999999875
 21
50.7021000000000015
 31
0.0
  0
LINE
  5
1B1
100
AcDbEntity
100
AcDbLine
  8
int
 62
256
370
-1
 48
1.0
  6
BYLAYER
 10
229.1699999999999875
 20
50.7021000000000015
 30
0.0
 11
229.3959999999999866
 21
50.5722999999999985
 31
0.0
  0
LINE
  5
1B2
100
AcDbEntity
100
AcDbLine
  8
int
 62
256
370
-1
 48
1.0
  6
BYLAYER
 10
229.3959999999999866
 20
50.5722999999999985
 30
0.0
 11
229.5970000000000084
 21
50.4033000000000015
 31
0.0
  0
LINE
  5
1B3
100
AcDbEntity
100
AcDbLine
  8
int
 62
256
370
-1
 48
1.0
  6
BYLAYER
 10
229.5970000000000084
 20
50.4033000000000015
 30
0.0
 11
234.3129999999999882
 21
45.6865000000000023
 31
0.0
  0
LINE
  5
1B4
100
AcDbEntity
100
AcDbLine
  8
int
 62
256
370
-1
 48
1.0
  6
BYLAYER
 10
234.3129999999999882
 20
45.6865000000000023
 30
0.0
 11
234.4780000000000086
 21
45.4921999999999969
 31
0.0
  0
LINE
  5
1B5
100
AcDbEntity
100
AcDbLine
  8
int
 62
256
370
-1
 48
1.0
  6
BYLAYER
 10
234.4780000000000086
 20
45.4921999999999969
 30
0.0
 11
234.6049999999999898
 21
45.2734000000000023
 31
0.0
  0
LINE
  5
1B6
100
AcDbEntity
100
AcDbLine
  8
int
 62
256
370
-1
 48
1.0
  6
BYLAYER
 10
234.6049999999999898
 20
45.2734000000000023
 30
0.0
 11
234.6949999999999932
 21
45.0360999999999976
 31
0.0
  0
LINE
  5
1B7
100
AcDbEntity
100
AcDbLine
  8
int
 62
256
370
-1
 48
1.0
  6
BYLAYER
 10
234.6949999999999932
 20
45.0360999999999976
 30
0.0
 11
234.7439999999999998
 21
44.7860999999999976
 31
0.0
  0
LINE
  5
1B8
100
AcDbEntity
100
AcDbLine
  8
int
 62
256
370
-1
 48
1.0
  6
BYLAYER
 10
234.7439999999999998
 20
44.7860999999999976
 30
0.0
 11
234.75
 21
44.5322000000000031
 31
0.0
  0
LINE
  5
1B9
100
AcDbEntity
100
AcDbLine
  8
int
 62
256
370
-1
 48
1.0
  6
BYLAYER
 10
234.75
 20
44.5322000000000031
 30
0.0
 11
234.7129999999999939
 21
44.2811999999999983
 31
0.0
  0
LINE
  5
1BA
100
AcDbEntity
100
AcDbLine
  8
int
 62
256
370
-1
 48
1.0
  6
BYLAYER
 10
234.7129999999999939
 20
44.2811999999999983
 30
0.0
 11
234.6339999999999861
 21
44.0399999999999991
 31
0.0
  0
LINE
  5
1BB
100
AcDbEntity
100
AcDbLine
  8
int
 62
256
370
-1
 48
1.0
  6
BYLAYER
 10
234.6339999999999861
 20
44.0399999999999991
 30
0.0
 11
234.5149999999999864
 21
43.8153999999999968
 31
0.0
  0
LINE
  5
1BC
100
AcDbEntity
100
AcDbLine
  8
int
 62
256
370
-1
 48
1.0
  6
BYLAYER
 10
234.5149999999999864
 20
43.8153999999999968
 30
0.0
 11
234.3600000000000136
 21
43.6143000000000001
 31
0.0
  0
LINE
  5
1BD
100
AcDbEntity
100
AcDbLine
  8
int
 62
256
370
-1
 48
1.0
  6
BYLAYER
 10
234.3600000000000136
 20
43.6143000000000001
 30
0.0
 11
234.1730000000000018
 21
43.4414000000000016
 31
0.0
  0
LINE
  5
1BE
100
AcDbEntity
100
AcDbLine
  8
int
 62
256
370
-1
 48
1.0
  6
BYLAYER
 10
234.1730000000000018
 20
43.4414000000000016
 30
0.0
 11
233.960000000000008
 21
43.3036999999999992
 31
0.0
  0
LINE
  5
1BF
100
AcDbEntity
100
AcDbLine
  8
int
 62
256
370
-1
 48
1.0
  6
BYLAYER
 10
233.960000000000008
 20
43.3036999999999992
 30
0.0
 11
233.7270000000000039
 21
43.2030999999999992
 31
0.0
  0
LINE
  5
1C0
100
AcDbEntity
100
AcDbLine
  8
int
 62
256
370
-1
 48
1.0
  6
BYLAYER
 10
233.7270000000000039
 20
43.2030999999999992
 30
0.0
 11
233.4790000000000134
 21
43.1435999999999993
 31
0.0
  0
LINE
  5
1C1
100
AcDbEntity
100
AcDbLine
  8
int
 62
256
370
-1
 48
1.0
  6
BYLAYER
 10
233.4790000000000134
 20
43.1435999999999993
 30
0.0
 11
233.2270000000000039
 21
43.1259999999999977
 31
0.0
  0
LINE
  5
1C2
100
AcDbEntity
100
AcDbLine
  8
int
 62
256
370
-1
 48
1.0
  6
BYLAYER
 10
233.2270000000000039
 20
43.1259999999999977
 30
0.0
 11
223.8899999999999864
 21
43.1923999999999992
 31
0.0
  0
LINE
  5
1C3
100
AcDbEntity
100
AcDbLine
  8
int
 62
256
370
-1
 48
1.0
  6
BYLAYER
 10
51.1659999999999968
 20
13.6133000000000006
 30
0.0
 11
50.9258000000000024
 21
13.6904000000000003
 31
0.0
  0
LINE
  5
1C4
100
AcDbEntity
100
AcDbLine
  8
int
 62
256
370
-1
 48
1.0
  6
BYLAYER
 10
50.9258000000000024
 20
13.6904000000000003
 30
0.0
 11
50.7021000000000015
 21
13.8056999999999999
 31
0.0
  0
LINE
  5
1C5
100
AcDbEntity
100
AcDbLine
  8
int
 62
256
370
-1
 48
1.0
  6
BYLAYER
 10
50.7021000000000015
 20
13.8056999999999999
 30
0.0
 11
50.5
 21
13.9580000000000002
 31
0.0
  0
LINE
  5
1C6
100
AcDbEntity
100
AcDbLine
  8
int
 62
256
370
-1
 48
1.0
  6
BYLAYER
 10
50.5
 20
13.9580000000000002
 30
0.0
 11
50.3271000000000015
 21
14.1405999999999992
 31
0.0
  0
LINE
  5
1C7
100
AcDbEntity
100
AcDbLine
  8
int
 62
256
370
-1
 48
1.0
  6
BYLAYER
 10
50.3271000000000015
 20
14.1405999999999992
 30
0.0
 11
50.1875
 21
14.3506
 31
0.0
  0
LINE
  5
1C8
100
AcDbEntity
100
AcDbLine
  8
int
 62
256
370
-1
 48
1.0
  6
BYLAYER
 10
50.1875
 20
14.3506
 30
0.0
 11
50.0840000000000032
 21
14.5810999999999993
 31
0.0
  0
LINE
  5
1C9
100
AcDbEntity
100
AcDbLine
  8
int
 62
256
370
-1
 48
1.0
  6
BYLAYER
 10
50.0840000000000032
 20
14.5810999999999993
 30
0.0
 11
50.0215000000000032
 21
14.8252000000000006
 31
0.0
  0
LINE
  5
1CA
100
AcDbEntity
100
AcDbLine
  8
int
 62
256
370
-1
 48
1.0
  6
BYLAYER
 10
50.0215000000000032
 20
14.8252000000000006
 30
0.0
 11
50.0
 21
15.0762
 31
0.0
  0
LINE
  5
1CB
100
AcDbEntity
100
AcDbLine
  8
int
 62
256
370
-1
 48
1.0
  6
BYLAYER
 10
50.0
 20
15.0762
 30
0.0
 11
50.0
 21
39.6084000000000032
 31
0.0
  0
LINE
  5
1CC
100
AcDbEntity
100
AcDbLine
  8
int
 62
256
370
-1
 48
1.0
  6
BYLAYER
 10
50.0
 20
39.6084000000000032
 30
0.0
 11
50.0889000000000024
 21
40.6377000000000024
 31
0.0
  0
LINE
  5
1CD
100
AcDbEntity
100
AcDbLine
  8
int
 62
256
370
-1
 48
1.0
  6
BYLAYER
 10
50.0889000000000024
 20
40.6377000000000024
 30
0.0
 11
50.3534999999999968
 21
41.6366999999999976
 31
0.0
  0
LINE
  5
1CE
100
AcDbEntity
100
AcDbLine
  8
int
 62
256
370
-1
 48
1.0
  6
BYLAYER
 10
50.3534999999999968
 20
41.6366999999999976
 30
0.0
 11
50.7841999999999985
 21
42.5752000000000024
 31
0.0
  0
LINE
  5
1CF
100
AcDbEntity
100
AcDbLine
  8
int
 62
256
370
-1
 48
1.0
  6
BYLAYER
 10
50.7841999999999985
 20
42.5752000000000024
 30
0.0
 11
51.3710999999999984
 21
43.4258000000000024
 31
0.0
  0
LINE
  5
1D0
100
AcDbEntity
100
AcDbLine
  8
int
 62
256
370
-1
 48
1.0
  6
BYLAYER
 10
51.3710999999999984
 20
43.4258000000000024
 30
0.0
 11
52.0938000000000017
 21
44.1631
 31
0.0
  0
LINE
  5
1D1
100
AcDbEntity
100
AcDbLine
  8
int
 62
256
370
-1
 48
1.0
  6
BYLAYER
 10
52.0938000000000017
 20
44.1631
 30
0.0
 11
52.9335999999999984
 21
44.7655999999999992
 31
0.0
  0
LINE
  5
1D2
100
AcDbEntity
100
AcDbLine
  8
int
 62
256
370
-1
 48
1.0
  6
BYLAYER
 10
52.9335999999999984
 20
44.7655999999999992
 30
0.0
 11
53.8633000000000024
 21
45.2147999999999968
 31
0.0
  0
LINE
  5
1D3
100
AcDbEntity
100
AcDbLine
  8
int
 62
256
370
-1
 48
1.0
  6
BYLAYER
 10
53.8633000000000024
 20
45.2147999999999968
 30
0.0
 11
54.8564000000000007
 21
45.4990000000000023
 31
0.0
  0
LINE
  5
1D4
100
AcDbEntity
100
AcDbLine
  8
int
 62
256
370
-1
 48
1.0
  6
BYLAYER
 10
54.8564000000000007
 20
45.4990000000000023
 30
0.0
 11
85.2754000000000048
 21
50.5429999999999993
 31
0.0
  0
LINE
  5
1D5
100
AcDbEntity
100
AcDbLine
  8
int
 62
256
370
-1
 48
1.0
  6
BYLAYER
 10
85.2754000000000048
 20
50.5429999999999993
 30
0.0
 11
85.5244
 21
50.5557000000000016
 31
0.0
  0
LINE
  5
1D6
100
AcDbEntity
100
AcDbLine
  8
int
 62
256
370
-1
 48
1.0
  6
BYLAYER
 10
85.5244
 20
50.5557000000000016
 30
0.0
 11
85.7715000000000032
 21
50.5283000000000015
 31
0.0
  0
LINE
  5
1D7
100
AcDbEntity
100
AcDbLine
  8
int
 62
256
370
-1
 48
1.0
  6
BYLAYER
 10
85.7715000000000032
 20
50.5283000000000015
 30
0.0
 11
86.0117000000000047
 21
50.4600000000000009
 31
0.0
  0
LINE
  5
1D8
100
AcDbEntity
100
AcDbLine
  8
int
 62
256
370
-1
 48
1.0
  6
BYLAYER
 10
86.0117000000000047
 20
50.4600000000000009
 30
0.0
 11
86.2363
 21
50.3524999999999991
 31
0.0
  0
LINE
  5
1D9
100
AcDbEntity
100
AcDbLine
  8
int
 62
256
370
-1
 48
1.0
  6
BYLAYER
 10
86.2363
 20
50.3524999999999991
 30
0.0
 11
86.4403999999999968
 21
50.2100000000000009
 31
0.0
  0
LINE
  5
1DA
100
AcDbEntity
100
AcDbLine
  8
int
 62
256
370
-1
 48
1.0
  6
BYLAYER
 10
86.4403999999999968
 20
50.2100000000000009
 30
0.0
 11
86.6171999999999969
 21
50.0352000000000032
 31
0.0
  0
LINE
  5
1DB
100
AcDbEntity
100
AcDbLine
  8
int
 62
256
370
-1
 48
1.0
  6
BYLAYER
 10
86.6171999999999969
 20
50.0352000000000032
 30
0.0
 11
86.7637
 21
49.8329999999999984
 31
0.0
  0
LINE
  5
1DC
100
AcDbEntity
100
AcDbLine
  8
int
 62
256
370
-1
 48
1.0
  6
BYLAYER
 10
86.7637
 20
49.8329999999999984
 30
0.0
 11
86.875
 21
49.6103999999999985
 31
0.0
  0
LINE
  5
1DD
100
AcDbEntity
100
AcDbLine
  8
int
 62
256
370
-1
 48
1.0
  6
BYLAYER
 10
86.875
 20
49.6103999999999985
 30
0.0
 11
86.9472999999999985
 21
49.3721000000000032
 31
0.0
  0
LINE
  5
1DE
100
AcDbEntity
100
AcDbLine
  8
int
 62
256
370
-1
 48
1.0
  6
BYLAYER
 10
86.9472999999999985
 20
49.3721000000000032
 30
0.0
 11
86.9784999999999968
 21
49.125
 31
0.0
  0
LINE
  5
1DF
100
AcDbEntity
100
AcDbLine
  8
int
 62
256
370
-1
 48
1.0
  6
BYLAYER
 10
86.9784999999999968
 20
49.125
 30
0.0
 11
86.9697000000000031
 21
48.8759999999999977
 31
0.0
  0
LINE
  5
1E0
100
AcDbEntity
100
AcDbLine
  8
int
 62
256
370
-1
 48
1.0
  6
BYLAYER
 10
86.9697000000000031
 20
48.8759999999999977
 30
0.0
 11
86.9188999999999936
 21
48.6317999999999984
 31
0.0
  0
LINE
  5
1E1
100
AcDbEntity
100
AcDbLine
  8
int
 62
256
370
-1
 48
1.0
  6
BYLAYER
 10
86.9188999999999936
 20
48.6317999999999984
 30
0.0
 11
86.8290999999999968
 21
48.4003999999999976
 31
0.0
  0
LINE
  5
1E2
100
AcDbEntity
100
AcDbLine
  8
int
 62
256
370
-1
 48
1.0
  6
BYLAYER
 10
86.8290999999999968
 20
48.4003999999999976
 30
0.0
 11
86.7021000000000015
 21
48.1854999999999976
 31
0.0
  0
LINE
  5
1E3
100
AcDbEntity
100
AcDbLine
  8
int
 62
256
370
-1
 48
1.0
  6
BYLAYER
 10
86.7021000000000015
 20
48.1854999999999976
 30
0.0
 11
86.5409999999999968
 21
47.9960999999999984
 31
0.0
  0
LINE
  5
1E4
100
AcDbEntity
100
AcDbLine
  8
int
 62
256
370
-1
 48
1.0
  6
BYLAYER
 10
86.5409999999999968
 20
47.9960999999999984
 30
0.0
 11
52.5604999999999976
 21
14.0155999999999992
 31
0.0
  0
LINE
  5
1E5
100
AcDbEntity
100
AcDbLine
  8
int
 62
256
370
-1
 48
1.0
  6
BYLAYER
 10
52.5604999999999976
 20
14.0155999999999992
 30
0.0
 11
52.3682000000000016
 21
13.8524999999999991
 31
0.0
  0
LINE
  5
1E6
100
AcDbEntity
100
AcDbLine
  8
int
 62
256
370
-1
 48
1.0
  6
BYLAYER
 10
52.3682000000000016
 20
13.8524999999999991
 30
0.0
 11
52.1503999999999976
 21
13.7246000000000006
 31
0.0
  0
LINE
  5
1E7
100
AcDbEntity
100
AcDbLine
  8
int
 62
256
370
-1
 48
1.0
  6
BYLAYER
 10
52.1503999999999976
 20
13.7246000000000006
 30
0.0
 11
51.9149999999999991
 21
13.6348000000000003
 31
0.0
  0
LINE
  5
1E8
100
AcDbEntity
100
AcDbLine
  8
int
 62
256
370
-1
 48
1.0
  6
BYLAYER
 10
51.9149999999999991
 20
13.6348000000000003
 30
0.0
 11
51.6679999999999993
 21
13.5859000000000005
 31
0.0
  0
LINE
  5
1E9
100
AcDbEntity
100
AcDbLine
  8
int
 62
256
370
-1
 48
1.0
  6
BYLAYER
 10
51.6679999999999993
 20
13.5859000000000005
 30
0.0
 11
51.4159999999999968
 21
13.5780999999999992
 31
0.0
  0
LINE
  5
1EA
100
AcDbEntity
100
AcDbLine
  8
int
 62
256
370
-1
 48
1.0
  6
BYLAYER
 10
51.4159999999999968
 20
13.5780999999999992
 30
0.0
 11
51.1659999999999968
 21
13.6133000000000006
 31
0.0
  0
LINE
  5
1EB
100
AcDbEntity
100
AcDbLine
  8
int
 62
256
370
-1
 48
1.0
  6
BYLAYER
 10
268.464999999999975
 20
39.9052999999999969
 30
0.0
 11
267.6229999999999905
 21
40.1308999999999969
 31
0.0
  0
LINE
  5
1EC
100
AcDbEntity
100
AcDbLine
  8
int
 62
256
370
-1
 48
1.0
  6
BYLAYER
 10
267.6229999999999905
 20
40.1308999999999969
 30
0.0
 11
266.8340000000000032
 21
40.4990000000000023
 31
0.0
  0
LINE
  5
1ED
100
AcDbEntity
100
AcDbLine
  8
int
 62
256
370
-1
 48
1.0
  6
BYLAYER
 10
266.8340000000000032
 20
40.4990000000000023
 30
0.0
 11
266.1190000000000282
 21
40.9990000000000023
 31
0.0
  0
LINE
  5
1EE
100
AcDbEntity
100
AcDbLine
  8
int
 62
256
370
-1
 48
1.0
  6
BYLAYER
 10
266.1190000000000282
 20
40.9990000000000023
 30
0.0
 11
265.5029999999999859
 21
41.6152000000000015
 31
0.0
  0
LINE
  5
1EF
100
AcDbEntity
100
AcDbLine
  8
int
 62
256
370
-1
 48
1.0
  6
BYLAYER
 10
265.5029999999999859
 20
41.6152000000000015
 30
0.0
 11
265.0040000000000191
 21
42.3290999999999968
 31
0.0
  0
LINE
  5
1F0
100
AcDbEntity
100
AcDbLine
  8
int
 62
256
370
-1
 48
1.0
  6
BYLAYER
 10
265.0040000000000191
 20
42.3290999999999968
 30
0.0
 11
264.6349999999999909
 21
43.1191000000000031
 31
0.0
  0
LINE
  5
1F1
100
AcDbEntity
100
AcDbLine
  8
int
 62
256
370
-1
 48
1.0
  6
BYLAYER
 10
264.6349999999999909
 20
43.1191000000000031
 30
0.0
 11
264.4089999999999918
 21
43.9609000000000023
 31
0.0
  0
LINE
  5
1F2
100
AcDbEntity
100
AcDbLine
  8
int
 62
256
370
-1
 48
1.0
  6
BYLAYER
 10
264.4089999999999918
 20
43.9609000000000023
 30
0.0
 11
264.3340000000000032
 21
44.8290999999999968
 31
0.0
  0
LINE
  5
1F3
100
AcDbEntity
100
AcDbLine
  8
int
 62
256
370
-1
 48
1.0
  6
BYLAYER
 10
264.3340000000000032
 20
44.8290999999999968
 30
0.0
 11
264.4089999999999918
 21
45.6972999999999985
 31
0.0
  0
LINE
  5
1F4
100
AcDbEntity
100
AcDbLine
  8
int
 62
256
370
-1
 48
1.0
  6
BYLAYER
 10
264.4089999999999918
 20
45.6972999999999985
 30
0.0
 11
264.6349999999999909
 21
46.5390999999999977
 31
0.0
  0
LINE
  5
1F5
100
AcDbEntity
100
AcDbLine
  8
int
 62
256
370
-1
 48
1.0
  6
BYLAYER
 10
264.6349999999999909
 20
46.5390999999999977
 30
0.0
 11
265.0040000000000191
 21
47.3290999999999968
 31
0.0
  0
LINE
  5
1F6
100
AcDbEntity
100
AcDbLine
  8
int
 62
256
370
-1
 48
1.0
  6
BYLAYER
 10
265.0040000000000191
 20
47.3290999999999968
 30
0.0
 11
265.5029999999999859
 21
48.0429999999999993
 31
0.0
  0
LINE
  5
1F7
100
AcDbEntity
100
AcDbLine
  8
int
 62
256
370
-1
 48
1.0
  6
BYLAYER
 10
265.5029999999999859
 20
48.0429999999999993
 30
0.0
 11
266.1190000000000282
 21
48.6591999999999985
 31
0.0
  0
LINE
  5
1F8
100
AcDbEntity
100
AcDbLine
  8
int
 62
256
370
-1
 48
1.0
  6
BYLAYER
 10
266.1190000000000282
 20
48.6591999999999985
 30
0.0
 11
266.8340000000000032
 21
49.1591999999999985
 31
0.0
  0
LINE
  5
1F9
100
AcDbEntity
100
AcDbLine
  8
int
 62
256
370
-1
 48
1.0
  6
BYLAYER
 10
266.8340000000000032
 20
49.1591999999999985
 30
0.0
 11
267.6229999999999905
 21
49.5272999999999968
 31
0.0
  0
LINE
  5
1FA
100
AcDbEntity
100
AcDbLine
  8
int
 62
256
370
-1
 48
1.0
  6
BYLAYER
 10
267.6229999999999905
 20
49.5272999999999968
 30
0.0
 11
268.464999999999975
 21
49.7528999999999968
 31
0.0
  0
LINE
  5
1FB
100
AcDbEntity
100
AcDbLine
  8
int
 62
256
370
-1
 48
1.0
  6
BYLAYER
 10
268.464999999999975
 20
49.7528999999999968
 30
0.0
 11
269.3340000000000032
 21
49.8290999999999968
 31
0.0
  0
LINE
  5
1FC
100
AcDbEntity
100
AcDbLine
  8
int
 62
256
370
-1
 48
1.0
  6
BYLAYER
 10
269.3340000000000032
 20
49.8290999999999968
 30
0.0
 11
270.2019999999999982
 21
49.7528999999999968
 31
0.0
  0
LINE
  5
1FD
100
AcDbEntity
100
AcDbLine
  8
int
 62
256
370
-1
 48
1.0
  6
BYLAYER
 10
270.2019999999999982
 20
49.7528999999999968
 30
0.0
 11
271.0439999999999827
 21
49.5272999999999968
 31
0.0
  0
LINE
  5
1FE
100
AcDbEntity
100
AcDbLine
  8
int
 62
256
370
-1
 48
1.0
  6
BYLAYER
 10
271.0439999999999827
 20
49.5272999999999968
 30
0.0
 11
271.8340000000000032
 21
49.1591999999999985
 31
0.0
  0
LINE
  5
1FF
100
AcDbEntity
100
AcDbLine
  8
int
 62
256
370
-1
 48
1.0
  6
BYLAYER
 10
271.8340000000000032
 20
49.1591999999999985
 30
0.0
 11
272.5480000000000018
 21
48.6591999999999985
 31
0.0
  0
LINE
  5
200
100
AcDbEntity
100
AcDbLine
  8
int
 62
256
370
-1
 48
1.0
  6
BYLAYER
 10
272.5480000000000018
 20
48.6591999999999985
 30
0.0
 11
273.1639999999999873
 21
48.0429999999999993
 31
0.0
  0
LINE
  5
201
100
AcDbEntity
100
AcDbLine
  8
int
 62
256
370
-1
 48
1.0
  6
BYLAYER
 10
273.1639999999999873
 20
48.0429999999999993
 30
0.0
 11
273.6639999999999873
 21
47.3290999999999968
 31
0.0
  0
LINE
  5
202
100
AcDbEntity
100
AcDbLine
  8
int
 62
256
370
-1
 48
1.0
  6
BYLAYER
 10
273.6639999999999873
 20
47.3290999999999968
 30
0.0
 11
274.0319999999999823
 21
46.5390999999999977
 31
0.0
  0
LINE
  5
203
100
AcDbEntity
100
AcDbLine
  8
int
 62
256
370
-1
 48
1.0
  6
BYLAYER
 10
274.0319999999999823
 20
46.5390999999999977
 30
0.0
 11
274.2579999999999814
 21
45.6972999999999985
 31
0.0
  0
LINE
  5
204
100
AcDbEntity
100
AcDbLine
  8
int
 62
256
370
-1
 48
1.0
  6
BYLAYER
 10
274.2579999999999814
 20
45.6972999999999985
 30
0.0
 11
274.3340000000000032
 21
44.8290999999999968
 31
0.0
  0
LINE
  5
205
100
AcDbEntity
100
AcDbLine
  8
int
 62
256
370
-1
 48
1.0
  6
BYLAYER
 10
274.3340000000000032
 20
44.8290999999999968
 30
0.0
 11
274.2579999999999814
 21
43.9609000000000023
 31
0.0
  0
LINE
  5
206
100
AcDbEntity
100
AcDbLine
  8
int
 62
256
370
-1
 48
1.0
  6
BYLAYER
 10
274.2579999999999814
 20
43.9609000000000023
 30
0.0
 11
274.0319999999999823
 21
43.1191000000000031
 31
0.0
  0
LINE
  5
207
100
AcDbEntity
100
AcDbLine
  8
int
 62
256
370
-1
 48
1.0
  6
BYLAYER
 10
274.0319999999999823
 20
43.1191000000000031
 30
0.0
 11
273.6639999999999873
 21
42.3290999999999968
 31
0.0
  0
LINE
  5
208
100
AcDbEntity
100
AcDbLine
  8
int
 62
256
370
-1
 48
1.0
  6
BYLAYER
 10
273.6639999999999873
 20
42.3290999999999968
 30
0.0
 11
273.1639999999999873
 21
41.6152000000000015
 31
0.0
  0
LINE
  5
209
100
AcDbEntity
100
AcDbLine
  8
int
 62
256
370
-1
 48
1.0
  6
BYLAYER
 10
273.1639999999999873
 20
41.6152000000000015
 30
0.0
 11
272.5480000000000018
 21
40.9990000000000023
 31
0.0
  0
LINE
  5
20A
100
AcDbEntity
100
AcDbLine
  8
int
 62
256
370
-1
 48
1.0
  6
BYLAYER
 10
272.5480000000000018
 20
40.9990000000000023
 30
0.0
 11
271.8340000000000032
 21
40.4990000000000023
 31
0.0
  0
LINE
  5
20B
100
AcDbEntity
100
AcDbLine
  8
int
 62
256
370
-1
 48
1.0
  6
BYLAYER
 10
271.8340000000000032
 20
40.4990000000000023
 30
0.0
 11
271.0439999999999827
 21
40.1308999999999969
 31
0.0
  0
LINE
  5
20C
100
AcDbEntity
100
AcDbLine
  8
int
 62
256
370
-1
 48
1.0
  6
BYLAYER
 10
271.0439999999999827
 20
40.1308999999999969
 30
0.0
 11
270.2019999999999982
 21
39.9052999999999969
 31
0.0
  0
LINE
  5
20D
100
AcDbEntity
100
AcDbLine
  8
int
 62
256
370
-1
 48
1.0
  6
BYLAYER
 10
270.2019999999999982
 20
39.9052999999999969
 30
0.0
 11
269.3340000000000032
 21
39.8290999999999968
 31
0.0
  0
LINE
  5
20E
100
AcDbEntity
100
AcDbLine
  8
int
 62
256
370
-1
 48
1.0
  6
BYLAYER
 10
269.3340000000000032
 20
39.8290999999999968
 30
0.0
 11
268.464999999999975
 21
39.9052999999999969
 31
0.0
  0
LINE
  5
20F
100
AcDbEntity
100
AcDbLine
  8
int
 62
256
370
-1
 48
1.0
  6
BYLAYER
 10
289.478999999999985
 20
39.0459000000000032
 30
0.0
 11
288.9739999999999895
 21
39.1807000000000016
 31
0.0
  0
LINE
  5
210
100
AcDbEntity
100
AcDbLine
  8
int
 62
256
370
-1
 48
1.0
  6
BYLAYER
 10
288.9739999999999895
 20
39.1807000000000016
 30
0.0
 11
288.5
 21
39.4022999999999968
 31
0.0
  0
LINE
  5
211
100
AcDbEntity
100
AcDbLine
  8
int
 62
256
370
-1
 48
1.0
  6
BYLAYER
 10
288.5
 20
39.4022999999999968
 30
0.0
 11
288.0710000000000264
 21
39.7021000000000015
 31
0.0
  0
LINE
  5
212
100
AcDbEntity
100
AcDbLine
  8
int
 62
256
370
-1
 48
1.0
  6
BYLAYER
 10
288.0710000000000264
 20
39.7021000000000015
 30
0.0
 11
287.7019999999999982
 21
40.0713000000000008
 31
0.0
  0
LINE
  5
213
100
AcDbEntity
100
AcDbLine
  8
int
 62
256
370
-1
 48
1.0
  6
BYLAYER
 10
287.7019999999999982
 20
40.0713000000000008
 30
0.0
 11
287.4019999999999868
 21
40.5
 31
0.0
  0
LINE
  5
214
100
AcDbEntity
100
AcDbLine
  8
int
 62
256
370
-1
 48
1.0
  6
BYLAYER
 10
287.4019999999999868
 20
40.5
 30
0.0
 11
287.1809999999999832
 21
40.9735999999999976
 31
0.0
  0
LINE
  5
215
100
AcDbEntity
100
AcDbLine
  8
int
 62
256
370
-1
 48
1.0
  6
BYLAYER
 10
287.1809999999999832
 20
40.9735999999999976
 30
0.0
 11
287.0459999999999923
 21
41.4795000000000016
 31
0.0
  0
LINE
  5
216
100
AcDbEntity
100
AcDbLine
  8
int
 62
256
370
-1
 48
1.0
  6
BYLAYER
 10
287.0459999999999923
 20
41.4795000000000016
 30
0.0
 11
287.0
 21
42.0
 31
0.0
  0
LINE
  5
217
100
AcDbEntity
100
AcDbLine
  8
int
 62
256
370
-1
 48
1.0
  6
BYLAYER
 10
287.0
 20
42.0
 30
0.0
 11
287.0459999999999923
 21
42.5204999999999984
 31
0.0
  0
LINE
  5
218
100
AcDbEntity
100
AcDbLine
  8
int
 62
256
370
-1
 48
1.0
  6
BYLAYER
 10
287.0459999999999923
 20
42.5204999999999984
 30
0.0
 11
287.1809999999999832
 21
43.0264000000000024
 31
0.0
  0
LINE
  5
219
100
AcDbEntity
100
AcDbLine
  8
int
 62
256
370
-1
 48
1.0
  6
BYLAYER
 10
287.1809999999999832
 20
43.0264000000000024
 30
0.0
 11
287.4019999999999868
 21
43.5
 31
0.0
  0
LINE
  5
21A
100
AcDbEntity
100
AcDbLine
  8
int
 62
256
370
-1
 48
1.0
  6
BYLAYER
 10
287.4019999999999868
 20
43.5
 30
0.0
 11
287.7019999999999982
 21
43.9286999999999992
 31
0.0
  0
LINE
  5
21B
100
AcDbEntity
100
AcDbLine
  8
int
 62
256
370
-1
 48
1.0
  6
BYLAYER
 10
287.7019999999999982
 20
43.9286999999999992
 30
0.0
 11
288.0710000000000264
 21
44.2978999999999985
 31
0.0
  0
LINE
  5
21C
100
AcDbEntity
100
AcDbLine
  8
int
 62
256
370
-1
 48
1.0
  6
BYLAYER
 10
288.0710000000000264
 20
44.2978999999999985
 30
0.0
 11
288.5
 21
44.5977000000000032
 31
0.0
  0
LINE
  5
21D
100
AcDbEntity
100
AcDbLine
  8
int
 62
256
370
-1
 48
1.0
  6
BYLAYER
 10
288.5
 20
44.5977000000000032
 30
0.0
 11
288.9739999999999895
 21
44.8192999999999984
 31
0.0
  0
LINE
  5
21E
100
AcDbEntity
100
AcDbLine
  8
int
 62
256
370
-1
 48
1.0
  6
BYLAYER
 10
288.9739999999999895
 20
44.8192999999999984
 30
0.0
 11
289.478999999999985
 21
44.9540999999999968
 31
0.0
  0
LINE
  5
21F
100
AcDbEntity
100
AcDbLine
  8
int
 62
256
370
-1
 48
1.0
  6
BYLAYER
 10
289.478999999999985
 20
44.9540999999999968
 30
0.0
 11
290.0
 21
45.0
 31
0.0
  0
LINE
  5
220
100
AcDbEntity
100
AcDbLine
  8
int
 62
256
370
-1
 48
1.0
  6
BYLAYER
 10
290.0
 20
45.0
 30
0.0
 11
290.521000000000015
 21
44.9540999999999968
 31
0.0
  0
LINE
  5
221
100
AcDbEntity
100
AcDbLine
  8
int
 62
256
370
-1
 48
1.0
  6
BYLAYER
 10
290.521000000000015
 20
44.9540999999999968
 30
0.0
 11
291.0260000000000105
 21
44.8192999999999984
 31
0.0
  0
LINE
  5
222
100
AcDbEntity
100
AcDbLine
  8
int
 62
256
370
-1
 48
1.0
  6
BYLAYER
 10
291.0260000000000105
 20
44.8192999999999984
 30
0.0
 11
291.5
 21
44.5977000000000032
 31
0.0
  0
LINE
  5
223
100
AcDbEntity
100
AcDbLine
  8
int
 62
256
370
-1
 48
1.0
  6
BYLAYER
 10
291.5
 20
44.5977000000000032
 30
0.0
 11
291.9289999999999736
 21
44.2978999999999985
 31
0.0
  0
LINE
  5
224
100
AcDbEntity
100
AcDbLine
  8
int
 62
256
370
-1
 48
1.0
  6
BYLAYER
 10
291.9289999999999736
 20
44.2978999999999985
 30
0.0
 11
292.2980000000000018
 21
43.9286999999999992
 31
0.0
  0
LINE
  5
225
100
AcDbEntity
100
AcDbLine
  8
int
 62
256
370
-1
 48
1.0
  6
BYLAYER
 10
292.2980000000000018
 20
43.9286999999999992
 30
0.0
 11
292.5980000000000132
 21
43.5
 31
0.0
  0
LINE
  5
226
100
AcDbEntity
100
AcDbLine
  8
int
 62
256
370
-1
 48
1.0
  6
BYLAYER
 10
292.5980000000000132
 20
43.5
 30
0.0
 11
292.8190000000000168
 21
43.0264000000000024
 31
0.0
  0
LINE
  5
227
100
AcDbEntity
100
AcDbLine
  8
int
 62
256
370
-1
 48
1.0
  6
BYLAYER
 10
292.8190000000000168
 20
43.0264000000000024
 30
0.0
 11
292.9540000000000077
 21
42.5204999999999984
 31
0.0
  0
LINE
  5
228
100
AcDbEntity
100
AcDbLine
  8
int
 62
256
370
-1
 48
1.0
  6
BYLAYER
 10
292.9540000000000077
 20
42.5204999999999984
 30
0.0
 11
293.0
 21
42.0
 31
0.0
  0
LINE
  5
229
100
AcDbEntity
100
AcDbLine
  8
int
 62
256
370
-1
 48
1.0
  6
BYLAYER
 10
293.0
 20
42.0
 30
0.0
 11
292.9540000000000077
 21
41.4795000000000016
 31
0.0
  0
LINE
  5
22A
100
AcDbEntity
100
AcDbLine
  8
int
 62
256
370
-1
 48
1.0
  6
BYLAYER
 10
292.9540000000000077
 20
41.4795000000000016
 30
0.0
 11
292.8190000000000168
 21
40.9735999999999976
 31
0.0
  0
LINE
  5
22B
100
AcDbEntity
100
AcDbLine
  8
int
 62
256
370
-1
 48
1.0
  6
BYLAYER
 10
292.8190000000000168
 20
40.9735999999999976
 30
0.0
 11
292.5980000000000132
 21
40.5
 31
0.0
  0
LINE
  5
22C
100
AcDbEntity
100
AcDbLine
  8
int
 62
256
370
-1
 48
1.0
  6
BYLAYER
 10
292.5980000000000132
 20
40.5
 30
0.0
 11
292.2980000000000018
 21
40.0713000000000008
 31
0.0
  0
LINE
  5
22D
100
AcDbEntity
100
AcDbLine
  8
int
 62
256
370
-1
 48
1.0
  6
BYLAYER
 10
292.2980000000000018
 20
40.0713000000000008
 30
0.0
 11
291.9289999999999736
 21
39.7021000000000015
 31
0.0
  0
LINE
  5
22E
100
AcDbEntity
100
AcDbLine
  8
int
 62
256
370
-1
 48
1.0
  6
BYLAYER
 10
291.9289999999999736
 20
39.7021000000000015
 30
0.0
 11
291.5
 21
39.4022999999999968
 31
0.0
  0
LINE
  5
22F
100
AcDbEntity
100
AcDbLine
  8
int
 62
256
370
-1
 48
1.0
  6
BYLAYER
 10
291.5
 20
39.4022999999999968
 30
0.0
 11
291.0260000000000105
 21
39.1807000000000016
 31
0.0
  0
LINE
  5
230
100
AcDbEntity
100
AcDbLine
  8
int
 62
256
370
-1
 48
1.0
  6
BYLAYER
 10
291.0260000000000105
 20
39.1807000000000016
 30
0.0
 11
290.521000000000015
 21
39.0459000000000032
 31
0.0
  0
LINE
  5
231
100
AcDbEntity
100
AcDbLine
  8
int
 62
256
370
-1
 48
1.0
  6
BYLAYER
 10
290.521000000000015
 20
39.0459000000000032
 30
0.0
 11
290.0
 21
39.0
 31
0.0
  0
LINE
  5
232
100
AcDbEntity
100
AcDbLine
  8
int
 62
256
370
-1
 48
1.0
  6
BYLAYER
 10
290.0
 20
39.0
 30
0.0
 11
289.478999999999985
 21
39.0459000000000032
 31
0.0
  0
ENDBLK
  5
233
100
AcDbEntity
  8
0
100
AcDbBlockEnd
  0
ENDSEC
  0
SECTION
  2
ENTITIES
  0
INSERT
  5
234
100
AcDbEntity
100
AcDbBlockReference
  8
0
 62
256
370
-1
 48
1.0
  6
BYLAYER
  2
bras
 10
0.0
 20
0.0
 30
0.0
  0
ENDSEC
  0
SECTION
  2
OBJECTS
  0
DICTIONARY
  5
C
100
AcDbDictionary
280
0
281
1
  3
ACAD_GROUP
350
D
  3
ACAD_LAYOUT
350
1A
  3
ACAD_MLINESTYLE
350
17
  3
ACAD_PLOTSETTINGS
350
19
  3
ACAD_PLOTSTYLENAME
350
E
  3
AcDbVariableDictionary
350
235
  3
QCAD_OBJECTS
350
236
  0
DICTIONARY
  5
D
100
AcDbDictionary
280
0
281
1
  0
ACDBDICTIONARYWDFLT
  5
E
100
AcDbDictionary
281
1
  3
Normal
350
F
100
AcDbDictionaryWithDefault
340
F
  0
ACDBPLACEHOLDER
  5
F
  0
DICTIONARY
  5
17
100
AcDbDictionary
280
0
281
1
  3
Standard
350
18
  0
MLINESTYLE
  5
18
100
AcDbMlineStyle
  2
STANDARD
 70
0
  3

 62
256
 51
90.0
 52
90.0
 71
2
 49
0.5
 62
256
  6
BYLAYER
 49
-0.5
 62
256
  6
BYLAYER
  0
DICTIONARY
  5
19
100
AcDbDictionary
280
0
281
1
  0
DICTIONARY
  5
1A
100
AcDbDictionary
281
1
  3
Layout1
350
1E
  3
Layout2
350
26
  3
Model
350
22
  0
LAYOUT
  5
1E
100
AcDbPlotSettings
  1

  2
none_device
  4

  6

 40
0.0
 41
0.0
 42
0.0
 43
0.0
 44
0.0
 45
0.0
 46
0.0
 47
0.0
 48
0.0
 49
0.0
140
0.0
141
0.0
142
1.0
143
1.0
 70
688
 72
0
 73
0
 74
5
  7

 75
16
147
1.0
148
0.0
149
0.0
100
AcDbLayout
  1
Layout1
 70
1
 71
1
 10
0.0
 20
0.0
 11
420.0
 21
297.0
 12
0.0
 22
0.0
 32
0.0
 14
100000000000000000000.0
 24
100000000000000000000.0
 34
100000000000000000000.0
 15
-100000000000000000000.0
 25
-100000000000000000000.0
 35
-100000000000000000000.0
146
0.0
 13
0.0
 23
0.0
 33
0.0
 16
1.0
 26
0.0
 36
0.0
 17
0.0
 27
1.0
 37
0.0
 76
0
330
1B
  0
LAYOUT
  5
22
100
AcDbPlotSettings
  1

  2
none_device
  4

  6

 40
0.0
 41
0.0
 42
0.0
 43
0.0
 44
0.0
 45
0.0
 46
0.0
 47
0.0
 48
0.0
 49
0.0
140
0.0
141
0.0
142
1.0
143
1.0
 70
1712
 72
0
 73
0
 74
0
  7

 75
0
147
1.0
148
0.0
149
0.0
100
AcDbLayout
  1
Model
 70
1
 71
0
 10
0.0
 20
0.0
 11
12.0
 21
9.0
 12
0.0
 22
0.0
 32
0.0
 14
0.0
 24
0.0
 34
0.0
 15
0.0
 25
0.0
 35
0.0
146
0.0
 13
0.0
 23
0.0
 33
0.0
 16
1.0
 26
0.0
 36
0.0
 17
0.0
 27
1.0
 37
0.0
 76
0
330
1F
  0
LAYOUT
  5
26
100
AcDbPlotSettings
  1

  2
none_device
  4

  6

 40
0.0
 41
0.0
 42
0.0
 43
0.0
 44
0.0
 45
0.0
 46
0.0
 47
0.0
 48
0.0
 49
0.0
140
0.0
141
0.0
142
1.0
143
1.0
 70
688
 72
0
 73
0
 74
5
  7

 75
16
147
1.0
148
0.0
149
0.0
100
AcDbLayout
  1
Layout2
 70
1
 71
2
 10
0.0
 20
0.0
 11
12.0
 21
9.0
 12
0.0
 22
0.0
 32
0.0
 14
0.0
 24
0.0
 34
0.0
 15
0.0
 25
0.0
 35
0.0
146
0.0
 13
0.0
 23
0.0
 33
0.0
 16
1.0
 26
0.0
 36
0.0
 17
0.0
 27
1.0
 37
0.0
 76
0
330
23
  0
DICTIONARY
  5
235
100
AcDbDictionary
281
1
  3
DIMASSOC
350
238
  3
HIDETEXT
350
237
  0
DICTIONARYVAR
  5
237
100
DictionaryVariables
280
0
  1
2
  0
DICTIONARYVAR
  5
238
100
DictionaryVariables
280
0
  1
1
  0
DICTIONARY
  5
236
100
AcDbDictionary
281
1
  3
ColorSettings/BackgroundColor
350
239
  3
ColorSettings/ColorMode
350
23A
  3
Grid/DisplayGrid00
350
23B
  3
Grid/DisplayGrid01
350
23C
  3
Grid/DisplayGrid02
350
23D
  3
Grid/DisplayGrid03
350
23E
  3
Grid/GridSpacingX00
350
23F
  3
Grid/GridSpacingX01
350
240
  3
Grid/GridSpacingX02
350
241
  3
Grid/GridSpacingX03
350
242
  3
Grid/GridSpacingY00
350
243
  3
Grid/GridSpacingY01
350
244
  3
Grid/GridSpacingY02
350
245
  3
Grid/GridSpacingY03
350
246
  3
Grid/IsometricGrid00
350
247
  3
Grid/IsometricGrid01
350
248
  3
Grid/IsometricGrid02
350
249
  3
Grid/IsometricGrid03
350
24A
  3
Grid/IsometricProjection00
350
24B
  3
Grid/IsometricProjection01
350
24C
  3
Grid/IsometricProjection02
350
24D
  3
Grid/IsometricProjection03
350
24E
  3
Grid/MetaGridSpacingX00
350
24F
  3
Grid/MetaGridSpacingX01
350
250
  3
Grid/MetaGridSpacingX02
350
251
  3
Grid/MetaGridSpacingX03
350
252
  3
Grid/MetaGridSpacingY00
350
253
  3
Grid/MetaGridSpacingY01
350
254
  3
Grid/MetaGridSpacingY02
350
255
  3
Grid/MetaGridSpacingY03
350
256
  3
MultiPageSettings/Columns
350
257
  3
MultiPageSettings/GlueMarginsBottom
350
258
  3
MultiPageSettings/GlueMarginsLeft
350
259
  3
MultiPageSettings/GlueMarginsRight
350
25A
  3
MultiPageSettings/GlueMarginsTop
350
25B
  3
MultiPageSettings/PrintCropMarks
350
25C
  3
MultiPageSettings/Rows
350
25D
  3
PageSettings/OffsetX
350
25E
  3
PageSettings/OffsetY
350
25F
  3
PageSettings/PageOrientation
350
260
  3
PageSettings/PaperHeight
350
261
  3
PageSettings/PaperWidth
350
262
  3
PageSettings/Scale
350
263
  3
PageSettings/ShowPaperBorders
350
264
  3
QCADVersion
350
265
  3
UnitSettings/PaperUnit
350
266
  3
ViewportCenter
350
267
  3
ViewportHeight
350
268
  3
ViewportWidth
350
269
  0
XRECORD
  5
239
330
236
100
AcDbXrecord
280
1
1000
Blanc
  0
XRECORD
  5
23A
330
236
100
AcDbXrecord
280
1
1000
FullColor
  0
XRECORD
  5
23B
330
236
100
AcDbXrecord
280
1
290
1
  0
XRECORD
  5
23C
330
236
100
AcDbXrecord
280
1
290
1
  0
XRECORD
  5
23D
330
236
100
AcDbXrecord
280
1
290
1
  0
XRECORD
  5
23E
330
236
100
AcDbXrecord
280
1
290
1
  0
XRECORD
  5
23F
330
236
100
AcDbXrecord
280
1
1000
auto
  0
XRECORD
  5
240
330
236
100
AcDbXrecord
280
1
1000
auto
  0
XRECORD
  5
241
330
236
100
AcDbXrecord
280
1
1000
auto
  0
XRECORD
  5
242
330
236
100
AcDbXrecord
280
1
1000
auto
  0
XRECORD
  5
243
330
236
100
AcDbXrecord
280
1
1000
auto
  0
XRECORD
  5
244
330
236
100
AcDbXrecord
280
1
1000
auto
  0
XRECORD
  5
245
330
236
100
AcDbXrecord
280
1
1000
auto
  0
XRECORD
  5
246
330
236
100
AcDbXrecord
280
1
1000
auto
  0
XRECORD
  5
247
330
236
100
AcDbXrecord
280
1
290
0
  0
XRECORD
  5
248
330
236
100
AcDbXrecord
280
1
290
0
  0
XRECORD
  5
249
330
236
100
AcDbXrecord
280
1
290
0
  0
XRECORD
  5
24A
330
236
100
AcDbXrecord
280
1
290
0
  0
XRECORD
  5
24B
330
236
100
AcDbXrecord
280
1
 90
0
  0
XRECORD
  5
24C
330
236
100
AcDbXrecord
280
1
 90
0
  0
XRECORD
  5
24D
330
236
100
AcDbXrecord
280
1
 90
0
  0
XRECORD
  5
24E
330
236
100
AcDbXrecord
280
1
 90
0
  0
XRECORD
  5
24F
330
236
100
AcDbXrecord
280
1
1000
auto
  0
XRECORD
  5
250
330
236
100
AcDbXrecord
280
1
1000
auto
  0
XRECORD
  5
251
330
236
100
AcDbXrecord
280
1
1000
auto
  0
XRECORD
  5
252
330
236
100
AcDbXrecord
280
1
1000
auto
  0
XRECORD
  5
253
330
236
100
AcDbXrecord
280
1
1000
auto
  0
XRECORD
  5
254
330
236
100
AcDbXrecord
280
1
1000
auto
  0
XRECORD
  5
255
330
236
100
AcDbXrecord
280
1
1000
auto
  0
XRECORD
  5
256
330
236
100
AcDbXrecord
280
1
1000
auto
  0
XRECORD
  5
257
330
236
100
AcDbXrecord
280
1
 90
1
  0
XRECORD
  5
258
330
236
100
AcDbXrecord
280
1
 40
10.0
  0
XRECORD
  5
259
330
236
100
AcDbXrecord
280
1
 40
10.0
  0
XRECORD
  5
25A
330
236
100
AcDbXrecord
280
1
 40
10.0
  0
XRECORD
  5
25B
330
236
100
AcDbXrecord
280
1
 40
10.0
  0
XRECORD
  5
25C
330
236
100
AcDbXrecord
280
1
290
0
  0
XRECORD
  5
25D
330
236
100
AcDbXrecord
280
1
 90
1
  0
XRECORD
  5
25E
330
236
100
AcDbXrecord
280
1
 40
0.0
  0
XRECORD
  5
25F
330
236
100
AcDbXrecord
280
1
 40
0.0
  0
XRECORD
  5
260
330
236
100
AcDbXrecord
280
1
1000
Portrait
  0
XRECORD
  5
261
330
236
100
AcDbXrecord
280
1
 40
297.0
  0
XRECORD
  5
262
330
236
100
AcDbXrecord
280
1
 40
210.0
  0
XRECORD
  5
263
330
236
100
AcDbXrecord
280
1
1000
1:1
  0
XRECORD
  5
264
330
236
100
AcDbXrecord
280
1
290
1
  0
XRECORD
  5
265
330
236
100
AcDbXrecord
280
1
1000
3.15.5
  0
XRECORD
  5
266
330
236
100
AcDbXrecord
280
1
 90
4
  0
XRECORD
  5
268
330
236
100
AcDbXrecord
280
1
 40
230.2478873239436439
  0
XRECORD
  5
269
330
236
100
AcDbXrecord
280
1
 40
358.056338028168966
  0
ENDSEC
  0
EOF
