999
dxflib 3.12.2.0
  0
SECTION
  2
HEADER
  9
$ACADVER
  1
AC1015
  9
$HANDSEED
  5
FFFF
  9
$DIMADEC
 70
3
  9
$DIMASZ
 40
0.18
  9
$DIMAUNIT
 70
0
  9
$DIMAZIN
 70
0
  9
$DIMDEC
 70
4
  9
$DIMEXE
 40
0.18
  9
$DIMEXO
 40
0.0625
  9
$DIMGAP
 40
0.09
  9
$DIMLUNIT
 70
2
  9
$DIMSCALE
 40
1.0
  9
$DIMTSZ
 40
0.0
  9
$DIMTXT
 40
0.18
  9
$DIMZIN
 70
0
  9
$DWGCODEPAGE
  3
ANSI_1252
  9
$INSUNITS
 70
0
  9
$LTSCALE
 40
1.0
  9
$MEASUREMENT
 70
1
  9
$PDMODE
 70
0
  9
$PDSIZE
 40
0
  0
ENDSEC
  0
SECTION
  2
TABLES
  0
TABLE
  2
VPORT
  5
8
100
AcDbSymbolTable
 70
1
  0
VPORT
  5
30
100
AcDbSymbolTableRecord
100
AcDbViewportTableRecord
  2
*Active
 70
0
 10
0.0
 20
0.0
 11
1.0
 21
1.0
 12
286.3055555555554861
 22
148.5
 13
0.0
 23
0.0
 14
10.0
 24
10.0
 15
10.0
 25
10.0
 16
0.0
 26
0.0
 36
1.0
 17
0.0
 27
0.0
 37
0.0
 40
297.0
 41
1.92798353909465
 42
50.0
 43
0.0
 44
0.0
 50
0.0
 51
0.0
 71
0
 72
100
 73
1
 74
3
 75
1
 76
1
 77
0
 78
0
281
0
 65
1
110
0.0
120
0.0
130
0.0
111
1.0
121
0.0
131
0.0
112
0.0
122
1.0
132
0.0
 79
0
146
0.0
  0
ENDTAB
  0
TABLE
  2
LTYPE
  5
5
100
AcDbSymbolTable
 70
41
  0
LTYPE
  5
16
100
AcDbSymbolTableRecord
100
AcDbLinetypeTableRecord
  2
Continuous
 70
0
  3
Solid line
 72
65
 73
0
 40
0.0
  0
LTYPE
  5
31
100
AcDbSymbolTableRecord
100
AcDbLinetypeTableRecord
  2
ACAD_ISO15W100
 70
0
  3
ISO double-dash triple-dot __ __ . . . __ __ . .
 72
65
 73
10
 40
39.0
 49
12.0
 74
0
 49
-3.0
 74
0
 49
12.0
 74
0
 49
-2.9500000000000002
 74
0
 49
0.1
 74
0
 49
-2.9000000000000004
 74
0
 49
0.1
 74
0
 49
-2.9000000000000004
 74
0
 49
0.1
 74
0
 49
-2.9500000000000002
 74
0
  0
LTYPE
  5
32
100
AcDbSymbolTableRecord
100
AcDbLinetypeTableRecord
  2
DIVIDE
 70
0
  3
Divide ____ . . ____ . . ____ . . ____ . . ____
 72
65
 73
6
 40
31.75
 49
12.6999999999999993
 74
0
 49
-6.2999999999999998
 74
0
 49
0.1
 74
0
 49
-6.25
 74
0
 49
0.1
 74
0
 49
-6.2999999999999998
 74
0
  0
LTYPE
  5
33
100
AcDbSymbolTableRecord
100
AcDbLinetypeTableRecord
  2
ACAD_ISO10W100
 70
0
  3
ISO dash dot __ . __ . __ . __ . __ . __ . __ . 
 72
65
 73
4
 40
18.0
 49
12.0
 74
0
 49
-2.9500000000000002
 74
0
 49
0.1
 74
0
 49
-2.9500000000000002
 74
0
  0
LTYPE
  5
34
100
AcDbSymbolTableRecord
100
AcDbLinetypeTableRecord
  2
ACAD_ISO04W100
 70
0
  3
ISO long-dash dot ____ . ____ . ____ . ____ . _
 72
65
 73
4
 40
30.0
 49
24.0
 74
0
 49
-2.9500000000000002
 74
0
 49
0.1
 74
0
 49
-2.9500000000000002
 74
0
  0
LTYPE
  5
35
100
AcDbSymbolTableRecord
100
AcDbLinetypeTableRecord
  2
CENTER2
 70
0
  3
Center (.5x) ___ _ ___ _ ___ _ ___ _ ___ _ ___
 72
65
 73
4
 40
28.5749999999999993
 49
19.0500000000000007
 74
0
 49
-3.1749999999999998
 74
0
 49
3.1749999999999998
 74
0
 49
-3.1749999999999998
 74
0
  0
LTYPE
  5
36
100
AcDbSymbolTableRecord
100
AcDbLinetypeTableRecord
  2
ACAD_ISO11W100
 70
0
  3
ISO double-dash dot __ __ . __ __ . __ __ . __ _
 72
65
 73
6
 40
33.0
 49
12.0
 74
0
 49
-3.0
 74
0
 49
12.0
 74
0
 49
-2.9500000000000002
 74
0
 49
0.1
 74
0
 49
-2.9500000000000002
 74
0
  0
LTYPE
  5
37
100
AcDbSymbolTableRecord
100
AcDbLinetypeTableRecord
  2
HIDDEN2
 70
0
  3
Hidden (.5x) _ _ _ _ _ _ _ _ _ _ _ _ _ _ _ _ _ 
 72
65
 73
2
 40
4.7624999999999993
 49
3.1749999999999998
 74
0
 49
-1.5874999999999999
 74
0
  0
LTYPE
  5
38
100
AcDbSymbolTableRecord
100
AcDbLinetypeTableRecord
  2
BORDERX2
 70
0
  3
Border (2x) ____  ____  .  ____  ____  .  ___
 72
65
 73
6
 40
88.8999999999999915
 49
25.3999999999999986
 74
0
 49
-12.6999999999999993
 74
0
 49
25.3999999999999986
 74
0
 49
-12.6499999999999986
 74
0
 49
0.1
 74
0
 49
-12.6499999999999986
 74
0
  0
LTYPE
  5
39
100
AcDbSymbolTableRecord
100
AcDbLinetypeTableRecord
  2
ACAD_ISO05W100
 70
0
  3
ISO long-dash double-dot ____ .. ____ .. ____ . 
 72
65
 73
6
 40
33.0
 49
24.0
 74
0
 49
-2.9500000000000002
 74
0
 49
0.1
 74
0
 49
-2.9000000000000004
 74
0
 49
0.1
 74
0
 49
-2.9500000000000002
 74
0
  0
LTYPE
  5
3A
100
AcDbSymbolTableRecord
100
AcDbLinetypeTableRecord
  2
DASHDOTX2
 70
0
  3
Dash dot (2x) ____  .  ____  .  ____  .  ___
 72
65
 73
4
 40
50.7999999999999972
 49
25.3999999999999986
 74
0
 49
-12.6499999999999986
 74
0
 49
0.1
 74
0
 49
-12.6499999999999986
 74
0
  0
LTYPE
  5
3B
100
AcDbSymbolTableRecord
100
AcDbLinetypeTableRecord
  2
HIDDENX2
 70
0
  3
Hidden (2x) ____ ____ ____ ____ ____ ____ ____ 
 72
65
 73
2
 40
19.0499999999999972
 49
12.6999999999999993
 74
0
 49
-6.3499999999999996
 74
0
  0
LTYPE
  5
3C
100
AcDbSymbolTableRecord
100
AcDbLinetypeTableRecord
  2
CENTERX2
 70
0
  3
Center (2x) ________  __  ________  __  _____
 72
65
 73
4
 40
101.5999999999999943
 49
63.5
 74
0
 49
-12.6999999999999993
 74
0
 49
12.6999999999999993
 74
0
 49
-12.6999999999999993
 74
0
  0
LTYPE
  5
3D
100
AcDbSymbolTableRecord
100
AcDbLinetypeTableRecord
  2
BORDER2
 70
0
  3
Border (.5x) __.__.__.__.__.__.__.__.__.__.__.
 72
65
 73
6
 40
22.2249999999999979
 49
6.3499999999999996
 74
0
 49
-3.1749999999999998
 74
0
 49
6.3499999999999996
 74
0
 49
-3.125
 74
0
 49
0.1
 74
0
 49
-3.125
 74
0
  0
LTYPE
  5
3E
100
AcDbSymbolTableRecord
100
AcDbLinetypeTableRecord
  2
DASHDOT2
 70
0
  3
Dash dot (.5x) _._._._._._._._._._._._._._._.
 72
65
 73
4
 40
12.6999999999999993
 49
6.3499999999999996
 74
0
 49
-3.125
 74
0
 49
0.1
 74
0
 49
-3.125
 74
0
  0
LTYPE
  5
3F
100
AcDbSymbolTableRecord
100
AcDbLinetypeTableRecord
  2
ACAD_ISO12W100
 70
0
  3
ISO dash double-dot __ . . __ . . __ . . __ . . 
 72
65
 73
6
 40
21.0
 49
12.0
 74
0
 49
-2.9500000000000002
 74
0
 49
0.1
 74
0
 49
-2.9000000000000004
 74
0
 49
0.1
 74
0
 49
-2.9500000000000002
 74
0
  0
LTYPE
  5
40
100
AcDbSymbolTableRecord
100
AcDbLinetypeTableRecord
  2
ACAD_ISO07W100
 70
0
  3
ISO dot . . . . . . . . . . . . . . . . . . . . 
 72
65
 73
2
 40
3.0
 49
0.1
 74
0
 49
-2.8999999999999999
 74
0
  0
LTYPE
  5
41
100
AcDbSymbolTableRecord
100
AcDbLinetypeTableRecord
  2
HIDDEN
 70
0
  3
Hidden __ __ __ __ __ __ __ __ __ __ __ __ __ __
 72
65
 73
2
 40
9.5249999999999986
 49
6.3499999999999996
 74
0
 49
-3.1749999999999998
 74
0
  0
LTYPE
  5
42
100
AcDbSymbolTableRecord
100
AcDbLinetypeTableRecord
  2
ACAD_ISO06W100
 70
0
  3
ISO long-dash triple-dot ____ ... ____ ... ____
 72
65
 73
8
 40
36.0
 49
24.0
 74
0
 49
-2.9500000000000002
 74
0
 49
0.1
 74
0
 49
-2.9000000000000004
 74
0
 49
0.1
 74
0
 49
-2.9000000000000004
 74
0
 49
0.1
 74
0
 49
-2.9500000000000002
 74
0
  0
LTYPE
  5
43
100
AcDbSymbolTableRecord
100
AcDbLinetypeTableRecord
  2
CENTER
 70
0
  3
Center ____ _ ____ _ ____ _ ____ _ ____ _ ____
 72
65
 73
4
 40
50.7999999999999972
 49
31.75
 74
0
 49
-6.3499999999999996
 74
0
 49
6.3499999999999996
 74
0
 49
-6.3499999999999996
 74
0
  0
LTYPE
  5
44
100
AcDbSymbolTableRecord
100
AcDbLinetypeTableRecord
  2
DOTX2
 70
0
  3
Dot (2x) .  .  .  .  .  .  .  .  .  .  .  .  .  .
 72
65
 73
2
 40
12.6999999999999993
 49
0.1
 74
0
 49
-12.5999999999999996
 74
0
  0
LTYPE
  5
45
100
AcDbSymbolTableRecord
100
AcDbLinetypeTableRecord
  2
PHANTOM
 70
0
  3
Phantom ______  __  __  ______  __  __  ______ 
 72
65
 73
6
 40
63.5
 49
31.75
 74
0
 49
-6.3499999999999996
 74
0
 49
6.3499999999999996
 74
0
 49
-6.3499999999999996
 74
0
 49
6.3499999999999996
 74
0
 49
-6.3499999999999996
 74
0
  0
LTYPE
  5
46
100
AcDbSymbolTableRecord
100
AcDbLinetypeTableRecord
  2
ACAD_ISO08W100
 70
0
  3
ISO long-dash short-dash ____ __ ____ __ ____ _
 72
65
 73
4
 40
36.0
 49
24.0
 74
0
 49
-3.0
 74
0
 49
6.0
 74
0
 49
-3.0
 74
0
  0
LTYPE
  5
47
100
AcDbSymbolTableRecord
100
AcDbLinetypeTableRecord
  2
DASHEDX2
 70
0
  3
Dashed (2x) ____  ____  ____  ____  ____  ___
 72
65
 73
2
 40
38.0999999999999943
 49
25.3999999999999986
 74
0
 49
-12.6999999999999993
 74
0
  0
LTYPE
  5
48
100
AcDbSymbolTableRecord
100
AcDbLinetypeTableRecord
  2
ACAD_ISO02W100
 70
0
  3
ISO dash __ __ __ __ __ __ __ __ __ __ __ __ __
 72
65
 73
2
 40
15.0
 49
12.0
 74
0
 49
-3.0
 74
0
  0
LTYPE
  5
49
100
AcDbSymbolTableRecord
100
AcDbLinetypeTableRecord
  2
PHANTOM2
 70
0
  3
Phantom (.5x) ___ _ _ ___ _ _ ___ _ _ ___ _ _
 72
65
 73
6
 40
31.75
 49
15.875
 74
0
 49
-3.1749999999999998
 74
0
 49
3.1749999999999998
 74
0
 49
-3.1749999999999998
 74
0
 49
3.1749999999999998
 74
0
 49
-3.1749999999999998
 74
0
  0
LTYPE
  5
4A
100
AcDbSymbolTableRecord
100
AcDbLinetypeTableRecord
  2
DASHED2
 70
0
  3
Dashed (.5x) _ _ _ _ _ _ _ _ _ _ _ _ _ _ _ _ _ 
 72
65
 73
2
 40
9.5249999999999986
 49
6.3499999999999996
 74
0
 49
-3.1749999999999998
 74
0
  0
LTYPE
  5
4B
100
AcDbSymbolTableRecord
100
AcDbLinetypeTableRecord
  2
ACAD_ISO09W100
 70
0
  3
ISO long-dash double-short-dash ____ __ __ ____
 72
65
 73
6
 40
45.0
 49
24.0
 74
0
 49
-3.0
 74
0
 49
6.0
 74
0
 49
-3.0
 74
0
 49
6.0
 74
0
 49
-3.0
 74
0
  0
LTYPE
  5
4C
100
AcDbSymbolTableRecord
100
AcDbLinetypeTableRecord
  2
ACAD_ISO13W100
 70
0
  3
ISO double-dash double-dot __ __ . . __ __ . . _
 72
65
 73
8
 40
36.0
 49
12.0
 74
0
 49
-3.0
 74
0
 49
12.0
 74
0
 49
-2.9500000000000002
 74
0
 49
0.1
 74
0
 49
-2.9000000000000004
 74
0
 49
0.1
 74
0
 49
-2.9500000000000002
 74
0
  0
LTYPE
  5
4D
100
AcDbSymbolTableRecord
100
AcDbLinetypeTableRecord
  2
DOT2
 70
0
  3
Dot (.5x) ........................................
 72
65
 73
2
 40
3.1749999999999998
 49
0.1
 74
0
 49
-3.0749999999999997
 74
0
  0
LTYPE
  5
4E
100
AcDbSymbolTableRecord
100
AcDbLinetypeTableRecord
  2
DASHED
 70
0
  3
Dashed __ __ __ __ __ __ __ __ __ __ __ __ __ _
 72
65
 73
2
 40
19.0499999999999972
 49
12.6999999999999993
 74
0
 49
-6.3499999999999996
 74
0
  0
LTYPE
  5
4F
100
AcDbSymbolTableRecord
100
AcDbLinetypeTableRecord
  2
ACAD_ISO14W100
 70
0
  3
ISO dash triple-dot __ . . . __ . . . __ . . . _
 72
65
 73
8
 40
24.0
 49
12.0
 74
0
 49
-2.9500000000000002
 74
0
 49
0.1
 74
0
 49
-2.9000000000000004
 74
0
 49
0.1
 74
0
 49
-2.9000000000000004
 74
0
 49
0.1
 74
0
 49
-2.9500000000000002
 74
0
  0
LTYPE
  5
15
100
AcDbSymbolTableRecord
100
AcDbLinetypeTableRecord
  2
BYLAYER
 70
0
  3

 72
65
 73
0
 40
0.0
  0
LTYPE
  5
50
100
AcDbSymbolTableRecord
100
AcDbLinetypeTableRecord
  2
PHANTOMX2
 70
0
  3
Phantom (2x) ____________    ____    ____   _
 72
65
 73
6
 40
127.0
 49
63.5
 74
0
 49
-12.6999999999999993
 74
0
 49
12.6999999999999993
 74
0
 49
-12.6999999999999993
 74
0
 49
12.6999999999999993
 74
0
 49
-12.6999999999999993
 74
0
  0
LTYPE
  5
14
100
AcDbSymbolTableRecord
100
AcDbLinetypeTableRecord
  2
BYBLOCK
 70
0
  3

 72
65
 73
0
 40
0.0
  0
LTYPE
  5
51
100
AcDbSymbolTableRecord
100
AcDbLinetypeTableRecord
  2
DIVIDEX2
 70
0
  3
Divide (2x) ________  .  .  ________  .  .  _
 72
65
 73
6
 40
63.4999999999999929
 49
25.3999999999999986
 74
0
 49
-12.6499999999999986
 74
0
 49
0.1
 74
0
 49
-12.5999999999999979
 74
0
 49
0.1
 74
0
 49
-12.6499999999999986
 74
0
  0
LTYPE
  5
52
100
AcDbSymbolTableRecord
100
AcDbLinetypeTableRecord
  2
BORDER
 70
0
  3
Border __ __ . __ __ . __ __ . __ __ . __ __ .
 72
65
 73
6
 40
44.4499999999999957
 49
12.6999999999999993
 74
0
 49
-6.3499999999999996
 74
0
 49
12.6999999999999993
 74
0
 49
-6.2999999999999998
 74
0
 49
0.1
 74
0
 49
-6.2999999999999998
 74
0
  0
LTYPE
  5
53
100
AcDbSymbolTableRecord
100
AcDbLinetypeTableRecord
  2
DIVIDE2
 70
0
  3
Divide (.5x) __..__..__..__..__..__..__..__.._
 72
65
 73
6
 40
15.875
 49
6.3499999999999996
 74
0
 49
-3.125
 74
0
 49
0.1
 74
0
 49
-3.0750000000000002
 74
0
 49
0.1
 74
0
 49
-3.125
 74
0
  0
LTYPE
  5
54
100
AcDbSymbolTableRecord
100
AcDbLinetypeTableRecord
  2
DOT
 70
0
  3
Dot . . . . . . . . . . . . . . . . . . . . . . . .
 72
65
 73
2
 40
6.3499999999999996
 49
0.1
 74
0
 49
-6.25
 74
0
  0
LTYPE
  5
55
100
AcDbSymbolTableRecord
100
AcDbLinetypeTableRecord
  2
DASHDOT
 70
0
  3
Dash dot __ . __ . __ . __ . __ . __ . __ . __
 72
65
 73
4
 40
25.3999999999999986
 49
12.6999999999999993
 74
0
 49
-6.2999999999999998
 74
0
 49
0.1
 74
0
 49
-6.2999999999999998
 74
0
  0
LTYPE
  5
56
100
AcDbSymbolTableRecord
100
AcDbLinetypeTableRecord
  2
ACAD_ISO03W100
 70
0
  3
ISO dash space __    __    __    __    __    __
 72
65
 73
2
 40
30.0
 49
12.0
 74
0
 49
-18.0
 74
0
  0
ENDTAB
  0
TABLE
  2
LAYER
  5
2
100
AcDbSymbolTable
 70
3
  0
LAYER
  5
57
100
AcDbSymbolTableRecord
100
AcDbLayerTableRecord
  2
int
 70
0
 62
3
420
65280
  6
Continuous
370
0
390
F
  0
LAYER
  5
58
100
AcDbSymbolTableRecord
100
AcDbLayerTableRecord
  2
ext
 70
0
 62
1
420
16711680
  6
Continuous
370
0
390
F
  0
LAYER
  5
10
100
AcDbSymbolTableRecord
100
AcDbLayerTableRecord
  2
0
 70
0
 62
7
420
16777215
  6
Continuous
370
25
390
F
  0
ENDTAB
  0
TABLE
  2
STYLE
  5
3
100
AcDbSymbolTable
 70
1
  0
STYLE
  5
59
100
AcDbSymbolTableRecord
100
AcDbTextStyleTableRecord
  2
Standard
 70
0
 40
0.0
 41
1.0
 50
0.0
 71
0
 42
2.5
  3

  4

1001
ACAD
1000
txt
1071
0
  0
ENDTAB
  0
TABLE
  2
VIEW
  5
6
100
AcDbSymbolTable
 70
0
  0
ENDTAB
  0
TABLE
  2
UCS
  5
7
100
AcDbSymbolTable
 70
0
  0
ENDTAB
  0
TABLE
  2
APPID
  5
9
100
AcDbSymbolTable
 70
1
  0
APPID
  5
12
100
AcDbSymbolTableRecord
100
AcDbRegAppTableRecord
  2
ACAD
 70
0
  0
APPID
  5
5A
100
AcDbSymbolTableRecord
100
AcDbRegAppTableRecord
  2
QCAD
 70
0
  0
ENDTAB
  0
TABLE
  2
DIMSTYLE
  5
A
100
AcDbSymbolTable
 70
1
100
AcDbDimStyleTable
 71
0
  0
DIMSTYLE
105
27
100
AcDbSymbolTableRecord
100
AcDbDimStyleTableRecord
  2
Standard
 41
0.18
 42
0.0625
 43
3.75
 44
0.18
 70
0
 73
0
 74
0
 77
1
 78
8
140
0.18
141
2.5
143
0.03937007874016
147
0.09
171
3
172
1
271
2
272
2
274
3
278
44
283
0
284
8
340
59
  0
ENDTAB
  0
TABLE
  2
BLOCK_RECORD
  5
1
100
AcDbSymbolTable
 70
1
  0
BLOCK_RECORD
  5
1F
100
AcDbSymbolTableRecord
100
AcDbBlockTableRecord
  2
*Model_Space
340
22
  0
BLOCK_RECORD
  5
1B
100
AcDbSymbolTableRecord
100
AcDbBlockTableRecord
  2
*Paper_Space
340
1E
  0
BLOCK_RECORD
  5
23
100
AcDbSymbolTableRecord
100
AcDbBlockTableRecord
  2
*Paper_Space0
340
26
  0
BLOCK_RECORD
  5
5B
100
AcDbSymbolTableRecord
100
AcDbBlockTableRecord
  2
bras2
340
0
  0
ENDTAB
  0
ENDSEC
  0
SECTION
  2
BLOCKS
  0
BLOCK
  5
20
100
AcDbEntity
  8
0
100
AcDbBlockBegin
  2
*Model_Space
 70
0
 10
0.0
 20
0.0
 30
0.0
  3
*Model_Space
  1

  0
ENDBLK
  5
21
100
AcDbEntity
  8
0
100
AcDbBlockEnd
  0
BLOCK
  5
1C
100
AcDbEntity
 67
1
  8
0
100
AcDbBlockBegin
  2
*Paper_Space
 70
0
 10
0.0
 20
0.0
 30
0.0
  3
*Paper_Space
  1

  0
ENDBLK
  5
1D
100
AcDbEntity
 67
1
  8
0
100
AcDbBlockEnd
  0
BLOCK
  5
24
100
AcDbEntity
  8
0
100
AcDbBlockBegin
  2
*Paper_Space0
 70
0
 10
0.0
 20
0.0
 30
0.0
  3
*Paper_Space0
  1

  0
ENDBLK
  5
25
100
AcDbEntity
  8
0
100
AcDbBlockEnd
  0
BLOCK
  5
5C
100
AcDbEntity
  8
0
100
AcDbBlockBegin
  2
bras2
 70
0
 10
0.0
 20
0.0
 30
0.0
  3
bras2
  1

  0
LINE
  5
5D
100
AcDbEntity
100
AcDbLine
  8
ext
 62
256
370
-1
 48
1.0
  6
BYLAYER
 10
30.0
 20
5.0
 30
0.0
 11
40.0
 21
5.0
 31
0.0
  0
LINE
  5
5E
100
AcDbEntity
100
AcDbLine
  8
ext
 62
256
370
-1
 48
1.0
  6
BYLAYER
 10
40.0
 20
5.0
 30
0.0
 11
40.0
 21
0.0
 31
0.0
  0
LINE
  5
5F
100
AcDbEntity
100
AcDbLine
  8
ext
 62
256
370
-1
 48
1.0
  6
BYLAYER
 10
40.0
 20
0.0
 30
0.0
 11
89.3046999999999969
 21
24.9423999999999992
 31
0.0
  0
LINE
  5
60
100
AcDbEntity
100
AcDbLine
  8
ext
 62
256
370
-1
 48
1.0
  6
BYLAYER
 10
89.3046999999999969
 20
24.9423999999999992
 30
0.0
 11
140.4480000000000075
 21
35.3759999999999977
 31
0.0
  0
LINE
  5
61
100
AcDbEntity
100
AcDbLine
  8
ext
 62
256
370
-1
 48
1.0
  6
BYLAYER
 10
140.4480000000000075
 20
35.3759999999999977
 30
0.0
 11
192.5200000000000102
 21
30.9394999999999989
 31
0.0
  0
LINE
  5
62
100
AcDbEntity
100
AcDbLine
  8
ext
 62
256
370
-1
 48
1.0
  6
BYLAYER
 10
192.5200000000000102
 20
30.9394999999999989
 30
0.0
 11
193.1299999999999955
 21
31.0605000000000011
 31
0.0
  0
LINE
  5
63
100
AcDbEntity
100
AcDbLine
  8
ext
 62
256
370
-1
 48
1.0
  6
BYLAYER
 10
193.1299999999999955
 20
31.0605000000000011
 30
0.0
 11
193.7189999999999941
 21
31.3524999999999991
 31
0.0
  0
LINE
  5
64
100
AcDbEntity
100
AcDbLine
  8
ext
 62
256
370
-1
 48
1.0
  6
BYLAYER
 10
193.7189999999999941
 20
31.3524999999999991
 30
0.0
 11
194.2690000000000055
 21
31.8076000000000008
 31
0.0
  0
LINE
  5
65
100
AcDbEntity
100
AcDbLine
  8
ext
 62
256
370
-1
 48
1.0
  6
BYLAYER
 10
194.2690000000000055
 20
31.8076000000000008
 30
0.0
 11
194.7649999999999864
 21
32.4121000000000024
 31
0.0
  0
LINE
  5
66
100
AcDbEntity
100
AcDbLine
  8
ext
 62
256
370
-1
 48
1.0
  6
BYLAYER
 10
194.7649999999999864
 20
32.4121000000000024
 30
0.0
 11
195.1910000000000025
 21
33.1475000000000009
 31
0.0
  0
LINE
  5
67
100
AcDbEntity
100
AcDbLine
  8
ext
 62
256
370
-1
 48
1.0
  6
BYLAYER
 10
195.1910000000000025
 20
33.1475000000000009
 30
0.0
 11
195.5370000000000061
 21
33.9932000000000016
 31
0.0
  0
LINE
  5
68
100
AcDbEntity
100
AcDbLine
  8
ext
 62
256
370
-1
 48
1.0
  6
BYLAYER
 10
195.5370000000000061
 20
33.9932000000000016
 30
0.0
 11
195.7920000000000016
 21
34.9258000000000024
 31
0.0
  0
LINE
  5
69
100
AcDbEntity
100
AcDbLine
  8
ext
 62
256
370
-1
 48
1.0
  6
BYLAYER
 10
195.7920000000000016
 20
34.9258000000000024
 30
0.0
 11
195.9470000000000027
 21
35.9159999999999968
 31
0.0
  0
LINE
  5
6A
100
AcDbEntity
100
AcDbLine
  8
ext
 62
256
370
-1
 48
1.0
  6
BYLAYER
 10
195.9470000000000027
 20
35.9159999999999968
 30
0.0
 11
196.0
 21
36.9354999999999976
 31
0.0
  0
LINE
  5
6B
100
AcDbEntity
100
AcDbLine
  8
ext
 62
256
370
-1
 48
1.0
  6
BYLAYER
 10
196.0
 20
36.9354999999999976
 30
0.0
 11
196.0
 21
45.1445000000000007
 31
0.0
  0
LINE
  5
6C
100
AcDbEntity
100
AcDbLine
  8
ext
 62
256
370
-1
 48
1.0
  6
BYLAYER
 10
196.0
 20
45.1445000000000007
 30
0.0
 11
195.9470000000000027
 21
46.1631
 31
0.0
  0
LINE
  5
6D
100
AcDbEntity
100
AcDbLine
  8
ext
 62
256
370
-1
 48
1.0
  6
BYLAYER
 10
195.9470000000000027
 20
46.1631
 30
0.0
 11
195.7930000000000064
 21
47.1522999999999968
 31
0.0
  0
LINE
  5
6E
100
AcDbEntity
100
AcDbLine
  8
ext
 62
256
370
-1
 48
1.0
  6
BYLAYER
 10
195.7930000000000064
 20
47.1522999999999968
 30
0.0
 11
195.5389999999999873
 21
48.0829999999999984
 31
0.0
  0
LINE
  5
6F
100
AcDbEntity
100
AcDbLine
  8
ext
 62
256
370
-1
 48
1.0
  6
BYLAYER
 10
195.5389999999999873
 20
48.0829999999999984
 30
0.0
 11
195.1939999999999884
 21
48.9277000000000015
 31
0.0
  0
LINE
  5
70
100
AcDbEntity
100
AcDbLine
  8
ext
 62
256
370
-1
 48
1.0
  6
BYLAYER
 10
195.1939999999999884
 20
48.9277000000000015
 30
0.0
 11
194.7680000000000007
 21
49.6640999999999977
 31
0.0
  0
LINE
  5
71
100
AcDbEntity
100
AcDbLine
  8
ext
 62
256
370
-1
 48
1.0
  6
BYLAYER
 10
194.7680000000000007
 20
49.6640999999999977
 30
0.0
 11
194.2729999999999961
 21
50.2685999999999993
 31
0.0
  0
LINE
  5
72
100
AcDbEntity
100
AcDbLine
  8
ext
 62
256
370
-1
 48
1.0
  6
BYLAYER
 10
194.2729999999999961
 20
50.2685999999999993
 30
0.0
 11
193.7249999999999943
 21
50.7235999999999976
 31
0.0
  0
LINE
  5
73
100
AcDbEntity
100
AcDbLine
  8
ext
 62
256
370
-1
 48
1.0
  6
BYLAYER
 10
193.7249999999999943
 20
50.7235999999999976
 30
0.0
 11
193.1370000000000005
 21
51.0176000000000016
 31
0.0
  0
LINE
  5
74
100
AcDbEntity
100
AcDbLine
  8
ext
 62
256
370
-1
 48
1.0
  6
BYLAYER
 10
193.1370000000000005
 20
51.0176000000000016
 30
0.0
 11
142.2290000000000134
 21
62.6426000000000016
 31
0.0
  0
LINE
  5
75
100
AcDbEntity
100
AcDbLine
  8
ext
 62
256
370
-1
 48
1.0
  6
BYLAYER
 10
142.2290000000000134
 20
62.6426000000000016
 30
0.0
 11
90.8447000000000031
 21
62.3290999999999968
 31
0.0
  0
LINE
  5
76
100
AcDbEntity
100
AcDbLine
  8
ext
 62
256
370
-1
 48
1.0
  6
BYLAYER
 10
90.8447000000000031
 20
62.3290999999999968
 30
0.0
 11
39.9893000000000001
 21
50.0829999999999984
 31
0.0
  0
LINE
  5
77
100
AcDbEntity
100
AcDbLine
  8
ext
 62
256
370
-1
 48
1.0
  6
BYLAYER
 10
39.9893000000000001
 20
50.0829999999999984
 30
0.0
 11
40.0
 21
45.0
 31
0.0
  0
LINE
  5
78
100
AcDbEntity
100
AcDbLine
  8
ext
 62
256
370
-1
 48
1.0
  6
BYLAYER
 10
40.0
 20
45.0
 30
0.0
 11
30.0
 21
45.0
 31
0.0
  0
LINE
  5
79
100
AcDbEntity
100
AcDbLine
  8
ext
 62
256
370
-1
 48
1.0
  6
BYLAYER
 10
30.0
 20
45.0
 30
0.0
 11
30.0
 21
50.0
 31
0.0
  0
LINE
  5
7A
100
AcDbEntity
100
AcDbLine
  8
ext
 62
256
370
-1
 48
1.0
  6
BYLAYER
 10
30.0
 20
50.0
 30
0.0
 11
20.0
 21
50.0
 31
0.0
  0
LINE
  5
7B
100
AcDbEntity
100
AcDbLine
  8
ext
 62
256
370
-1
 48
1.0
  6
BYLAYER
 10
20.0
 20
50.0
 30
0.0
 11
20.0
 21
45.0
 31
0.0
  0
LINE
  5
7C
100
AcDbEntity
100
AcDbLine
  8
ext
 62
256
370
-1
 48
1.0
  6
BYLAYER
 10
20.0
 20
45.0
 30
0.0
 11
15.0
 21
45.0
 31
0.0
  0
LINE
  5
7D
100
AcDbEntity
100
AcDbLine
  8
ext
 62
256
370
-1
 48
1.0
  6
BYLAYER
 10
15.0
 20
45.0
 30
0.0
 11
15.0
 21
5.0
 31
0.0
  0
LINE
  5
7E
100
AcDbEntity
100
AcDbLine
  8
ext
 62
256
370
-1
 48
1.0
  6
BYLAYER
 10
15.0
 20
5.0
 30
0.0
 11
20.0
 21
5.0
 31
0.0
  0
LINE
  5
7F
100
AcDbEntity
100
AcDbLine
  8
ext
 62
256
370
-1
 48
1.0
  6
BYLAYER
 10
20.0
 20
5.0
 30
0.0
 11
20.0
 21
0.0
 31
0.0
  0
LINE
  5
80
100
AcDbEntity
100
AcDbLine
  8
ext
 62
256
370
-1
 48
1.0
  6
BYLAYER
 10
20.0
 20
0.0
 30
0.0
 11
30.0
 21
0.0
 31
0.0
  0
LINE
  5
81
100
AcDbEntity
100
AcDbLine
  8
ext
 62
256
370
-1
 48
1.0
  6
BYLAYER
 10
30.0
 20
0.0
 30
0.0
 11
30.0
 21
5.0
 31
0.0
  0
LINE
  5
82
100
AcDbEntity
100
AcDbLine
  8
int
 62
256
370
-1
 48
1.0
  6
BYLAYER
 10
119.980000000000004
 20
44.1758000000000024
 30
0.0
 11
119.8430000000000035
 21
44.2304999999999993
 31
0.0
  0
LINE
  5
83
100
AcDbEntity
100
AcDbLine
  8
int
 62
256
370
-1
 48
1.0
  6
BYLAYER
 10
119.8430000000000035
 20
44.2304999999999993
 30
0.0
 11
119.7129999999999939
 21
44.3203000000000031
 31
0.0
  0
LINE
  5
84
100
AcDbEntity
100
AcDbLine
  8
int
 62
256
370
-1
 48
1.0
  6
BYLAYER
 10
119.7129999999999939
 20
44.3203000000000031
 30
0.0
 11
119.5930000000000035
 21
44.4433999999999969
 31
0.0
  0
LINE
  5
85
100
AcDbEntity
100
AcDbLine
  8
int
 62
256
370
-1
 48
1.0
  6
BYLAYER
 10
119.5930000000000035
 20
44.4433999999999969
 30
0.0
 11
119.4849999999999994
 21
44.5966999999999985
 31
0.0
  0
LINE
  5
86
100
AcDbEntity
100
AcDbLine
  8
int
 62
256
370
-1
 48
1.0
  6
BYLAYER
 10
119.4849999999999994
 20
44.5966999999999985
 30
0.0
 11
113.8970000000000056
 21
53.9091999999999985
 31
0.0
  0
LINE
  5
87
100
AcDbEntity
100
AcDbLine
  8
int
 62
256
370
-1
 48
1.0
  6
BYLAYER
 10
113.8970000000000056
 20
53.9091999999999985
 30
0.0
 11
113.7999999999999972
 21
54.1006
 31
0.0
  0
LINE
  5
88
100
AcDbEntity
100
AcDbLine
  8
int
 62
256
370
-1
 48
1.0
  6
BYLAYER
 10
113.7999999999999972
 20
54.1006
 30
0.0
 11
113.7240000000000038
 21
54.3173999999999992
 31
0.0
  0
LINE
  5
89
100
AcDbEntity
100
AcDbLine
  8
int
 62
256
370
-1
 48
1.0
  6
BYLAYER
 10
113.7240000000000038
 20
54.3173999999999992
 30
0.0
 11
113.6689999999999969
 21
54.5518000000000001
 31
0.0
  0
LINE
  5
8A
100
AcDbEntity
100
AcDbLine
  8
int
 62
256
370
-1
 48
1.0
  6
BYLAYER
 10
113.6689999999999969
 20
54.5518000000000001
 30
0.0
 11
113.6400000000000006
 21
54.7969000000000008
 31
0.0
  0
LINE
  5
8B
100
AcDbEntity
100
AcDbLine
  8
int
 62
256
370
-1
 48
1.0
  6
BYLAYER
 10
113.6400000000000006
 20
54.7969000000000008
 30
0.0
 11
113.6350000000000051
 21
55.0478999999999985
 31
0.0
  0
LINE
  5
8C
100
AcDbEntity
100
AcDbLine
  8
int
 62
256
370
-1
 48
1.0
  6
BYLAYER
 10
113.6350000000000051
 20
55.0478999999999985
 30
0.0
 11
113.6550000000000011
 21
55.2969000000000008
 31
0.0
  0
LINE
  5
8D
100
AcDbEntity
100
AcDbLine
  8
int
 62
256
370
-1
 48
1.0
  6
BYLAYER
 10
113.6550000000000011
 20
55.2969000000000008
 30
0.0
 11
113.7000000000000028
 21
55.5360999999999976
 31
0.0
  0
LINE
  5
8E
100
AcDbEntity
100
AcDbLine
  8
int
 62
256
370
-1
 48
1.0
  6
BYLAYER
 10
113.7000000000000028
 20
55.5360999999999976
 30
0.0
 11
113.7690000000000055
 21
55.7597999999999985
 31
0.0
  0
LINE
  5
8F
100
AcDbEntity
100
AcDbLine
  8
int
 62
256
370
-1
 48
1.0
  6
BYLAYER
 10
113.7690000000000055
 20
55.7597999999999985
 30
0.0
 11
113.8580000000000041
 21
55.9609000000000023
 31
0.0
  0
LINE
  5
90
100
AcDbEntity
100
AcDbLine
  8
int
 62
256
370
-1
 48
1.0
  6
BYLAYER
 10
113.8580000000000041
 20
55.9609000000000023
 30
0.0
 11
113.9669999999999987
 21
56.1347999999999985
 31
0.0
  0
LINE
  5
91
100
AcDbEntity
100
AcDbLine
  8
int
 62
256
370
-1
 48
1.0
  6
BYLAYER
 10
113.9669999999999987
 20
56.1347999999999985
 30
0.0
 11
114.090999999999994
 21
56.2764000000000024
 31
0.0
  0
LINE
  5
92
100
AcDbEntity
100
AcDbLine
  8
int
 62
256
370
-1
 48
1.0
  6
BYLAYER
 10
114.090999999999994
 20
56.2764000000000024
 30
0.0
 11
114.2279999999999944
 21
56.3808999999999969
 31
0.0
  0
LINE
  5
93
100
AcDbEntity
100
AcDbLine
  8
int
 62
256
370
-1
 48
1.0
  6
BYLAYER
 10
114.2279999999999944
 20
56.3808999999999969
 30
0.0
 11
114.3730000000000047
 21
56.4463000000000008
 31
0.0
  0
LINE
  5
94
100
AcDbEntity
100
AcDbLine
  8
int
 62
256
370
-1
 48
1.0
  6
BYLAYER
 10
114.3730000000000047
 20
56.4463000000000008
 30
0.0
 11
114.5229999999999961
 21
56.4697000000000031
 31
0.0
  0
LINE
  5
95
100
AcDbEntity
100
AcDbLine
  8
int
 62
256
370
-1
 48
1.0
  6
BYLAYER
 10
114.5229999999999961
 20
56.4697000000000031
 30
0.0
 11
125.6629999999999967
 21
56.3564000000000007
 31
0.0
  0
LINE
  5
96
100
AcDbEntity
100
AcDbLine
  8
int
 62
256
370
-1
 48
1.0
  6
BYLAYER
 10
125.6629999999999967
 20
56.3564000000000007
 30
0.0
 11
125.8119999999999976
 21
56.3301000000000016
 31
0.0
  0
LINE
  5
97
100
AcDbEntity
100
AcDbLine
  8
int
 62
256
370
-1
 48
1.0
  6
BYLAYER
 10
125.8119999999999976
 20
56.3301000000000016
 30
0.0
 11
125.9560000000000031
 21
56.2627000000000024
 31
0.0
  0
LINE
  5
98
100
AcDbEntity
100
AcDbLine
  8
int
 62
256
370
-1
 48
1.0
  6
BYLAYER
 10
125.9560000000000031
 20
56.2627000000000024
 30
0.0
 11
126.0919999999999987
 21
56.1561999999999983
 31
0.0
  0
LINE
  5
99
100
AcDbEntity
100
AcDbLine
  8
int
 62
256
370
-1
 48
1.0
  6
BYLAYER
 10
126.0919999999999987
 20
56.1561999999999983
 30
0.0
 11
126.2150000000000034
 21
56.0137
 31
0.0
  0
LINE
  5
9A
100
AcDbEntity
100
AcDbLine
  8
int
 62
256
370
-1
 48
1.0
  6
BYLAYER
 10
126.2150000000000034
 20
56.0137
 30
0.0
 11
126.320999999999998
 21
55.8397999999999968
 31
0.0
  0
LINE
  5
9B
100
AcDbEntity
100
AcDbLine
  8
int
 62
256
370
-1
 48
1.0
  6
BYLAYER
 10
126.320999999999998
 20
55.8397999999999968
 30
0.0
 11
126.4099999999999966
 21
55.6377000000000024
 31
0.0
  0
LINE
  5
9C
100
AcDbEntity
100
AcDbLine
  8
int
 62
256
370
-1
 48
1.0
  6
BYLAYER
 10
126.4099999999999966
 20
55.6377000000000024
 30
0.0
 11
126.4770000000000039
 21
55.4149999999999991
 31
0.0
  0
LINE
  5
9D
100
AcDbEntity
100
AcDbLine
  8
int
 62
256
370
-1
 48
1.0
  6
BYLAYER
 10
126.4770000000000039
 20
55.4149999999999991
 30
0.0
 11
126.5210000000000008
 21
55.1758000000000024
 31
0.0
  0
LINE
  5
9E
100
AcDbEntity
100
AcDbLine
  8
int
 62
256
370
-1
 48
1.0
  6
BYLAYER
 10
126.5210000000000008
 20
55.1758000000000024
 30
0.0
 11
126.5400000000000063
 21
54.9286999999999992
 31
0.0
  0
LINE
  5
9F
100
AcDbEntity
100
AcDbLine
  8
int
 62
256
370
-1
 48
1.0
  6
BYLAYER
 10
126.5400000000000063
 20
54.9286999999999992
 30
0.0
 11
126.5349999999999966
 21
54.6786999999999992
 31
0.0
  0
LINE
  5
A0
100
AcDbEntity
100
AcDbLine
  8
int
 62
256
370
-1
 48
1.0
  6
BYLAYER
 10
126.5349999999999966
 20
54.6786999999999992
 30
0.0
 11
126.5049999999999955
 21
54.4346000000000032
 31
0.0
  0
LINE
  5
A1
100
AcDbEntity
100
AcDbLine
  8
int
 62
256
370
-1
 48
1.0
  6
BYLAYER
 10
126.5049999999999955
 20
54.4346000000000032
 30
0.0
 11
126.4509999999999934
 21
54.2021000000000015
 31
0.0
  0
LINE
  5
A2
100
AcDbEntity
100
AcDbLine
  8
int
 62
256
370
-1
 48
1.0
  6
BYLAYER
 10
126.4509999999999934
 20
54.2021000000000015
 30
0.0
 11
126.375
 21
53.9872999999999976
 31
0.0
  0
LINE
  5
A3
100
AcDbEntity
100
AcDbLine
  8
int
 62
256
370
-1
 48
1.0
  6
BYLAYER
 10
126.375
 20
53.9872999999999976
 30
0.0
 11
126.2780000000000058
 21
53.7969000000000008
 31
0.0
  0
LINE
  5
A4
100
AcDbEntity
100
AcDbLine
  8
int
 62
256
370
-1
 48
1.0
  6
BYLAYER
 10
126.2780000000000058
 20
53.7969000000000008
 30
0.0
 11
120.7579999999999956
 21
44.5966999999999985
 31
0.0
  0
LINE
  5
A5
100
AcDbEntity
100
AcDbLine
  8
int
 62
256
370
-1
 48
1.0
  6
BYLAYER
 10
120.7579999999999956
 20
44.5966999999999985
 30
0.0
 11
120.6500000000000057
 21
44.4433999999999969
 31
0.0
  0
LINE
  5
A6
100
AcDbEntity
100
AcDbLine
  8
int
 62
256
370
-1
 48
1.0
  6
BYLAYER
 10
120.6500000000000057
 20
44.4433999999999969
 30
0.0
 11
120.5300000000000011
 21
44.3203000000000031
 31
0.0
  0
LINE
  5
A7
100
AcDbEntity
100
AcDbLine
  8
int
 62
256
370
-1
 48
1.0
  6
BYLAYER
 10
120.5300000000000011
 20
44.3203000000000031
 30
0.0
 11
120.3990000000000009
 21
44.2304999999999993
 31
0.0
  0
LINE
  5
A8
100
AcDbEntity
100
AcDbLine
  8
int
 62
256
370
-1
 48
1.0
  6
BYLAYER
 10
120.3990000000000009
 20
44.2304999999999993
 30
0.0
 11
120.2620000000000005
 21
44.1758000000000024
 31
0.0
  0
LINE
  5
A9
100
AcDbEntity
100
AcDbLine
  8
int
 62
256
370
-1
 48
1.0
  6
BYLAYER
 10
120.2620000000000005
 20
44.1758000000000024
 30
0.0
 11
120.1209999999999951
 21
44.1572000000000031
 31
0.0
  0
LINE
  5
AA
100
AcDbEntity
100
AcDbLine
  8
int
 62
256
370
-1
 48
1.0
  6
BYLAYER
 10
120.1209999999999951
 20
44.1572000000000031
 30
0.0
 11
119.980000000000004
 21
44.1758000000000024
 31
0.0
  0
LINE
  5
AB
100
AcDbEntity
100
AcDbLine
  8
int
 62
256
370
-1
 48
1.0
  6
BYLAYER
 10
90.0430000000000064
 20
34.1621000000000024
 30
0.0
 11
89.8887
 21
34.2079999999999984
 31
0.0
  0
LINE
  5
AC
100
AcDbEntity
100
AcDbLine
  8
int
 62
256
370
-1
 48
1.0
  6
BYLAYER
 10
89.8887
 20
34.2079999999999984
 30
0.0
 11
89.7412000000000063
 21
34.2978999999999985
 31
0.0
  0
LINE
  5
AD
100
AcDbEntity
100
AcDbLine
  8
int
 62
256
370
-1
 48
1.0
  6
BYLAYER
 10
89.7412000000000063
 20
34.2978999999999985
 30
0.0
 11
89.6055000000000064
 21
34.4277000000000015
 31
0.0
  0
LINE
  5
AE
100
AcDbEntity
100
AcDbLine
  8
int
 62
256
370
-1
 48
1.0
  6
BYLAYER
 10
89.6055000000000064
 20
34.4277000000000015
 30
0.0
 11
89.4853999999999985
 21
34.5966999999999985
 31
0.0
  0
LINE
  5
AF
100
AcDbEntity
100
AcDbLine
  8
int
 62
256
370
-1
 48
1.0
  6
BYLAYER
 10
89.4853999999999985
 20
34.5966999999999985
 30
0.0
 11
79.8251999999999953
 21
50.6953000000000031
 31
0.0
  0
LINE
  5
B0
100
AcDbEntity
100
AcDbLine
  8
int
 62
256
370
-1
 48
1.0
  6
BYLAYER
 10
79.8251999999999953
 20
50.6953000000000031
 30
0.0
 11
79.7256
 21
50.8935999999999993
 31
0.0
  0
LINE
  5
B1
100
AcDbEntity
100
AcDbLine
  8
int
 62
256
370
-1
 48
1.0
  6
BYLAYER
 10
79.7256
 20
50.8935999999999993
 30
0.0
 11
79.6474999999999937
 21
51.1182000000000016
 31
0.0
  0
LINE
  5
B2
100
AcDbEntity
100
AcDbLine
  8
int
 62
256
370
-1
 48
1.0
  6
BYLAYER
 10
79.6474999999999937
 20
51.1182000000000016
 30
0.0
 11
79.5938000000000017
 21
51.3622999999999976
 31
0.0
  0
LINE
  5
B3
100
AcDbEntity
100
AcDbLine
  8
int
 62
256
370
-1
 48
1.0
  6
BYLAYER
 10
79.5938000000000017
 20
51.3622999999999976
 30
0.0
 11
79.5653999999999968
 21
51.6182000000000016
 31
0.0
  0
LINE
  5
B4
100
AcDbEntity
100
AcDbLine
  8
int
 62
256
370
-1
 48
1.0
  6
BYLAYER
 10
79.5653999999999968
 20
51.6182000000000016
 30
0.0
 11
79.5653999999999968
 21
51.8778999999999968
 31
0.0
  0
LINE
  5
B5
100
AcDbEntity
100
AcDbLine
  8
int
 62
256
370
-1
 48
1.0
  6
BYLAYER
 10
79.5653999999999968
 20
51.8778999999999968
 30
0.0
 11
79.5908000000000015
 21
52.1338000000000008
 31
0.0
  0
LINE
  5
B6
100
AcDbEntity
100
AcDbLine
  8
int
 62
256
370
-1
 48
1.0
  6
BYLAYER
 10
79.5908000000000015
 20
52.1338000000000008
 30
0.0
 11
79.6436000000000064
 21
52.3778999999999968
 31
0.0
  0
LINE
  5
B7
100
AcDbEntity
100
AcDbLine
  8
int
 62
256
370
-1
 48
1.0
  6
BYLAYER
 10
79.6436000000000064
 20
52.3778999999999968
 30
0.0
 11
79.7197000000000031
 21
52.6045000000000016
 31
0.0
  0
LINE
  5
B8
100
AcDbEntity
100
AcDbLine
  8
int
 62
256
370
-1
 48
1.0
  6
BYLAYER
 10
79.7197000000000031
 20
52.6045000000000016
 30
0.0
 11
79.8192999999999984
 21
52.8046999999999969
 31
0.0
  0
LINE
  5
B9
100
AcDbEntity
100
AcDbLine
  8
int
 62
256
370
-1
 48
1.0
  6
BYLAYER
 10
79.8192999999999984
 20
52.8046999999999969
 30
0.0
 11
79.9375
 21
52.9746000000000024
 31
0.0
  0
LINE
  5
BA
100
AcDbEntity
100
AcDbLine
  8
int
 62
256
370
-1
 48
1.0
  6
BYLAYER
 10
79.9375
 20
52.9746000000000024
 30
0.0
 11
80.0712999999999937
 21
53.1064000000000007
 31
0.0
  0
LINE
  5
BB
100
AcDbEntity
100
AcDbLine
  8
int
 62
256
370
-1
 48
1.0
  6
BYLAYER
 10
80.0712999999999937
 20
53.1064000000000007
 30
0.0
 11
80.2168000000000063
 21
53.1991999999999976
 31
0.0
  0
LINE
  5
BC
100
AcDbEntity
100
AcDbLine
  8
int
 62
256
370
-1
 48
1.0
  6
BYLAYER
 10
80.2168000000000063
 20
53.1991999999999976
 30
0.0
 11
80.3700999999999937
 21
53.2479999999999976
 31
0.0
  0
LINE
  5
BD
100
AcDbEntity
100
AcDbLine
  8
int
 62
256
370
-1
 48
1.0
  6
BYLAYER
 10
80.3700999999999937
 20
53.2479999999999976
 30
0.0
 11
101.2980000000000018
 21
55.8524999999999991
 31
0.0
  0
LINE
  5
BE
100
AcDbEntity
100
AcDbLine
  8
int
 62
256
370
-1
 48
1.0
  6
BYLAYER
 10
101.2980000000000018
 20
55.8524999999999991
 30
0.0
 11
101.4519999999999982
 21
55.8417999999999992
 31
0.0
  0
LINE
  5
BF
100
AcDbEntity
100
AcDbLine
  8
int
 62
256
370
-1
 48
1.0
  6
BYLAYER
 10
101.4519999999999982
 20
55.8417999999999992
 30
0.0
 11
101.6029999999999944
 21
55.7881
 31
0.0
  0
LINE
  5
C0
100
AcDbEntity
100
AcDbLine
  8
int
 62
256
370
-1
 48
1.0
  6
BYLAYER
 10
101.6029999999999944
 20
55.7881
 30
0.0
 11
101.7459999999999951
 21
55.6923999999999992
 31
0.0
  0
LINE
  5
C1
100
AcDbEntity
100
AcDbLine
  8
int
 62
256
370
-1
 48
1.0
  6
BYLAYER
 10
101.7459999999999951
 20
55.6923999999999992
 30
0.0
 11
101.8769999999999953
 21
55.5566000000000031
 31
0.0
  0
LINE
  5
C2
100
AcDbEntity
100
AcDbLine
  8
int
 62
256
370
-1
 48
1.0
  6
BYLAYER
 10
101.8769999999999953
 20
55.5566000000000031
 30
0.0
 11
101.9920000000000044
 21
55.3866999999999976
 31
0.0
  0
LINE
  5
C3
100
AcDbEntity
100
AcDbLine
  8
int
 62
256
370
-1
 48
1.0
  6
BYLAYER
 10
101.9920000000000044
 20
55.3866999999999976
 30
0.0
 11
102.0889999999999986
 21
55.1854999999999976
 31
0.0
  0
LINE
  5
C4
100
AcDbEntity
100
AcDbLine
  8
int
 62
256
370
-1
 48
1.0
  6
BYLAYER
 10
102.0889999999999986
 20
55.1854999999999976
 30
0.0
 11
102.1629999999999967
 21
54.9600000000000009
 31
0.0
  0
LINE
  5
C5
100
AcDbEntity
100
AcDbLine
  8
int
 62
256
370
-1
 48
1.0
  6
BYLAYER
 10
102.1629999999999967
 20
54.9600000000000009
 30
0.0
 11
102.2129999999999939
 21
54.7167999999999992
 31
0.0
  0
LINE
  5
C6
100
AcDbEntity
100
AcDbLine
  8
int
 62
256
370
-1
 48
1.0
  6
BYLAYER
 10
102.2129999999999939
 20
54.7167999999999992
 30
0.0
 11
102.2369999999999948
 21
54.4628999999999976
 31
0.0
  0
LINE
  5
C7
100
AcDbEntity
100
AcDbLine
  8
int
 62
256
370
-1
 48
1.0
  6
BYLAYER
 10
102.2369999999999948
 20
54.4628999999999976
 30
0.0
 11
102.2349999999999994
 21
54.2060999999999993
 31
0.0
  0
LINE
  5
C8
100
AcDbEntity
100
AcDbLine
  8
int
 62
256
370
-1
 48
1.0
  6
BYLAYER
 10
102.2349999999999994
 20
54.2060999999999993
 30
0.0
 11
102.2069999999999936
 21
53.9530999999999992
 31
0.0
  0
LINE
  5
C9
100
AcDbEntity
100
AcDbLine
  8
int
 62
256
370
-1
 48
1.0
  6
BYLAYER
 10
102.2069999999999936
 20
53.9530999999999992
 30
0.0
 11
102.1530000000000058
 21
53.7119
 31
0.0
  0
LINE
  5
CA
100
AcDbEntity
100
AcDbLine
  8
int
 62
256
370
-1
 48
1.0
  6
BYLAYER
 10
102.1530000000000058
 20
53.7119
 30
0.0
 11
102.0750000000000028
 21
53.4902000000000015
 31
0.0
  0
LINE
  5
CB
100
AcDbEntity
100
AcDbLine
  8
int
 62
256
370
-1
 48
1.0
  6
BYLAYER
 10
102.0750000000000028
 20
53.4902000000000015
 30
0.0
 11
101.9759999999999991
 21
53.2929999999999993
 31
0.0
  0
LINE
  5
CC
100
AcDbEntity
100
AcDbLine
  8
int
 62
256
370
-1
 48
1.0
  6
BYLAYER
 10
101.9759999999999991
 20
53.2929999999999993
 30
0.0
 11
90.7578000000000031
 21
34.5966999999999985
 31
0.0
  0
LINE
  5
CD
100
AcDbEntity
100
AcDbLine
  8
int
 62
256
370
-1
 48
1.0
  6
BYLAYER
 10
90.7578000000000031
 20
34.5966999999999985
 30
0.0
 11
90.6376999999999953
 21
34.4277000000000015
 31
0.0
  0
LINE
  5
CE
100
AcDbEntity
100
AcDbLine
  8
int
 62
256
370
-1
 48
1.0
  6
BYLAYER
 10
90.6376999999999953
 20
34.4277000000000015
 30
0.0
 11
90.5019999999999953
 21
34.2978999999999985
 31
0.0
  0
LINE
  5
CF
100
AcDbEntity
100
AcDbLine
  8
int
 62
256
370
-1
 48
1.0
  6
BYLAYER
 10
90.5019999999999953
 20
34.2978999999999985
 30
0.0
 11
90.3545000000000016
 21
34.2079999999999984
 31
0.0
  0
LINE
  5
D0
100
AcDbEntity
100
AcDbLine
  8
int
 62
256
370
-1
 48
1.0
  6
BYLAYER
 10
90.3545000000000016
 20
34.2079999999999984
 30
0.0
 11
90.2001999999999953
 21
34.1621000000000024
 31
0.0
  0
LINE
  5
D1
100
AcDbEntity
100
AcDbLine
  8
int
 62
256
370
-1
 48
1.0
  6
BYLAYER
 10
90.2001999999999953
 20
34.1621000000000024
 30
0.0
 11
90.0430000000000064
 21
34.1621000000000024
 31
0.0
  0
LINE
  5
D2
100
AcDbEntity
100
AcDbLine
  8
int
 62
256
370
-1
 48
1.0
  6
BYLAYER
 10
125.1550000000000011
 20
41.3721000000000032
 30
0.0
 11
125.0010000000000048
 21
41.4179999999999993
 31
0.0
  0
LINE
  5
D3
100
AcDbEntity
100
AcDbLine
  8
int
 62
256
370
-1
 48
1.0
  6
BYLAYER
 10
125.0010000000000048
 20
41.4179999999999993
 30
0.0
 11
124.8539999999999992
 21
41.5078000000000031
 31
0.0
  0
LINE
  5
D4
100
AcDbEntity
100
AcDbLine
  8
int
 62
256
370
-1
 48
1.0
  6
BYLAYER
 10
124.8539999999999992
 20
41.5078000000000031
 30
0.0
 11
124.7180000000000035
 21
41.6387
 31
0.0
  0
LINE
  5
D5
100
AcDbEntity
100
AcDbLine
  8
int
 62
256
370
-1
 48
1.0
  6
BYLAYER
 10
124.7180000000000035
 20
41.6387
 30
0.0
 11
124.597999999999999
 21
41.8066000000000031
 31
0.0
  0
LINE
  5
D6
100
AcDbEntity
100
AcDbLine
  8
int
 62
256
370
-1
 48
1.0
  6
BYLAYER
 10
124.597999999999999
 20
41.8066000000000031
 30
0.0
 11
124.4969999999999999
 21
42.0067999999999984
 31
0.0
  0
LINE
  5
D7
100
AcDbEntity
100
AcDbLine
  8
int
 62
256
370
-1
 48
1.0
  6
BYLAYER
 10
124.4969999999999999
 20
42.0067999999999984
 30
0.0
 11
124.4189999999999969
 21
42.2334000000000032
 31
0.0
  0
LINE
  5
D8
100
AcDbEntity
100
AcDbLine
  8
int
 62
256
370
-1
 48
1.0
  6
BYLAYER
 10
124.4189999999999969
 20
42.2334000000000032
 30
0.0
 11
124.3649999999999949
 21
42.4784999999999968
 31
0.0
  0
LINE
  5
D9
100
AcDbEntity
100
AcDbLine
  8
int
 62
256
370
-1
 48
1.0
  6
BYLAYER
 10
124.3649999999999949
 20
42.4784999999999968
 30
0.0
 11
124.3389999999999986
 21
42.7363
 31
0.0
  0
LINE
  5
DA
100
AcDbEntity
100
AcDbLine
  8
int
 62
256
370
-1
 48
1.0
  6
BYLAYER
 10
124.3389999999999986
 20
42.7363
 30
0.0
 11
124.3389999999999986
 21
42.9971000000000032
 31
0.0
  0
LINE
  5
DB
100
AcDbEntity
100
AcDbLine
  8
int
 62
256
370
-1
 48
1.0
  6
BYLAYER
 10
124.3389999999999986
 20
42.9971000000000032
 30
0.0
 11
124.3659999999999997
 21
43.2548999999999992
 31
0.0
  0
LINE
  5
DC
100
AcDbEntity
100
AcDbLine
  8
int
 62
256
370
-1
 48
1.0
  6
BYLAYER
 10
124.3659999999999997
 20
43.2548999999999992
 30
0.0
 11
124.4200000000000017
 21
43.5
 31
0.0
  0
LINE
  5
DD
100
AcDbEntity
100
AcDbLine
  8
int
 62
256
370
-1
 48
1.0
  6
BYLAYER
 10
124.4200000000000017
 20
43.5
 30
0.0
 11
124.4980000000000047
 21
43.7265999999999977
 31
0.0
  0
LINE
  5
DE
100
AcDbEntity
100
AcDbLine
  8
int
 62
256
370
-1
 48
1.0
  6
BYLAYER
 10
124.4980000000000047
 20
43.7265999999999977
 30
0.0
 11
124.5990000000000038
 21
43.9268000000000001
 31
0.0
  0
LINE
  5
DF
100
AcDbEntity
100
AcDbLine
  8
int
 62
256
370
-1
 48
1.0
  6
BYLAYER
 10
124.5990000000000038
 20
43.9268000000000001
 30
0.0
 11
131.4850000000000136
 21
55.4033000000000015
 31
0.0
  0
LINE
  5
E0
100
AcDbEntity
100
AcDbLine
  8
int
 62
256
370
-1
 48
1.0
  6
BYLAYER
 10
131.4850000000000136
 20
55.4033000000000015
 30
0.0
 11
131.5929999999999893
 21
55.5566000000000031
 31
0.0
  0
LINE
  5
E1
100
AcDbEntity
100
AcDbLine
  8
int
 62
256
370
-1
 48
1.0
  6
BYLAYER
 10
131.5929999999999893
 20
55.5566000000000031
 30
0.0
 11
131.7129999999999939
 21
55.6796999999999969
 31
0.0
  0
LINE
  5
E2
100
AcDbEntity
100
AcDbLine
  8
int
 62
256
370
-1
 48
1.0
  6
BYLAYER
 10
131.7129999999999939
 20
55.6796999999999969
 30
0.0
 11
131.8429999999999893
 21
55.7695000000000007
 31
0.0
  0
LINE
  5
E3
100
AcDbEntity
100
AcDbLine
  8
int
 62
256
370
-1
 48
1.0
  6
BYLAYER
 10
131.8429999999999893
 20
55.7695000000000007
 30
0.0
 11
131.9799999999999898
 21
55.8241999999999976
 31
0.0
  0
LINE
  5
E4
100
AcDbEntity
100
AcDbLine
  8
int
 62
256
370
-1
 48
1.0
  6
BYLAYER
 10
131.9799999999999898
 20
55.8241999999999976
 30
0.0
 11
132.1210000000000093
 21
55.8427999999999969
 31
0.0
  0
LINE
  5
E5
100
AcDbEntity
100
AcDbLine
  8
int
 62
256
370
-1
 48
1.0
  6
BYLAYER
 10
132.1210000000000093
 20
55.8427999999999969
 30
0.0
 11
132.2620000000000005
 21
55.8241999999999976
 31
0.0
  0
LINE
  5
E6
100
AcDbEntity
100
AcDbLine
  8
int
 62
256
370
-1
 48
1.0
  6
BYLAYER
 10
132.2620000000000005
 20
55.8241999999999976
 30
0.0
 11
132.3990000000000009
 21
55.7695000000000007
 31
0.0
  0
LINE
  5
E7
100
AcDbEntity
100
AcDbLine
  8
int
 62
256
370
-1
 48
1.0
  6
BYLAYER
 10
132.3990000000000009
 20
55.7695000000000007
 30
0.0
 11
132.5300000000000011
 21
55.6796999999999969
 31
0.0
  0
LINE
  5
E8
100
AcDbEntity
100
AcDbLine
  8
int
 62
256
370
-1
 48
1.0
  6
BYLAYER
 10
132.5300000000000011
 20
55.6796999999999969
 30
0.0
 11
132.6500000000000057
 21
55.5566000000000031
 31
0.0
  0
LINE
  5
E9
100
AcDbEntity
100
AcDbLine
  8
int
 62
256
370
-1
 48
1.0
  6
BYLAYER
 10
132.6500000000000057
 20
55.5566000000000031
 30
0.0
 11
132.7580000000000098
 21
55.4033000000000015
 31
0.0
  0
LINE
  5
EA
100
AcDbEntity
100
AcDbLine
  8
int
 62
256
370
-1
 48
1.0
  6
BYLAYER
 10
132.7580000000000098
 20
55.4033000000000015
 30
0.0
 11
138.8199999999999932
 21
45.2997999999999976
 31
0.0
  0
LINE
  5
EB
100
AcDbEntity
100
AcDbLine
  8
int
 62
256
370
-1
 48
1.0
  6
BYLAYER
 10
138.8199999999999932
 20
45.2997999999999976
 30
0.0
 11
138.9159999999999968
 21
45.1103999999999985
 31
0.0
  0
LINE
  5
EC
100
AcDbEntity
100
AcDbLine
  8
int
 62
256
370
-1
 48
1.0
  6
BYLAYER
 10
138.9159999999999968
 20
45.1103999999999985
 30
0.0
 11
138.9919999999999902
 21
44.8975000000000009
 31
0.0
  0
LINE
  5
ED
100
AcDbEntity
100
AcDbLine
  8
int
 62
256
370
-1
 48
1.0
  6
BYLAYER
 10
138.9919999999999902
 20
44.8975000000000009
 30
0.0
 11
139.0459999999999923
 21
44.6670000000000016
 31
0.0
  0
LINE
  5
EE
100
AcDbEntity
100
AcDbLine
  8
int
 62
256
370
-1
 48
1.0
  6
BYLAYER
 10
139.0459999999999923
 20
44.6670000000000016
 30
0.0
 11
139.0769999999999982
 21
44.4247999999999976
 31
0.0
  0
LINE
  5
EF
100
AcDbEntity
100
AcDbLine
  8
int
 62
256
370
-1
 48
1.0
  6
BYLAYER
 10
139.0769999999999982
 20
44.4247999999999976
 30
0.0
 11
139.0829999999999984
 21
44.1768000000000001
 31
0.0
  0
LINE
  5
F0
100
AcDbEntity
100
AcDbLine
  8
int
 62
256
370
-1
 48
1.0
  6
BYLAYER
 10
139.0829999999999984
 20
44.1768000000000001
 30
0.0
 11
139.063999999999993
 21
43.9316000000000031
 31
0.0
  0
LINE
  5
F1
100
AcDbEntity
100
AcDbLine
  8
int
 62
256
370
-1
 48
1.0
  6
BYLAYER
 10
139.063999999999993
 20
43.9316000000000031
 30
0.0
 11
139.0219999999999914
 21
43.6942999999999984
 31
0.0
  0
LINE
  5
F2
100
AcDbEntity
100
AcDbLine
  8
int
 62
256
370
-1
 48
1.0
  6
BYLAYER
 10
139.0219999999999914
 20
43.6942999999999984
 30
0.0
 11
138.9569999999999936
 21
43.4716999999999985
 31
0.0
  0
LINE
  5
F3
100
AcDbEntity
100
AcDbLine
  8
int
 62
256
370
-1
 48
1.0
  6
BYLAYER
 10
138.9569999999999936
 20
43.4716999999999985
 30
0.0
 11
138.8710000000000093
 21
43.2695000000000007
 31
0.0
  0
LINE
  5
F4
100
AcDbEntity
100
AcDbLine
  8
int
 62
256
370
-1
 48
1.0
  6
BYLAYER
 10
138.8710000000000093
 20
43.2695000000000007
 30
0.0
 11
138.7659999999999911
 21
43.0947000000000031
 31
0.0
  0
LINE
  5
F5
100
AcDbEntity
100
AcDbLine
  8
int
 62
256
370
-1
 48
1.0
  6
BYLAYER
 10
138.7659999999999911
 20
43.0947000000000031
 30
0.0
 11
138.6450000000000102
 21
42.9502000000000024
 31
0.0
  0
LINE
  5
F6
100
AcDbEntity
100
AcDbLine
  8
int
 62
256
370
-1
 48
1.0
  6
BYLAYER
 10
138.6450000000000102
 20
42.9502000000000024
 30
0.0
 11
138.5109999999999957
 21
42.8417999999999992
 31
0.0
  0
LINE
  5
F7
100
AcDbEntity
100
AcDbLine
  8
int
 62
256
370
-1
 48
1.0
  6
BYLAYER
 10
138.5109999999999957
 20
42.8417999999999992
 30
0.0
 11
138.3689999999999998
 21
42.7715000000000032
 31
0.0
  0
LINE
  5
F8
100
AcDbEntity
100
AcDbLine
  8
int
 62
256
370
-1
 48
1.0
  6
BYLAYER
 10
138.3689999999999998
 20
42.7715000000000032
 30
0.0
 11
138.2220000000000084
 21
42.7402000000000015
 31
0.0
  0
LINE
  5
F9
100
AcDbEntity
100
AcDbLine
  8
int
 62
256
370
-1
 48
1.0
  6
BYLAYER
 10
138.2220000000000084
 20
42.7402000000000015
 30
0.0
 11
125.3119999999999976
 21
41.3710999999999984
 31
0.0
  0
LINE
  5
FA
100
AcDbEntity
100
AcDbLine
  8
int
 62
256
370
-1
 48
1.0
  6
BYLAYER
 10
125.3119999999999976
 20
41.3710999999999984
 30
0.0
 11
125.1550000000000011
 21
41.3721000000000032
 31
0.0
  0
LINE
  5
FB
100
AcDbEntity
100
AcDbLine
  8
int
 62
256
370
-1
 48
1.0
  6
BYLAYER
 10
97.4551000000000016
 20
35.3262
 30
0.0
 11
97.3075999999999937
 21
35.3877000000000024
 31
0.0
  0
LINE
  5
FC
100
AcDbEntity
100
AcDbLine
  8
int
 62
256
370
-1
 48
1.0
  6
BYLAYER
 10
97.3075999999999937
 20
35.3877000000000024
 30
0.0
 11
97.1688999999999936
 21
35.4893000000000001
 31
0.0
  0
LINE
  5
FD
100
AcDbEntity
100
AcDbLine
  8
int
 62
256
370
-1
 48
1.0
  6
BYLAYER
 10
97.1688999999999936
 20
35.4893000000000001
 30
0.0
 11
97.0420000000000016
 21
35.6278999999999968
 31
0.0
  0
LINE
  5
FE
100
AcDbEntity
100
AcDbLine
  8
int
 62
256
370
-1
 48
1.0
  6
BYLAYER
 10
97.0420000000000016
 20
35.6278999999999968
 30
0.0
 11
96.9316000000000031
 21
35.8008000000000024
 31
0.0
  0
LINE
  5
FF
100
AcDbEntity
100
AcDbLine
  8
int
 62
256
370
-1
 48
1.0
  6
BYLAYER
 10
96.9316000000000031
 20
35.8008000000000024
 30
0.0
 11
96.8397999999999968
 21
36.0028999999999968
 31
0.0
  0
LINE
  5
100
100
AcDbEntity
100
AcDbLine
  8
int
 62
256
370
-1
 48
1.0
  6
BYLAYER
 10
96.8397999999999968
 20
36.0028999999999968
 30
0.0
 11
96.7694999999999936
 21
36.2265999999999977
 31
0.0
  0
LINE
  5
101
100
AcDbEntity
100
AcDbLine
  8
int
 62
256
370
-1
 48
1.0
  6
BYLAYER
 10
96.7694999999999936
 20
36.2265999999999977
 30
0.0
 11
96.7227000000000032
 21
36.4677999999999969
 31
0.0
  0
LINE
  5
102
100
AcDbEntity
100
AcDbLine
  8
int
 62
256
370
-1
 48
1.0
  6
BYLAYER
 10
96.7227000000000032
 20
36.4677999999999969
 30
0.0
 11
96.7012
 21
36.7177999999999969
 31
0.0
  0
LINE
  5
103
100
AcDbEntity
100
AcDbLine
  8
int
 62
256
370
-1
 48
1.0
  6
BYLAYER
 10
96.7012
 20
36.7177999999999969
 30
0.0
 11
96.7051000000000016
 21
36.9707000000000008
 31
0.0
  0
LINE
  5
104
100
AcDbEntity
100
AcDbLine
  8
int
 62
256
370
-1
 48
1.0
  6
BYLAYER
 10
96.7051000000000016
 20
36.9707000000000008
 30
0.0
 11
96.7343999999999937
 21
37.2197000000000031
 31
0.0
  0
LINE
  5
105
100
AcDbEntity
100
AcDbLine
  8
int
 62
256
370
-1
 48
1.0
  6
BYLAYER
 10
96.7343999999999937
 20
37.2197000000000031
 30
0.0
 11
96.7881
 21
37.4560999999999993
 31
0.0
  0
LINE
  5
106
100
AcDbEntity
100
AcDbLine
  8
int
 62
256
370
-1
 48
1.0
  6
BYLAYER
 10
96.7881
 20
37.4560999999999993
 30
0.0
 11
96.8652000000000015
 21
37.6738
 31
0.0
  0
LINE
  5
107
100
AcDbEntity
100
AcDbLine
  8
int
 62
256
370
-1
 48
1.0
  6
BYLAYER
 10
96.8652000000000015
 20
37.6738
 30
0.0
 11
96.9629000000000048
 21
37.8671999999999969
 31
0.0
  0
LINE
  5
108
100
AcDbEntity
100
AcDbLine
  8
int
 62
256
370
-1
 48
1.0
  6
BYLAYER
 10
96.9629000000000048
 20
37.8671999999999969
 30
0.0
 11
107.4849999999999994
 21
55.4033000000000015
 31
0.0
  0
LINE
  5
109
100
AcDbEntity
100
AcDbLine
  8
int
 62
256
370
-1
 48
1.0
  6
BYLAYER
 10
107.4849999999999994
 20
55.4033000000000015
 30
0.0
 11
107.5930000000000035
 21
55.5566000000000031
 31
0.0
  0
LINE
  5
10A
100
AcDbEntity
100
AcDbLine
  8
int
 62
256
370
-1
 48
1.0
  6
BYLAYER
 10
107.5930000000000035
 20
55.5566000000000031
 30
0.0
 11
107.7129999999999939
 21
55.6796999999999969
 31
0.0
  0
LINE
  5
10B
100
AcDbEntity
100
AcDbLine
  8
int
 62
256
370
-1
 48
1.0
  6
BYLAYER
 10
107.7129999999999939
 20
55.6796999999999969
 30
0.0
 11
107.8430000000000035
 21
55.7695000000000007
 31
0.0
  0
LINE
  5
10C
100
AcDbEntity
100
AcDbLine
  8
int
 62
256
370
-1
 48
1.0
  6
BYLAYER
 10
107.8430000000000035
 20
55.7695000000000007
 30
0.0
 11
107.980000000000004
 21
55.8241999999999976
 31
0.0
  0
LINE
  5
10D
100
AcDbEntity
100
AcDbLine
  8
int
 62
256
370
-1
 48
1.0
  6
BYLAYER
 10
107.980000000000004
 20
55.8241999999999976
 30
0.0
 11
108.1209999999999951
 21
55.8427999999999969
 31
0.0
  0
LINE
  5
10E
100
AcDbEntity
100
AcDbLine
  8
int
 62
256
370
-1
 48
1.0
  6
BYLAYER
 10
108.1209999999999951
 20
55.8427999999999969
 30
0.0
 11
108.2620000000000005
 21
55.8241999999999976
 31
0.0
  0
LINE
  5
10F
100
AcDbEntity
100
AcDbLine
  8
int
 62
256
370
-1
 48
1.0
  6
BYLAYER
 10
108.2620000000000005
 20
55.8241999999999976
 30
0.0
 11
108.3990000000000009
 21
55.7695000000000007
 31
0.0
  0
LINE
  5
110
100
AcDbEntity
100
AcDbLine
  8
int
 62
256
370
-1
 48
1.0
  6
BYLAYER
 10
108.3990000000000009
 20
55.7695000000000007
 30
0.0
 11
108.5300000000000011
 21
55.6796999999999969
 31
0.0
  0
LINE
  5
111
100
AcDbEntity
100
AcDbLine
  8
int
 62
256
370
-1
 48
1.0
  6
BYLAYER
 10
108.5300000000000011
 20
55.6796999999999969
 30
0.0
 11
108.6500000000000057
 21
55.5566000000000031
 31
0.0
  0
LINE
  5
112
100
AcDbEntity
100
AcDbLine
  8
int
 62
256
370
-1
 48
1.0
  6
BYLAYER
 10
108.6500000000000057
 20
55.5566000000000031
 30
0.0
 11
108.7579999999999956
 21
55.4033000000000015
 31
0.0
  0
LINE
  5
113
100
AcDbEntity
100
AcDbLine
  8
int
 62
256
370
-1
 48
1.0
  6
BYLAYER
 10
108.7579999999999956
 20
55.4033000000000015
 30
0.0
 11
116.5799999999999983
 21
42.3671999999999969
 31
0.0
  0
LINE
  5
114
100
AcDbEntity
100
AcDbLine
  8
int
 62
256
370
-1
 48
1.0
  6
BYLAYER
 10
116.5799999999999983
 20
42.3671999999999969
 30
0.0
 11
116.6800000000000068
 21
42.1698999999999984
 31
0.0
  0
LINE
  5
115
100
AcDbEntity
100
AcDbLine
  8
int
 62
256
370
-1
 48
1.0
  6
BYLAYER
 10
116.6800000000000068
 20
42.1698999999999984
 30
0.0
 11
116.757000000000005
 21
41.9463000000000008
 31
0.0
  0
LINE
  5
116
100
AcDbEntity
100
AcDbLine
  8
int
 62
256
370
-1
 48
1.0
  6
BYLAYER
 10
116.757000000000005
 20
41.9463000000000008
 30
0.0
 11
116.811000000000007
 21
41.7040999999999968
 31
0.0
  0
LINE
  5
117
100
AcDbEntity
100
AcDbLine
  8
int
 62
256
370
-1
 48
1.0
  6
BYLAYER
 10
116.811000000000007
 20
41.7040999999999968
 30
0.0
 11
116.8389999999999986
 21
41.4502000000000024
 31
0.0
  0
LINE
  5
118
100
AcDbEntity
100
AcDbLine
  8
int
 62
256
370
-1
 48
1.0
  6
BYLAYER
 10
116.8389999999999986
 20
41.4502000000000024
 30
0.0
 11
116.840999999999994
 21
41.1923999999999992
 31
0.0
  0
LINE
  5
119
100
AcDbEntity
100
AcDbLine
  8
int
 62
256
370
-1
 48
1.0
  6
BYLAYER
 10
116.840999999999994
 20
41.1923999999999992
 30
0.0
 11
116.8149999999999977
 21
40.9375
 31
0.0
  0
LINE
  5
11A
100
AcDbEntity
100
AcDbLine
  8
int
 62
256
370
-1
 48
1.0
  6
BYLAYER
 10
116.8149999999999977
 20
40.9375
 30
0.0
 11
116.7650000000000006
 21
40.6933999999999969
 31
0.0
  0
LINE
  5
11B
100
AcDbEntity
100
AcDbLine
  8
int
 62
256
370
-1
 48
1.0
  6
BYLAYER
 10
116.7650000000000006
 20
40.6933999999999969
 30
0.0
 11
116.688999999999993
 21
40.4677999999999969
 31
0.0
  0
LINE
  5
11C
100
AcDbEntity
100
AcDbLine
  8
int
 62
256
370
-1
 48
1.0
  6
BYLAYER
 10
116.688999999999993
 20
40.4677999999999969
 30
0.0
 11
116.5919999999999987
 21
40.2665999999999968
 31
0.0
  0
LINE
  5
11D
100
AcDbEntity
100
AcDbLine
  8
int
 62
256
370
-1
 48
1.0
  6
BYLAYER
 10
116.5919999999999987
 20
40.2665999999999968
 30
0.0
 11
116.4759999999999991
 21
40.0966999999999985
 31
0.0
  0
LINE
  5
11E
100
AcDbEntity
100
AcDbLine
  8
int
 62
256
370
-1
 48
1.0
  6
BYLAYER
 10
116.4759999999999991
 20
40.0966999999999985
 30
0.0
 11
116.3430000000000035
 21
39.9628999999999976
 31
0.0
  0
LINE
  5
11F
100
AcDbEntity
100
AcDbLine
  8
int
 62
256
370
-1
 48
1.0
  6
BYLAYER
 10
116.3430000000000035
 20
39.9628999999999976
 30
0.0
 11
116.1979999999999933
 21
39.8682000000000016
 31
0.0
  0
LINE
  5
120
100
AcDbEntity
100
AcDbLine
  8
int
 62
256
370
-1
 48
1.0
  6
BYLAYER
 10
116.1979999999999933
 20
39.8682000000000016
 30
0.0
 11
116.046999999999997
 21
39.8164000000000016
 31
0.0
  0
LINE
  5
121
100
AcDbEntity
100
AcDbLine
  8
int
 62
256
370
-1
 48
1.0
  6
BYLAYER
 10
116.046999999999997
 20
39.8164000000000016
 30
0.0
 11
97.7578000000000031
 21
35.3301000000000016
 31
0.0
  0
LINE
  5
122
100
AcDbEntity
100
AcDbLine
  8
int
 62
256
370
-1
 48
1.0
  6
BYLAYER
 10
97.7578000000000031
 20
35.3301000000000016
 30
0.0
 11
97.6063999999999936
 21
35.3066000000000031
 31
0.0
  0
LINE
  5
123
100
AcDbEntity
100
AcDbLine
  8
int
 62
256
370
-1
 48
1.0
  6
BYLAYER
 10
97.6063999999999936
 20
35.3066000000000031
 30
0.0
 11
97.4551000000000016
 21
35.3262
 31
0.0
  0
LINE
  5
124
100
AcDbEntity
100
AcDbLine
  8
int
 62
256
370
-1
 48
1.0
  6
BYLAYER
 10
144.0430000000000064
 20
44.1621000000000024
 30
0.0
 11
143.88900000000001
 21
44.2079999999999984
 31
0.0
  0
LINE
  5
125
100
AcDbEntity
100
AcDbLine
  8
int
 62
256
370
-1
 48
1.0
  6
BYLAYER
 10
143.88900000000001
 20
44.2079999999999984
 30
0.0
 11
143.7410000000000139
 21
44.2978999999999985
 31
0.0
  0
LINE
  5
126
100
AcDbEntity
100
AcDbLine
  8
int
 62
256
370
-1
 48
1.0
  6
BYLAYER
 10
143.7410000000000139
 20
44.2978999999999985
 30
0.0
 11
143.6049999999999898
 21
44.4277000000000015
 31
0.0
  0
LINE
  5
127
100
AcDbEntity
100
AcDbLine
  8
int
 62
256
370
-1
 48
1.0
  6
BYLAYER
 10
143.6049999999999898
 20
44.4277000000000015
 30
0.0
 11
143.4850000000000136
 21
44.5966999999999985
 31
0.0
  0
LINE
  5
128
100
AcDbEntity
100
AcDbLine
  8
int
 62
256
370
-1
 48
1.0
  6
BYLAYER
 10
143.4850000000000136
 20
44.5966999999999985
 30
0.0
 11
138.5130000000000052
 21
52.8828000000000031
 31
0.0
  0
LINE
  5
129
100
AcDbEntity
100
AcDbLine
  8
int
 62
256
370
-1
 48
1.0
  6
BYLAYER
 10
138.5130000000000052
 20
52.8828000000000031
 30
0.0
 11
138.4130000000000109
 21
53.0801000000000016
 31
0.0
  0
LINE
  5
12A
100
AcDbEntity
100
AcDbLine
  8
int
 62
256
370
-1
 48
1.0
  6
BYLAYER
 10
138.4130000000000109
 20
53.0801000000000016
 30
0.0
 11
138.335000000000008
 21
53.3036999999999992
 31
0.0
  0
LINE
  5
12B
100
AcDbEntity
100
AcDbLine
  8
int
 62
256
370
-1
 48
1.0
  6
BYLAYER
 10
138.335000000000008
 20
53.3036999999999992
 30
0.0
 11
138.2810000000000059
 21
53.5459000000000032
 31
0.0
  0
LINE
  5
12C
100
AcDbEntity
100
AcDbLine
  8
int
 62
256
370
-1
 48
1.0
  6
BYLAYER
 10
138.2810000000000059
 20
53.5459000000000032
 30
0.0
 11
138.2539999999999907
 21
53.8008000000000024
 31
0.0
  0
LINE
  5
12D
100
AcDbEntity
100
AcDbLine
  8
int
 62
256
370
-1
 48
1.0
  6
BYLAYER
 10
138.2539999999999907
 20
53.8008000000000024
 30
0.0
 11
138.2520000000000095
 21
54.0585999999999984
 31
0.0
  0
LINE
  5
12E
100
AcDbEntity
100
AcDbLine
  8
int
 62
256
370
-1
 48
1.0
  6
BYLAYER
 10
138.2520000000000095
 20
54.0585999999999984
 30
0.0
 11
138.2769999999999868
 21
54.3134999999999977
 31
0.0
  0
LINE
  5
12F
100
AcDbEntity
100
AcDbLine
  8
int
 62
256
370
-1
 48
1.0
  6
BYLAYER
 10
138.2769999999999868
 20
54.3134999999999977
 30
0.0
 11
138.3290000000000077
 21
54.5576000000000008
 31
0.0
  0
LINE
  5
130
100
AcDbEntity
100
AcDbLine
  8
int
 62
256
370
-1
 48
1.0
  6
BYLAYER
 10
138.3290000000000077
 20
54.5576000000000008
 30
0.0
 11
138.4039999999999964
 21
54.7841999999999985
 31
0.0
  0
LINE
  5
131
100
AcDbEntity
100
AcDbLine
  8
int
 62
256
370
-1
 48
1.0
  6
BYLAYER
 10
138.4039999999999964
 20
54.7841999999999985
 30
0.0
 11
138.5020000000000095
 21
54.9844000000000008
 31
0.0
  0
LINE
  5
132
100
AcDbEntity
100
AcDbLine
  8
int
 62
256
370
-1
 48
1.0
  6
BYLAYER
 10
138.5020000000000095
 20
54.9844000000000008
 30
0.0
 11
138.6189999999999998
 21
55.1542999999999992
 31
0.0
  0
LINE
  5
133
100
AcDbEntity
100
AcDbLine
  8
int
 62
256
370
-1
 48
1.0
  6
BYLAYER
 10
138.6189999999999998
 20
55.1542999999999992
 30
0.0
 11
138.7510000000000048
 21
55.2881
 31
0.0
  0
LINE
  5
134
100
AcDbEntity
100
AcDbLine
  8
int
 62
256
370
-1
 48
1.0
  6
BYLAYER
 10
138.7510000000000048
 20
55.2881
 30
0.0
 11
138.8959999999999866
 21
55.3817999999999984
 31
0.0
  0
LINE
  5
135
100
AcDbEntity
100
AcDbLine
  8
int
 62
256
370
-1
 48
1.0
  6
BYLAYER
 10
138.8959999999999866
 20
55.3817999999999984
 30
0.0
 11
139.0480000000000018
 21
55.4335999999999984
 31
0.0
  0
LINE
  5
136
100
AcDbEntity
100
AcDbLine
  8
int
 62
256
370
-1
 48
1.0
  6
BYLAYER
 10
139.0480000000000018
 20
55.4335999999999984
 30
0.0
 11
139.203000000000003
 21
55.4403999999999968
 31
0.0
  0
LINE
  5
137
100
AcDbEntity
100
AcDbLine
  8
int
 62
256
370
-1
 48
1.0
  6
BYLAYER
 10
139.203000000000003
 20
55.4403999999999968
 30
0.0
 11
148.5039999999999907
 21
54.3301000000000016
 31
0.0
  0
LINE
  5
138
100
AcDbEntity
100
AcDbLine
  8
int
 62
256
370
-1
 48
1.0
  6
BYLAYER
 10
148.5039999999999907
 20
54.3301000000000016
 30
0.0
 11
148.6469999999999914
 21
54.2899999999999991
 31
0.0
  0
LINE
  5
139
100
AcDbEntity
100
AcDbLine
  8
int
 62
256
370
-1
 48
1.0
  6
BYLAYER
 10
148.6469999999999914
 20
54.2899999999999991
 30
0.0
 11
148.7860000000000014
 21
54.2119
 31
0.0
  0
LINE
  5
13A
100
AcDbEntity
100
AcDbLine
  8
int
 62
256
370
-1
 48
1.0
  6
BYLAYER
 10
148.7860000000000014
 20
54.2119
 30
0.0
 11
148.9139999999999873
 21
54.0977000000000032
 31
0.0
  0
LINE
  5
13B
100
AcDbEntity
100
AcDbLine
  8
int
 62
256
370
-1
 48
1.0
  6
BYLAYER
 10
148.9139999999999873
 20
54.0977000000000032
 30
0.0
 11
149.0300000000000011
 21
53.9491999999999976
 31
0.0
  0
LINE
  5
13C
100
AcDbEntity
100
AcDbLine
  8
int
 62
256
370
-1
 48
1.0
  6
BYLAYER
 10
149.0300000000000011
 20
53.9491999999999976
 30
0.0
 11
149.1310000000000002
 21
53.7725000000000009
 31
0.0
  0
LINE
  5
13D
100
AcDbEntity
100
AcDbLine
  8
int
 62
256
370
-1
 48
1.0
  6
BYLAYER
 10
149.1310000000000002
 20
53.7725000000000009
 30
0.0
 11
149.2119999999999891
 21
53.5713000000000008
 31
0.0
  0
LINE
  5
13E
100
AcDbEntity
100
AcDbLine
  8
int
 62
256
370
-1
 48
1.0
  6
BYLAYER
 10
149.2119999999999891
 20
53.5713000000000008
 30
0.0
 11
149.2729999999999961
 21
53.3506
 31
0.0
  0
LINE
  5
13F
100
AcDbEntity
100
AcDbLine
  8
int
 62
256
370
-1
 48
1.0
  6
BYLAYER
 10
149.2729999999999961
 20
53.3506
 30
0.0
 11
149.3120000000000118
 21
53.1161999999999992
 31
0.0
  0
LINE
  5
140
100
AcDbEntity
100
AcDbLine
  8
int
 62
256
370
-1
 48
1.0
  6
BYLAYER
 10
149.3120000000000118
 20
53.1161999999999992
 30
0.0
 11
149.328000000000003
 21
52.8740000000000023
 31
0.0
  0
LINE
  5
141
100
AcDbEntity
100
AcDbLine
  8
int
 62
256
370
-1
 48
1.0
  6
BYLAYER
 10
149.328000000000003
 20
52.8740000000000023
 30
0.0
 11
149.3199999999999932
 21
52.6317999999999984
 31
0.0
  0
LINE
  5
142
100
AcDbEntity
100
AcDbLine
  8
int
 62
256
370
-1
 48
1.0
  6
BYLAYER
 10
149.3199999999999932
 20
52.6317999999999984
 30
0.0
 11
149.2880000000000109
 21
52.3935999999999993
 31
0.0
  0
LINE
  5
143
100
AcDbEntity
100
AcDbLine
  8
int
 62
256
370
-1
 48
1.0
  6
BYLAYER
 10
149.2880000000000109
 20
52.3935999999999993
 30
0.0
 11
149.2340000000000089
 21
52.1679999999999993
 31
0.0
  0
LINE
  5
144
100
AcDbEntity
100
AcDbLine
  8
int
 62
256
370
-1
 48
1.0
  6
BYLAYER
 10
149.2340000000000089
 20
52.1679999999999993
 30
0.0
 11
149.1589999999999918
 21
51.9600000000000009
 31
0.0
  0
LINE
  5
145
100
AcDbEntity
100
AcDbLine
  8
int
 62
256
370
-1
 48
1.0
  6
BYLAYER
 10
149.1589999999999918
 20
51.9600000000000009
 30
0.0
 11
149.063999999999993
 21
51.7744
 31
0.0
  0
LINE
  5
146
100
AcDbEntity
100
AcDbLine
  8
int
 62
256
370
-1
 48
1.0
  6
BYLAYER
 10
149.063999999999993
 20
51.7744
 30
0.0
 11
144.7580000000000098
 21
44.5966999999999985
 31
0.0
  0
LINE
  5
147
100
AcDbEntity
100
AcDbLine
  8
int
 62
256
370
-1
 48
1.0
  6
BYLAYER
 10
144.7580000000000098
 20
44.5966999999999985
 30
0.0
 11
144.6380000000000052
 21
44.4277000000000015
 31
0.0
  0
LINE
  5
148
100
AcDbEntity
100
AcDbLine
  8
int
 62
256
370
-1
 48
1.0
  6
BYLAYER
 10
144.6380000000000052
 20
44.4277000000000015
 30
0.0
 11
144.5020000000000095
 21
44.2978999999999985
 31
0.0
  0
LINE
  5
149
100
AcDbEntity
100
AcDbLine
  8
int
 62
256
370
-1
 48
1.0
  6
BYLAYER
 10
144.5020000000000095
 20
44.2978999999999985
 30
0.0
 11
144.3540000000000134
 21
44.2079999999999984
 31
0.0
  0
LINE
  5
14A
100
AcDbEntity
100
AcDbLine
  8
int
 62
256
370
-1
 48
1.0
  6
BYLAYER
 10
144.3540000000000134
 20
44.2079999999999984
 30
0.0
 11
144.1999999999999886
 21
44.1621000000000024
 31
0.0
  0
LINE
  5
14B
100
AcDbEntity
100
AcDbLine
  8
int
 62
256
370
-1
 48
1.0
  6
BYLAYER
 10
144.1999999999999886
 20
44.1621000000000024
 30
0.0
 11
144.0430000000000064
 21
44.1621000000000024
 31
0.0
  0
LINE
  5
14C
100
AcDbEntity
100
AcDbLine
  8
int
 62
256
370
-1
 48
1.0
  6
BYLAYER
 10
162.4099999999999966
 20
43.4600000000000009
 30
0.0
 11
162.2719999999999914
 21
43.5146000000000015
 31
0.0
  0
LINE
  5
14D
100
AcDbEntity
100
AcDbLine
  8
int
 62
256
370
-1
 48
1.0
  6
BYLAYER
 10
162.2719999999999914
 20
43.5146000000000015
 30
0.0
 11
162.1419999999999959
 21
43.6054999999999993
 31
0.0
  0
LINE
  5
14E
100
AcDbEntity
100
AcDbLine
  8
int
 62
256
370
-1
 48
1.0
  6
BYLAYER
 10
162.1419999999999959
 20
43.6054999999999993
 30
0.0
 11
162.0209999999999866
 21
43.7284999999999968
 31
0.0
  0
LINE
  5
14F
100
AcDbEntity
100
AcDbLine
  8
int
 62
256
370
-1
 48
1.0
  6
BYLAYER
 10
162.0209999999999866
 20
43.7284999999999968
 30
0.0
 11
161.9139999999999873
 21
43.8808999999999969
 31
0.0
  0
LINE
  5
150
100
AcDbEntity
100
AcDbLine
  8
int
 62
256
370
-1
 48
1.0
  6
BYLAYER
 10
161.9139999999999873
 20
43.8808999999999969
 30
0.0
 11
158.210000000000008
 21
50.0557000000000016
 31
0.0
  0
LINE
  5
151
100
AcDbEntity
100
AcDbLine
  8
int
 62
256
370
-1
 48
1.0
  6
BYLAYER
 10
158.210000000000008
 20
50.0557000000000016
 30
0.0
 11
158.1140000000000043
 21
50.2432000000000016
 31
0.0
  0
LINE
  5
152
100
AcDbEntity
100
AcDbLine
  8
int
 62
256
370
-1
 48
1.0
  6
BYLAYER
 10
158.1140000000000043
 20
50.2432000000000016
 30
0.0
 11
158.0380000000000109
 21
50.4551000000000016
 31
0.0
  0
LINE
  5
153
100
AcDbEntity
100
AcDbLine
  8
int
 62
256
370
-1
 48
1.0
  6
BYLAYER
 10
158.0380000000000109
 20
50.4551000000000016
 30
0.0
 11
157.9840000000000089
 21
50.6846000000000032
 31
0.0
  0
LINE
  5
154
100
AcDbEntity
100
AcDbLine
  8
int
 62
256
370
-1
 48
1.0
  6
BYLAYER
 10
157.9840000000000089
 20
50.6846000000000032
 30
0.0
 11
157.953000000000003
 21
50.9258000000000024
 31
0.0
  0
LINE
  5
155
100
AcDbEntity
100
AcDbLine
  8
int
 62
256
370
-1
 48
1.0
  6
BYLAYER
 10
157.953000000000003
 20
50.9258000000000024
 30
0.0
 11
157.945999999999998
 21
51.1728999999999985
 31
0.0
  0
LINE
  5
156
100
AcDbEntity
100
AcDbLine
  8
int
 62
256
370
-1
 48
1.0
  6
BYLAYER
 10
157.945999999999998
 20
51.1728999999999985
 30
0.0
 11
157.9639999999999986
 21
51.4170000000000016
 31
0.0
  0
LINE
  5
157
100
AcDbEntity
100
AcDbLine
  8
int
 62
256
370
-1
 48
1.0
  6
BYLAYER
 10
157.9639999999999986
 20
51.4170000000000016
 30
0.0
 11
158.0060000000000002
 21
51.6542999999999992
 31
0.0
  0
LINE
  5
158
100
AcDbEntity
100
AcDbLine
  8
int
 62
256
370
-1
 48
1.0
  6
BYLAYER
 10
158.0060000000000002
 20
51.6542999999999992
 30
0.0
 11
158.0699999999999932
 21
51.8759999999999977
 31
0.0
  0
LINE
  5
159
100
AcDbEntity
100
AcDbLine
  8
int
 62
256
370
-1
 48
1.0
  6
BYLAYER
 10
158.0699999999999932
 20
51.8759999999999977
 30
0.0
 11
158.1550000000000011
 21
52.0780999999999992
 31
0.0
  0
LINE
  5
15A
100
AcDbEntity
100
AcDbLine
  8
int
 62
256
370
-1
 48
1.0
  6
BYLAYER
 10
158.1550000000000011
 20
52.0780999999999992
 30
0.0
 11
158.2599999999999909
 21
52.2539000000000016
 31
0.0
  0
LINE
  5
15B
100
AcDbEntity
100
AcDbLine
  8
int
 62
256
370
-1
 48
1.0
  6
BYLAYER
 10
158.2599999999999909
 20
52.2539000000000016
 30
0.0
 11
158.3789999999999907
 21
52.3984000000000023
 31
0.0
  0
LINE
  5
15C
100
AcDbEntity
100
AcDbLine
  8
int
 62
256
370
-1
 48
1.0
  6
BYLAYER
 10
158.3789999999999907
 20
52.3984000000000023
 30
0.0
 11
158.5120000000000005
 21
52.5088000000000008
 31
0.0
  0
LINE
  5
15D
100
AcDbEntity
100
AcDbLine
  8
int
 62
256
370
-1
 48
1.0
  6
BYLAYER
 10
158.5120000000000005
 20
52.5088000000000008
 30
0.0
 11
158.6529999999999916
 21
52.5810999999999993
 31
0.0
  0
LINE
  5
15E
100
AcDbEntity
100
AcDbLine
  8
int
 62
256
370
-1
 48
1.0
  6
BYLAYER
 10
158.6529999999999916
 20
52.5810999999999993
 30
0.0
 11
158.8000000000000114
 21
52.6143000000000001
 31
0.0
  0
LINE
  5
15F
100
AcDbEntity
100
AcDbLine
  8
int
 62
256
370
-1
 48
1.0
  6
BYLAYER
 10
158.8000000000000114
 20
52.6143000000000001
 30
0.0
 11
158.9470000000000027
 21
52.6064000000000007
 31
0.0
  0
LINE
  5
160
100
AcDbEntity
100
AcDbLine
  8
int
 62
256
370
-1
 48
1.0
  6
BYLAYER
 10
158.9470000000000027
 20
52.6064000000000007
 30
0.0
 11
165.5620000000000118
 21
51.25
 31
0.0
  0
LINE
  5
161
100
AcDbEntity
100
AcDbLine
  8
int
 62
256
370
-1
 48
1.0
  6
BYLAYER
 10
165.5620000000000118
 20
51.25
 30
0.0
 11
165.7119999999999891
 21
51.1953000000000031
 31
0.0
  0
LINE
  5
162
100
AcDbEntity
100
AcDbLine
  8
int
 62
256
370
-1
 48
1.0
  6
BYLAYER
 10
165.7119999999999891
 20
51.1953000000000031
 30
0.0
 11
165.8540000000000134
 21
51.0977000000000032
 31
0.0
  0
LINE
  5
163
100
AcDbEntity
100
AcDbLine
  8
int
 62
256
370
-1
 48
1.0
  6
BYLAYER
 10
165.8540000000000134
 20
51.0977000000000032
 30
0.0
 11
165.9840000000000089
 21
50.9619
 31
0.0
  0
LINE
  5
164
100
AcDbEntity
100
AcDbLine
  8
int
 62
256
370
-1
 48
1.0
  6
BYLAYER
 10
165.9840000000000089
 20
50.9619
 30
0.0
 11
166.0989999999999895
 21
50.7909999999999968
 31
0.0
  0
LINE
  5
165
100
AcDbEntity
100
AcDbLine
  8
int
 62
256
370
-1
 48
1.0
  6
BYLAYER
 10
166.0989999999999895
 20
50.7909999999999968
 30
0.0
 11
166.1939999999999884
 21
50.5897999999999968
 31
0.0
  0
LINE
  5
166
100
AcDbEntity
100
AcDbLine
  8
int
 62
256
370
-1
 48
1.0
  6
BYLAYER
 10
166.1939999999999884
 20
50.5897999999999968
 30
0.0
 11
166.2680000000000007
 21
50.3643000000000001
 31
0.0
  0
LINE
  5
167
100
AcDbEntity
100
AcDbLine
  8
int
 62
256
370
-1
 48
1.0
  6
BYLAYER
 10
166.2680000000000007
 20
50.3643000000000001
 30
0.0
 11
166.3170000000000073
 21
50.1221000000000032
 31
0.0
  0
LINE
  5
168
100
AcDbEntity
100
AcDbLine
  8
int
 62
256
370
-1
 48
1.0
  6
BYLAYER
 10
166.3170000000000073
 20
50.1221000000000032
 30
0.0
 11
166.3410000000000082
 21
49.8682000000000016
 31
0.0
  0
LINE
  5
169
100
AcDbEntity
100
AcDbLine
  8
int
 62
256
370
-1
 48
1.0
  6
BYLAYER
 10
166.3410000000000082
 20
49.8682000000000016
 30
0.0
 11
166.3389999999999986
 21
49.6122999999999976
 31
0.0
  0
LINE
  5
16A
100
AcDbEntity
100
AcDbLine
  8
int
 62
256
370
-1
 48
1.0
  6
BYLAYER
 10
166.3389999999999986
 20
49.6122999999999976
 30
0.0
 11
166.311000000000007
 21
49.3603999999999985
 31
0.0
  0
LINE
  5
16B
100
AcDbEntity
100
AcDbLine
  8
int
 62
256
370
-1
 48
1.0
  6
BYLAYER
 10
166.311000000000007
 20
49.3603999999999985
 30
0.0
 11
166.257000000000005
 21
49.1201000000000008
 31
0.0
  0
LINE
  5
16C
100
AcDbEntity
100
AcDbLine
  8
int
 62
256
370
-1
 48
1.0
  6
BYLAYER
 10
166.257000000000005
 20
49.1201000000000008
 30
0.0
 11
166.179000000000002
 21
48.8984000000000023
 31
0.0
  0
LINE
  5
16D
100
AcDbEntity
100
AcDbLine
  8
int
 62
256
370
-1
 48
1.0
  6
BYLAYER
 10
166.179000000000002
 20
48.8984000000000023
 30
0.0
 11
166.0800000000000125
 21
48.7030999999999992
 31
0.0
  0
LINE
  5
16E
100
AcDbEntity
100
AcDbLine
  8
int
 62
256
370
-1
 48
1.0
  6
BYLAYER
 10
166.0800000000000125
 20
48.7030999999999992
 30
0.0
 11
163.1870000000000118
 21
43.8808999999999969
 31
0.0
  0
LINE
  5
16F
100
AcDbEntity
100
AcDbLine
  8
int
 62
256
370
-1
 48
1.0
  6
BYLAYER
 10
163.1870000000000118
 20
43.8808999999999969
 30
0.0
 11
163.0790000000000077
 21
43.7284999999999968
 31
0.0
  0
LINE
  5
170
100
AcDbEntity
100
AcDbLine
  8
int
 62
256
370
-1
 48
1.0
  6
BYLAYER
 10
163.0790000000000077
 20
43.7284999999999968
 30
0.0
 11
162.9590000000000032
 21
43.6054999999999993
 31
0.0
  0
LINE
  5
171
100
AcDbEntity
100
AcDbLine
  8
int
 62
256
370
-1
 48
1.0
  6
BYLAYER
 10
162.9590000000000032
 20
43.6054999999999993
 30
0.0
 11
162.828000000000003
 21
43.5146000000000015
 31
0.0
  0
LINE
  5
172
100
AcDbEntity
100
AcDbLine
  8
int
 62
256
370
-1
 48
1.0
  6
BYLAYER
 10
162.828000000000003
 20
43.5146000000000015
 30
0.0
 11
162.6910000000000025
 21
43.4600000000000009
 31
0.0
  0
LINE
  5
173
100
AcDbEntity
100
AcDbLine
  8
int
 62
256
370
-1
 48
1.0
  6
BYLAYER
 10
162.6910000000000025
 20
43.4600000000000009
 30
0.0
 11
162.5509999999999877
 21
43.4414000000000016
 31
0.0
  0
LINE
  5
174
100
AcDbEntity
100
AcDbLine
  8
int
 62
256
370
-1
 48
1.0
  6
BYLAYER
 10
162.5509999999999877
 20
43.4414000000000016
 30
0.0
 11
162.4099999999999966
 21
43.4600000000000009
 31
0.0
  0
LINE
  5
175
100
AcDbEntity
100
AcDbLine
  8
int
 62
256
370
-1
 48
1.0
  6
BYLAYER
 10
56.1670000000000016
 20
18.0067999999999984
 30
0.0
 11
56.0215000000000032
 21
18.0731999999999999
 31
0.0
  0
LINE
  5
176
100
AcDbEntity
100
AcDbLine
  8
int
 62
256
370
-1
 48
1.0
  6
BYLAYER
 10
56.0215000000000032
 20
18.0731999999999999
 30
0.0
 11
55.8856999999999999
 21
18.1786999999999992
 31
0.0
  0
LINE
  5
177
100
AcDbEntity
100
AcDbLine
  8
int
 62
256
370
-1
 48
1.0
  6
BYLAYER
 10
55.8856999999999999
 20
18.1786999999999992
 30
0.0
 11
55.7616999999999976
 21
18.3202999999999996
 31
0.0
  0
LINE
  5
178
100
AcDbEntity
100
AcDbLine
  8
int
 62
256
370
-1
 48
1.0
  6
BYLAYER
 10
55.7616999999999976
 20
18.3202999999999996
 30
0.0
 11
55.6542999999999992
 21
18.4940999999999995
 31
0.0
  0
LINE
  5
179
100
AcDbEntity
100
AcDbLine
  8
int
 62
256
370
-1
 48
1.0
  6
BYLAYER
 10
55.6542999999999992
 20
18.4940999999999995
 30
0.0
 11
55.5645000000000024
 21
18.6952999999999996
 31
0.0
  0
LINE
  5
17A
100
AcDbEntity
100
AcDbLine
  8
int
 62
256
370
-1
 48
1.0
  6
BYLAYER
 10
55.5645000000000024
 20
18.6952999999999996
 30
0.0
 11
55.4971000000000032
 21
18.9189000000000007
 31
0.0
  0
LINE
  5
17B
100
AcDbEntity
100
AcDbLine
  8
int
 62
256
370
-1
 48
1.0
  6
BYLAYER
 10
55.4971000000000032
 20
18.9189000000000007
 30
0.0
 11
55.4521000000000015
 21
19.1582000000000008
 31
0.0
  0
LINE
  5
17C
100
AcDbEntity
100
AcDbLine
  8
int
 62
256
370
-1
 48
1.0
  6
BYLAYER
 10
55.4521000000000015
 20
19.1582000000000008
 30
0.0
 11
55.4326000000000008
 21
19.4061999999999983
 31
0.0
  0
LINE
  5
17D
100
AcDbEntity
100
AcDbLine
  8
int
 62
256
370
-1
 48
1.0
  6
BYLAYER
 10
55.4326000000000008
 20
19.4061999999999983
 30
0.0
 11
55.4375
 21
19.6561999999999983
 31
0.0
  0
LINE
  5
17E
100
AcDbEntity
100
AcDbLine
  8
int
 62
256
370
-1
 48
1.0
  6
BYLAYER
 10
55.4375
 20
19.6561999999999983
 30
0.0
 11
55.4677999999999969
 21
19.9013999999999989
 31
0.0
  0
LINE
  5
17F
100
AcDbEntity
100
AcDbLine
  8
int
 62
256
370
-1
 48
1.0
  6
BYLAYER
 10
55.4677999999999969
 20
19.9013999999999989
 30
0.0
 11
55.5215000000000032
 21
20.1356999999999999
 31
0.0
  0
LINE
  5
180
100
AcDbEntity
100
AcDbLine
  8
int
 62
256
370
-1
 48
1.0
  6
BYLAYER
 10
55.5215000000000032
 20
20.1356999999999999
 30
0.0
 11
55.5977000000000032
 21
20.3506
 31
0.0
  0
LINE
  5
181
100
AcDbEntity
100
AcDbLine
  8
int
 62
256
370
-1
 48
1.0
  6
BYLAYER
 10
55.5977000000000032
 20
20.3506
 30
0.0
 11
55.6953000000000031
 21
20.5420000000000016
 31
0.0
  0
LINE
  5
182
100
AcDbEntity
100
AcDbLine
  8
int
 62
256
370
-1
 48
1.0
  6
BYLAYER
 10
55.6953000000000031
 20
20.5420000000000016
 30
0.0
 11
74.0488
 21
51.1308999999999969
 31
0.0
  0
LINE
  5
183
100
AcDbEntity
100
AcDbLine
  8
int
 62
256
370
-1
 48
1.0
  6
BYLAYER
 10
74.0488
 20
51.1308999999999969
 30
0.0
 11
74.1688999999999936
 21
51.2988
 31
0.0
  0
LINE
  5
184
100
AcDbEntity
100
AcDbLine
  8
int
 62
256
370
-1
 48
1.0
  6
BYLAYER
 10
74.1688999999999936
 20
51.2988
 30
0.0
 11
74.3046999999999969
 21
51.4296999999999969
 31
0.0
  0
LINE
  5
185
100
AcDbEntity
100
AcDbLine
  8
int
 62
256
370
-1
 48
1.0
  6
BYLAYER
 10
74.3046999999999969
 20
51.4296999999999969
 30
0.0
 11
74.4521000000000015
 21
51.5195000000000007
 31
0.0
  0
LINE
  5
186
100
AcDbEntity
100
AcDbLine
  8
int
 62
256
370
-1
 48
1.0
  6
BYLAYER
 10
74.4521000000000015
 20
51.5195000000000007
 30
0.0
 11
74.6063999999999936
 21
51.5645000000000024
 31
0.0
  0
LINE
  5
187
100
AcDbEntity
100
AcDbLine
  8
int
 62
256
370
-1
 48
1.0
  6
BYLAYER
 10
74.6063999999999936
 20
51.5645000000000024
 30
0.0
 11
74.7637
 21
51.5645000000000024
 31
0.0
  0
LINE
  5
188
100
AcDbEntity
100
AcDbLine
  8
int
 62
256
370
-1
 48
1.0
  6
BYLAYER
 10
74.7637
 20
51.5645000000000024
 30
0.0
 11
74.9180000000000064
 21
51.5195000000000007
 31
0.0
  0
LINE
  5
189
100
AcDbEntity
100
AcDbLine
  8
int
 62
256
370
-1
 48
1.0
  6
BYLAYER
 10
74.9180000000000064
 20
51.5195000000000007
 30
0.0
 11
75.0653999999999968
 21
51.4296999999999969
 31
0.0
  0
LINE
  5
18A
100
AcDbEntity
100
AcDbLine
  8
int
 62
256
370
-1
 48
1.0
  6
BYLAYER
 10
75.0653999999999968
 20
51.4296999999999969
 30
0.0
 11
75.2012
 21
51.2988
 31
0.0
  0
LINE
  5
18B
100
AcDbEntity
100
AcDbLine
  8
int
 62
256
370
-1
 48
1.0
  6
BYLAYER
 10
75.2012
 20
51.2988
 30
0.0
 11
75.3212999999999937
 21
51.1308999999999969
 31
0.0
  0
LINE
  5
18C
100
AcDbEntity
100
AcDbLine
  8
int
 62
256
370
-1
 48
1.0
  6
BYLAYER
 10
75.3212999999999937
 20
51.1308999999999969
 30
0.0
 11
85.7744
 21
33.7090000000000032
 31
0.0
  0
LINE
  5
18D
100
AcDbEntity
100
AcDbLine
  8
int
 62
256
370
-1
 48
1.0
  6
BYLAYER
 10
85.7744
 20
33.7090000000000032
 30
0.0
 11
85.8700999999999937
 21
33.5204999999999984
 31
0.0
  0
LINE
  5
18E
100
AcDbEntity
100
AcDbLine
  8
int
 62
256
370
-1
 48
1.0
  6
BYLAYER
 10
85.8700999999999937
 20
33.5204999999999984
 30
0.0
 11
85.9462999999999937
 21
33.3085999999999984
 31
0.0
  0
LINE
  5
18F
100
AcDbEntity
100
AcDbLine
  8
int
 62
256
370
-1
 48
1.0
  6
BYLAYER
 10
85.9462999999999937
 20
33.3085999999999984
 30
0.0
 11
86.0
 21
33.0801000000000016
 31
0.0
  0
LINE
  5
190
100
AcDbEntity
100
AcDbLine
  8
int
 62
256
370
-1
 48
1.0
  6
BYLAYER
 10
86.0
 20
33.0801000000000016
 30
0.0
 11
86.0311999999999983
 21
32.8389000000000024
 31
0.0
  0
LINE
  5
191
100
AcDbEntity
100
AcDbLine
  8
int
 62
256
370
-1
 48
1.0
  6
BYLAYER
 10
86.0311999999999983
 20
32.8389000000000024
 30
0.0
 11
86.0381
 21
32.5927999999999969
 31
0.0
  0
LINE
  5
192
100
AcDbEntity
100
AcDbLine
  8
int
 62
256
370
-1
 48
1.0
  6
BYLAYER
 10
86.0381
 20
32.5927999999999969
 30
0.0
 11
86.0204999999999984
 21
32.3477000000000032
 31
0.0
  0
LINE
  5
193
100
AcDbEntity
100
AcDbLine
  8
int
 62
256
370
-1
 48
1.0
  6
BYLAYER
 10
86.0204999999999984
 20
32.3477000000000032
 30
0.0
 11
85.9784999999999968
 21
32.1113
 31
0.0
  0
LINE
  5
194
100
AcDbEntity
100
AcDbLine
  8
int
 62
256
370
-1
 48
1.0
  6
BYLAYER
 10
85.9784999999999968
 20
32.1113
 30
0.0
 11
85.9150000000000063
 21
31.8887
 31
0.0
  0
LINE
  5
195
100
AcDbEntity
100
AcDbLine
  8
int
 62
256
370
-1
 48
1.0
  6
BYLAYER
 10
85.9150000000000063
 20
31.8887
 30
0.0
 11
85.8301000000000016
 21
31.6875
 31
0.0
  0
LINE
  5
196
100
AcDbEntity
100
AcDbLine
  8
int
 62
256
370
-1
 48
1.0
  6
BYLAYER
 10
85.8301000000000016
 20
31.6875
 30
0.0
 11
85.7256
 21
31.5117000000000012
 31
0.0
  0
LINE
  5
197
100
AcDbEntity
100
AcDbLine
  8
int
 62
256
370
-1
 48
1.0
  6
BYLAYER
 10
85.7256
 20
31.5117000000000012
 30
0.0
 11
85.6063999999999936
 21
31.3672000000000004
 31
0.0
  0
LINE
  5
198
100
AcDbEntity
100
AcDbLine
  8
int
 62
256
370
-1
 48
1.0
  6
BYLAYER
 10
85.6063999999999936
 20
31.3672000000000004
 30
0.0
 11
85.4745999999999952
 21
31.2559000000000005
 31
0.0
  0
LINE
  5
199
100
AcDbEntity
100
AcDbLine
  8
int
 62
256
370
-1
 48
1.0
  6
BYLAYER
 10
85.4745999999999952
 20
31.2559000000000005
 30
0.0
 11
85.3329999999999984
 21
31.1835999999999984
 31
0.0
  0
LINE
  5
19A
100
AcDbEntity
100
AcDbLine
  8
int
 62
256
370
-1
 48
1.0
  6
BYLAYER
 10
85.3329999999999984
 20
31.1835999999999984
 30
0.0
 11
56.6122999999999976
 21
18.0565999999999995
 31
0.0
  0
LINE
  5
19B
100
AcDbEntity
100
AcDbLine
  8
int
 62
256
370
-1
 48
1.0
  6
BYLAYER
 10
56.6122999999999976
 20
18.0565999999999995
 30
0.0
 11
56.4658000000000015
 21
17.9980000000000011
 31
0.0
  0
LINE
  5
19C
100
AcDbEntity
100
AcDbLine
  8
int
 62
256
370
-1
 48
1.0
  6
BYLAYER
 10
56.4658000000000015
 20
17.9980000000000011
 30
0.0
 11
56.3164000000000016
 21
17.9814000000000007
 31
0.0
  0
LINE
  5
19D
100
AcDbEntity
100
AcDbLine
  8
int
 62
256
370
-1
 48
1.0
  6
BYLAYER
 10
56.3164000000000016
 20
17.9814000000000007
 30
0.0
 11
56.1670000000000016
 21
18.0067999999999984
 31
0.0
  0
LINE
  5
19E
100
AcDbEntity
100
AcDbLine
  8
int
 62
256
370
-1
 48
1.0
  6
BYLAYER
 10
150.3340000000000032
 20
43.1923999999999992
 30
0.0
 11
150.1829999999999927
 21
43.2119
 31
0.0
  0
LINE
  5
19F
100
AcDbEntity
100
AcDbLine
  8
int
 62
256
370
-1
 48
1.0
  6
BYLAYER
 10
150.1829999999999927
 20
43.2119
 30
0.0
 11
150.0360000000000014
 21
43.2744
 31
0.0
  0
LINE
  5
1A0
100
AcDbEntity
100
AcDbLine
  8
int
 62
256
370
-1
 48
1.0
  6
BYLAYER
 10
150.0360000000000014
 20
43.2744
 30
0.0
 11
149.8969999999999914
 21
43.3770000000000024
 31
0.0
  0
LINE
  5
1A1
100
AcDbEntity
100
AcDbLine
  8
int
 62
256
370
-1
 48
1.0
  6
BYLAYER
 10
149.8969999999999914
 20
43.3770000000000024
 30
0.0
 11
149.7709999999999866
 21
43.5165999999999968
 31
0.0
  0
LINE
  5
1A2
100
AcDbEntity
100
AcDbLine
  8
int
 62
256
370
-1
 48
1.0
  6
BYLAYER
 10
149.7709999999999866
 20
43.5165999999999968
 30
0.0
 11
149.6610000000000014
 21
43.6903999999999968
 31
0.0
  0
LINE
  5
1A3
100
AcDbEntity
100
AcDbLine
  8
int
 62
256
370
-1
 48
1.0
  6
BYLAYER
 10
149.6610000000000014
 20
43.6903999999999968
 30
0.0
 11
149.5689999999999884
 21
43.8915999999999968
 31
0.0
  0
LINE
  5
1A4
100
AcDbEntity
100
AcDbLine
  8
int
 62
256
370
-1
 48
1.0
  6
BYLAYER
 10
149.5689999999999884
 20
43.8915999999999968
 30
0.0
 11
149.5
 21
44.1152000000000015
 31
0.0
  0
LINE
  5
1A5
100
AcDbEntity
100
AcDbLine
  8
int
 62
256
370
-1
 48
1.0
  6
BYLAYER
 10
149.5
 20
44.1152000000000015
 30
0.0
 11
149.453000000000003
 21
44.3564000000000007
 31
0.0
  0
LINE
  5
1A6
100
AcDbEntity
100
AcDbLine
  8
int
 62
256
370
-1
 48
1.0
  6
BYLAYER
 10
149.453000000000003
 20
44.3564000000000007
 30
0.0
 11
149.4319999999999879
 21
44.6064000000000007
 31
0.0
  0
LINE
  5
1A7
100
AcDbEntity
100
AcDbLine
  8
int
 62
256
370
-1
 48
1.0
  6
BYLAYER
 10
149.4319999999999879
 20
44.6064000000000007
 30
0.0
 11
149.4370000000000118
 21
44.8584000000000032
 31
0.0
  0
LINE
  5
1A8
100
AcDbEntity
100
AcDbLine
  8
int
 62
256
370
-1
 48
1.0
  6
BYLAYER
 10
149.4370000000000118
 20
44.8584000000000032
 30
0.0
 11
149.4660000000000082
 21
45.1064000000000007
 31
0.0
  0
LINE
  5
1A9
100
AcDbEntity
100
AcDbLine
  8
int
 62
256
370
-1
 48
1.0
  6
BYLAYER
 10
149.4660000000000082
 20
45.1064000000000007
 30
0.0
 11
149.5200000000000102
 21
45.3417999999999992
 31
0.0
  0
LINE
  5
1AA
100
AcDbEntity
100
AcDbLine
  8
int
 62
256
370
-1
 48
1.0
  6
BYLAYER
 10
149.5200000000000102
 20
45.3417999999999992
 30
0.0
 11
149.5970000000000084
 21
45.5596000000000032
 31
0.0
  0
LINE
  5
1AB
100
AcDbEntity
100
AcDbLine
  8
int
 62
256
370
-1
 48
1.0
  6
BYLAYER
 10
149.5970000000000084
 20
45.5596000000000032
 30
0.0
 11
149.6939999999999884
 21
45.7528999999999968
 31
0.0
  0
LINE
  5
1AC
100
AcDbEntity
100
AcDbLine
  8
int
 62
256
370
-1
 48
1.0
  6
BYLAYER
 10
149.6939999999999884
 20
45.7528999999999968
 30
0.0
 11
152.4850000000000136
 21
50.4033000000000015
 31
0.0
  0
LINE
  5
1AD
100
AcDbEntity
100
AcDbLine
  8
int
 62
256
370
-1
 48
1.0
  6
BYLAYER
 10
152.4850000000000136
 20
50.4033000000000015
 30
0.0
 11
152.6049999999999898
 21
50.5722999999999985
 31
0.0
  0
LINE
  5
1AE
100
AcDbEntity
100
AcDbLine
  8
int
 62
256
370
-1
 48
1.0
  6
BYLAYER
 10
152.6049999999999898
 20
50.5722999999999985
 30
0.0
 11
152.7410000000000139
 21
50.7021000000000015
 31
0.0
  0
LINE
  5
1AF
100
AcDbEntity
100
AcDbLine
  8
int
 62
256
370
-1
 48
1.0
  6
BYLAYER
 10
152.7410000000000139
 20
50.7021000000000015
 30
0.0
 11
152.88900000000001
 21
50.7920000000000016
 31
0.0
  0
LINE
  5
1B0
100
AcDbEntity
100
AcDbLine
  8
int
 62
256
370
-1
 48
1.0
  6
BYLAYER
 10
152.88900000000001
 20
50.7920000000000016
 30
0.0
 11
153.0430000000000064
 21
50.8378999999999976
 31
0.0
  0
LINE
  5
1B1
100
AcDbEntity
100
AcDbLine
  8
int
 62
256
370
-1
 48
1.0
  6
BYLAYER
 10
153.0430000000000064
 20
50.8378999999999976
 30
0.0
 11
153.1999999999999886
 21
50.8378999999999976
 31
0.0
  0
LINE
  5
1B2
100
AcDbEntity
100
AcDbLine
  8
int
 62
256
370
-1
 48
1.0
  6
BYLAYER
 10
153.1999999999999886
 20
50.8378999999999976
 30
0.0
 11
153.3540000000000134
 21
50.7920000000000016
 31
0.0
  0
LINE
  5
1B3
100
AcDbEntity
100
AcDbLine
  8
int
 62
256
370
-1
 48
1.0
  6
BYLAYER
 10
153.3540000000000134
 20
50.7920000000000016
 30
0.0
 11
153.5020000000000095
 21
50.7021000000000015
 31
0.0
  0
LINE
  5
1B4
100
AcDbEntity
100
AcDbLine
  8
int
 62
256
370
-1
 48
1.0
  6
BYLAYER
 10
153.5020000000000095
 20
50.7021000000000015
 30
0.0
 11
153.6380000000000052
 21
50.5722999999999985
 31
0.0
  0
LINE
  5
1B5
100
AcDbEntity
100
AcDbLine
  8
int
 62
256
370
-1
 48
1.0
  6
BYLAYER
 10
153.6380000000000052
 20
50.5722999999999985
 30
0.0
 11
153.7580000000000098
 21
50.4033000000000015
 31
0.0
  0
LINE
  5
1B6
100
AcDbEntity
100
AcDbLine
  8
int
 62
256
370
-1
 48
1.0
  6
BYLAYER
 10
153.7580000000000098
 20
50.4033000000000015
 30
0.0
 11
156.5879999999999939
 21
45.6865000000000023
 31
0.0
  0
LINE
  5
1B7
100
AcDbEntity
100
AcDbLine
  8
int
 62
256
370
-1
 48
1.0
  6
BYLAYER
 10
156.5879999999999939
 20
45.6865000000000023
 30
0.0
 11
156.6870000000000118
 21
45.4921999999999969
 31
0.0
  0
LINE
  5
1B8
100
AcDbEntity
100
AcDbLine
  8
int
 62
256
370
-1
 48
1.0
  6
BYLAYER
 10
156.6870000000000118
 20
45.4921999999999969
 30
0.0
 11
156.76400000000001
 21
45.2734000000000023
 31
0.0
  0
LINE
  5
1B9
100
AcDbEntity
100
AcDbLine
  8
int
 62
256
370
-1
 48
1.0
  6
BYLAYER
 10
156.76400000000001
 20
45.2734000000000023
 30
0.0
 11
156.8170000000000073
 21
45.0360999999999976
 31
0.0
  0
LINE
  5
1BA
100
AcDbEntity
100
AcDbLine
  8
int
 62
256
370
-1
 48
1.0
  6
BYLAYER
 10
156.8170000000000073
 20
45.0360999999999976
 30
0.0
 11
156.8470000000000084
 21
44.7860999999999976
 31
0.0
  0
LINE
  5
1BB
100
AcDbEntity
100
AcDbLine
  8
int
 62
256
370
-1
 48
1.0
  6
BYLAYER
 10
156.8470000000000084
 20
44.7860999999999976
 30
0.0
 11
156.8499999999999943
 21
44.5322000000000031
 31
0.0
  0
LINE
  5
1BC
100
AcDbEntity
100
AcDbLine
  8
int
 62
256
370
-1
 48
1.0
  6
BYLAYER
 10
156.8499999999999943
 20
44.5322000000000031
 30
0.0
 11
156.8269999999999982
 21
44.2811999999999983
 31
0.0
  0
LINE
  5
1BD
100
AcDbEntity
100
AcDbLine
  8
int
 62
256
370
-1
 48
1.0
  6
BYLAYER
 10
156.8269999999999982
 20
44.2811999999999983
 30
0.0
 11
156.7800000000000011
 21
44.0399999999999991
 31
0.0
  0
LINE
  5
1BE
100
AcDbEntity
100
AcDbLine
  8
int
 62
256
370
-1
 48
1.0
  6
BYLAYER
 10
156.7800000000000011
 20
44.0399999999999991
 30
0.0
 11
156.7090000000000032
 21
43.8153999999999968
 31
0.0
  0
LINE
  5
1BF
100
AcDbEntity
100
AcDbLine
  8
int
 62
256
370
-1
 48
1.0
  6
BYLAYER
 10
156.7090000000000032
 20
43.8153999999999968
 30
0.0
 11
156.6160000000000139
 21
43.6143000000000001
 31
0.0
  0
LINE
  5
1C0
100
AcDbEntity
100
AcDbLine
  8
int
 62
256
370
-1
 48
1.0
  6
BYLAYER
 10
156.6160000000000139
 20
43.6143000000000001
 30
0.0
 11
156.5039999999999907
 21
43.4414000000000016
 31
0.0
  0
LINE
  5
1C1
100
AcDbEntity
100
AcDbLine
  8
int
 62
256
370
-1
 48
1.0
  6
BYLAYER
 10
156.5039999999999907
 20
43.4414000000000016
 30
0.0
 11
156.3760000000000048
 21
43.3036999999999992
 31
0.0
  0
LINE
  5
1C2
100
AcDbEntity
100
AcDbLine
  8
int
 62
256
370
-1
 48
1.0
  6
BYLAYER
 10
156.3760000000000048
 20
43.3036999999999992
 30
0.0
 11
156.23599999999999
 21
43.2030999999999992
 31
0.0
  0
LINE
  5
1C3
100
AcDbEntity
100
AcDbLine
  8
int
 62
256
370
-1
 48
1.0
  6
BYLAYER
 10
156.23599999999999
 20
43.2030999999999992
 30
0.0
 11
156.0879999999999939
 21
43.1435999999999993
 31
0.0
  0
LINE
  5
1C4
100
AcDbEntity
100
AcDbLine
  8
int
 62
256
370
-1
 48
1.0
  6
BYLAYER
 10
156.0879999999999939
 20
43.1435999999999993
 30
0.0
 11
155.936000000000007
 21
43.1259999999999977
 31
0.0
  0
LINE
  5
1C5
100
AcDbEntity
100
AcDbLine
  8
int
 62
256
370
-1
 48
1.0
  6
BYLAYER
 10
155.936000000000007
 20
43.1259999999999977
 30
0.0
 11
150.3340000000000032
 21
43.1923999999999992
 31
0.0
  0
LINE
  5
1C6
100
AcDbEntity
100
AcDbLine
  8
int
 62
256
370
-1
 48
1.0
  6
BYLAYER
 10
46.7002000000000024
 20
13.6133000000000006
 30
0.0
 11
46.5557000000000016
 21
13.6904000000000003
 31
0.0
  0
LINE
  5
1C7
100
AcDbEntity
100
AcDbLine
  8
int
 62
256
370
-1
 48
1.0
  6
BYLAYER
 10
46.5557000000000016
 20
13.6904000000000003
 30
0.0
 11
46.4209000000000032
 21
13.8056999999999999
 31
0.0
  0
LINE
  5
1C8
100
AcDbEntity
100
AcDbLine
  8
int
 62
256
370
-1
 48
1.0
  6
BYLAYER
 10
46.4209000000000032
 20
13.8056999999999999
 30
0.0
 11
46.2997999999999976
 21
13.9580000000000002
 31
0.0
  0
LINE
  5
1C9
100
AcDbEntity
100
AcDbLine
  8
int
 62
256
370
-1
 48
1.0
  6
BYLAYER
 10
46.2997999999999976
 20
13.9580000000000002
 30
0.0
 11
46.1963000000000008
 21
14.1405999999999992
 31
0.0
  0
LINE
  5
1CA
100
AcDbEntity
100
AcDbLine
  8
int
 62
256
370
-1
 48
1.0
  6
BYLAYER
 10
46.1963000000000008
 20
14.1405999999999992
 30
0.0
 11
46.1122999999999976
 21
14.3506
 31
0.0
  0
LINE
  5
1CB
100
AcDbEntity
100
AcDbLine
  8
int
 62
256
370
-1
 48
1.0
  6
BYLAYER
 10
46.1122999999999976
 20
14.3506
 30
0.0
 11
46.0508000000000024
 21
14.5810999999999993
 31
0.0
  0
LINE
  5
1CC
100
AcDbEntity
100
AcDbLine
  8
int
 62
256
370
-1
 48
1.0
  6
BYLAYER
 10
46.0508000000000024
 20
14.5810999999999993
 30
0.0
 11
46.0127000000000024
 21
14.8252000000000006
 31
0.0
  0
LINE
  5
1CD
100
AcDbEntity
100
AcDbLine
  8
int
 62
256
370
-1
 48
1.0
  6
BYLAYER
 10
46.0127000000000024
 20
14.8252000000000006
 30
0.0
 11
46.0
 21
15.0762
 31
0.0
  0
LINE
  5
1CE
100
AcDbEntity
100
AcDbLine
  8
int
 62
256
370
-1
 48
1.0
  6
BYLAYER
 10
46.0
 20
15.0762
 30
0.0
 11
46.0
 21
39.6084000000000032
 31
0.0
  0
LINE
  5
1CF
100
AcDbEntity
100
AcDbLine
  8
int
 62
256
370
-1
 48
1.0
  6
BYLAYER
 10
46.0
 20
39.6084000000000032
 30
0.0
 11
46.0536999999999992
 21
40.6377000000000024
 31
0.0
  0
LINE
  5
1D0
100
AcDbEntity
100
AcDbLine
  8
int
 62
256
370
-1
 48
1.0
  6
BYLAYER
 10
46.0536999999999992
 20
40.6377000000000024
 30
0.0
 11
46.2119
 21
41.6366999999999976
 31
0.0
  0
LINE
  5
1D1
100
AcDbEntity
100
AcDbLine
  8
int
 62
256
370
-1
 48
1.0
  6
BYLAYER
 10
46.2119
 20
41.6366999999999976
 30
0.0
 11
46.4707000000000008
 21
42.5752000000000024
 31
0.0
  0
LINE
  5
1D2
100
AcDbEntity
100
AcDbLine
  8
int
 62
256
370
-1
 48
1.0
  6
BYLAYER
 10
46.4707000000000008
 20
42.5752000000000024
 30
0.0
 11
46.8222999999999985
 21
43.4258000000000024
 31
0.0
  0
LINE
  5
1D3
100
AcDbEntity
100
AcDbLine
  8
int
 62
256
370
-1
 48
1.0
  6
BYLAYER
 10
46.8222999999999985
 20
43.4258000000000024
 30
0.0
 11
47.2567999999999984
 21
44.1631
 31
0.0
  0
LINE
  5
1D4
100
AcDbEntity
100
AcDbLine
  8
int
 62
256
370
-1
 48
1.0
  6
BYLAYER
 10
47.2567999999999984
 20
44.1631
 30
0.0
 11
47.7597999999999985
 21
44.7655999999999992
 31
0.0
  0
LINE
  5
1D5
100
AcDbEntity
100
AcDbLine
  8
int
 62
256
370
-1
 48
1.0
  6
BYLAYER
 10
47.7597999999999985
 20
44.7655999999999992
 30
0.0
 11
48.3183999999999969
 21
45.2147999999999968
 31
0.0
  0
LINE
  5
1D6
100
AcDbEntity
100
AcDbLine
  8
int
 62
256
370
-1
 48
1.0
  6
BYLAYER
 10
48.3183999999999969
 20
45.2147999999999968
 30
0.0
 11
48.9140999999999977
 21
45.4990000000000023
 31
0.0
  0
LINE
  5
1D7
100
AcDbEntity
100
AcDbLine
  8
int
 62
256
370
-1
 48
1.0
  6
BYLAYER
 10
48.9140999999999977
 20
45.4990000000000023
 30
0.0
 11
67.1650000000000063
 21
50.5429999999999993
 31
0.0
  0
LINE
  5
1D8
100
AcDbEntity
100
AcDbLine
  8
int
 62
256
370
-1
 48
1.0
  6
BYLAYER
 10
67.1650000000000063
 20
50.5429999999999993
 30
0.0
 11
67.3144999999999953
 21
50.5557000000000016
 31
0.0
  0
LINE
  5
1D9
100
AcDbEntity
100
AcDbLine
  8
int
 62
256
370
-1
 48
1.0
  6
BYLAYER
 10
67.3144999999999953
 20
50.5557000000000016
 30
0.0
 11
67.4629000000000048
 21
50.5283000000000015
 31
0.0
  0
LINE
  5
1DA
100
AcDbEntity
100
AcDbLine
  8
int
 62
256
370
-1
 48
1.0
  6
BYLAYER
 10
67.4629000000000048
 20
50.5283000000000015
 30
0.0
 11
67.6063999999999936
 21
50.4600000000000009
 31
0.0
  0
LINE
  5
1DB
100
AcDbEntity
100
AcDbLine
  8
int
 62
256
370
-1
 48
1.0
  6
BYLAYER
 10
67.6063999999999936
 20
50.4600000000000009
 30
0.0
 11
67.7412000000000063
 21
50.3524999999999991
 31
0.0
  0
LINE
  5
1DC
100
AcDbEntity
100
AcDbLine
  8
int
 62
256
370
-1
 48
1.0
  6
BYLAYER
 10
67.7412000000000063
 20
50.3524999999999991
 30
0.0
 11
67.8643000000000001
 21
50.2100000000000009
 31
0.0
  0
LINE
  5
1DD
100
AcDbEntity
100
AcDbLine
  8
int
 62
256
370
-1
 48
1.0
  6
BYLAYER
 10
67.8643000000000001
 20
50.2100000000000009
 30
0.0
 11
67.9706999999999937
 21
50.0352000000000032
 31
0.0
  0
LINE
  5
1DE
100
AcDbEntity
100
AcDbLine
  8
int
 62
256
370
-1
 48
1.0
  6
BYLAYER
 10
67.9706999999999937
 20
50.0352000000000032
 30
0.0
 11
68.0585999999999984
 21
49.8329999999999984
 31
0.0
  0
LINE
  5
1DF
100
AcDbEntity
100
AcDbLine
  8
int
 62
256
370
-1
 48
1.0
  6
BYLAYER
 10
68.0585999999999984
 20
49.8329999999999984
 30
0.0
 11
68.125
 21
49.6103999999999985
 31
0.0
  0
LINE
  5
1E0
100
AcDbEntity
100
AcDbLine
  8
int
 62
256
370
-1
 48
1.0
  6
BYLAYER
 10
68.125
 20
49.6103999999999985
 30
0.0
 11
68.1680000000000064
 21
49.3721000000000032
 31
0.0
  0
LINE
  5
1E1
100
AcDbEntity
100
AcDbLine
  8
int
 62
256
370
-1
 48
1.0
  6
BYLAYER
 10
68.1680000000000064
 20
49.3721000000000032
 30
0.0
 11
68.1875
 21
49.125
 31
0.0
  0
LINE
  5
1E2
100
AcDbEntity
100
AcDbLine
  8
int
 62
256
370
-1
 48
1.0
  6
BYLAYER
 10
68.1875
 20
49.125
 30
0.0
 11
68.1816000000000031
 21
48.8759999999999977
 31
0.0
  0
LINE
  5
1E3
100
AcDbEntity
100
AcDbLine
  8
int
 62
256
370
-1
 48
1.0
  6
BYLAYER
 10
68.1816000000000031
 20
48.8759999999999977
 30
0.0
 11
68.1513999999999953
 21
48.6317999999999984
 31
0.0
  0
LINE
  5
1E4
100
AcDbEntity
100
AcDbLine
  8
int
 62
256
370
-1
 48
1.0
  6
BYLAYER
 10
68.1513999999999953
 20
48.6317999999999984
 30
0.0
 11
68.0977000000000032
 21
48.4003999999999976
 31
0.0
  0
LINE
  5
1E5
100
AcDbEntity
100
AcDbLine
  8
int
 62
256
370
-1
 48
1.0
  6
BYLAYER
 10
68.0977000000000032
 20
48.4003999999999976
 30
0.0
 11
68.0215000000000032
 21
48.1854999999999976
 31
0.0
  0
LINE
  5
1E6
100
AcDbEntity
100
AcDbLine
  8
int
 62
256
370
-1
 48
1.0
  6
BYLAYER
 10
68.0215000000000032
 20
48.1854999999999976
 30
0.0
 11
67.9248000000000047
 21
47.9960999999999984
 31
0.0
  0
LINE
  5
1E7
100
AcDbEntity
100
AcDbLine
  8
int
 62
256
370
-1
 48
1.0
  6
BYLAYER
 10
67.9248000000000047
 20
47.9960999999999984
 30
0.0
 11
47.5360999999999976
 21
14.0155999999999992
 31
0.0
  0
LINE
  5
1E8
100
AcDbEntity
100
AcDbLine
  8
int
 62
256
370
-1
 48
1.0
  6
BYLAYER
 10
47.5360999999999976
 20
14.0155999999999992
 30
0.0
 11
47.4209000000000032
 21
13.8524999999999991
 31
0.0
  0
LINE
  5
1E9
100
AcDbEntity
100
AcDbLine
  8
int
 62
256
370
-1
 48
1.0
  6
BYLAYER
 10
47.4209000000000032
 20
13.8524999999999991
 30
0.0
 11
47.2899999999999991
 21
13.7246000000000006
 31
0.0
  0
LINE
  5
1EA
100
AcDbEntity
100
AcDbLine
  8
int
 62
256
370
-1
 48
1.0
  6
BYLAYER
 10
47.2899999999999991
 20
13.7246000000000006
 30
0.0
 11
47.1494
 21
13.6348000000000003
 31
0.0
  0
LINE
  5
1EB
100
AcDbEntity
100
AcDbLine
  8
int
 62
256
370
-1
 48
1.0
  6
BYLAYER
 10
47.1494
 20
13.6348000000000003
 30
0.0
 11
47.0009999999999977
 21
13.5859000000000005
 31
0.0
  0
LINE
  5
1EC
100
AcDbEntity
100
AcDbLine
  8
int
 62
256
370
-1
 48
1.0
  6
BYLAYER
 10
47.0009999999999977
 20
13.5859000000000005
 30
0.0
 11
46.8496000000000024
 21
13.5780999999999992
 31
0.0
  0
LINE
  5
1ED
100
AcDbEntity
100
AcDbLine
  8
int
 62
256
370
-1
 48
1.0
  6
BYLAYER
 10
46.8496000000000024
 20
13.5780999999999992
 30
0.0
 11
46.7002000000000024
 21
13.6133000000000006
 31
0.0
  0
LINE
  5
1EE
100
AcDbEntity
100
AcDbLine
  8
int
 62
256
370
-1
 48
1.0
  6
BYLAYER
 10
173.3060000000000116
 20
41.0604999999999976
 30
0.0
 11
172.632000000000005
 21
41.2411999999999992
 31
0.0
  0
LINE
  5
1EF
100
AcDbEntity
100
AcDbLine
  8
int
 62
256
370
-1
 48
1.0
  6
BYLAYER
 10
172.632000000000005
 20
41.2411999999999992
 30
0.0
 11
172.0
 21
41.5360999999999976
 31
0.0
  0
LINE
  5
1F0
100
AcDbEntity
100
AcDbLine
  8
int
 62
256
370
-1
 48
1.0
  6
BYLAYER
 10
172.0
 20
41.5360999999999976
 30
0.0
 11
171.429000000000002
 21
41.9354999999999976
 31
0.0
  0
LINE
  5
1F1
100
AcDbEntity
100
AcDbLine
  8
int
 62
256
370
-1
 48
1.0
  6
BYLAYER
 10
171.429000000000002
 20
41.9354999999999976
 30
0.0
 11
170.936000000000007
 21
42.4286999999999992
 31
0.0
  0
LINE
  5
1F2
100
AcDbEntity
100
AcDbLine
  8
int
 62
256
370
-1
 48
1.0
  6
BYLAYER
 10
170.936000000000007
 20
42.4286999999999992
 30
0.0
 11
170.5360000000000014
 21
43.0
 31
0.0
  0
LINE
  5
1F3
100
AcDbEntity
100
AcDbLine
  8
int
 62
256
370
-1
 48
1.0
  6
BYLAYER
 10
170.5360000000000014
 20
43.0
 30
0.0
 11
170.2410000000000139
 21
43.6317999999999984
 31
0.0
  0
LINE
  5
1F4
100
AcDbEntity
100
AcDbLine
  8
int
 62
256
370
-1
 48
1.0
  6
BYLAYER
 10
170.2410000000000139
 20
43.6317999999999984
 30
0.0
 11
170.061000000000007
 21
44.3057000000000016
 31
0.0
  0
LINE
  5
1F5
100
AcDbEntity
100
AcDbLine
  8
int
 62
256
370
-1
 48
1.0
  6
BYLAYER
 10
170.061000000000007
 20
44.3057000000000016
 30
0.0
 11
170.0
 21
45.0
 31
0.0
  0
LINE
  5
1F6
100
AcDbEntity
100
AcDbLine
  8
int
 62
256
370
-1
 48
1.0
  6
BYLAYER
 10
170.0
 20
45.0
 30
0.0
 11
170.061000000000007
 21
45.6942999999999984
 31
0.0
  0
LINE
  5
1F7
100
AcDbEntity
100
AcDbLine
  8
int
 62
256
370
-1
 48
1.0
  6
BYLAYER
 10
170.061000000000007
 20
45.6942999999999984
 30
0.0
 11
170.2410000000000139
 21
46.3682000000000016
 31
0.0
  0
LINE
  5
1F8
100
AcDbEntity
100
AcDbLine
  8
int
 62
256
370
-1
 48
1.0
  6
BYLAYER
 10
170.2410000000000139
 20
46.3682000000000016
 30
0.0
 11
170.5360000000000014
 21
47.0
 31
0.0
  0
LINE
  5
1F9
100
AcDbEntity
100
AcDbLine
  8
int
 62
256
370
-1
 48
1.0
  6
BYLAYER
 10
170.5360000000000014
 20
47.0
 30
0.0
 11
170.936000000000007
 21
47.5713000000000008
 31
0.0
  0
LINE
  5
1FA
100
AcDbEntity
100
AcDbLine
  8
int
 62
256
370
-1
 48
1.0
  6
BYLAYER
 10
170.936000000000007
 20
47.5713000000000008
 30
0.0
 11
171.429000000000002
 21
48.0645000000000024
 31
0.0
  0
LINE
  5
1FB
100
AcDbEntity
100
AcDbLine
  8
int
 62
256
370
-1
 48
1.0
  6
BYLAYER
 10
171.429000000000002
 20
48.0645000000000024
 30
0.0
 11
172.0
 21
48.4639000000000024
 31
0.0
  0
LINE
  5
1FC
100
AcDbEntity
100
AcDbLine
  8
int
 62
256
370
-1
 48
1.0
  6
BYLAYER
 10
172.0
 20
48.4639000000000024
 30
0.0
 11
172.632000000000005
 21
48.7588000000000008
 31
0.0
  0
LINE
  5
1FD
100
AcDbEntity
100
AcDbLine
  8
int
 62
256
370
-1
 48
1.0
  6
BYLAYER
 10
172.632000000000005
 20
48.7588000000000008
 30
0.0
 11
173.3060000000000116
 21
48.9395000000000024
 31
0.0
  0
LINE
  5
1FE
100
AcDbEntity
100
AcDbLine
  8
int
 62
256
370
-1
 48
1.0
  6
BYLAYER
 10
173.3060000000000116
 20
48.9395000000000024
 30
0.0
 11
174.0
 21
49.0
 31
0.0
  0
LINE
  5
1FF
100
AcDbEntity
100
AcDbLine
  8
int
 62
256
370
-1
 48
1.0
  6
BYLAYER
 10
174.0
 20
49.0
 30
0.0
 11
174.6939999999999884
 21
48.9395000000000024
 31
0.0
  0
LINE
  5
200
100
AcDbEntity
100
AcDbLine
  8
int
 62
256
370
-1
 48
1.0
  6
BYLAYER
 10
174.6939999999999884
 20
48.9395000000000024
 30
0.0
 11
175.367999999999995
 21
48.7588000000000008
 31
0.0
  0
LINE
  5
201
100
AcDbEntity
100
AcDbLine
  8
int
 62
256
370
-1
 48
1.0
  6
BYLAYER
 10
175.367999999999995
 20
48.7588000000000008
 30
0.0
 11
176.0
 21
48.4639000000000024
 31
0.0
  0
LINE
  5
202
100
AcDbEntity
100
AcDbLine
  8
int
 62
256
370
-1
 48
1.0
  6
BYLAYER
 10
176.0
 20
48.4639000000000024
 30
0.0
 11
176.570999999999998
 21
48.0645000000000024
 31
0.0
  0
LINE
  5
203
100
AcDbEntity
100
AcDbLine
  8
int
 62
256
370
-1
 48
1.0
  6
BYLAYER
 10
176.570999999999998
 20
48.0645000000000024
 30
0.0
 11
177.063999999999993
 21
47.5713000000000008
 31
0.0
  0
LINE
  5
204
100
AcDbEntity
100
AcDbLine
  8
int
 62
256
370
-1
 48
1.0
  6
BYLAYER
 10
177.063999999999993
 20
47.5713000000000008
 30
0.0
 11
177.4639999999999986
 21
47.0
 31
0.0
  0
LINE
  5
205
100
AcDbEntity
100
AcDbLine
  8
int
 62
256
370
-1
 48
1.0
  6
BYLAYER
 10
177.4639999999999986
 20
47.0
 30
0.0
 11
177.7589999999999861
 21
46.3682000000000016
 31
0.0
  0
LINE
  5
206
100
AcDbEntity
100
AcDbLine
  8
int
 62
256
370
-1
 48
1.0
  6
BYLAYER
 10
177.7589999999999861
 20
46.3682000000000016
 30
0.0
 11
177.938999999999993
 21
45.6942999999999984
 31
0.0
  0
LINE
  5
207
100
AcDbEntity
100
AcDbLine
  8
int
 62
256
370
-1
 48
1.0
  6
BYLAYER
 10
177.938999999999993
 20
45.6942999999999984
 30
0.0
 11
178.0
 21
45.0
 31
0.0
  0
LINE
  5
208
100
AcDbEntity
100
AcDbLine
  8
int
 62
256
370
-1
 48
1.0
  6
BYLAYER
 10
178.0
 20
45.0
 30
0.0
 11
177.938999999999993
 21
44.3057000000000016
 31
0.0
  0
LINE
  5
209
100
AcDbEntity
100
AcDbLine
  8
int
 62
256
370
-1
 48
1.0
  6
BYLAYER
 10
177.938999999999993
 20
44.3057000000000016
 30
0.0
 11
177.7589999999999861
 21
43.6317999999999984
 31
0.0
  0
LINE
  5
20A
100
AcDbEntity
100
AcDbLine
  8
int
 62
256
370
-1
 48
1.0
  6
BYLAYER
 10
177.7589999999999861
 20
43.6317999999999984
 30
0.0
 11
177.4639999999999986
 21
43.0
 31
0.0
  0
LINE
  5
20B
100
AcDbEntity
100
AcDbLine
  8
int
 62
256
370
-1
 48
1.0
  6
BYLAYER
 10
177.4639999999999986
 20
43.0
 30
0.0
 11
177.063999999999993
 21
42.4286999999999992
 31
0.0
  0
LINE
  5
20C
100
AcDbEntity
100
AcDbLine
  8
int
 62
256
370
-1
 48
1.0
  6
BYLAYER
 10
177.063999999999993
 20
42.4286999999999992
 30
0.0
 11
176.570999999999998
 21
41.9354999999999976
 31
0.0
  0
LINE
  5
20D
100
AcDbEntity
100
AcDbLine
  8
int
 62
256
370
-1
 48
1.0
  6
BYLAYER
 10
176.570999999999998
 20
41.9354999999999976
 30
0.0
 11
176.0
 21
41.5360999999999976
 31
0.0
  0
LINE
  5
20E
100
AcDbEntity
100
AcDbLine
  8
int
 62
256
370
-1
 48
1.0
  6
BYLAYER
 10
176.0
 20
41.5360999999999976
 30
0.0
 11
175.367999999999995
 21
41.2411999999999992
 31
0.0
  0
LINE
  5
20F
100
AcDbEntity
100
AcDbLine
  8
int
 62
256
370
-1
 48
1.0
  6
BYLAYER
 10
175.367999999999995
 20
41.2411999999999992
 30
0.0
 11
174.6939999999999884
 21
41.0604999999999976
 31
0.0
  0
LINE
  5
210
100
AcDbEntity
100
AcDbLine
  8
int
 62
256
370
-1
 48
1.0
  6
BYLAYER
 10
174.6939999999999884
 20
41.0604999999999976
 30
0.0
 11
174.0
 21
41.0
 31
0.0
  0
LINE
  5
211
100
AcDbEntity
100
AcDbLine
  8
int
 62
256
370
-1
 48
1.0
  6
BYLAYER
 10
174.0
 20
41.0
 30
0.0
 11
173.3060000000000116
 21
41.0604999999999976
 31
0.0
  0
LINE
  5
212
100
AcDbEntity
100
AcDbLine
  8
int
 62
256
370
-1
 48
1.0
  6
BYLAYER
 10
185.4790000000000134
 20
40.0459000000000032
 30
0.0
 11
184.9739999999999895
 21
40.1807000000000016
 31
0.0
  0
LINE
  5
213
100
AcDbEntity
100
AcDbLine
  8
int
 62
256
370
-1
 48
1.0
  6
BYLAYER
 10
184.9739999999999895
 20
40.1807000000000016
 30
0.0
 11
184.5
 21
40.4022999999999968
 31
0.0
  0
LINE
  5
214
100
AcDbEntity
100
AcDbLine
  8
int
 62
256
370
-1
 48
1.0
  6
BYLAYER
 10
184.5
 20
40.4022999999999968
 30
0.0
 11
184.070999999999998
 21
40.7021000000000015
 31
0.0
  0
LINE
  5
215
100
AcDbEntity
100
AcDbLine
  8
int
 62
256
370
-1
 48
1.0
  6
BYLAYER
 10
184.070999999999998
 20
40.7021000000000015
 30
0.0
 11
183.7019999999999982
 21
41.0713000000000008
 31
0.0
  0
LINE
  5
216
100
AcDbEntity
100
AcDbLine
  8
int
 62
256
370
-1
 48
1.0
  6
BYLAYER
 10
183.7019999999999982
 20
41.0713000000000008
 30
0.0
 11
183.4019999999999868
 21
41.5
 31
0.0
  0
LINE
  5
217
100
AcDbEntity
100
AcDbLine
  8
int
 62
256
370
-1
 48
1.0
  6
BYLAYER
 10
183.4019999999999868
 20
41.5
 30
0.0
 11
183.1810000000000116
 21
41.9735999999999976
 31
0.0
  0
LINE
  5
218
100
AcDbEntity
100
AcDbLine
  8
int
 62
256
370
-1
 48
1.0
  6
BYLAYER
 10
183.1810000000000116
 20
41.9735999999999976
 30
0.0
 11
183.0459999999999923
 21
42.4795000000000016
 31
0.0
  0
LINE
  5
219
100
AcDbEntity
100
AcDbLine
  8
int
 62
256
370
-1
 48
1.0
  6
BYLAYER
 10
183.0459999999999923
 20
42.4795000000000016
 30
0.0
 11
183.0
 21
43.0
 31
0.0
  0
LINE
  5
21A
100
AcDbEntity
100
AcDbLine
  8
int
 62
256
370
-1
 48
1.0
  6
BYLAYER
 10
183.0
 20
43.0
 30
0.0
 11
183.0459999999999923
 21
43.5204999999999984
 31
0.0
  0
LINE
  5
21B
100
AcDbEntity
100
AcDbLine
  8
int
 62
256
370
-1
 48
1.0
  6
BYLAYER
 10
183.0459999999999923
 20
43.5204999999999984
 30
0.0
 11
183.1810000000000116
 21
44.0264000000000024
 31
0.0
  0
LINE
  5
21C
100
AcDbEntity
100
AcDbLine
  8
int
 62
256
370
-1
 48
1.0
  6
BYLAYER
 10
183.1810000000000116
 20
44.0264000000000024
 30
0.0
 11
183.4019999999999868
 21
44.5
 31
0.0
  0
LINE
  5
21D
100
AcDbEntity
100
AcDbLine
  8
int
 62
256
370
-1
 48
1.0
  6
BYLAYER
 10
183.4019999999999868
 20
44.5
 30
0.0
 11
183.7019999999999982
 21
44.9286999999999992
 31
0.0
  0
LINE
  5
21E
100
AcDbEntity
100
AcDbLine
  8
int
 62
256
370
-1
 48
1.0
  6
BYLAYER
 10
183.7019999999999982
 20
44.9286999999999992
 30
0.0
 11
184.070999999999998
 21
45.2978999999999985
 31
0.0
  0
LINE
  5
21F
100
AcDbEntity
100
AcDbLine
  8
int
 62
256
370
-1
 48
1.0
  6
BYLAYER
 10
184.070999999999998
 20
45.2978999999999985
 30
0.0
 11
184.5
 21
45.5977000000000032
 31
0.0
  0
LINE
  5
220
100
AcDbEntity
100
AcDbLine
  8
int
 62
256
370
-1
 48
1.0
  6
BYLAYER
 10
184.5
 20
45.5977000000000032
 30
0.0
 11
184.9739999999999895
 21
45.8192999999999984
 31
0.0
  0
LINE
  5
221
100
AcDbEntity
100
AcDbLine
  8
int
 62
256
370
-1
 48
1.0
  6
BYLAYER
 10
184.9739999999999895
 20
45.8192999999999984
 30
0.0
 11
185.4790000000000134
 21
45.9540999999999968
 31
0.0
  0
LINE
  5
222
100
AcDbEntity
100
AcDbLine
  8
int
 62
256
370
-1
 48
1.0
  6
BYLAYER
 10
185.4790000000000134
 20
45.9540999999999968
 30
0.0
 11
186.0
 21
46.0
 31
0.0
  0
LINE
  5
223
100
AcDbEntity
100
AcDbLine
  8
int
 62
256
370
-1
 48
1.0
  6
BYLAYER
 10
186.0
 20
46.0
 30
0.0
 11
186.5209999999999866
 21
45.9540999999999968
 31
0.0
  0
LINE
  5
224
100
AcDbEntity
100
AcDbLine
  8
int
 62
256
370
-1
 48
1.0
  6
BYLAYER
 10
186.5209999999999866
 20
45.9540999999999968
 30
0.0
 11
187.0260000000000105
 21
45.8192999999999984
 31
0.0
  0
LINE
  5
225
100
AcDbEntity
100
AcDbLine
  8
int
 62
256
370
-1
 48
1.0
  6
BYLAYER
 10
187.0260000000000105
 20
45.8192999999999984
 30
0.0
 11
187.5
 21
45.5977000000000032
 31
0.0
  0
LINE
  5
226
100
AcDbEntity
100
AcDbLine
  8
int
 62
256
370
-1
 48
1.0
  6
BYLAYER
 10
187.5
 20
45.5977000000000032
 30
0.0
 11
187.929000000000002
 21
45.2978999999999985
 31
0.0
  0
LINE
  5
227
100
AcDbEntity
100
AcDbLine
  8
int
 62
256
370
-1
 48
1.0
  6
BYLAYER
 10
187.929000000000002
 20
45.2978999999999985
 30
0.0
 11
188.2980000000000018
 21
44.9286999999999992
 31
0.0
  0
LINE
  5
228
100
AcDbEntity
100
AcDbLine
  8
int
 62
256
370
-1
 48
1.0
  6
BYLAYER
 10
188.2980000000000018
 20
44.9286999999999992
 30
0.0
 11
188.5980000000000132
 21
44.5
 31
0.0
  0
LINE
  5
229
100
AcDbEntity
100
AcDbLine
  8
int
 62
256
370
-1
 48
1.0
  6
BYLAYER
 10
188.5980000000000132
 20
44.5
 30
0.0
 11
188.8189999999999884
 21
44.0264000000000024
 31
0.0
  0
LINE
  5
22A
100
AcDbEntity
100
AcDbLine
  8
int
 62
256
370
-1
 48
1.0
  6
BYLAYER
 10
188.8189999999999884
 20
44.0264000000000024
 30
0.0
 11
188.9540000000000077
 21
43.5204999999999984
 31
0.0
  0
LINE
  5
22B
100
AcDbEntity
100
AcDbLine
  8
int
 62
256
370
-1
 48
1.0
  6
BYLAYER
 10
188.9540000000000077
 20
43.5204999999999984
 30
0.0
 11
189.0
 21
43.0
 31
0.0
  0
LINE
  5
22C
100
AcDbEntity
100
AcDbLine
  8
int
 62
256
370
-1
 48
1.0
  6
BYLAYER
 10
189.0
 20
43.0
 30
0.0
 11
188.9540000000000077
 21
42.4795000000000016
 31
0.0
  0
LINE
  5
22D
100
AcDbEntity
100
AcDbLine
  8
int
 62
256
370
-1
 48
1.0
  6
BYLAYER
 10
188.9540000000000077
 20
42.4795000000000016
 30
0.0
 11
188.8189999999999884
 21
41.9735999999999976
 31
0.0
  0
LINE
  5
22E
100
AcDbEntity
100
AcDbLine
  8
int
 62
256
370
-1
 48
1.0
  6
BYLAYER
 10
188.8189999999999884
 20
41.9735999999999976
 30
0.0
 11
188.5980000000000132
 21
41.5
 31
0.0
  0
LINE
  5
22F
100
AcDbEntity
100
AcDbLine
  8
int
 62
256
370
-1
 48
1.0
  6
BYLAYER
 10
188.5980000000000132
 20
41.5
 30
0.0
 11
188.2980000000000018
 21
41.0713000000000008
 31
0.0
  0
LINE
  5
230
100
AcDbEntity
100
AcDbLine
  8
int
 62
256
370
-1
 48
1.0
  6
BYLAYER
 10
188.2980000000000018
 20
41.0713000000000008
 30
0.0
 11
187.929000000000002
 21
40.7021000000000015
 31
0.0
  0
LINE
  5
231
100
AcDbEntity
100
AcDbLine
  8
int
 62
256
370
-1
 48
1.0
  6
BYLAYER
 10
187.929000000000002
 20
40.7021000000000015
 30
0.0
 11
187.5
 21
40.4022999999999968
 31
0.0
  0
LINE
  5
232
100
AcDbEntity
100
AcDbLine
  8
int
 62
256
370
-1
 48
1.0
  6
BYLAYER
 10
187.5
 20
40.4022999999999968
 30
0.0
 11
187.0260000000000105
 21
40.1807000000000016
 31
0.0
  0
LINE
  5
233
100
AcDbEntity
100
AcDbLine
  8
int
 62
256
370
-1
 48
1.0
  6
BYLAYER
 10
187.0260000000000105
 20
40.1807000000000016
 30
0.0
 11
186.5209999999999866
 21
40.0459000000000032
 31
0.0
  0
LINE
  5
234
100
AcDbEntity
100
AcDbLine
  8
int
 62
256
370
-1
 48
1.0
  6
BYLAYER
 10
186.5209999999999866
 20
40.0459000000000032
 30
0.0
 11
186.0
 21
40.0
 31
0.0
  0
LINE
  5
235
100
AcDbEntity
100
AcDbLine
  8
int
 62
256
370
-1
 48
1.0
  6
BYLAYER
 10
186.0
 20
40.0
 30
0.0
 11
185.4790000000000134
 21
40.0459000000000032
 31
0.0
  0
ENDBLK
  5
236
100
AcDbEntity
  8
0
100
AcDbBlockEnd
  0
ENDSEC
  0
SECTION
  2
ENTITIES
  0
INSERT
  5
237
100
AcDbEntity
100
AcDbBlockReference
  8
0
 62
256
370
-1
 48
1.0
  6
BYLAYER
  2
bras2
 10
0.0
 20
0.0
 30
0.0
  0
ENDSEC
  0
SECTION
  2
OBJECTS
  0
DICTIONARY
  5
C
100
AcDbDictionary
280
0
281
1
  3
ACAD_GROUP
350
D
  3
ACAD_LAYOUT
350
1A
  3
ACAD_MLINESTYLE
350
17
  3
ACAD_PLOTSETTINGS
350
19
  3
ACAD_PLOTSTYLENAME
350
E
  3
AcDbVariableDictionary
350
238
  3
QCAD_OBJECTS
350
239
  0
DICTIONARY
  5
D
100
AcDbDictionary
280
0
281
1
  0
ACDBDICTIONARYWDFLT
  5
E
100
AcDbDictionary
281
1
  3
Normal
350
F
100
AcDbDictionaryWithDefault
340
F
  0
ACDBPLACEHOLDER
  5
F
  0
DICTIONARY
  5
17
100
AcDbDictionary
280
0
281
1
  3
Standard
350
18
  0
MLINESTYLE
  5
18
100
AcDbMlineStyle
  2
STANDARD
 70
0
  3

 62
256
 51
90.0
 52
90.0
 71
2
 49
0.5
 62
256
  6
BYLAYER
 49
-0.5
 62
256
  6
BYLAYER
  0
DICTIONARY
  5
19
100
AcDbDictionary
280
0
281
1
  0
DICTIONARY
  5
1A
100
AcDbDictionary
281
1
  3
Layout1
350
1E
  3
Layout2
350
26
  3
Model
350
22
  0
LAYOUT
  5
1E
100
AcDbPlotSettings
  1

  2
none_device
  4

  6

 40
0.0
 41
0.0
 42
0.0
 43
0.0
 44
0.0
 45
0.0
 46
0.0
 47
0.0
 48
0.0
 49
0.0
140
0.0
141
0.0
142
1.0
143
1.0
 70
688
 72
0
 73
0
 74
5
  7

 75
16
147
1.0
148
0.0
149
0.0
100
AcDbLayout
  1
Layout1
 70
1
 71
1
 10
0.0
 20
0.0
 11
420.0
 21
297.0
 12
0.0
 22
0.0
 32
0.0
 14
100000000000000000000.0
 24
100000000000000000000.0
 34
100000000000000000000.0
 15
-100000000000000000000.0
 25
-100000000000000000000.0
 35
-100000000000000000000.0
146
0.0
 13
0.0
 23
0.0
 33
0.0
 16
1.0
 26
0.0
 36
0.0
 17
0.0
 27
1.0
 37
0.0
 76
0
330
1B
  0
LAYOUT
  5
22
100
AcDbPlotSettings
  1

  2
none_device
  4

  6

 40
0.0
 41
0.0
 42
0.0
 43
0.0
 44
0.0
 45
0.0
 46
0.0
 47
0.0
 48
0.0
 49
0.0
140
0.0
141
0.0
142
1.0
143
1.0
 70
1712
 72
0
 73
0
 74
0
  7

 75
0
147
1.0
148
0.0
149
0.0
100
AcDbLayout
  1
Model
 70
1
 71
0
 10
0.0
 20
0.0
 11
12.0
 21
9.0
 12
0.0
 22
0.0
 32
0.0
 14
0.0
 24
0.0
 34
0.0
 15
0.0
 25
0.0
 35
0.0
146
0.0
 13
0.0
 23
0.0
 33
0.0
 16
1.0
 26
0.0
 36
0.0
 17
0.0
 27
1.0
 37
0.0
 76
0
330
1F
  0
LAYOUT
  5
26
100
AcDbPlotSettings
  1

  2
none_device
  4

  6

 40
0.0
 41
0.0
 42
0.0
 43
0.0
 44
0.0
 45
0.0
 46
0.0
 47
0.0
 48
0.0
 49
0.0
140
0.0
141
0.0
142
1.0
143
1.0
 70
688
 72
0
 73
0
 74
5
  7

 75
16
147
1.0
148
0.0
149
0.0
100
AcDbLayout
  1
Layout2
 70
1
 71
2
 10
0.0
 20
0.0
 11
12.0
 21
9.0
 12
0.0
 22
0.0
 32
0.0
 14
0.0
 24
0.0
 34
0.0
 15
0.0
 25
0.0
 35
0.0
146
0.0
 13
0.0
 23
0.0
 33
0.0
 16
1.0
 26
0.0
 36
0.0
 17
0.0
 27
1.0
 37
0.0
 76
0
330
23
  0
DICTIONARY
  5
238
100
AcDbDictionary
281
1
  3
DIMASSOC
350
23B
  3
HIDETEXT
350
23A
  0
DICTIONARYVAR
  5
23A
100
DictionaryVariables
280
0
  1
2
  0
DICTIONARYVAR
  5
23B
100
DictionaryVariables
280
0
  1
1
  0
DICTIONARY
  5
239
100
AcDbDictionary
281
1
  3
ColorSettings/BackgroundColor
350
23C
  3
ColorSettings/ColorMode
350
23D
  3
Grid/DisplayGrid00
350
23E
  3
Grid/DisplayGrid01
350
23F
  3
Grid/DisplayGrid02
350
240
  3
Grid/DisplayGrid03
350
241
  3
Grid/GridSpacingX00
350
242
  3
Grid/GridSpacingX01
350
243
  3
Grid/GridSpacingX02
350
244
  3
Grid/GridSpacingX03
350
245
  3
Grid/GridSpacingY00
350
246
  3
Grid/GridSpacingY01
350
247
  3
Grid/GridSpacingY02
350
248
  3
Grid/GridSpacingY03
350
249
  3
Grid/IsometricGrid00
350
24A
  3
Grid/IsometricGrid01
350
24B
  3
Grid/IsometricGrid02
350
24C
  3
Grid/IsometricGrid03
350
24D
  3
Grid/IsometricProjection00
350
24E
  3
Grid/IsometricProjection01
350
24F
  3
Grid/IsometricProjection02
350
250
  3
Grid/IsometricProjection03
350
251
  3
Grid/MetaGridSpacingX00
350
252
  3
Grid/MetaGridSpacingX01
350
253
  3
Grid/MetaGridSpacingX02
350
254
  3
Grid/MetaGridSpacingX03
350
255
  3
Grid/MetaGridSpacingY00
350
256
  3
Grid/MetaGridSpacingY01
350
257
  3
Grid/MetaGridSpacingY02
350
258
  3
Grid/MetaGridSpacingY03
350
259
  3
MultiPageSettings/Columns
350
25A
  3
MultiPageSettings/GlueMarginsBottom
350
25B
  3
MultiPageSettings/GlueMarginsLeft
350
25C
  3
MultiPageSettings/GlueMarginsRight
350
25D
  3
MultiPageSettings/GlueMarginsTop
350
25E
  3
MultiPageSettings/PrintCropMarks
350
25F
  3
MultiPageSettings/Rows
350
260
  3
PageSettings/OffsetX
350
261
  3
PageSettings/OffsetY
350
262
  3
PageSettings/PageOrientation
350
263
  3
PageSettings/PaperHeight
350
264
  3
PageSettings/PaperWidth
350
265
  3
PageSettings/Scale
350
266
  3
PageSettings/ShowPaperBorders
350
267
  3
QCADVersion
350
268
  3
UnitSettings/PaperUnit
350
269
  3
ViewportCenter
350
26A
  3
ViewportHeight
350
26B
  3
ViewportWidth
350
26C
  0
XRECORD
  5
23C
330
239
100
AcDbXrecord
280
1
1000
Blanc
  0
XRECORD
  5
23D
330
239
100
AcDbXrecord
280
1
1000
FullColor
  0
XRECORD
  5
23E
330
239
100
AcDbXrecord
280
1
290
1
  0
XRECORD
  5
23F
330
239
100
AcDbXrecord
280
1
290
1
  0
XRECORD
  5
240
330
239
100
AcDbXrecord
280
1
290
1
  0
XRECORD
  5
241
330
239
100
AcDbXrecord
280
1
290
1
  0
XRECORD
  5
242
330
239
100
AcDbXrecord
280
1
1000
auto
  0
XRECORD
  5
243
330
239
100
AcDbXrecord
280
1
1000
auto
  0
XRECORD
  5
244
330
239
100
AcDbXrecord
280
1
1000
auto
  0
XRECORD
  5
245
330
239
100
AcDbXrecord
280
1
1000
auto
  0
XRECORD
  5
246
330
239
100
AcDbXrecord
280
1
1000
auto
  0
XRECORD
  5
247
330
239
100
AcDbXrecord
280
1
1000
auto
  0
XRECORD
  5
248
330
239
100
AcDbXrecord
280
1
1000
auto
  0
XRECORD
  5
249
330
239
100
AcDbXrecord
280
1
1000
auto
  0
XRECORD
  5
24A
330
239
100
AcDbXrecord
280
1
290
0
  0
XRECORD
  5
24B
330
239
100
AcDbXrecord
280
1
290
0
  0
XRECORD
  5
24C
330
239
100
AcDbXrecord
280
1
290
0
  0
XRECORD
  5
24D
330
239
100
AcDbXrecord
280
1
290
0
  0
XRECORD
  5
24E
330
239
100
AcDbXrecord
280
1
 90
0
  0
XRECORD
  5
24F
330
239
100
AcDbXrecord
280
1
 90
0
  0
XRECORD
  5
250
330
239
100
AcDbXrecord
280
1
 90
0
  0
XRECORD
  5
251
330
239
100
AcDbXrecord
280
1
 90
0
  0
XRECORD
  5
252
330
239
100
AcDbXrecord
280
1
1000
auto
  0
XRECORD
  5
253
330
239
100
AcDbXrecord
280
1
1000
auto
  0
XRECORD
  5
254
330
239
100
AcDbXrecord
280
1
1000
auto
  0
XRECORD
  5
255
330
239
100
AcDbXrecord
280
1
1000
auto
  0
XRECORD
  5
256
330
239
100
AcDbXrecord
280
1
1000
auto
  0
XRECORD
  5
257
330
239
100
AcDbXrecord
280
1
1000
auto
  0
XRECORD
  5
258
330
239
100
AcDbXrecord
280
1
1000
auto
  0
XRECORD
  5
259
330
239
100
AcDbXrecord
280
1
1000
auto
  0
XRECORD
  5
25A
330
239
100
AcDbXrecord
280
1
 90
1
  0
XRECORD
  5
25B
330
239
100
AcDbXrecord
280
1
 40
10.0
  0
XRECORD
  5
25C
330
239
100
AcDbXrecord
280
1
 40
10.0
  0
XRECORD
  5
25D
330
239
100
AcDbXrecord
280
1
 40
10.0
  0
XRECORD
  5
25E
330
239
100
AcDbXrecord
280
1
 40
10.0
  0
XRECORD
  5
25F
330
239
100
AcDbXrecord
280
1
290
0
  0
XRECORD
  5
260
330
239
100
AcDbXrecord
280
1
 90
1
  0
XRECORD
  5
261
330
239
100
AcDbXrecord
280
1
 40
0.0
  0
XRECORD
  5
262
330
239
100
AcDbXrecord
280
1
 40
0.0
  0
XRECORD
  5
263
330
239
100
AcDbXrecord
280
1
1000
Portrait
  0
XRECORD
  5
264
330
239
100
AcDbXrecord
280
1
 40
297.0
  0
XRECORD
  5
265
330
239
100
AcDbXrecord
280
1
 40
210.0
  0
XRECORD
  5
266
330
239
100
AcDbXrecord
280
1
1000
1:1
  0
XRECORD
  5
267
330
239
100
AcDbXrecord
280
1
290
1
  0
XRECORD
  5
268
330
239
100
AcDbXrecord
280
1
1000
3.15.5
  0
XRECORD
  5
269
330
239
100
AcDbXrecord
280
1
 90
4
  0
XRECORD
  5
26B
330
239
100
AcDbXrecord
280
1
 40
175.4731267605633889
  0
XRECORD
  5
26C
330
239
100
AcDbXrecord
280
1
 40
272.8766197183098825
  0
ENDSEC
  0
EOF
