999
dxflib 3.12.2.0
  0
SECTION
  2
HEADER
  9
$ACADVER
  1
AC1015
  9
$HANDSEED
  5
FFFF
  9
$DIMADEC
 70
3
  9
$DIMASZ
 40
2.5
  9
$DIMAUNIT
 70
0
  9
$DIMAZIN
 70
2
  9
$DIMDEC
 70
4
  9
$DIMEXE
 40
1.25
  9
$DIMEXO
 40
0.625
  9
$DIMGAP
 40
0.625
  9
$DIMLUNIT
 70
2
  9
$DIMSCALE
 40
1.0
  9
$DIMTSZ
 40
0.0
  9
$DIMTXT
 40
2.5
  9
$DIMZIN
 70
8
  9
$DWGCODEPAGE
  3
ANSI_1252
  9
$INSUNITS
 70
4
  9
$LTSCALE
 40
1.0
  9
$MEASUREMENT
 70
1
  9
$PDMODE
 70
0
  9
$PDSIZE
 40
0
  0
ENDSEC
  0
SECTION
  2
TABLES
  0
TABLE
  2
VPORT
  5
8
100
AcDbSymbolTable
 70
1
  0
VPORT
  5
30
100
AcDbSymbolTableRecord
100
AcDbViewportTableRecord
  2
*Active
 70
0
 10
0.0
 20
0.0
 11
1.0
 21
1.0
 12
286.3055555555554861
 22
148.5
 13
0.0
 23
0.0
 14
10.0
 24
10.0
 15
10.0
 25
10.0
 16
0.0
 26
0.0
 36
1.0
 17
0.0
 27
0.0
 37
0.0
 40
297.0
 41
1.92798353909465
 42
50.0
 43
0.0
 44
0.0
 50
0.0
 51
0.0
 71
0
 72
100
 73
1
 74
3
 75
1
 76
1
 77
0
 78
0
281
0
 65
1
110
0.0
120
0.0
130
0.0
111
1.0
121
0.0
131
0.0
112
0.0
122
1.0
132
0.0
 79
0
146
0.0
  0
ENDTAB
  0
TABLE
  2
LTYPE
  5
5
100
AcDbSymbolTable
 70
41
  0
LTYPE
  5
16
100
AcDbSymbolTableRecord
100
AcDbLinetypeTableRecord
  2
Continuous
 70
0
  3
Solid line
 72
65
 73
0
 40
0.0
  0
LTYPE
  5
31
100
AcDbSymbolTableRecord
100
AcDbLinetypeTableRecord
  2
ACAD_ISO15W100
 70
0
  3
ISO double-dash triple-dot __ __ . . . __ __ . .
 72
65
 73
10
 40
39.0
 49
12.0
 74
0
 49
-3.0
 74
0
 49
12.0
 74
0
 49
-2.9500000000000002
 74
0
 49
0.1
 74
0
 49
-2.9000000000000004
 74
0
 49
0.1
 74
0
 49
-2.9000000000000004
 74
0
 49
0.1
 74
0
 49
-2.9500000000000002
 74
0
  0
LTYPE
  5
32
100
AcDbSymbolTableRecord
100
AcDbLinetypeTableRecord
  2
DIVIDE
 70
0
  3
Divide ____ . . ____ . . ____ . . ____ . . ____
 72
65
 73
6
 40
31.75
 49
12.6999999999999993
 74
0
 49
-6.2999999999999998
 74
0
 49
0.1
 74
0
 49
-6.25
 74
0
 49
0.1
 74
0
 49
-6.2999999999999998
 74
0
  0
LTYPE
  5
33
100
AcDbSymbolTableRecord
100
AcDbLinetypeTableRecord
  2
ACAD_ISO10W100
 70
0
  3
ISO dash dot __ . __ . __ . __ . __ . __ . __ . 
 72
65
 73
4
 40
18.0
 49
12.0
 74
0
 49
-2.9500000000000002
 74
0
 49
0.1
 74
0
 49
-2.9500000000000002
 74
0
  0
LTYPE
  5
34
100
AcDbSymbolTableRecord
100
AcDbLinetypeTableRecord
  2
ACAD_ISO04W100
 70
0
  3
ISO long-dash dot ____ . ____ . ____ . ____ . _
 72
65
 73
4
 40
30.0
 49
24.0
 74
0
 49
-2.9500000000000002
 74
0
 49
0.1
 74
0
 49
-2.9500000000000002
 74
0
  0
LTYPE
  5
35
100
AcDbSymbolTableRecord
100
AcDbLinetypeTableRecord
  2
CENTER2
 70
0
  3
Center (.5x) ___ _ ___ _ ___ _ ___ _ ___ _ ___
 72
65
 73
4
 40
28.5749999999999993
 49
19.0500000000000007
 74
0
 49
-3.1749999999999998
 74
0
 49
3.1749999999999998
 74
0
 49
-3.1749999999999998
 74
0
  0
LTYPE
  5
36
100
AcDbSymbolTableRecord
100
AcDbLinetypeTableRecord
  2
ACAD_ISO11W100
 70
0
  3
ISO double-dash dot __ __ . __ __ . __ __ . __ _
 72
65
 73
6
 40
33.0
 49
12.0
 74
0
 49
-3.0
 74
0
 49
12.0
 74
0
 49
-2.9500000000000002
 74
0
 49
0.1
 74
0
 49
-2.9500000000000002
 74
0
  0
LTYPE
  5
37
100
AcDbSymbolTableRecord
100
AcDbLinetypeTableRecord
  2
HIDDEN2
 70
0
  3
Hidden (.5x) _ _ _ _ _ _ _ _ _ _ _ _ _ _ _ _ _ 
 72
65
 73
2
 40
4.7624999999999993
 49
3.1749999999999998
 74
0
 49
-1.5874999999999999
 74
0
  0
LTYPE
  5
38
100
AcDbSymbolTableRecord
100
AcDbLinetypeTableRecord
  2
BORDERX2
 70
0
  3
Border (2x) ____  ____  .  ____  ____  .  ___
 72
65
 73
6
 40
88.8999999999999915
 49
25.3999999999999986
 74
0
 49
-12.6999999999999993
 74
0
 49
25.3999999999999986
 74
0
 49
-12.6499999999999986
 74
0
 49
0.1
 74
0
 49
-12.6499999999999986
 74
0
  0
LTYPE
  5
39
100
AcDbSymbolTableRecord
100
AcDbLinetypeTableRecord
  2
ACAD_ISO05W100
 70
0
  3
ISO long-dash double-dot ____ .. ____ .. ____ . 
 72
65
 73
6
 40
33.0
 49
24.0
 74
0
 49
-2.9500000000000002
 74
0
 49
0.1
 74
0
 49
-2.9000000000000004
 74
0
 49
0.1
 74
0
 49
-2.9500000000000002
 74
0
  0
LTYPE
  5
3A
100
AcDbSymbolTableRecord
100
AcDbLinetypeTableRecord
  2
DASHDOTX2
 70
0
  3
Dash dot (2x) ____  .  ____  .  ____  .  ___
 72
65
 73
4
 40
50.7999999999999972
 49
25.3999999999999986
 74
0
 49
-12.6499999999999986
 74
0
 49
0.1
 74
0
 49
-12.6499999999999986
 74
0
  0
LTYPE
  5
3B
100
AcDbSymbolTableRecord
100
AcDbLinetypeTableRecord
  2
HIDDENX2
 70
0
  3
Hidden (2x) ____ ____ ____ ____ ____ ____ ____ 
 72
65
 73
2
 40
19.0499999999999972
 49
12.6999999999999993
 74
0
 49
-6.3499999999999996
 74
0
  0
LTYPE
  5
3C
100
AcDbSymbolTableRecord
100
AcDbLinetypeTableRecord
  2
CENTERX2
 70
0
  3
Center (2x) ________  __  ________  __  _____
 72
65
 73
4
 40
101.5999999999999943
 49
63.5
 74
0
 49
-12.6999999999999993
 74
0
 49
12.6999999999999993
 74
0
 49
-12.6999999999999993
 74
0
  0
LTYPE
  5
3D
100
AcDbSymbolTableRecord
100
AcDbLinetypeTableRecord
  2
BORDER2
 70
0
  3
Border (.5x) __.__.__.__.__.__.__.__.__.__.__.
 72
65
 73
6
 40
22.2249999999999979
 49
6.3499999999999996
 74
0
 49
-3.1749999999999998
 74
0
 49
6.3499999999999996
 74
0
 49
-3.125
 74
0
 49
0.1
 74
0
 49
-3.125
 74
0
  0
LTYPE
  5
3E
100
AcDbSymbolTableRecord
100
AcDbLinetypeTableRecord
  2
DASHDOT2
 70
0
  3
Dash dot (.5x) _._._._._._._._._._._._._._._.
 72
65
 73
4
 40
12.6999999999999993
 49
6.3499999999999996
 74
0
 49
-3.125
 74
0
 49
0.1
 74
0
 49
-3.125
 74
0
  0
LTYPE
  5
3F
100
AcDbSymbolTableRecord
100
AcDbLinetypeTableRecord
  2
ACAD_ISO12W100
 70
0
  3
ISO dash double-dot __ . . __ . . __ . . __ . . 
 72
65
 73
6
 40
21.0
 49
12.0
 74
0
 49
-2.9500000000000002
 74
0
 49
0.1
 74
0
 49
-2.9000000000000004
 74
0
 49
0.1
 74
0
 49
-2.9500000000000002
 74
0
  0
LTYPE
  5
40
100
AcDbSymbolTableRecord
100
AcDbLinetypeTableRecord
  2
ACAD_ISO07W100
 70
0
  3
ISO dot . . . . . . . . . . . . . . . . . . . . 
 72
65
 73
2
 40
3.0
 49
0.1
 74
0
 49
-2.8999999999999999
 74
0
  0
LTYPE
  5
41
100
AcDbSymbolTableRecord
100
AcDbLinetypeTableRecord
  2
HIDDEN
 70
0
  3
Hidden __ __ __ __ __ __ __ __ __ __ __ __ __ __
 72
65
 73
2
 40
9.5249999999999986
 49
6.3499999999999996
 74
0
 49
-3.1749999999999998
 74
0
  0
LTYPE
  5
42
100
AcDbSymbolTableRecord
100
AcDbLinetypeTableRecord
  2
ACAD_ISO06W100
 70
0
  3
ISO long-dash triple-dot ____ ... ____ ... ____
 72
65
 73
8
 40
36.0
 49
24.0
 74
0
 49
-2.9500000000000002
 74
0
 49
0.1
 74
0
 49
-2.9000000000000004
 74
0
 49
0.1
 74
0
 49
-2.9000000000000004
 74
0
 49
0.1
 74
0
 49
-2.9500000000000002
 74
0
  0
LTYPE
  5
43
100
AcDbSymbolTableRecord
100
AcDbLinetypeTableRecord
  2
CENTER
 70
0
  3
Center ____ _ ____ _ ____ _ ____ _ ____ _ ____
 72
65
 73
4
 40
50.7999999999999972
 49
31.75
 74
0
 49
-6.3499999999999996
 74
0
 49
6.3499999999999996
 74
0
 49
-6.3499999999999996
 74
0
  0
LTYPE
  5
44
100
AcDbSymbolTableRecord
100
AcDbLinetypeTableRecord
  2
DOTX2
 70
0
  3
Dot (2x) .  .  .  .  .  .  .  .  .  .  .  .  .  .
 72
65
 73
2
 40
12.6999999999999993
 49
0.1
 74
0
 49
-12.5999999999999996
 74
0
  0
LTYPE
  5
45
100
AcDbSymbolTableRecord
100
AcDbLinetypeTableRecord
  2
PHANTOM
 70
0
  3
Phantom ______  __  __  ______  __  __  ______ 
 72
65
 73
6
 40
63.5
 49
31.75
 74
0
 49
-6.3499999999999996
 74
0
 49
6.3499999999999996
 74
0
 49
-6.3499999999999996
 74
0
 49
6.3499999999999996
 74
0
 49
-6.3499999999999996
 74
0
  0
LTYPE
  5
46
100
AcDbSymbolTableRecord
100
AcDbLinetypeTableRecord
  2
ACAD_ISO08W100
 70
0
  3
ISO long-dash short-dash ____ __ ____ __ ____ _
 72
65
 73
4
 40
36.0
 49
24.0
 74
0
 49
-3.0
 74
0
 49
6.0
 74
0
 49
-3.0
 74
0
  0
LTYPE
  5
47
100
AcDbSymbolTableRecord
100
AcDbLinetypeTableRecord
  2
DASHEDX2
 70
0
  3
Dashed (2x) ____  ____  ____  ____  ____  ___
 72
65
 73
2
 40
38.0999999999999943
 49
25.3999999999999986
 74
0
 49
-12.6999999999999993
 74
0
  0
LTYPE
  5
48
100
AcDbSymbolTableRecord
100
AcDbLinetypeTableRecord
  2
ACAD_ISO02W100
 70
0
  3
ISO dash __ __ __ __ __ __ __ __ __ __ __ __ __
 72
65
 73
2
 40
15.0
 49
12.0
 74
0
 49
-3.0
 74
0
  0
LTYPE
  5
49
100
AcDbSymbolTableRecord
100
AcDbLinetypeTableRecord
  2
PHANTOM2
 70
0
  3
Phantom (.5x) ___ _ _ ___ _ _ ___ _ _ ___ _ _
 72
65
 73
6
 40
31.75
 49
15.875
 74
0
 49
-3.1749999999999998
 74
0
 49
3.1749999999999998
 74
0
 49
-3.1749999999999998
 74
0
 49
3.1749999999999998
 74
0
 49
-3.1749999999999998
 74
0
  0
LTYPE
  5
4A
100
AcDbSymbolTableRecord
100
AcDbLinetypeTableRecord
  2
DASHED2
 70
0
  3
Dashed (.5x) _ _ _ _ _ _ _ _ _ _ _ _ _ _ _ _ _ 
 72
65
 73
2
 40
9.5249999999999986
 49
6.3499999999999996
 74
0
 49
-3.1749999999999998
 74
0
  0
LTYPE
  5
4B
100
AcDbSymbolTableRecord
100
AcDbLinetypeTableRecord
  2
ACAD_ISO09W100
 70
0
  3
ISO long-dash double-short-dash ____ __ __ ____
 72
65
 73
6
 40
45.0
 49
24.0
 74
0
 49
-3.0
 74
0
 49
6.0
 74
0
 49
-3.0
 74
0
 49
6.0
 74
0
 49
-3.0
 74
0
  0
LTYPE
  5
4C
100
AcDbSymbolTableRecord
100
AcDbLinetypeTableRecord
  2
ACAD_ISO13W100
 70
0
  3
ISO double-dash double-dot __ __ . . __ __ . . _
 72
65
 73
8
 40
36.0
 49
12.0
 74
0
 49
-3.0
 74
0
 49
12.0
 74
0
 49
-2.9500000000000002
 74
0
 49
0.1
 74
0
 49
-2.9000000000000004
 74
0
 49
0.1
 74
0
 49
-2.9500000000000002
 74
0
  0
LTYPE
  5
4D
100
AcDbSymbolTableRecord
100
AcDbLinetypeTableRecord
  2
DOT2
 70
0
  3
Dot (.5x) ........................................
 72
65
 73
2
 40
3.1749999999999998
 49
0.1
 74
0
 49
-3.0749999999999997
 74
0
  0
LTYPE
  5
4E
100
AcDbSymbolTableRecord
100
AcDbLinetypeTableRecord
  2
DASHED
 70
0
  3
Dashed __ __ __ __ __ __ __ __ __ __ __ __ __ _
 72
65
 73
2
 40
19.0499999999999972
 49
12.6999999999999993
 74
0
 49
-6.3499999999999996
 74
0
  0
LTYPE
  5
4F
100
AcDbSymbolTableRecord
100
AcDbLinetypeTableRecord
  2
ACAD_ISO14W100
 70
0
  3
ISO dash triple-dot __ . . . __ . . . __ . . . _
 72
65
 73
8
 40
24.0
 49
12.0
 74
0
 49
-2.9500000000000002
 74
0
 49
0.1
 74
0
 49
-2.9000000000000004
 74
0
 49
0.1
 74
0
 49
-2.9000000000000004
 74
0
 49
0.1
 74
0
 49
-2.9500000000000002
 74
0
  0
LTYPE
  5
15
100
AcDbSymbolTableRecord
100
AcDbLinetypeTableRecord
  2
BYLAYER
 70
0
  3

 72
65
 73
0
 40
0.0
  0
LTYPE
  5
50
100
AcDbSymbolTableRecord
100
AcDbLinetypeTableRecord
  2
PHANTOMX2
 70
0
  3
Phantom (2x) ____________    ____    ____   _
 72
65
 73
6
 40
127.0
 49
63.5
 74
0
 49
-12.6999999999999993
 74
0
 49
12.6999999999999993
 74
0
 49
-12.6999999999999993
 74
0
 49
12.6999999999999993
 74
0
 49
-12.6999999999999993
 74
0
  0
LTYPE
  5
14
100
AcDbSymbolTableRecord
100
AcDbLinetypeTableRecord
  2
BYBLOCK
 70
0
  3

 72
65
 73
0
 40
0.0
  0
LTYPE
  5
51
100
AcDbSymbolTableRecord
100
AcDbLinetypeTableRecord
  2
DIVIDEX2
 70
0
  3
Divide (2x) ________  .  .  ________  .  .  _
 72
65
 73
6
 40
63.4999999999999929
 49
25.3999999999999986
 74
0
 49
-12.6499999999999986
 74
0
 49
0.1
 74
0
 49
-12.5999999999999979
 74
0
 49
0.1
 74
0
 49
-12.6499999999999986
 74
0
  0
LTYPE
  5
52
100
AcDbSymbolTableRecord
100
AcDbLinetypeTableRecord
  2
BORDER
 70
0
  3
Border __ __ . __ __ . __ __ . __ __ . __ __ .
 72
65
 73
6
 40
44.4499999999999957
 49
12.6999999999999993
 74
0
 49
-6.3499999999999996
 74
0
 49
12.6999999999999993
 74
0
 49
-6.2999999999999998
 74
0
 49
0.1
 74
0
 49
-6.2999999999999998
 74
0
  0
LTYPE
  5
53
100
AcDbSymbolTableRecord
100
AcDbLinetypeTableRecord
  2
DIVIDE2
 70
0
  3
Divide (.5x) __..__..__..__..__..__..__..__.._
 72
65
 73
6
 40
15.875
 49
6.3499999999999996
 74
0
 49
-3.125
 74
0
 49
0.1
 74
0
 49
-3.0750000000000002
 74
0
 49
0.1
 74
0
 49
-3.125
 74
0
  0
LTYPE
  5
54
100
AcDbSymbolTableRecord
100
AcDbLinetypeTableRecord
  2
DOT
 70
0
  3
Dot . . . . . . . . . . . . . . . . . . . . . . . .
 72
65
 73
2
 40
6.3499999999999996
 49
0.1
 74
0
 49
-6.25
 74
0
  0
LTYPE
  5
55
100
AcDbSymbolTableRecord
100
AcDbLinetypeTableRecord
  2
DASHDOT
 70
0
  3
Dash dot __ . __ . __ . __ . __ . __ . __ . __
 72
65
 73
4
 40
25.3999999999999986
 49
12.6999999999999993
 74
0
 49
-6.2999999999999998
 74
0
 49
0.1
 74
0
 49
-6.2999999999999998
 74
0
  0
LTYPE
  5
56
100
AcDbSymbolTableRecord
100
AcDbLinetypeTableRecord
  2
ACAD_ISO03W100
 70
0
  3
ISO dash space __    __    __    __    __    __
 72
65
 73
2
 40
30.0
 49
12.0
 74
0
 49
-18.0
 74
0
  0
ENDTAB
  0
TABLE
  2
LAYER
  5
2
100
AcDbSymbolTable
 70
4
  0
LAYER
  5
57
100
AcDbSymbolTableRecord
100
AcDbLayerTableRecord
  2
out
 70
0
 62
1
420
16711680
  6
Continuous
370
0
390
F
  0
LAYER
  5
58
100
AcDbSymbolTableRecord
100
AcDbLayerTableRecord
  2
int
 70
0
 62
3
420
65280
  6
Continuous
370
0
390
F
  0
LAYER
  5
10
100
AcDbSymbolTableRecord
100
AcDbLayerTableRecord
  2
0
 70
0
 62
7
420
16777215
  6
Continuous
370
0
390
F
  0
LAYER
  5
59
100
AcDbSymbolTableRecord
100
AcDbLayerTableRecord
  2
construct
 70
0
 62
30
420
16744192
  6
Continuous
370
0
390
F
  0
ENDTAB
  0
TABLE
  2
STYLE
  5
3
100
AcDbSymbolTable
 70
1
  0
STYLE
  5
5A
100
AcDbSymbolTableRecord
100
AcDbTextStyleTableRecord
  2
Standard
 70
0
 40
0.0
 41
1.0
 50
0.0
 71
0
 42
2.5
  3

  4

1001
ACAD
1000
txt
1071
0
  0
ENDTAB
  0
TABLE
  2
VIEW
  5
6
100
AcDbSymbolTable
 70
0
  0
ENDTAB
  0
TABLE
  2
UCS
  5
7
100
AcDbSymbolTable
 70
0
  0
ENDTAB
  0
TABLE
  2
APPID
  5
9
100
AcDbSymbolTable
 70
1
  0
APPID
  5
12
100
AcDbSymbolTableRecord
100
AcDbRegAppTableRecord
  2
ACAD
 70
0
  0
APPID
  5
5B
100
AcDbSymbolTableRecord
100
AcDbRegAppTableRecord
  2
QCAD
 70
0
  0
ENDTAB
  0
TABLE
  2
DIMSTYLE
  5
A
100
AcDbSymbolTable
 70
1
100
AcDbDimStyleTable
 71
0
  0
DIMSTYLE
105
27
100
AcDbSymbolTableRecord
100
AcDbDimStyleTableRecord
  2
Standard
 41
2.5
 42
0.625
 43
3.75
 44
1.25
 70
0
 73
0
 74
0
 77
1
 78
8
140
2.5
141
2.5
143
0.03937007874016
147
0.625
171
3
172
1
271
2
272
2
274
3
278
44
283
0
284
8
340
5A
  0
ENDTAB
  0
TABLE
  2
BLOCK_RECORD
  5
1
100
AcDbSymbolTable
 70
1
  0
BLOCK_RECORD
  5
1F
100
AcDbSymbolTableRecord
100
AcDbBlockTableRecord
  2
*Model_Space
340
22
  0
BLOCK_RECORD
  5
1B
100
AcDbSymbolTableRecord
100
AcDbBlockTableRecord
  2
*Paper_Space
340
1E
  0
BLOCK_RECORD
  5
23
100
AcDbSymbolTableRecord
100
AcDbBlockTableRecord
  2
*Paper_Space0
340
26
  0
BLOCK_RECORD
  5
5C
100
AcDbSymbolTableRecord
100
AcDbBlockTableRecord
  2
bras1
340
0
  0
ENDTAB
  0
ENDSEC
  0
SECTION
  2
BLOCKS
  0
BLOCK
  5
20
100
AcDbEntity
  8
0
100
AcDbBlockBegin
  2
*Model_Space
 70
0
 10
0.0
 20
0.0
 30
0.0
  3
*Model_Space
  1

  0
ENDBLK
  5
21
100
AcDbEntity
  8
0
100
AcDbBlockEnd
  0
BLOCK
  5
1C
100
AcDbEntity
 67
1
  8
0
100
AcDbBlockBegin
  2
*Paper_Space
 70
0
 10
0.0
 20
0.0
 30
0.0
  3
*Paper_Space
  1

  0
ENDBLK
  5
1D
100
AcDbEntity
 67
1
  8
0
100
AcDbBlockEnd
  0
BLOCK
  5
24
100
AcDbEntity
  8
0
100
AcDbBlockBegin
  2
*Paper_Space0
 70
0
 10
0.0
 20
0.0
 30
0.0
  3
*Paper_Space0
  1

  0
ENDBLK
  5
25
100
AcDbEntity
  8
0
100
AcDbBlockEnd
  0
BLOCK
  5
5D
100
AcDbEntity
  8
0
100
AcDbBlockBegin
  2
bras1
 70
0
 10
0.0
 20
0.0
 30
0.0
  3
bras1
  1

  0
ARC
  5
5E
100
AcDbEntity
  8
out
 62
256
370
-1
 48
1.0
  6
BYLAYER
100
AcDbCircle
 10
-169.7999999999994429
 20
-549.0000000000635509
 30
0.0
 40
612.9869819172956795
100
AcDbArc
 50
77.7733546099802453
 51
101.8070934731900365
  0
ARC
  5
5F
100
AcDbEntity
  8
out
 62
256
370
-1
 48
1.0
  6
BYLAYER
100
AcDbCircle
 10
-224.9999999999998295
 20
-461.6666666666566812
 30
0.0
 40
497.3541103792168769
100
AcDbArc
 50
68.1629366417638209
 51
97.8789385749977043
  0
LINE
  5
60
100
AcDbEntity
100
AcDbLine
  8
out
 62
256
370
-1
 48
1.0
  6
BYLAYER
 10
-40.0
 20
5.0
 30
0.0
 11
-39.9999999999990337
 21
0.0000000000000284
 31
0.0
  0
LINE
  5
61
100
AcDbEntity
100
AcDbLine
  8
out
 62
256
370
-1
 48
1.0
  6
BYLAYER
 10
-40.0
 20
5.0
 30
0.0
 11
-30.0
 21
5.0
 31
0.0
  0
LINE
  5
62
100
AcDbEntity
100
AcDbLine
  8
out
 62
256
370
-1
 48
1.0
  6
BYLAYER
 10
-30.0
 20
5.0
 30
0.0
 11
-30.0
 21
0.0000000000000284
 31
0.0
  0
LINE
  5
63
100
AcDbEntity
100
AcDbLine
  8
out
 62
256
370
-1
 48
1.0
  6
BYLAYER
 10
-30.0
 20
0.0000000000000284
 30
0.0
 11
-20.0
 21
0.0
 31
0.0
  0
LINE
  5
64
100
AcDbEntity
100
AcDbLine
  8
out
 62
256
370
-1
 48
1.0
  6
BYLAYER
 10
-20.0
 20
0.0
 30
0.0
 11
-20.0
 21
5.0
 31
0.0
  0
LINE
  5
65
100
AcDbEntity
100
AcDbLine
  8
out
 62
256
370
-1
 48
1.0
  6
BYLAYER
 10
-20.0
 20
5.0
 30
0.0
 11
-15.0
 21
5.0
 31
0.0
  0
LINE
  5
66
100
AcDbEntity
100
AcDbLine
  8
out
 62
256
370
-1
 48
1.0
  6
BYLAYER
 10
-15.0
 20
5.0
 30
0.0
 11
-15.0
 21
45.0
 31
0.0
  0
LINE
  5
67
100
AcDbEntity
100
AcDbLine
  8
out
 62
256
370
-1
 48
1.0
  6
BYLAYER
 10
-39.9820334083620423
 20
50.0829120831367334
 30
0.0
 11
-40.0
 21
45.0
 31
0.0
  0
LINE
  5
68
100
AcDbEntity
100
AcDbLine
  8
out
 62
256
370
-1
 48
1.0
  6
BYLAYER
 10
-40.0
 20
45.0
 30
0.0
 11
-30.0
 21
45.0
 31
0.0
  0
LINE
  5
69
100
AcDbEntity
100
AcDbLine
  8
out
 62
256
370
-1
 48
1.0
  6
BYLAYER
 10
-30.0
 20
45.0
 30
0.0
 11
-30.0
 21
50.0
 31
0.0
  0
LINE
  5
6A
100
AcDbEntity
100
AcDbLine
  8
out
 62
256
370
-1
 48
1.0
  6
BYLAYER
 10
-30.0
 20
50.0
 30
0.0
 11
-20.0
 21
50.0
 31
0.0
  0
LINE
  5
6B
100
AcDbEntity
100
AcDbLine
  8
out
 62
256
370
-1
 48
1.0
  6
BYLAYER
 10
-20.0
 20
50.0
 30
0.0
 11
-20.0
 21
45.0
 31
0.0
  0
LINE
  5
6C
100
AcDbEntity
100
AcDbLine
  8
out
 62
256
370
-1
 48
1.0
  6
BYLAYER
 10
-20.0
 20
45.0
 30
0.0
 11
-15.0
 21
45.0
 31
0.0
  0
LINE
  5
6D
100
AcDbEntity
100
AcDbLine
  8
int
 62
256
370
-1
 48
1.0
  6
BYLAYER
 10
-234.3133196820919579
 20
45.6866803179080421
 30
0.0
 11
-229.5961940777125392
 21
50.4038059222874608
 31
0.0
  0
LINE
  5
6E
100
AcDbEntity
100
AcDbLine
  8
int
 62
256
370
-1
 48
1.0
  6
BYLAYER
 10
-221.7743096930629463
 20
51.7743096930629463
 30
0.0
 11
-214.5961940777125392
 21
44.5961940777125392
 31
0.0
  0
LINE
  5
6F
100
AcDbEntity
100
AcDbLine
  8
int
 62
256
370
-1
 48
1.0
  6
BYLAYER
 10
-204.7003383007242121
 20
45.2996616992757879
 30
0.0
 11
-194.5961940777125676
 21
55.4038059222874608
 31
0.0
  0
LINE
  5
70
100
AcDbEntity
100
AcDbLine
  8
int
 62
256
370
-1
 48
1.0
  6
BYLAYER
 10
-183.7964941316405145
 20
53.7964941316405145
 30
0.0
 11
-174.5961940777125676
 21
44.5961940777125676
 31
0.0
  0
LINE
  5
71
100
AcDbEntity
100
AcDbLine
  8
int
 62
256
370
-1
 48
1.0
  6
BYLAYER
 10
-167.6326628344086771
 20
42.3673371655913229
 30
0.0
 11
-154.5961940777125676
 21
55.4038059222874608
 31
0.0
  0
LINE
  5
72
100
AcDbEntity
100
AcDbLine
  8
int
 62
256
370
-1
 48
1.0
  6
BYLAYER
 10
-143.2930745512556996
 20
53.2930745512556996
 30
0.0
 11
-124.5961940777125676
 21
34.5961940777125676
 31
0.0
  0
LINE
  5
73
100
AcDbEntity
100
AcDbLine
  8
int
 62
256
370
-1
 48
1.0
  6
BYLAYER
 10
-116.2913872370727404
 20
33.7086127629272596
 30
0.0
 11
-98.868796580843366
 21
51.131203419156634
 31
0.0
  0
LINE
  5
74
100
AcDbEntity
100
AcDbLine
  8
int
 62
256
370
-1
 48
1.0
  6
BYLAYER
 10
-243.1901270441213398
 20
43.8809407677441357
 30
0.0
 11
-237.0158649873287402
 21
50.0552028245367353
 31
0.0
  0
LINE
  5
75
100
AcDbEntity
100
AcDbLine
  8
int
 62
256
370
-1
 48
1.0
  6
BYLAYER
 10
-227.4748737341529363
 20
50.4038059222874608
 30
0.0
 11
-222.8236901430545913
 21
45.7526223311891158
 31
0.0
  0
LINE
  5
76
100
AcDbEntity
100
AcDbLine
  8
int
 62
256
370
-1
 48
1.0
  6
BYLAYER
 10
-212.4748737341529363
 20
44.5961940777125392
 30
0.0
 11
-204.1886152277492101
 21
52.8824525841162654
 31
0.0
  0
LINE
  5
77
100
AcDbEntity
100
AcDbLine
  8
int
 62
256
370
-1
 48
1.0
  6
BYLAYER
 10
-192.4748737341529363
 20
55.4038059222874608
 30
0.0
 11
-180.9977423649953039
 21
43.9266745531298284
 31
0.0
  0
LINE
  5
78
100
AcDbEntity
100
AcDbLine
  8
int
 62
256
370
-1
 48
1.0
  6
BYLAYER
 10
-172.4748737341529079
 20
44.5961940777125676
 30
0.0
 11
-163.1616642108927238
 21
53.9094036009727517
 31
0.0
  0
LINE
  5
79
100
AcDbEntity
100
AcDbLine
  8
int
 62
256
370
-1
 48
1.0
  6
BYLAYER
 10
-152.4748737341528795
 20
55.4038059222874608
 30
0.0
 11
-134.9382812570256078
 21
37.8672134451601892
 31
0.0
  0
LINE
  5
7A
100
AcDbEntity
100
AcDbLine
  8
int
 62
256
370
-1
 48
1.0
  6
BYLAYER
 10
-122.4748737341529079
 20
34.5961940777125676
 30
0.0
 11
-106.3761162955641453
 21
50.6949515163013302
 31
0.0
  0
LINE
  5
7B
100
AcDbEntity
100
AcDbLine
  8
int
 62
256
370
-1
 48
1.0
  6
BYLAYER
 10
-96.7474762372837063
 20
51.131203419156634
 30
0.0
 11
-66.1583124003432204
 21
20.5420395822160913
 31
0.0
  0
ARC
  5
7C
100
AcDbEntity
  8
int
 62
256
370
-1
 48
1.0
  6
BYLAYER
100
AcDbCircle
 10
-169.9699726370027406
 20
-547.9476147090789482
 30
0.0
 40
604.4225097945251264
100
AcDbArc
 50
96.4860156424711874
 51
97.5388536012874852
  0
ARC
  5
7D
100
AcDbEntity
  8
int
 62
256
370
-1
 48
1.0
  6
BYLAYER
100
AcDbCircle
 10
-167.8329137511448437
 20
-576.6687372768153637
 30
0.0
 40
633.220895269961602
100
AcDbArc
 50
93.3955739820312374
 51
94.8017924635692992
  0
ARC
  5
7E
100
AcDbEntity
  8
int
 62
256
370
-1
 48
1.0
  6
BYLAYER
100
AcDbCircle
 10
-170.2394707997170258
 20
-476.2776273364565327
 30
0.0
 40
532.7817664477765902
100
AcDbArc
 50
89.3510703979593757
 51
91.3477874633363172
  0
ARC
  5
7F
100
AcDbEntity
  8
int
 62
256
370
-1
 48
1.0
  6
BYLAYER
100
AcDbCircle
 10
-171.2386389151174058
 20
-568.4163938967899412
 30
0.0
 40
624.945261561082134
100
AcDbArc
 50
84.1262068627066384
 51
87.3333113354731836
  0
ARC
  5
80
100
AcDbEntity
  8
int
 62
256
370
-1
 48
1.0
  6
BYLAYER
100
AcDbCircle
 10
-162.0710366065703738
 20
-506.8451415418538772
 30
0.0
 40
562.6531432665940429
100
AcDbArc
 50
79.0150348983585928
 51
82.1553387302789559
  0
ARC
  5
81
100
AcDbEntity
  8
int
 62
256
370
-1
 48
1.0
  6
BYLAYER
100
AcDbCircle
 10
-225.3898152875467815
 20
-406.9339427295183782
 30
0.0
 40
450.1284140657303396
100
AcDbArc
 50
89.8090090299941295
 51
90.9975691004576106
  0
ARC
  5
82
100
AcDbEntity
  8
int
 62
256
370
-1
 48
1.0
  6
BYLAYER
100
AcDbCircle
 10
-224.1694340028552119
 20
-448.7565783649724835
 30
0.0
 40
491.9228538178522285
100
AcDbArc
 50
85.1041525437771327
 51
87.6154164729705371
  0
ARC
  5
83
100
AcDbEntity
  8
int
 62
256
370
-1
 48
1.0
  6
BYLAYER
100
AcDbCircle
 10
-223.9896892350073188
 20
-454.8832456737057441
 30
0.0
 40
498.000981068226281
100
AcDbArc
 50
79.8539867305079127
 51
83.3992532304033602
  0
ARC
  5
84
100
AcDbEntity
  8
int
 62
256
370
-1
 48
1.0
  6
BYLAYER
100
AcDbCircle
 10
-223.4775942288312081
 20
-456.1934134947135249
 30
0.0
 40
499.1827992326194021
100
AcDbArc
 50
71.8147077148622657
 51
77.5141501930960573
  0
LINE
  5
85
100
AcDbEntity
100
AcDbLine
  8
int
 62
256
370
-1
 48
1.0
  6
BYLAYER
 10
-50.0
 20
15.0761153372979493
 30
0.0
 11
-50.0
 21
39.6085683932026029
 31
0.0
  0
LINE
  5
86
100
AcDbEntity
100
AcDbLine
  8
int
 62
256
370
-1
 48
1.0
  6
BYLAYER
 10
-86.5411357606752176
 20
47.9959307544135925
 30
0.0
 11
-52.5606601717798299
 21
14.0154551655181194
 31
0.0
  0
LINE
  5
87
100
AcDbEntity
100
AcDbLine
  8
int
 62
256
370
-1
 48
1.0
  6
BYLAYER
 10
-250.1331520556831833
 20
48.7026454357463194
 30
0.0
 11
-245.3114473876809996
 21
43.8809407677441357
 31
0.0
  0
LINE
  5
88
100
AcDbEntity
100
AcDbLine
  8
out
 62
256
370
-1
 48
1.0
  6
BYLAYER
 10
-300.0
 20
45.1443900408315244
 30
0.0
 11
-300.0
 21
36.9357405032775148
 31
0.0
  0
CIRCLE
  5
89
100
AcDbEntity
100
AcDbCircle
  8
int
 62
256
370
-1
 48
1.0
  6
BYLAYER
 10
-269.3335661511111425
 20
44.8290471285685044
 30
0.0
 40
5.0
  0
CIRCLE
  5
8A
100
AcDbEntity
100
AcDbCircle
  8
int
 62
256
370
-1
 48
1.0
  6
BYLAYER
 10
-290.0
 20
42.0
 30
0.0
 40
3.0
  0
ARC
  5
8B
100
AcDbEntity
  8
out
 62
256
370
-1
 48
1.0
  6
BYLAYER
100
AcDbCircle
 10
-294.0
 20
45.1443900408315244
 30
0.0
 40
6.0
100
AcDbArc
 50
101.8070934731900508
 51
180.0
  0
ARC
  5
8C
100
AcDbEntity
  8
out
 62
256
370
-1
 48
1.0
  6
BYLAYER
100
AcDbCircle
 10
-294.0
 20
36.9357405032775148
 30
0.0
 40
6.0
100
AcDbArc
 50
180.0
 51
277.8789385749976759
  0
ARC
  5
8D
100
AcDbEntity
  8
int
 62
256
370
-1
 48
1.0
  6
BYLAYER
100
AcDbCircle
 10
-56.0
 20
39.6085683932026029
 30
0.0
 40
6.0
100
AcDbArc
 50
0.0
 51
79.0150348983586355
  0
ARC
  5
8E
100
AcDbEntity
  8
int
 62
256
370
-1
 48
1.0
  6
BYLAYER
100
AcDbCircle
 10
-249.0724918839033535
 20
49.7633056075261493
 30
0.0
 40
1.5
100
AcDbArc
 50
97.5388536012875278
 51
225.0
  0
ARC
  5
8F
100
AcDbEntity
  8
int
 62
256
370
-1
 48
1.0
  6
BYLAYER
100
AcDbCircle
 10
-244.2507872159011697
 20
44.9416009395239655
 30
0.0
 40
1.5
100
AcDbArc
 50
225.0
 51
315.0
  0
ARC
  5
90
100
AcDbEntity
  8
int
 62
256
370
-1
 48
1.0
  6
BYLAYER
100
AcDbCircle
 10
-238.0765251591085416
 20
51.1158629963165652
 30
0.0
 40
1.5
100
AcDbArc
 50
314.9999999999996021
 51
96.4860156424713011
  0
ARC
  5
91
100
AcDbEntity
  8
int
 62
256
370
-1
 48
1.0
  6
BYLAYER
100
AcDbCircle
 10
-233.2526595103121281
 20
44.6260201461282122
 30
0.0
 40
1.5
100
AcDbArc
 50
134.9999999999996305
 51
270.997569100457838
  0
ARC
  5
92
100
AcDbEntity
  8
int
 62
256
370
-1
 48
1.0
  6
BYLAYER
100
AcDbCircle
 10
-223.8843503148344212
 20
44.691962159409286
 30
0.0
 40
1.5
100
AcDbArc
 50
269.8090090299940016
 51
45.0000000000000071
  0
ARC
  5
93
100
AcDbEntity
  8
int
 62
256
370
-1
 48
1.0
  6
BYLAYER
100
AcDbCircle
 10
-228.5355339059327378
 20
49.343145750507631
 30
0.0
 40
1.5
100
AcDbArc
 50
45.0000000000003837
 51
134.9999999999996305
  0
ARC
  5
94
100
AcDbEntity
  8
int
 62
256
370
-1
 48
1.0
  6
BYLAYER
100
AcDbCircle
 10
-220.7136495212831164
 20
52.8349698648427477
 30
0.0
 40
1.5
100
AcDbArc
 50
94.8017924635694555
 51
224.9999999999996305
  0
ARC
  5
95
100
AcDbEntity
  8
int
 62
256
370
-1
 48
1.0
  6
BYLAYER
100
AcDbCircle
 10
-213.5355339059327378
 20
45.656854249492369
 30
0.0
 40
1.5
100
AcDbArc
 50
225.0000000000003695
 51
315.0
  0
ARC
  5
96
100
AcDbEntity
  8
int
 62
256
370
-1
 48
1.0
  6
BYLAYER
100
AcDbCircle
 10
-205.24927539952904
 20
53.9431127558960952
 30
0.0
 40
1.5
100
AcDbArc
 50
315.0
 51
93.3955739820313227
  0
ARC
  5
97
100
AcDbEntity
  8
int
 62
256
370
-1
 48
1.0
  6
BYLAYER
100
AcDbCircle
 10
-193.5355339059327378
 20
54.343145750507631
 30
0.0
 40
1.5
100
AcDbArc
 50
45.0000000000003837
 51
135.0
  0
ARC
  5
98
100
AcDbEntity
  8
int
 62
256
370
-1
 48
1.0
  6
BYLAYER
100
AcDbCircle
 10
-203.6396781289443823
 20
44.239001527495958
 30
0.0
 40
1.5
100
AcDbArc
 50
135.0
 51
267.6154164729708214
  0
ARC
  5
99
100
AcDbEntity
  8
int
 62
256
370
-1
 48
1.0
  6
BYLAYER
100
AcDbCircle
 10
-182.0584025367751337
 20
42.8660143813499985
 30
0.0
 40
1.5
100
AcDbArc
 50
265.1041525437771611
 51
45.0000000000000071
  0
ARC
  5
9A
100
AcDbEntity
  8
int
 62
256
370
-1
 48
1.0
  6
BYLAYER
100
AcDbCircle
 10
-173.5355339059327378
 20
45.6568542494923975
 30
0.0
 40
1.5
100
AcDbArc
 50
225.0
 51
315.0
  0
ARC
  5
9B
100
AcDbEntity
  8
int
 62
256
370
-1
 48
1.0
  6
BYLAYER
100
AcDbCircle
 10
-182.7358339598606847
 20
54.8571543034203444
 30
0.0
 40
1.5
100
AcDbArc
 50
91.3477874633361324
 51
225.0
  0
ARC
  5
9C
100
AcDbEntity
  8
int
 62
256
370
-1
 48
1.0
  6
BYLAYER
100
AcDbCircle
 10
-164.2223243826725536
 20
54.9700637727525816
 30
0.0
 40
1.5
100
AcDbArc
 50
315.0
 51
89.3510703979594751
  0
ARC
  5
9D
100
AcDbEntity
  8
int
 62
256
370
-1
 48
1.0
  6
BYLAYER
100
AcDbCircle
 10
-153.5355339059327093
 20
54.343145750507631
 30
0.0
 40
1.5
100
AcDbArc
 50
45.0000000000000071
 51
135.0000000000007674
  0
ARC
  5
9E
100
AcDbEntity
  8
int
 62
256
370
-1
 48
1.0
  6
BYLAYER
100
AcDbCircle
 10
-166.5720026626288472
 20
41.306676993811493
 30
0.0
 40
1.5
100
AcDbArc
 50
135.0
 51
263.3992532304031897
  0
ARC
  5
9F
100
AcDbEntity
  8
int
 62
256
370
-1
 48
1.0
  6
BYLAYER
100
AcDbCircle
 10
-135.9989414288054377
 20
36.8065532733803593
 30
0.0
 40
1.5
100
AcDbArc
 50
259.8539867305077564
 51
45.0000000000000071
  0
ARC
  5
A0
100
AcDbEntity
  8
int
 62
256
370
-1
 48
1.0
  6
BYLAYER
100
AcDbCircle
 10
-142.2324143794758697
 20
54.3537347230355294
 30
0.0
 40
1.5
100
AcDbArc
 50
87.333311335473141
 51
225.0
  0
ARC
  5
A1
100
AcDbEntity
  8
int
 62
256
370
-1
 48
1.0
  6
BYLAYER
100
AcDbCircle
 10
-107.4367764673439751
 20
51.7556116880811601
 30
0.0
 40
1.5
100
AcDbArc
 50
315.0
 51
84.1262068627061552
  0
ARC
  5
A2
100
AcDbEntity
  8
int
 62
256
370
-1
 48
1.0
  6
BYLAYER
100
AcDbCircle
 10
-123.5355339059327378
 20
35.6568542494923975
 30
0.0
 40
1.5
100
AcDbArc
 50
225.0
 51
315.0
  0
ARC
  5
A3
100
AcDbEntity
  8
int
 62
256
370
-1
 48
1.0
  6
BYLAYER
100
AcDbCircle
 10
-97.8081364090635361
 20
50.0705432473768042
 30
0.0
 40
1.5
100
AcDbArc
 50
45.0000000000000071
 51
135.0
  0
ARC
  5
A4
100
AcDbEntity
  8
int
 62
256
370
-1
 48
1.0
  6
BYLAYER
100
AcDbCircle
 10
-115.2307270652929105
 20
32.6479525911474298
 30
0.0
 40
1.5
100
AcDbArc
 50
135.0
 51
257.5141501930963273
  0
ARC
  5
A5
100
AcDbEntity
  8
int
 62
256
370
-1
 48
1.0
  6
BYLAYER
100
AcDbCircle
 10
-67.2189725721230502
 20
19.4813794104362614
 30
0.0
 40
1.5
100
AcDbArc
 50
251.8147077148626636
 51
45.0000000000000071
  0
ARC
  5
A6
100
AcDbEntity
  8
int
 62
256
370
-1
 48
1.0
  6
BYLAYER
100
AcDbCircle
 10
-85.4804755888953878
 20
49.0565909261934223
 30
0.0
 40
1.5
100
AcDbArc
 50
82.155338730278757
 51
225.0
  0
ARC
  5
A7
100
AcDbEntity
  8
int
 62
256
370
-1
 48
1.0
  6
BYLAYER
100
AcDbCircle
 10
-51.5
 20
15.0761153372979493
 30
0.0
 40
1.5
100
AcDbArc
 50
225.0
 51
0.0
  0
ENDBLK
  5
A8
100
AcDbEntity
  8
0
100
AcDbBlockEnd
  0
ENDSEC
  0
SECTION
  2
ENTITIES
  0
INSERT
  5
A9
100
AcDbEntity
100
AcDbBlockReference
  8
0
 62
256
370
-1
 48
1.0
  6
BYLAYER
  2
bras1
 10
0.0
 20
0.0
 30
0.0
 41
1.0
 42
-1.0
 43
1.0
 50
180.0
  0
ENDSEC
  0
SECTION
  2
OBJECTS
  0
DICTIONARY
  5
C
100
AcDbDictionary
280
0
281
1
  3
ACAD_GROUP
350
D
  3
ACAD_LAYOUT
350
1A
  3
ACAD_MLINESTYLE
350
17
  3
ACAD_PLOTSETTINGS
350
19
  3
ACAD_PLOTSTYLENAME
350
E
  3
AcDbVariableDictionary
350
AA
  3
QCAD_OBJECTS
350
AB
  0
DICTIONARY
  5
D
100
AcDbDictionary
280
0
281
1
  0
ACDBDICTIONARYWDFLT
  5
E
100
AcDbDictionary
281
1
  3
Normal
350
F
100
AcDbDictionaryWithDefault
340
F
  0
ACDBPLACEHOLDER
  5
F
  0
DICTIONARY
  5
17
100
AcDbDictionary
280
0
281
1
  3
Standard
350
18
  0
MLINESTYLE
  5
18
100
AcDbMlineStyle
  2
STANDARD
 70
0
  3

 62
256
 51
90.0
 52
90.0
 71
2
 49
0.5
 62
256
  6
BYLAYER
 49
-0.5
 62
256
  6
BYLAYER
  0
DICTIONARY
  5
19
100
AcDbDictionary
280
0
281
1
  0
DICTIONARY
  5
1A
100
AcDbDictionary
281
1
  3
Layout1
350
1E
  3
Layout2
350
26
  3
Model
350
22
  0
LAYOUT
  5
1E
100
AcDbPlotSettings
  1

  2
none_device
  4

  6

 40
0.0
 41
0.0
 42
0.0
 43
0.0
 44
0.0
 45
0.0
 46
0.0
 47
0.0
 48
0.0
 49
0.0
140
0.0
141
0.0
142
1.0
143
1.0
 70
688
 72
0
 73
0
 74
5
  7

 75
16
147
1.0
148
0.0
149
0.0
100
AcDbLayout
  1
Layout1
 70
1
 71
1
 10
0.0
 20
0.0
 11
420.0
 21
297.0
 12
0.0
 22
0.0
 32
0.0
 14
100000000000000000000.0
 24
100000000000000000000.0
 34
100000000000000000000.0
 15
-100000000000000000000.0
 25
-100000000000000000000.0
 35
-100000000000000000000.0
146
0.0
 13
0.0
 23
0.0
 33
0.0
 16
1.0
 26
0.0
 36
0.0
 17
0.0
 27
1.0
 37
0.0
 76
0
330
1B
  0
LAYOUT
  5
22
100
AcDbPlotSettings
  1

  2
none_device
  4

  6

 40
0.0
 41
0.0
 42
0.0
 43
0.0
 44
0.0
 45
0.0
 46
0.0
 47
0.0
 48
0.0
 49
0.0
140
0.0
141
0.0
142
1.0
143
1.0
 70
1712
 72
0
 73
0
 74
0
  7

 75
0
147
1.0
148
0.0
149
0.0
100
AcDbLayout
  1
Model
 70
1
 71
0
 10
0.0
 20
0.0
 11
12.0
 21
9.0
 12
0.0
 22
0.0
 32
0.0
 14
0.0
 24
0.0
 34
0.0
 15
0.0
 25
0.0
 35
0.0
146
0.0
 13
0.0
 23
0.0
 33
0.0
 16
1.0
 26
0.0
 36
0.0
 17
0.0
 27
1.0
 37
0.0
 76
0
330
1F
  0
LAYOUT
  5
26
100
AcDbPlotSettings
  1

  2
none_device
  4

  6

 40
0.0
 41
0.0
 42
0.0
 43
0.0
 44
0.0
 45
0.0
 46
0.0
 47
0.0
 48
0.0
 49
0.0
140
0.0
141
0.0
142
1.0
143
1.0
 70
688
 72
0
 73
0
 74
5
  7

 75
16
147
1.0
148
0.0
149
0.0
100
AcDbLayout
  1
Layout2
 70
1
 71
2
 10
0.0
 20
0.0
 11
12.0
 21
9.0
 12
0.0
 22
0.0
 32
0.0
 14
0.0
 24
0.0
 34
0.0
 15
0.0
 25
0.0
 35
0.0
146
0.0
 13
0.0
 23
0.0
 33
0.0
 16
1.0
 26
0.0
 36
0.0
 17
0.0
 27
1.0
 37
0.0
 76
0
330
23
  0
DICTIONARY
  5
AA
100
AcDbDictionary
281
1
  3
DIMASSOC
350
AD
  3
HIDETEXT
350
AC
  0
DICTIONARYVAR
  5
AC
100
DictionaryVariables
280
0
  1
2
  0
DICTIONARYVAR
  5
AD
100
DictionaryVariables
280
0
  1
1
  0
DICTIONARY
  5
AB
100
AcDbDictionary
281
1
  3
ColorSettings/BackgroundColor
350
AE
  3
ColorSettings/ColorMode
350
AF
  3
Grid/DisplayGrid00
350
B0
  3
Grid/DisplayGrid01
350
B1
  3
Grid/DisplayGrid02
350
B2
  3
Grid/DisplayGrid03
350
B3
  3
Grid/GridSpacingX00
350
B4
  3
Grid/GridSpacingX01
350
B5
  3
Grid/GridSpacingX02
350
B6
  3
Grid/GridSpacingX03
350
B7
  3
Grid/GridSpacingY00
350
B8
  3
Grid/GridSpacingY01
350
B9
  3
Grid/GridSpacingY02
350
BA
  3
Grid/GridSpacingY03
350
BB
  3
Grid/IsometricGrid00
350
BC
  3
Grid/IsometricGrid01
350
BD
  3
Grid/IsometricGrid02
350
BE
  3
Grid/IsometricGrid03
350
BF
  3
Grid/IsometricProjection00
350
C0
  3
Grid/IsometricProjection01
350
C1
  3
Grid/IsometricProjection02
350
C2
  3
Grid/IsometricProjection03
350
C3
  3
Grid/MetaGridSpacingX00
350
C4
  3
Grid/MetaGridSpacingX01
350
C5
  3
Grid/MetaGridSpacingX02
350
C6
  3
Grid/MetaGridSpacingX03
350
C7
  3
Grid/MetaGridSpacingY00
350
C8
  3
Grid/MetaGridSpacingY01
350
C9
  3
Grid/MetaGridSpacingY02
350
CA
  3
Grid/MetaGridSpacingY03
350
CB
  3
MultiPageSettings/Columns
350
CC
  3
MultiPageSettings/GlueMarginsBottom
350
CD
  3
MultiPageSettings/GlueMarginsLeft
350
CE
  3
MultiPageSettings/GlueMarginsRight
350
CF
  3
MultiPageSettings/GlueMarginsTop
350
D0
  3
MultiPageSettings/PrintCropMarks
350
D1
  3
MultiPageSettings/Rows
350
D2
  3
PageSettings/OffsetX
350
D3
  3
PageSettings/OffsetY
350
D4
  3
PageSettings/PageOrientation
350
D5
  3
PageSettings/PaperHeight
350
D6
  3
PageSettings/PaperWidth
350
D7
  3
PageSettings/Scale
350
D8
  3
PageSettings/ShowPaperBorders
350
D9
  3
QCADVersion
350
DA
  3
UnitSettings/PaperUnit
350
DB
  3
ViewportCenter
350
DC
  3
ViewportHeight
350
DD
  3
ViewportWidth
350
DE
  0
XRECORD
  5
AE
330
AB
100
AcDbXrecord
280
1
1000
Blanc
  0
XRECORD
  5
AF
330
AB
100
AcDbXrecord
280
1
1000
FullColor
  0
XRECORD
  5
B0
330
AB
100
AcDbXrecord
280
1
290
1
  0
XRECORD
  5
B1
330
AB
100
AcDbXrecord
280
1
290
1
  0
XRECORD
  5
B2
330
AB
100
AcDbXrecord
280
1
290
1
  0
XRECORD
  5
B3
330
AB
100
AcDbXrecord
280
1
290
1
  0
XRECORD
  5
B4
330
AB
100
AcDbXrecord
280
1
1000
auto
  0
XRECORD
  5
B5
330
AB
100
AcDbXrecord
280
1
1000
auto
  0
XRECORD
  5
B6
330
AB
100
AcDbXrecord
280
1
1000
auto
  0
XRECORD
  5
B7
330
AB
100
AcDbXrecord
280
1
1000
auto
  0
XRECORD
  5
B8
330
AB
100
AcDbXrecord
280
1
1000
auto
  0
XRECORD
  5
B9
330
AB
100
AcDbXrecord
280
1
1000
auto
  0
XRECORD
  5
BA
330
AB
100
AcDbXrecord
280
1
1000
auto
  0
XRECORD
  5
BB
330
AB
100
AcDbXrecord
280
1
1000
auto
  0
XRECORD
  5
BC
330
AB
100
AcDbXrecord
280
1
290
0
  0
XRECORD
  5
BD
330
AB
100
AcDbXrecord
280
1
290
0
  0
XRECORD
  5
BE
330
AB
100
AcDbXrecord
280
1
290
0
  0
XRECORD
  5
BF
330
AB
100
AcDbXrecord
280
1
290
0
  0
XRECORD
  5
C0
330
AB
100
AcDbXrecord
280
1
 90
0
  0
XRECORD
  5
C1
330
AB
100
AcDbXrecord
280
1
 90
0
  0
XRECORD
  5
C2
330
AB
100
AcDbXrecord
280
1
 90
0
  0
XRECORD
  5
C3
330
AB
100
AcDbXrecord
280
1
 90
0
  0
XRECORD
  5
C4
330
AB
100
AcDbXrecord
280
1
1000
auto
  0
XRECORD
  5
C5
330
AB
100
AcDbXrecord
280
1
1000
auto
  0
XRECORD
  5
C6
330
AB
100
AcDbXrecord
280
1
1000
auto
  0
XRECORD
  5
C7
330
AB
100
AcDbXrecord
280
1
1000
auto
  0
XRECORD
  5
C8
330
AB
100
AcDbXrecord
280
1
1000
auto
  0
XRECORD
  5
C9
330
AB
100
AcDbXrecord
280
1
1000
auto
  0
XRECORD
  5
CA
330
AB
100
AcDbXrecord
280
1
1000
auto
  0
XRECORD
  5
CB
330
AB
100
AcDbXrecord
280
1
1000
auto
  0
XRECORD
  5
CC
330
AB
100
AcDbXrecord
280
1
 90
1
  0
XRECORD
  5
CD
330
AB
100
AcDbXrecord
280
1
 40
10.0
  0
XRECORD
  5
CE
330
AB
100
AcDbXrecord
280
1
 40
10.0
  0
XRECORD
  5
CF
330
AB
100
AcDbXrecord
280
1
 40
10.0
  0
XRECORD
  5
D0
330
AB
100
AcDbXrecord
280
1
 40
10.0
  0
XRECORD
  5
D1
330
AB
100
AcDbXrecord
280
1
290
0
  0
XRECORD
  5
D2
330
AB
100
AcDbXrecord
280
1
 90
1
  0
XRECORD
  5
D3
330
AB
100
AcDbXrecord
280
1
 40
0.0
  0
XRECORD
  5
D4
330
AB
100
AcDbXrecord
280
1
 40
0.0
  0
XRECORD
  5
D5
330
AB
100
AcDbXrecord
280
1
1000
Portrait
  0
XRECORD
  5
D6
330
AB
100
AcDbXrecord
280
1
 40
297.0
  0
XRECORD
  5
D7
330
AB
100
AcDbXrecord
280
1
 40
210.0
  0
XRECORD
  5
D8
330
AB
100
AcDbXrecord
280
1
1000
1:1
  0
XRECORD
  5
D9
330
AB
100
AcDbXrecord
280
1
290
1
  0
XRECORD
  5
DA
330
AB
100
AcDbXrecord
280
1
1000
3.15.5
  0
XRECORD
  5
DB
330
AB
100
AcDbXrecord
280
1
 90
4
  0
XRECORD
  5
DD
330
AB
100
AcDbXrecord
280
1
 40
279.7840375586854407
  0
XRECORD
  5
DE
330
AB
100
AcDbXrecord
280
1
 40
434.4835680751174323
  0
ENDSEC
  0
EOF
